G04 MADE WITH FRITZING*
G04 WWW.FRITZING.ORG*
G04 DOUBLE SIDED*
G04 HOLES PLATED*
G04 CONTOUR ON CENTER OF CONTOUR VECTOR*
%ASAXBY*%
%FSLAX23Y23*%
%MOIN*%
%OFA0B0*%
%SFA1.0B1.0*%
%ADD10C,0.010000*%
%ADD11C,0.005000*%
%ADD12R,0.001000X0.001000*%
%LNSILK1*%
G90*
G70*
G54D10*
X1153Y224D02*
X1353Y224D01*
D02*
X1353Y224D02*
X1353Y158D01*
D02*
X1353Y158D02*
X1153Y158D01*
D02*
X1153Y158D02*
X1153Y224D01*
D02*
X1197Y841D02*
X1097Y841D01*
D02*
X1097Y841D02*
X1097Y741D01*
D02*
X1097Y741D02*
X1197Y741D01*
D02*
X1197Y741D02*
X1197Y841D01*
G54D11*
D02*
X1162Y841D02*
X1197Y806D01*
G54D10*
D02*
X1697Y243D02*
X1597Y243D01*
D02*
X1597Y243D02*
X1597Y143D01*
D02*
X1597Y143D02*
X1697Y143D01*
D02*
X1697Y143D02*
X1697Y243D01*
G54D11*
D02*
X1662Y243D02*
X1697Y208D01*
G54D10*
D02*
X1782Y919D02*
X1782Y619D01*
D02*
X1782Y619D02*
X1882Y619D01*
D02*
X1882Y619D02*
X1882Y919D01*
D02*
X1882Y919D02*
X1782Y919D01*
G54D11*
D02*
X1782Y884D02*
X1817Y919D01*
G54D10*
D02*
X895Y240D02*
X595Y240D01*
D02*
X595Y240D02*
X595Y140D01*
D02*
X595Y140D02*
X895Y140D01*
D02*
X895Y140D02*
X895Y240D01*
G54D11*
D02*
X860Y240D02*
X895Y205D01*
G54D10*
D02*
X803Y838D02*
X603Y838D01*
D02*
X603Y838D02*
X603Y738D01*
D02*
X603Y738D02*
X803Y738D01*
D02*
X803Y738D02*
X803Y838D01*
G54D11*
D02*
X768Y838D02*
X803Y803D01*
G36*
X1106Y557D02*
X1106Y543D01*
X1179Y543D01*
X1179Y543D01*
X1181Y543D01*
X1181Y543D01*
X1182Y543D01*
X1182Y543D01*
X1184Y543D01*
X1184Y543D01*
X1184Y543D01*
X1184Y542D01*
X1185Y542D01*
X1185Y542D01*
X1186Y542D01*
X1186Y542D01*
X1187Y542D01*
X1187Y542D01*
X1188Y542D01*
X1188Y542D01*
X1188Y542D01*
X1188Y541D01*
X1189Y541D01*
X1189Y541D01*
X1190Y541D01*
X1190Y541D01*
X1190Y541D01*
X1190Y541D01*
X1191Y541D01*
X1191Y541D01*
X1191Y541D01*
X1191Y541D01*
X1192Y541D01*
X1192Y540D01*
X1192Y540D01*
X1192Y540D01*
X1193Y540D01*
X1193Y540D01*
X1193Y540D01*
X1193Y540D01*
X1194Y540D01*
X1194Y540D01*
X1194Y540D01*
X1194Y539D01*
X1195Y539D01*
X1195Y539D01*
X1195Y539D01*
X1195Y539D01*
X1196Y539D01*
X1196Y539D01*
X1196Y539D01*
X1196Y539D01*
X1196Y539D01*
X1196Y538D01*
X1197Y538D01*
X1197Y538D01*
X1197Y538D01*
X1197Y538D01*
X1198Y538D01*
X1198Y538D01*
X1198Y538D01*
X1198Y538D01*
X1198Y538D01*
X1198Y538D01*
X1199Y538D01*
X1199Y537D01*
X1199Y537D01*
X1199Y537D01*
X1200Y537D01*
X1200Y537D01*
X1200Y537D01*
X1200Y537D01*
X1200Y537D01*
X1200Y537D01*
X1201Y537D01*
X1201Y536D01*
X1201Y536D01*
X1201Y536D01*
X1201Y536D01*
X1201Y536D01*
X1201Y536D01*
X1201Y536D01*
X1202Y536D01*
X1202Y536D01*
X1202Y536D01*
X1202Y535D01*
X1202Y535D01*
X1202Y535D01*
X1203Y535D01*
X1203Y535D01*
X1203Y535D01*
X1203Y535D01*
X1203Y535D01*
X1203Y535D01*
X1204Y535D01*
X1204Y535D01*
X1204Y535D01*
X1204Y534D01*
X1204Y534D01*
X1204Y534D01*
X1205Y534D01*
X1205Y534D01*
X1205Y534D01*
X1205Y534D01*
X1205Y534D01*
X1205Y534D01*
X1205Y534D01*
X1205Y533D01*
X1206Y533D01*
X1206Y533D01*
X1206Y533D01*
X1206Y533D01*
X1206Y533D01*
X1206Y533D01*
X1206Y533D01*
X1206Y533D01*
X1207Y533D01*
X1207Y532D01*
X1207Y532D01*
X1207Y532D01*
X1207Y532D01*
X1207Y532D01*
X1207Y532D01*
X1207Y532D01*
X1208Y532D01*
X1208Y532D01*
X1208Y532D01*
X1208Y531D01*
X1208Y531D01*
X1208Y531D01*
X1208Y531D01*
X1208Y531D01*
X1208Y531D01*
X1208Y531D01*
X1209Y531D01*
X1209Y531D01*
X1209Y531D01*
X1209Y531D01*
X1209Y531D01*
X1209Y530D01*
X1209Y530D01*
X1209Y530D01*
X1209Y530D01*
X1209Y530D01*
X1210Y530D01*
X1210Y530D01*
X1210Y530D01*
X1210Y530D01*
X1210Y530D01*
X1210Y529D01*
X1210Y529D01*
X1210Y529D01*
X1211Y529D01*
X1211Y529D01*
X1211Y529D01*
X1211Y529D01*
X1211Y529D01*
X1211Y529D01*
X1211Y529D01*
X1211Y528D01*
X1211Y528D01*
X1211Y528D01*
X1211Y528D01*
X1211Y528D01*
X1212Y528D01*
X1212Y528D01*
X1212Y528D01*
X1212Y528D01*
X1212Y528D01*
X1212Y528D01*
X1212Y528D01*
X1212Y527D01*
X1212Y527D01*
X1212Y527D01*
X1213Y527D01*
X1213Y527D01*
X1213Y527D01*
X1213Y527D01*
X1213Y527D01*
X1213Y526D01*
X1213Y526D01*
X1213Y526D01*
X1213Y526D01*
X1213Y526D01*
X1214Y526D01*
X1214Y526D01*
X1214Y526D01*
X1214Y525D01*
X1214Y525D01*
X1214Y525D01*
X1214Y525D01*
X1214Y525D01*
X1214Y525D01*
X1214Y525D01*
X1215Y525D01*
X1215Y524D01*
X1215Y524D01*
X1215Y524D01*
X1215Y524D01*
X1215Y524D01*
X1215Y524D01*
X1215Y524D01*
X1215Y524D01*
X1215Y524D01*
X1215Y524D01*
X1215Y523D01*
X1216Y523D01*
X1216Y523D01*
X1216Y523D01*
X1216Y523D01*
X1216Y523D01*
X1216Y522D01*
X1216Y522D01*
X1216Y522D01*
X1216Y522D01*
X1216Y522D01*
X1217Y522D01*
X1217Y521D01*
X1217Y521D01*
X1217Y521D01*
X1217Y521D01*
X1217Y521D01*
X1217Y521D01*
X1217Y521D01*
X1217Y521D01*
X1217Y520D01*
X1218Y520D01*
X1218Y520D01*
X1218Y520D01*
X1218Y520D01*
X1218Y520D01*
X1218Y519D01*
X1218Y519D01*
X1218Y519D01*
X1218Y519D01*
X1218Y519D01*
X1218Y519D01*
X1218Y518D01*
X1219Y518D01*
X1219Y518D01*
X1219Y518D01*
X1219Y518D01*
X1219Y518D01*
X1219Y517D01*
X1219Y517D01*
X1219Y517D01*
X1219Y517D01*
X1219Y516D01*
X1220Y516D01*
X1220Y516D01*
X1220Y516D01*
X1220Y515D01*
X1220Y515D01*
X1220Y515D01*
X1220Y515D01*
X1220Y514D01*
X1220Y514D01*
X1220Y514D01*
X1221Y514D01*
X1221Y514D01*
X1221Y514D01*
X1221Y513D01*
X1221Y513D01*
X1221Y512D01*
X1221Y512D01*
X1221Y512D01*
X1221Y512D01*
X1221Y511D01*
X1222Y511D01*
X1222Y511D01*
X1222Y511D01*
X1222Y510D01*
X1222Y510D01*
X1222Y509D01*
X1222Y509D01*
X1222Y508D01*
X1222Y508D01*
X1222Y508D01*
X1222Y508D01*
X1222Y507D01*
X1223Y507D01*
X1223Y506D01*
X1223Y506D01*
X1223Y505D01*
X1223Y505D01*
X1223Y503D01*
X1223Y503D01*
X1223Y502D01*
X1223Y502D01*
X1223Y499D01*
X1224Y499D01*
X1224Y494D01*
X1223Y494D01*
X1223Y491D01*
X1223Y491D01*
X1223Y489D01*
X1223Y489D01*
X1223Y488D01*
X1223Y488D01*
X1223Y487D01*
X1223Y487D01*
X1223Y485D01*
X1222Y485D01*
X1222Y484D01*
X1222Y484D01*
X1222Y484D01*
X1222Y484D01*
X1222Y483D01*
X1222Y483D01*
X1222Y482D01*
X1222Y482D01*
X1222Y481D01*
X1222Y481D01*
X1222Y481D01*
X1221Y481D01*
X1221Y480D01*
X1221Y480D01*
X1221Y480D01*
X1221Y480D01*
X1221Y479D01*
X1221Y479D01*
X1221Y478D01*
X1221Y478D01*
X1221Y478D01*
X1220Y478D01*
X1220Y477D01*
X1220Y477D01*
X1220Y477D01*
X1220Y477D01*
X1220Y477D01*
X1220Y477D01*
X1220Y476D01*
X1220Y476D01*
X1220Y476D01*
X1219Y476D01*
X1219Y475D01*
X1219Y475D01*
X1219Y475D01*
X1219Y475D01*
X1219Y474D01*
X1219Y474D01*
X1219Y474D01*
X1219Y474D01*
X1219Y473D01*
X1218Y473D01*
X1218Y473D01*
X1218Y473D01*
X1218Y473D01*
X1218Y473D01*
X1218Y472D01*
X1218Y472D01*
X1218Y472D01*
X1218Y472D01*
X1218Y472D01*
X1218Y472D01*
X1218Y471D01*
X1217Y471D01*
X1217Y471D01*
X1217Y471D01*
X1217Y471D01*
X1217Y471D01*
X1217Y470D01*
X1217Y470D01*
X1217Y470D01*
X1217Y470D01*
X1217Y470D01*
X1216Y470D01*
X1216Y469D01*
X1216Y469D01*
X1216Y469D01*
X1216Y469D01*
X1216Y469D01*
X1216Y469D01*
X1216Y468D01*
X1216Y468D01*
X1216Y468D01*
X1215Y468D01*
X1215Y468D01*
X1215Y468D01*
X1215Y468D01*
X1215Y468D01*
X1215Y467D01*
X1215Y467D01*
X1215Y467D01*
X1215Y467D01*
X1215Y467D01*
X1215Y467D01*
X1215Y466D01*
X1214Y466D01*
X1214Y466D01*
X1214Y466D01*
X1214Y466D01*
X1214Y466D01*
X1214Y466D01*
X1214Y466D01*
X1214Y465D01*
X1214Y465D01*
X1214Y465D01*
X1213Y465D01*
X1213Y465D01*
X1213Y465D01*
X1213Y465D01*
X1213Y465D01*
X1213Y464D01*
X1213Y464D01*
X1213Y464D01*
X1213Y464D01*
X1213Y464D01*
X1212Y464D01*
X1212Y464D01*
X1212Y464D01*
X1212Y463D01*
X1212Y463D01*
X1212Y463D01*
X1212Y463D01*
X1212Y463D01*
X1212Y463D01*
X1212Y463D01*
X1211Y463D01*
X1211Y463D01*
X1211Y463D01*
X1211Y462D01*
X1211Y462D01*
X1211Y462D01*
X1211Y462D01*
X1211Y462D01*
X1211Y462D01*
X1211Y462D01*
X1211Y462D01*
X1211Y462D01*
X1210Y462D01*
X1210Y461D01*
X1210Y461D01*
X1210Y461D01*
X1210Y461D01*
X1210Y461D01*
X1210Y461D01*
X1210Y461D01*
X1210Y461D01*
X1210Y461D01*
X1209Y461D01*
X1209Y460D01*
X1209Y460D01*
X1209Y460D01*
X1209Y460D01*
X1209Y460D01*
X1209Y460D01*
X1209Y460D01*
X1209Y460D01*
X1209Y460D01*
X1208Y460D01*
X1208Y460D01*
X1208Y460D01*
X1208Y459D01*
X1208Y459D01*
X1208Y459D01*
X1208Y459D01*
X1208Y459D01*
X1208Y459D01*
X1208Y459D01*
X1208Y459D01*
X1208Y459D01*
X1207Y459D01*
X1207Y458D01*
X1207Y458D01*
X1207Y458D01*
X1207Y458D01*
X1207Y458D01*
X1207Y458D01*
X1207Y458D01*
X1206Y458D01*
X1206Y458D01*
X1206Y458D01*
X1206Y457D01*
X1206Y457D01*
X1206Y457D01*
X1206Y457D01*
X1206Y457D01*
X1206Y457D01*
X1206Y457D01*
X1205Y457D01*
X1205Y457D01*
X1205Y457D01*
X1205Y456D01*
X1205Y456D01*
X1205Y456D01*
X1205Y456D01*
X1205Y456D01*
X1204Y456D01*
X1204Y456D01*
X1204Y456D01*
X1204Y456D01*
X1204Y456D01*
X1204Y456D01*
X1204Y456D01*
X1204Y455D01*
X1203Y455D01*
X1203Y455D01*
X1203Y455D01*
X1203Y455D01*
X1203Y455D01*
X1203Y455D01*
X1202Y455D01*
X1202Y455D01*
X1202Y455D01*
X1202Y454D01*
X1202Y454D01*
X1202Y454D01*
X1227Y454D01*
X1227Y455D01*
X1227Y455D01*
X1227Y456D01*
X1239Y456D01*
X1239Y459D01*
X1232Y459D01*
X1232Y468D01*
X1232Y468D01*
X1232Y490D01*
X1239Y490D01*
X1239Y557D01*
X1106Y557D01*
G37*
D02*
G36*
X1106Y543D02*
X1106Y490D01*
X1114Y490D01*
X1114Y459D01*
X1106Y459D01*
X1106Y456D01*
X1118Y456D01*
X1118Y454D01*
X1122Y454D01*
X1122Y543D01*
X1106Y543D01*
G37*
D02*
G36*
X1269Y557D02*
X1269Y543D01*
X1309Y543D01*
X1309Y454D01*
X1389Y454D01*
X1389Y456D01*
X1401Y456D01*
X1401Y459D01*
X1394Y459D01*
X1394Y463D01*
X1394Y463D01*
X1394Y490D01*
X1401Y490D01*
X1401Y557D01*
X1269Y557D01*
G37*
D02*
G36*
X1269Y543D02*
X1269Y490D01*
X1276Y490D01*
X1276Y459D01*
X1269Y459D01*
X1269Y456D01*
X1280Y456D01*
X1280Y455D01*
X1281Y455D01*
X1281Y454D01*
X1288Y454D01*
X1288Y543D01*
X1269Y543D01*
G37*
D02*
G36*
X1431Y557D02*
X1431Y540D01*
X1506Y540D01*
X1506Y454D01*
X1552Y454D01*
X1552Y456D01*
X1563Y456D01*
X1563Y459D01*
X1556Y459D01*
X1556Y490D01*
X1563Y490D01*
X1563Y557D01*
X1431Y557D01*
G37*
D02*
G36*
X1431Y540D02*
X1431Y490D01*
X1438Y490D01*
X1438Y459D01*
X1431Y459D01*
X1431Y456D01*
X1443Y456D01*
X1443Y454D01*
X1486Y454D01*
X1486Y540D01*
X1431Y540D01*
G37*
D02*
G36*
X1593Y557D02*
X1593Y545D01*
X1710Y545D01*
X1710Y526D01*
X1670Y526D01*
X1670Y454D01*
X1714Y454D01*
X1714Y456D01*
X1726Y456D01*
X1726Y459D01*
X1718Y459D01*
X1718Y490D01*
X1726Y490D01*
X1726Y557D01*
X1593Y557D01*
G37*
D02*
G36*
X1593Y545D02*
X1593Y490D01*
X1600Y490D01*
X1600Y469D01*
X1600Y469D01*
X1600Y459D01*
X1593Y459D01*
X1593Y456D01*
X1605Y456D01*
X1605Y455D01*
X1605Y455D01*
X1605Y454D01*
X1650Y454D01*
X1650Y526D01*
X1609Y526D01*
X1609Y545D01*
X1593Y545D01*
G37*
D02*
G36*
X1143Y525D02*
X1143Y466D01*
X1177Y466D01*
X1177Y466D01*
X1179Y466D01*
X1179Y466D01*
X1180Y466D01*
X1180Y466D01*
X1181Y466D01*
X1181Y467D01*
X1181Y467D01*
X1181Y467D01*
X1182Y467D01*
X1182Y467D01*
X1183Y467D01*
X1183Y467D01*
X1184Y467D01*
X1184Y467D01*
X1184Y467D01*
X1184Y468D01*
X1185Y468D01*
X1185Y468D01*
X1185Y468D01*
X1185Y468D01*
X1186Y468D01*
X1186Y468D01*
X1186Y468D01*
X1186Y468D01*
X1187Y468D01*
X1187Y469D01*
X1187Y469D01*
X1187Y469D01*
X1188Y469D01*
X1188Y469D01*
X1188Y469D01*
X1188Y469D01*
X1188Y469D01*
X1188Y469D01*
X1189Y469D01*
X1189Y470D01*
X1189Y470D01*
X1189Y470D01*
X1189Y470D01*
X1189Y470D01*
X1190Y470D01*
X1190Y470D01*
X1190Y470D01*
X1190Y470D01*
X1190Y470D01*
X1190Y470D01*
X1191Y470D01*
X1191Y471D01*
X1191Y471D01*
X1191Y471D01*
X1191Y471D01*
X1191Y471D01*
X1191Y471D01*
X1191Y471D01*
X1192Y471D01*
X1192Y471D01*
X1192Y471D01*
X1192Y472D01*
X1192Y472D01*
X1192Y472D01*
X1192Y472D01*
X1192Y472D01*
X1193Y472D01*
X1193Y472D01*
X1193Y472D01*
X1193Y472D01*
X1193Y472D01*
X1193Y473D01*
X1194Y473D01*
X1194Y473D01*
X1194Y473D01*
X1194Y473D01*
X1194Y473D01*
X1194Y473D01*
X1194Y473D01*
X1194Y473D01*
X1194Y473D01*
X1194Y473D01*
X1194Y473D01*
X1194Y474D01*
X1195Y474D01*
X1195Y474D01*
X1195Y474D01*
X1195Y474D01*
X1195Y474D01*
X1195Y474D01*
X1195Y474D01*
X1195Y474D01*
X1195Y474D01*
X1195Y475D01*
X1196Y475D01*
X1196Y475D01*
X1196Y475D01*
X1196Y475D01*
X1196Y475D01*
X1196Y475D01*
X1196Y475D01*
X1196Y475D01*
X1196Y475D01*
X1196Y476D01*
X1197Y476D01*
X1197Y476D01*
X1197Y476D01*
X1197Y476D01*
X1197Y476D01*
X1197Y476D01*
X1197Y476D01*
X1197Y477D01*
X1197Y477D01*
X1197Y477D01*
X1198Y477D01*
X1198Y477D01*
X1198Y477D01*
X1198Y477D01*
X1198Y477D01*
X1198Y477D01*
X1198Y477D01*
X1198Y478D01*
X1198Y478D01*
X1198Y478D01*
X1198Y478D01*
X1198Y478D01*
X1199Y478D01*
X1199Y479D01*
X1199Y479D01*
X1199Y479D01*
X1199Y479D01*
X1199Y479D01*
X1199Y479D01*
X1199Y480D01*
X1199Y480D01*
X1199Y480D01*
X1200Y480D01*
X1200Y480D01*
X1200Y480D01*
X1200Y481D01*
X1200Y481D01*
X1200Y481D01*
X1200Y481D01*
X1200Y481D01*
X1200Y481D01*
X1200Y482D01*
X1201Y482D01*
X1201Y482D01*
X1201Y482D01*
X1201Y483D01*
X1201Y483D01*
X1201Y483D01*
X1201Y483D01*
X1201Y484D01*
X1201Y484D01*
X1201Y484D01*
X1201Y484D01*
X1201Y485D01*
X1202Y485D01*
X1202Y486D01*
X1202Y486D01*
X1202Y486D01*
X1202Y486D01*
X1202Y487D01*
X1202Y487D01*
X1202Y488D01*
X1202Y488D01*
X1202Y489D01*
X1203Y489D01*
X1203Y490D01*
X1203Y490D01*
X1203Y492D01*
X1203Y492D01*
X1203Y498D01*
X1203Y498D01*
X1203Y500D01*
X1203Y500D01*
X1203Y501D01*
X1202Y501D01*
X1202Y502D01*
X1202Y502D01*
X1202Y503D01*
X1202Y503D01*
X1202Y504D01*
X1202Y504D01*
X1202Y505D01*
X1202Y505D01*
X1202Y505D01*
X1201Y505D01*
X1201Y506D01*
X1201Y506D01*
X1201Y507D01*
X1201Y507D01*
X1201Y507D01*
X1201Y507D01*
X1201Y507D01*
X1201Y507D01*
X1201Y508D01*
X1201Y508D01*
X1201Y508D01*
X1200Y508D01*
X1200Y509D01*
X1200Y509D01*
X1200Y509D01*
X1200Y509D01*
X1200Y510D01*
X1200Y510D01*
X1200Y510D01*
X1200Y510D01*
X1200Y511D01*
X1199Y511D01*
X1199Y511D01*
X1199Y511D01*
X1199Y511D01*
X1199Y511D01*
X1199Y511D01*
X1199Y511D01*
X1199Y512D01*
X1199Y512D01*
X1199Y512D01*
X1198Y512D01*
X1198Y512D01*
X1198Y512D01*
X1198Y513D01*
X1198Y513D01*
X1198Y513D01*
X1198Y513D01*
X1198Y513D01*
X1198Y513D01*
X1198Y514D01*
X1198Y514D01*
X1198Y514D01*
X1197Y514D01*
X1197Y514D01*
X1197Y514D01*
X1197Y514D01*
X1197Y514D01*
X1197Y514D01*
X1197Y514D01*
X1197Y515D01*
X1197Y515D01*
X1197Y515D01*
X1196Y515D01*
X1196Y515D01*
X1196Y515D01*
X1196Y515D01*
X1196Y515D01*
X1196Y516D01*
X1196Y516D01*
X1196Y516D01*
X1196Y516D01*
X1196Y516D01*
X1195Y516D01*
X1195Y516D01*
X1195Y516D01*
X1195Y516D01*
X1195Y516D01*
X1195Y517D01*
X1195Y517D01*
X1195Y517D01*
X1195Y517D01*
X1195Y517D01*
X1194Y517D01*
X1194Y517D01*
X1194Y517D01*
X1194Y517D01*
X1194Y517D01*
X1194Y518D01*
X1194Y518D01*
X1194Y518D01*
X1194Y518D01*
X1194Y518D01*
X1193Y518D01*
X1193Y518D01*
X1193Y518D01*
X1193Y518D01*
X1193Y518D01*
X1193Y518D01*
X1193Y518D01*
X1193Y519D01*
X1192Y519D01*
X1192Y519D01*
X1192Y519D01*
X1192Y519D01*
X1192Y519D01*
X1192Y519D01*
X1192Y519D01*
X1192Y519D01*
X1191Y519D01*
X1191Y520D01*
X1191Y520D01*
X1191Y520D01*
X1191Y520D01*
X1191Y520D01*
X1191Y520D01*
X1191Y520D01*
X1190Y520D01*
X1190Y520D01*
X1190Y520D01*
X1190Y521D01*
X1190Y521D01*
X1190Y521D01*
X1189Y521D01*
X1189Y521D01*
X1189Y521D01*
X1189Y521D01*
X1189Y521D01*
X1189Y521D01*
X1188Y521D01*
X1188Y521D01*
X1188Y521D01*
X1188Y522D01*
X1188Y522D01*
X1188Y522D01*
X1187Y522D01*
X1187Y522D01*
X1187Y522D01*
X1187Y522D01*
X1186Y522D01*
X1186Y522D01*
X1186Y522D01*
X1186Y523D01*
X1186Y523D01*
X1186Y523D01*
X1185Y523D01*
X1185Y523D01*
X1185Y523D01*
X1185Y523D01*
X1184Y523D01*
X1184Y523D01*
X1184Y523D01*
X1184Y524D01*
X1183Y524D01*
X1183Y524D01*
X1182Y524D01*
X1182Y524D01*
X1182Y524D01*
X1182Y524D01*
X1181Y524D01*
X1181Y524D01*
X1180Y524D01*
X1180Y524D01*
X1179Y524D01*
X1179Y525D01*
X1178Y525D01*
X1178Y525D01*
X1177Y525D01*
X1177Y525D01*
X1143Y525D01*
G37*
D02*
G36*
X944Y557D02*
X944Y541D01*
X1019Y541D01*
X1019Y541D01*
X1023Y541D01*
X1023Y541D01*
X1025Y541D01*
X1025Y541D01*
X1027Y541D01*
X1027Y541D01*
X1028Y541D01*
X1028Y540D01*
X1030Y540D01*
X1030Y540D01*
X1031Y540D01*
X1031Y540D01*
X1032Y540D01*
X1032Y540D01*
X1033Y540D01*
X1033Y540D01*
X1034Y540D01*
X1034Y539D01*
X1035Y539D01*
X1035Y539D01*
X1036Y539D01*
X1036Y539D01*
X1037Y539D01*
X1037Y539D01*
X1037Y539D01*
X1037Y539D01*
X1038Y539D01*
X1038Y538D01*
X1039Y538D01*
X1039Y538D01*
X1040Y538D01*
X1040Y538D01*
X1040Y538D01*
X1040Y538D01*
X1041Y538D01*
X1041Y538D01*
X1041Y538D01*
X1041Y538D01*
X1042Y538D01*
X1042Y537D01*
X1043Y537D01*
X1043Y537D01*
X1043Y537D01*
X1043Y537D01*
X1044Y537D01*
X1044Y537D01*
X1044Y537D01*
X1044Y537D01*
X1045Y537D01*
X1045Y536D01*
X1045Y536D01*
X1045Y536D01*
X1046Y536D01*
X1046Y536D01*
X1046Y536D01*
X1046Y536D01*
X1047Y536D01*
X1047Y536D01*
X1047Y536D01*
X1047Y535D01*
X1048Y535D01*
X1048Y535D01*
X1048Y535D01*
X1048Y535D01*
X1048Y535D01*
X1048Y535D01*
X1049Y535D01*
X1049Y535D01*
X1049Y535D01*
X1049Y535D01*
X1050Y535D01*
X1050Y534D01*
X1050Y534D01*
X1050Y534D01*
X1050Y534D01*
X1050Y534D01*
X1051Y534D01*
X1051Y534D01*
X1051Y534D01*
X1051Y534D01*
X1051Y534D01*
X1051Y516D01*
X1077Y516D01*
X1077Y557D01*
X944Y557D01*
G37*
D02*
G36*
X944Y541D02*
X944Y490D01*
X952Y490D01*
X952Y489D01*
X952Y489D01*
X952Y459D01*
X944Y459D01*
X944Y456D01*
X956Y456D01*
X956Y454D01*
X978Y454D01*
X978Y454D01*
X978Y454D01*
X978Y455D01*
X977Y455D01*
X977Y455D01*
X977Y455D01*
X977Y455D01*
X977Y455D01*
X977Y455D01*
X977Y455D01*
X977Y456D01*
X977Y456D01*
X977Y456D01*
X976Y456D01*
X976Y456D01*
X976Y456D01*
X976Y456D01*
X976Y456D01*
X976Y456D01*
X976Y456D01*
X976Y457D01*
X976Y457D01*
X976Y457D01*
X976Y457D01*
X976Y457D01*
X975Y457D01*
X975Y457D01*
X975Y457D01*
X975Y458D01*
X975Y458D01*
X975Y458D01*
X975Y458D01*
X975Y458D01*
X975Y458D01*
X975Y458D01*
X974Y458D01*
X974Y459D01*
X974Y459D01*
X974Y459D01*
X974Y459D01*
X974Y459D01*
X974Y459D01*
X974Y459D01*
X974Y459D01*
X974Y460D01*
X973Y460D01*
X973Y460D01*
X973Y460D01*
X973Y460D01*
X973Y460D01*
X973Y460D01*
X973Y460D01*
X973Y460D01*
X973Y460D01*
X973Y461D01*
X973Y461D01*
X973Y461D01*
X972Y461D01*
X972Y461D01*
X972Y461D01*
X972Y461D01*
X972Y461D01*
X972Y462D01*
X972Y462D01*
X972Y462D01*
X972Y462D01*
X972Y462D01*
X971Y462D01*
X971Y463D01*
X971Y463D01*
X971Y463D01*
X971Y463D01*
X971Y463D01*
X971Y463D01*
X971Y463D01*
X971Y463D01*
X971Y463D01*
X970Y463D01*
X970Y464D01*
X970Y464D01*
X970Y464D01*
X970Y464D01*
X970Y464D01*
X970Y464D01*
X970Y465D01*
X970Y465D01*
X970Y465D01*
X969Y465D01*
X969Y465D01*
X969Y465D01*
X969Y466D01*
X969Y466D01*
X969Y466D01*
X969Y466D01*
X969Y466D01*
X969Y466D01*
X969Y466D01*
X969Y466D01*
X969Y467D01*
X968Y467D01*
X968Y467D01*
X968Y467D01*
X968Y468D01*
X968Y468D01*
X968Y468D01*
X968Y468D01*
X968Y468D01*
X968Y468D01*
X968Y469D01*
X967Y469D01*
X967Y469D01*
X967Y469D01*
X967Y470D01*
X967Y470D01*
X967Y470D01*
X967Y470D01*
X967Y470D01*
X967Y470D01*
X967Y471D01*
X966Y471D01*
X966Y471D01*
X966Y471D01*
X966Y472D01*
X966Y472D01*
X966Y472D01*
X966Y472D01*
X966Y473D01*
X966Y473D01*
X966Y473D01*
X966Y473D01*
X966Y474D01*
X965Y474D01*
X965Y474D01*
X965Y474D01*
X965Y475D01*
X965Y475D01*
X965Y476D01*
X965Y476D01*
X965Y476D01*
X965Y476D01*
X965Y477D01*
X964Y477D01*
X964Y478D01*
X964Y478D01*
X964Y479D01*
X964Y479D01*
X964Y480D01*
X964Y480D01*
X964Y481D01*
X964Y481D01*
X964Y483D01*
X963Y483D01*
X963Y485D01*
X963Y485D01*
X963Y494D01*
X963Y494D01*
X963Y496D01*
X964Y496D01*
X964Y497D01*
X964Y497D01*
X964Y499D01*
X964Y499D01*
X964Y500D01*
X964Y500D01*
X964Y500D01*
X964Y500D01*
X964Y501D01*
X965Y501D01*
X965Y502D01*
X965Y502D01*
X965Y503D01*
X965Y503D01*
X965Y504D01*
X965Y504D01*
X965Y504D01*
X965Y504D01*
X965Y505D01*
X966Y505D01*
X966Y506D01*
X966Y506D01*
X966Y506D01*
X966Y506D01*
X966Y507D01*
X966Y507D01*
X966Y507D01*
X966Y507D01*
X966Y508D01*
X966Y508D01*
X966Y508D01*
X967Y508D01*
X967Y509D01*
X967Y509D01*
X967Y509D01*
X967Y509D01*
X967Y510D01*
X967Y510D01*
X967Y510D01*
X967Y510D01*
X967Y511D01*
X968Y511D01*
X968Y511D01*
X968Y511D01*
X968Y511D01*
X968Y511D01*
X968Y512D01*
X968Y512D01*
X968Y512D01*
X968Y512D01*
X968Y512D01*
X969Y512D01*
X969Y513D01*
X969Y513D01*
X969Y513D01*
X969Y513D01*
X969Y514D01*
X969Y514D01*
X969Y514D01*
X969Y514D01*
X969Y514D01*
X969Y514D01*
X969Y515D01*
X970Y515D01*
X970Y515D01*
X970Y515D01*
X970Y515D01*
X970Y515D01*
X970Y516D01*
X970Y516D01*
X970Y516D01*
X970Y516D01*
X970Y516D01*
X971Y516D01*
X971Y517D01*
X971Y517D01*
X971Y517D01*
X971Y517D01*
X971Y517D01*
X971Y517D01*
X971Y518D01*
X971Y518D01*
X971Y518D01*
X972Y518D01*
X972Y518D01*
X972Y518D01*
X972Y518D01*
X972Y518D01*
X972Y519D01*
X972Y519D01*
X972Y519D01*
X972Y519D01*
X972Y519D01*
X973Y519D01*
X973Y519D01*
X973Y519D01*
X973Y520D01*
X973Y520D01*
X973Y520D01*
X973Y520D01*
X973Y520D01*
X973Y520D01*
X973Y520D01*
X973Y520D01*
X973Y521D01*
X974Y521D01*
X974Y521D01*
X974Y521D01*
X974Y521D01*
X974Y521D01*
X974Y521D01*
X974Y521D01*
X974Y522D01*
X974Y522D01*
X974Y522D01*
X975Y522D01*
X975Y522D01*
X975Y522D01*
X975Y522D01*
X975Y522D01*
X975Y522D01*
X975Y522D01*
X975Y523D01*
X975Y523D01*
X975Y523D01*
X976Y523D01*
X976Y523D01*
X976Y523D01*
X976Y523D01*
X976Y523D01*
X976Y524D01*
X976Y524D01*
X976Y524D01*
X976Y524D01*
X976Y524D01*
X976Y524D01*
X976Y524D01*
X977Y524D01*
X977Y524D01*
X977Y524D01*
X977Y525D01*
X977Y525D01*
X977Y525D01*
X977Y525D01*
X977Y525D01*
X977Y525D01*
X977Y525D01*
X978Y525D01*
X978Y525D01*
X978Y525D01*
X978Y526D01*
X978Y526D01*
X978Y526D01*
X978Y526D01*
X978Y526D01*
X978Y526D01*
X978Y526D01*
X979Y526D01*
X979Y526D01*
X979Y526D01*
X979Y527D01*
X979Y527D01*
X979Y527D01*
X979Y527D01*
X979Y527D01*
X979Y527D01*
X979Y527D01*
X979Y527D01*
X979Y527D01*
X980Y527D01*
X980Y528D01*
X980Y528D01*
X980Y528D01*
X980Y528D01*
X980Y528D01*
X980Y528D01*
X980Y528D01*
X981Y528D01*
X981Y528D01*
X981Y528D01*
X981Y528D01*
X981Y528D01*
X981Y529D01*
X981Y529D01*
X981Y529D01*
X982Y529D01*
X982Y529D01*
X982Y529D01*
X982Y529D01*
X982Y529D01*
X982Y529D01*
X982Y529D01*
X982Y530D01*
X983Y530D01*
X983Y530D01*
X983Y530D01*
X983Y530D01*
X983Y530D01*
X983Y530D01*
X983Y530D01*
X983Y530D01*
X983Y530D01*
X983Y531D01*
X984Y531D01*
X984Y531D01*
X984Y531D01*
X984Y531D01*
X984Y531D01*
X984Y531D01*
X984Y531D01*
X984Y531D01*
X985Y531D01*
X985Y531D01*
X985Y531D01*
X985Y532D01*
X985Y532D01*
X985Y532D01*
X986Y532D01*
X986Y532D01*
X986Y532D01*
X986Y532D01*
X986Y532D01*
X986Y532D01*
X986Y532D01*
X986Y533D01*
X987Y533D01*
X987Y533D01*
X987Y533D01*
X987Y533D01*
X987Y533D01*
X987Y533D01*
X987Y533D01*
X987Y533D01*
X988Y533D01*
X988Y534D01*
X988Y534D01*
X988Y534D01*
X988Y534D01*
X988Y534D01*
X989Y534D01*
X989Y534D01*
X989Y534D01*
X989Y534D01*
X989Y534D01*
X989Y535D01*
X990Y535D01*
X990Y535D01*
X990Y535D01*
X990Y535D01*
X990Y535D01*
X990Y535D01*
X991Y535D01*
X991Y535D01*
X991Y535D01*
X991Y535D01*
X991Y535D01*
X991Y536D01*
X992Y536D01*
X992Y536D01*
X992Y536D01*
X992Y536D01*
X993Y536D01*
X993Y536D01*
X993Y536D01*
X993Y536D01*
X993Y536D01*
X993Y537D01*
X994Y537D01*
X994Y537D01*
X994Y537D01*
X994Y537D01*
X995Y537D01*
X995Y537D01*
X995Y537D01*
X995Y537D01*
X996Y537D01*
X996Y538D01*
X996Y538D01*
X996Y538D01*
X996Y538D01*
X996Y538D01*
X997Y538D01*
X997Y538D01*
X997Y538D01*
X997Y538D01*
X998Y538D01*
X998Y538D01*
X999Y538D01*
X999Y539D01*
X999Y539D01*
X999Y539D01*
X1000Y539D01*
X1000Y539D01*
X1000Y539D01*
X1000Y539D01*
X1001Y539D01*
X1001Y539D01*
X1002Y539D01*
X1002Y540D01*
X1002Y540D01*
X1002Y540D01*
X1003Y540D01*
X1003Y540D01*
X1004Y540D01*
X1004Y540D01*
X1005Y540D01*
X1005Y540D01*
X1006Y540D01*
X1006Y541D01*
X1007Y541D01*
X1007Y541D01*
X1008Y541D01*
X1008Y541D01*
X1009Y541D01*
X1009Y541D01*
X1012Y541D01*
X1012Y541D01*
X944Y541D01*
G37*
D02*
G36*
X1017Y525D02*
X1017Y525D01*
X1014Y525D01*
X1014Y524D01*
X1013Y524D01*
X1013Y524D01*
X1011Y524D01*
X1011Y524D01*
X1010Y524D01*
X1010Y524D01*
X1010Y524D01*
X1010Y524D01*
X1009Y524D01*
X1009Y524D01*
X1008Y524D01*
X1008Y523D01*
X1008Y523D01*
X1008Y523D01*
X1007Y523D01*
X1007Y523D01*
X1007Y523D01*
X1007Y523D01*
X1006Y523D01*
X1006Y523D01*
X1005Y523D01*
X1005Y522D01*
X1005Y522D01*
X1005Y522D01*
X1004Y522D01*
X1004Y522D01*
X1004Y522D01*
X1004Y522D01*
X1003Y522D01*
X1003Y522D01*
X1003Y522D01*
X1003Y521D01*
X1003Y521D01*
X1003Y521D01*
X1002Y521D01*
X1002Y521D01*
X1002Y521D01*
X1002Y521D01*
X1002Y521D01*
X1002Y521D01*
X1001Y521D01*
X1001Y521D01*
X1001Y521D01*
X1001Y520D01*
X1000Y520D01*
X1000Y520D01*
X1000Y520D01*
X1000Y520D01*
X1000Y520D01*
X1000Y520D01*
X1000Y520D01*
X1000Y520D01*
X999Y520D01*
X999Y519D01*
X999Y519D01*
X999Y519D01*
X999Y519D01*
X999Y519D01*
X998Y519D01*
X998Y519D01*
X998Y519D01*
X998Y519D01*
X998Y519D01*
X998Y518D01*
X997Y518D01*
X997Y518D01*
X997Y518D01*
X997Y518D01*
X997Y518D01*
X997Y518D01*
X997Y518D01*
X997Y518D01*
X996Y518D01*
X996Y518D01*
X996Y518D01*
X996Y517D01*
X996Y517D01*
X996Y517D01*
X996Y517D01*
X996Y517D01*
X995Y517D01*
X995Y517D01*
X995Y517D01*
X995Y517D01*
X995Y517D01*
X995Y516D01*
X1051Y516D01*
X1051Y517D01*
X1051Y517D01*
X1051Y517D01*
X1051Y517D01*
X1051Y517D01*
X1050Y517D01*
X1050Y517D01*
X1050Y517D01*
X1050Y517D01*
X1050Y517D01*
X1050Y518D01*
X1050Y518D01*
X1050Y518D01*
X1049Y518D01*
X1049Y518D01*
X1049Y518D01*
X1049Y518D01*
X1049Y518D01*
X1049Y518D01*
X1049Y518D01*
X1049Y518D01*
X1048Y518D01*
X1048Y519D01*
X1048Y519D01*
X1048Y519D01*
X1048Y519D01*
X1048Y519D01*
X1047Y519D01*
X1047Y519D01*
X1047Y519D01*
X1047Y519D01*
X1047Y519D01*
X1047Y520D01*
X1046Y520D01*
X1046Y520D01*
X1046Y520D01*
X1046Y520D01*
X1045Y520D01*
X1045Y520D01*
X1045Y520D01*
X1045Y520D01*
X1044Y520D01*
X1044Y521D01*
X1044Y521D01*
X1044Y521D01*
X1043Y521D01*
X1043Y521D01*
X1043Y521D01*
X1043Y521D01*
X1042Y521D01*
X1042Y521D01*
X1042Y521D01*
X1042Y521D01*
X1041Y521D01*
X1041Y522D01*
X1041Y522D01*
X1041Y522D01*
X1040Y522D01*
X1040Y522D01*
X1039Y522D01*
X1039Y522D01*
X1038Y522D01*
X1038Y522D01*
X1038Y522D01*
X1038Y523D01*
X1037Y523D01*
X1037Y523D01*
X1036Y523D01*
X1036Y523D01*
X1035Y523D01*
X1035Y523D01*
X1034Y523D01*
X1034Y523D01*
X1033Y523D01*
X1033Y524D01*
X1032Y524D01*
X1032Y524D01*
X1031Y524D01*
X1031Y524D01*
X1030Y524D01*
X1030Y524D01*
X1028Y524D01*
X1028Y524D01*
X1026Y524D01*
X1026Y524D01*
X1024Y524D01*
X1024Y525D01*
X1021Y525D01*
X1021Y525D01*
X1017Y525D01*
G37*
D02*
G36*
X995Y516D02*
X995Y516D01*
X1077Y516D01*
X1077Y516D01*
X995Y516D01*
G37*
D02*
G36*
X995Y516D02*
X995Y516D01*
X1077Y516D01*
X1077Y516D01*
X995Y516D01*
G37*
D02*
G36*
X994Y516D02*
X994Y516D01*
X994Y516D01*
X994Y516D01*
X994Y516D01*
X994Y516D01*
X994Y516D01*
X994Y515D01*
X994Y515D01*
X994Y515D01*
X993Y515D01*
X993Y515D01*
X993Y515D01*
X993Y515D01*
X993Y515D01*
X993Y515D01*
X993Y515D01*
X993Y514D01*
X993Y514D01*
X993Y514D01*
X993Y514D01*
X993Y514D01*
X992Y514D01*
X992Y514D01*
X992Y514D01*
X992Y514D01*
X992Y514D01*
X992Y514D01*
X992Y514D01*
X992Y513D01*
X992Y513D01*
X992Y513D01*
X991Y513D01*
X991Y513D01*
X991Y513D01*
X991Y513D01*
X991Y513D01*
X991Y512D01*
X991Y512D01*
X991Y512D01*
X991Y512D01*
X991Y512D01*
X990Y512D01*
X990Y512D01*
X990Y512D01*
X990Y511D01*
X990Y511D01*
X990Y511D01*
X990Y511D01*
X990Y511D01*
X990Y511D01*
X990Y511D01*
X990Y511D01*
X990Y511D01*
X989Y511D01*
X989Y510D01*
X989Y510D01*
X989Y510D01*
X989Y510D01*
X989Y510D01*
X989Y510D01*
X989Y509D01*
X989Y509D01*
X989Y509D01*
X988Y509D01*
X988Y509D01*
X988Y509D01*
X988Y508D01*
X988Y508D01*
X988Y508D01*
X988Y508D01*
X988Y508D01*
X988Y508D01*
X988Y507D01*
X987Y507D01*
X987Y507D01*
X987Y507D01*
X987Y507D01*
X987Y507D01*
X987Y506D01*
X987Y506D01*
X987Y506D01*
X987Y506D01*
X987Y506D01*
X986Y506D01*
X986Y505D01*
X986Y505D01*
X986Y505D01*
X986Y505D01*
X986Y504D01*
X986Y504D01*
X986Y504D01*
X986Y504D01*
X986Y504D01*
X986Y504D01*
X986Y503D01*
X985Y503D01*
X985Y502D01*
X985Y502D01*
X985Y502D01*
X985Y502D01*
X985Y501D01*
X985Y501D01*
X985Y501D01*
X985Y501D01*
X985Y500D01*
X984Y500D01*
X984Y499D01*
X984Y499D01*
X984Y499D01*
X984Y499D01*
X984Y498D01*
X984Y498D01*
X984Y497D01*
X984Y497D01*
X984Y496D01*
X983Y496D01*
X983Y495D01*
X983Y495D01*
X983Y494D01*
X983Y494D01*
X983Y491D01*
X983Y491D01*
X983Y485D01*
X983Y485D01*
X983Y484D01*
X983Y484D01*
X983Y483D01*
X983Y483D01*
X983Y482D01*
X984Y482D01*
X984Y481D01*
X984Y481D01*
X984Y480D01*
X984Y480D01*
X984Y480D01*
X984Y480D01*
X984Y479D01*
X984Y479D01*
X984Y479D01*
X985Y479D01*
X985Y478D01*
X985Y478D01*
X985Y478D01*
X985Y478D01*
X985Y477D01*
X985Y477D01*
X985Y477D01*
X985Y477D01*
X985Y476D01*
X986Y476D01*
X986Y476D01*
X986Y476D01*
X986Y476D01*
X986Y476D01*
X986Y475D01*
X986Y475D01*
X986Y475D01*
X986Y475D01*
X986Y474D01*
X986Y474D01*
X986Y474D01*
X987Y474D01*
X987Y474D01*
X987Y474D01*
X987Y473D01*
X987Y473D01*
X987Y473D01*
X987Y473D01*
X987Y473D01*
X987Y473D01*
X987Y473D01*
X988Y473D01*
X988Y472D01*
X988Y472D01*
X988Y472D01*
X988Y472D01*
X988Y472D01*
X988Y472D01*
X988Y472D01*
X988Y472D01*
X988Y471D01*
X989Y471D01*
X989Y471D01*
X989Y471D01*
X989Y471D01*
X989Y471D01*
X989Y471D01*
X989Y471D01*
X989Y470D01*
X989Y470D01*
X989Y470D01*
X990Y470D01*
X990Y470D01*
X990Y470D01*
X990Y470D01*
X990Y470D01*
X990Y470D01*
X990Y470D01*
X990Y469D01*
X990Y469D01*
X990Y469D01*
X990Y469D01*
X990Y469D01*
X991Y469D01*
X991Y469D01*
X991Y469D01*
X991Y468D01*
X991Y468D01*
X991Y468D01*
X991Y468D01*
X991Y468D01*
X991Y468D01*
X991Y468D01*
X992Y468D01*
X992Y468D01*
X992Y468D01*
X992Y467D01*
X992Y467D01*
X992Y467D01*
X992Y467D01*
X992Y467D01*
X992Y467D01*
X992Y467D01*
X993Y467D01*
X993Y467D01*
X993Y467D01*
X993Y466D01*
X993Y466D01*
X993Y466D01*
X993Y466D01*
X993Y466D01*
X993Y466D01*
X993Y466D01*
X994Y466D01*
X994Y466D01*
X994Y466D01*
X994Y466D01*
X994Y466D01*
X994Y465D01*
X994Y465D01*
X994Y465D01*
X995Y465D01*
X995Y465D01*
X995Y465D01*
X995Y465D01*
X995Y465D01*
X995Y465D01*
X995Y465D01*
X995Y464D01*
X996Y464D01*
X996Y464D01*
X996Y464D01*
X996Y464D01*
X996Y464D01*
X996Y464D01*
X996Y464D01*
X996Y464D01*
X997Y464D01*
X997Y463D01*
X997Y463D01*
X997Y463D01*
X997Y463D01*
X997Y463D01*
X997Y463D01*
X997Y463D01*
X998Y463D01*
X998Y463D01*
X998Y463D01*
X998Y463D01*
X998Y463D01*
X998Y462D01*
X999Y462D01*
X999Y462D01*
X999Y462D01*
X999Y462D01*
X999Y462D01*
X999Y462D01*
X1000Y462D01*
X1000Y462D01*
X1000Y462D01*
X1000Y461D01*
X1000Y461D01*
X1000Y461D01*
X1001Y461D01*
X1001Y461D01*
X1001Y461D01*
X1001Y461D01*
X1001Y461D01*
X1001Y461D01*
X1002Y461D01*
X1002Y460D01*
X1002Y460D01*
X1002Y460D01*
X1002Y460D01*
X1002Y460D01*
X1003Y460D01*
X1003Y460D01*
X1003Y460D01*
X1003Y460D01*
X1003Y460D01*
X1003Y460D01*
X1004Y460D01*
X1004Y459D01*
X1004Y459D01*
X1004Y459D01*
X1005Y459D01*
X1005Y459D01*
X1005Y459D01*
X1005Y459D01*
X1006Y459D01*
X1006Y459D01*
X1006Y459D01*
X1006Y458D01*
X1006Y458D01*
X1006Y458D01*
X1007Y458D01*
X1007Y458D01*
X1007Y458D01*
X1007Y458D01*
X1008Y458D01*
X1008Y458D01*
X1008Y458D01*
X1008Y457D01*
X1009Y457D01*
X1009Y457D01*
X1009Y457D01*
X1009Y457D01*
X1010Y457D01*
X1010Y457D01*
X1010Y457D01*
X1010Y457D01*
X1011Y457D01*
X1011Y456D01*
X1011Y456D01*
X1011Y456D01*
X1012Y456D01*
X1012Y456D01*
X1013Y456D01*
X1013Y456D01*
X1013Y456D01*
X1013Y456D01*
X1014Y456D01*
X1014Y456D01*
X1014Y456D01*
X1014Y455D01*
X1015Y455D01*
X1015Y455D01*
X1016Y455D01*
X1016Y455D01*
X1017Y455D01*
X1017Y455D01*
X1017Y455D01*
X1017Y455D01*
X1018Y455D01*
X1018Y454D01*
X1019Y454D01*
X1019Y454D01*
X1065Y454D01*
X1065Y455D01*
X1065Y455D01*
X1065Y456D01*
X1077Y456D01*
X1077Y459D01*
X1070Y459D01*
X1070Y490D01*
X1077Y490D01*
X1077Y516D01*
X994Y516D01*
G37*
D02*
G36*
X956Y448D02*
X956Y447D01*
X944Y447D01*
X944Y443D01*
X952Y443D01*
X952Y412D01*
X944Y412D01*
X944Y363D01*
X966Y363D01*
X966Y448D01*
X956Y448D01*
G37*
D02*
G36*
X1053Y448D02*
X1053Y443D01*
X986Y443D01*
X986Y363D01*
X1078Y363D01*
X1078Y412D01*
X1070Y412D01*
X1070Y427D01*
X1070Y427D01*
X1070Y443D01*
X1078Y443D01*
X1078Y447D01*
X1066Y447D01*
X1066Y447D01*
X1066Y447D01*
X1066Y448D01*
X1053Y448D01*
G37*
D02*
G36*
X944Y363D02*
X944Y363D01*
X1078Y363D01*
X1078Y363D01*
X944Y363D01*
G37*
D02*
G36*
X944Y363D02*
X944Y363D01*
X1078Y363D01*
X1078Y363D01*
X944Y363D01*
G37*
D02*
G36*
X944Y363D02*
X944Y345D01*
X1078Y345D01*
X1078Y363D01*
X944Y363D01*
G37*
D02*
G36*
X1605Y448D02*
X1605Y447D01*
X1593Y447D01*
X1593Y443D01*
X1600Y443D01*
X1600Y412D01*
X1593Y412D01*
X1593Y387D01*
X1629Y387D01*
X1629Y387D01*
X1630Y387D01*
X1630Y387D01*
X1631Y387D01*
X1631Y387D01*
X1632Y387D01*
X1632Y387D01*
X1632Y387D01*
X1632Y386D01*
X1633Y386D01*
X1633Y386D01*
X1633Y386D01*
X1633Y386D01*
X1633Y386D01*
X1633Y386D01*
X1634Y386D01*
X1634Y386D01*
X1634Y386D01*
X1634Y385D01*
X1634Y385D01*
X1634Y385D01*
X1635Y385D01*
X1635Y385D01*
X1635Y385D01*
X1635Y385D01*
X1635Y385D01*
X1635Y385D01*
X1635Y385D01*
X1635Y384D01*
X1636Y384D01*
X1636Y384D01*
X1636Y384D01*
X1636Y384D01*
X1636Y384D01*
X1636Y384D01*
X1636Y384D01*
X1636Y384D01*
X1637Y384D01*
X1637Y384D01*
X1637Y384D01*
X1637Y383D01*
X1637Y383D01*
X1637Y383D01*
X1637Y383D01*
X1637Y383D01*
X1637Y383D01*
X1637Y383D01*
X1638Y383D01*
X1638Y382D01*
X1638Y382D01*
X1638Y382D01*
X1638Y382D01*
X1638Y382D01*
X1638Y382D01*
X1638Y382D01*
X1638Y382D01*
X1638Y381D01*
X1638Y381D01*
X1638Y381D01*
X1639Y381D01*
X1639Y381D01*
X1639Y381D01*
X1639Y381D01*
X1639Y381D01*
X1639Y380D01*
X1639Y380D01*
X1639Y380D01*
X1639Y380D01*
X1639Y379D01*
X1640Y379D01*
X1640Y379D01*
X1640Y379D01*
X1640Y378D01*
X1640Y378D01*
X1640Y378D01*
X1640Y378D01*
X1640Y377D01*
X1640Y377D01*
X1640Y375D01*
X1641Y375D01*
X1641Y373D01*
X1640Y373D01*
X1640Y372D01*
X1640Y372D01*
X1640Y371D01*
X1640Y371D01*
X1640Y370D01*
X1640Y370D01*
X1640Y370D01*
X1640Y370D01*
X1640Y369D01*
X1639Y369D01*
X1639Y369D01*
X1639Y369D01*
X1639Y368D01*
X1639Y368D01*
X1639Y368D01*
X1639Y368D01*
X1639Y368D01*
X1639Y368D01*
X1639Y367D01*
X1638Y367D01*
X1638Y367D01*
X1638Y367D01*
X1638Y367D01*
X1638Y367D01*
X1638Y366D01*
X1638Y366D01*
X1638Y366D01*
X1638Y366D01*
X1638Y366D01*
X1638Y366D01*
X1638Y366D01*
X1637Y366D01*
X1637Y365D01*
X1637Y365D01*
X1637Y365D01*
X1637Y365D01*
X1637Y365D01*
X1637Y365D01*
X1637Y365D01*
X1637Y365D01*
X1637Y365D01*
X1636Y365D01*
X1636Y364D01*
X1636Y364D01*
X1636Y364D01*
X1636Y364D01*
X1636Y364D01*
X1636Y364D01*
X1636Y364D01*
X1635Y364D01*
X1635Y364D01*
X1635Y364D01*
X1635Y364D01*
X1635Y364D01*
X1635Y363D01*
X1635Y363D01*
X1635Y363D01*
X1634Y363D01*
X1634Y363D01*
X1634Y363D01*
X1634Y363D01*
X1634Y363D01*
X1634Y363D01*
X1633Y363D01*
X1633Y362D01*
X1633Y362D01*
X1633Y362D01*
X1633Y362D01*
X1633Y362D01*
X1632Y362D01*
X1632Y362D01*
X1631Y362D01*
X1631Y362D01*
X1631Y362D01*
X1631Y361D01*
X1630Y361D01*
X1630Y361D01*
X1629Y361D01*
X1629Y361D01*
X1726Y361D01*
X1726Y412D01*
X1718Y412D01*
X1718Y421D01*
X1718Y421D01*
X1718Y443D01*
X1726Y443D01*
X1726Y447D01*
X1714Y447D01*
X1714Y447D01*
X1714Y447D01*
X1714Y448D01*
X1605Y448D01*
G37*
D02*
G36*
X1593Y387D02*
X1593Y361D01*
X1626Y361D01*
X1626Y361D01*
X1624Y361D01*
X1624Y361D01*
X1624Y361D01*
X1624Y362D01*
X1623Y362D01*
X1623Y362D01*
X1623Y362D01*
X1623Y362D01*
X1622Y362D01*
X1622Y362D01*
X1622Y362D01*
X1622Y362D01*
X1621Y362D01*
X1621Y363D01*
X1621Y363D01*
X1621Y363D01*
X1621Y363D01*
X1621Y363D01*
X1620Y363D01*
X1620Y363D01*
X1620Y363D01*
X1620Y363D01*
X1620Y363D01*
X1620Y364D01*
X1620Y364D01*
X1620Y364D01*
X1619Y364D01*
X1619Y364D01*
X1619Y364D01*
X1619Y364D01*
X1619Y364D01*
X1619Y364D01*
X1619Y364D01*
X1619Y364D01*
X1618Y364D01*
X1618Y365D01*
X1618Y365D01*
X1618Y365D01*
X1618Y365D01*
X1618Y365D01*
X1618Y365D01*
X1618Y365D01*
X1618Y365D01*
X1618Y365D01*
X1617Y365D01*
X1617Y366D01*
X1617Y366D01*
X1617Y366D01*
X1617Y366D01*
X1617Y366D01*
X1617Y366D01*
X1617Y366D01*
X1617Y366D01*
X1617Y367D01*
X1617Y367D01*
X1617Y367D01*
X1616Y367D01*
X1616Y367D01*
X1616Y367D01*
X1616Y367D01*
X1616Y367D01*
X1616Y368D01*
X1616Y368D01*
X1616Y368D01*
X1616Y368D01*
X1616Y368D01*
X1615Y368D01*
X1615Y369D01*
X1615Y369D01*
X1615Y369D01*
X1615Y369D01*
X1615Y370D01*
X1615Y370D01*
X1615Y370D01*
X1615Y370D01*
X1615Y371D01*
X1614Y371D01*
X1614Y372D01*
X1614Y372D01*
X1614Y376D01*
X1614Y376D01*
X1614Y377D01*
X1615Y377D01*
X1615Y378D01*
X1615Y378D01*
X1615Y379D01*
X1615Y379D01*
X1615Y379D01*
X1615Y379D01*
X1615Y380D01*
X1615Y380D01*
X1615Y380D01*
X1616Y380D01*
X1616Y380D01*
X1616Y380D01*
X1616Y381D01*
X1616Y381D01*
X1616Y381D01*
X1616Y381D01*
X1616Y381D01*
X1616Y381D01*
X1616Y382D01*
X1617Y382D01*
X1617Y382D01*
X1617Y382D01*
X1617Y382D01*
X1617Y382D01*
X1617Y382D01*
X1617Y382D01*
X1617Y383D01*
X1617Y383D01*
X1617Y383D01*
X1617Y383D01*
X1617Y383D01*
X1618Y383D01*
X1618Y383D01*
X1618Y383D01*
X1618Y383D01*
X1618Y383D01*
X1618Y384D01*
X1618Y384D01*
X1618Y384D01*
X1618Y384D01*
X1618Y384D01*
X1619Y384D01*
X1619Y384D01*
X1619Y384D01*
X1619Y384D01*
X1619Y384D01*
X1619Y384D01*
X1619Y384D01*
X1619Y385D01*
X1620Y385D01*
X1620Y385D01*
X1620Y385D01*
X1620Y385D01*
X1620Y385D01*
X1620Y385D01*
X1620Y385D01*
X1620Y385D01*
X1621Y385D01*
X1621Y386D01*
X1621Y386D01*
X1621Y386D01*
X1621Y386D01*
X1621Y386D01*
X1622Y386D01*
X1622Y386D01*
X1622Y386D01*
X1622Y386D01*
X1623Y386D01*
X1623Y387D01*
X1623Y387D01*
X1623Y387D01*
X1624Y387D01*
X1624Y387D01*
X1624Y387D01*
X1624Y387D01*
X1626Y387D01*
X1626Y387D01*
X1593Y387D01*
G37*
D02*
G36*
X1593Y361D02*
X1593Y361D01*
X1726Y361D01*
X1726Y361D01*
X1593Y361D01*
G37*
D02*
G36*
X1593Y361D02*
X1593Y361D01*
X1726Y361D01*
X1726Y361D01*
X1593Y361D01*
G37*
D02*
G36*
X1593Y361D02*
X1593Y345D01*
X1726Y345D01*
X1726Y361D01*
X1593Y361D01*
G37*
D02*
G36*
X1119Y447D02*
X1119Y446D01*
X1119Y446D01*
X1119Y446D01*
X1107Y446D01*
X1107Y443D01*
X1115Y443D01*
X1115Y412D01*
X1107Y412D01*
X1107Y365D01*
X1126Y365D01*
X1126Y447D01*
X1119Y447D01*
G37*
D02*
G36*
X1147Y447D02*
X1147Y383D01*
X1218Y383D01*
X1218Y365D01*
X1239Y365D01*
X1239Y412D01*
X1232Y412D01*
X1232Y428D01*
X1232Y428D01*
X1232Y443D01*
X1239Y443D01*
X1239Y446D01*
X1227Y446D01*
X1227Y447D01*
X1227Y447D01*
X1227Y447D01*
X1147Y447D01*
G37*
D02*
G36*
X1107Y365D02*
X1107Y365D01*
X1239Y365D01*
X1239Y365D01*
X1107Y365D01*
G37*
D02*
G36*
X1107Y365D02*
X1107Y365D01*
X1239Y365D01*
X1239Y365D01*
X1107Y365D01*
G37*
D02*
G36*
X1107Y365D02*
X1107Y345D01*
X1239Y345D01*
X1239Y365D01*
X1107Y365D01*
G37*
D02*
G36*
X1281Y447D02*
X1281Y446D01*
X1269Y446D01*
X1269Y443D01*
X1277Y443D01*
X1277Y412D01*
X1269Y412D01*
X1269Y366D01*
X1280Y366D01*
X1280Y367D01*
X1280Y367D01*
X1280Y368D01*
X1280Y368D01*
X1280Y368D01*
X1280Y368D01*
X1280Y369D01*
X1281Y369D01*
X1281Y370D01*
X1281Y370D01*
X1281Y371D01*
X1281Y371D01*
X1281Y372D01*
X1281Y372D01*
X1281Y373D01*
X1281Y373D01*
X1281Y374D01*
X1282Y374D01*
X1282Y374D01*
X1282Y374D01*
X1282Y375D01*
X1282Y375D01*
X1282Y376D01*
X1282Y376D01*
X1282Y377D01*
X1282Y377D01*
X1282Y378D01*
X1283Y378D01*
X1283Y379D01*
X1283Y379D01*
X1283Y379D01*
X1283Y379D01*
X1283Y380D01*
X1283Y380D01*
X1283Y381D01*
X1283Y381D01*
X1283Y382D01*
X1283Y382D01*
X1283Y383D01*
X1284Y383D01*
X1284Y384D01*
X1284Y384D01*
X1284Y384D01*
X1284Y384D01*
X1284Y385D01*
X1284Y385D01*
X1284Y386D01*
X1284Y386D01*
X1284Y387D01*
X1285Y387D01*
X1285Y388D01*
X1285Y388D01*
X1285Y389D01*
X1285Y389D01*
X1285Y389D01*
X1285Y389D01*
X1285Y390D01*
X1285Y390D01*
X1285Y391D01*
X1286Y391D01*
X1286Y392D01*
X1286Y392D01*
X1286Y393D01*
X1286Y393D01*
X1286Y394D01*
X1286Y394D01*
X1286Y395D01*
X1286Y395D01*
X1286Y395D01*
X1286Y395D01*
X1286Y396D01*
X1287Y396D01*
X1287Y397D01*
X1287Y397D01*
X1287Y398D01*
X1287Y398D01*
X1287Y399D01*
X1287Y399D01*
X1287Y400D01*
X1287Y400D01*
X1287Y400D01*
X1288Y400D01*
X1288Y401D01*
X1288Y401D01*
X1288Y402D01*
X1288Y402D01*
X1288Y403D01*
X1288Y403D01*
X1288Y404D01*
X1288Y404D01*
X1288Y405D01*
X1289Y405D01*
X1289Y405D01*
X1289Y405D01*
X1289Y406D01*
X1289Y406D01*
X1289Y407D01*
X1289Y407D01*
X1289Y408D01*
X1289Y408D01*
X1289Y409D01*
X1290Y409D01*
X1290Y410D01*
X1290Y410D01*
X1290Y411D01*
X1290Y411D01*
X1290Y411D01*
X1290Y411D01*
X1290Y412D01*
X1290Y412D01*
X1290Y413D01*
X1290Y413D01*
X1290Y414D01*
X1291Y414D01*
X1291Y415D01*
X1291Y415D01*
X1291Y415D01*
X1291Y415D01*
X1291Y416D01*
X1291Y416D01*
X1291Y417D01*
X1291Y417D01*
X1291Y418D01*
X1292Y418D01*
X1292Y419D01*
X1292Y419D01*
X1292Y420D01*
X1292Y420D01*
X1292Y421D01*
X1292Y421D01*
X1292Y422D01*
X1292Y422D01*
X1292Y422D01*
X1293Y422D01*
X1293Y423D01*
X1293Y423D01*
X1293Y424D01*
X1293Y424D01*
X1293Y425D01*
X1293Y425D01*
X1293Y426D01*
X1293Y426D01*
X1293Y426D01*
X1293Y426D01*
X1293Y427D01*
X1294Y427D01*
X1294Y428D01*
X1294Y428D01*
X1294Y429D01*
X1294Y429D01*
X1294Y430D01*
X1294Y430D01*
X1294Y431D01*
X1294Y431D01*
X1294Y432D01*
X1295Y432D01*
X1295Y432D01*
X1295Y432D01*
X1295Y433D01*
X1295Y433D01*
X1295Y434D01*
X1295Y434D01*
X1295Y435D01*
X1295Y435D01*
X1295Y436D01*
X1296Y436D01*
X1296Y437D01*
X1296Y437D01*
X1296Y437D01*
X1296Y437D01*
X1296Y438D01*
X1296Y438D01*
X1296Y439D01*
X1296Y439D01*
X1296Y440D01*
X1297Y440D01*
X1297Y441D01*
X1297Y441D01*
X1297Y442D01*
X1297Y442D01*
X1297Y442D01*
X1297Y442D01*
X1297Y443D01*
X1297Y443D01*
X1297Y444D01*
X1297Y444D01*
X1297Y445D01*
X1298Y445D01*
X1298Y446D01*
X1298Y446D01*
X1298Y447D01*
X1298Y447D01*
X1298Y447D01*
X1281Y447D01*
G37*
D02*
G36*
X1369Y447D02*
X1369Y447D01*
X1369Y447D01*
X1369Y446D01*
X1369Y446D01*
X1369Y446D01*
X1369Y446D01*
X1369Y445D01*
X1369Y445D01*
X1369Y444D01*
X1370Y444D01*
X1370Y443D01*
X1370Y443D01*
X1370Y442D01*
X1370Y442D01*
X1370Y442D01*
X1370Y442D01*
X1370Y441D01*
X1370Y441D01*
X1370Y440D01*
X1371Y440D01*
X1371Y439D01*
X1371Y439D01*
X1371Y439D01*
X1371Y439D01*
X1371Y438D01*
X1371Y438D01*
X1371Y437D01*
X1371Y437D01*
X1371Y436D01*
X1372Y436D01*
X1372Y435D01*
X1372Y435D01*
X1372Y435D01*
X1372Y435D01*
X1372Y434D01*
X1372Y434D01*
X1372Y433D01*
X1372Y433D01*
X1372Y432D01*
X1372Y432D01*
X1372Y431D01*
X1373Y431D01*
X1373Y431D01*
X1373Y431D01*
X1373Y430D01*
X1373Y430D01*
X1373Y429D01*
X1373Y429D01*
X1373Y428D01*
X1373Y428D01*
X1373Y427D01*
X1374Y427D01*
X1374Y427D01*
X1374Y427D01*
X1374Y426D01*
X1374Y426D01*
X1374Y425D01*
X1374Y425D01*
X1374Y424D01*
X1374Y424D01*
X1374Y424D01*
X1375Y424D01*
X1375Y423D01*
X1375Y423D01*
X1375Y422D01*
X1375Y422D01*
X1375Y421D01*
X1375Y421D01*
X1375Y420D01*
X1375Y420D01*
X1375Y420D01*
X1375Y420D01*
X1375Y419D01*
X1376Y419D01*
X1376Y418D01*
X1376Y418D01*
X1376Y417D01*
X1376Y417D01*
X1376Y416D01*
X1376Y416D01*
X1376Y416D01*
X1376Y416D01*
X1376Y415D01*
X1377Y415D01*
X1377Y414D01*
X1377Y414D01*
X1377Y413D01*
X1377Y413D01*
X1377Y412D01*
X1377Y412D01*
X1377Y412D01*
X1377Y412D01*
X1377Y411D01*
X1378Y411D01*
X1378Y410D01*
X1378Y410D01*
X1378Y409D01*
X1378Y409D01*
X1378Y408D01*
X1378Y408D01*
X1378Y408D01*
X1378Y408D01*
X1378Y407D01*
X1379Y407D01*
X1379Y406D01*
X1379Y406D01*
X1379Y405D01*
X1379Y405D01*
X1379Y405D01*
X1379Y405D01*
X1379Y404D01*
X1379Y404D01*
X1379Y403D01*
X1379Y403D01*
X1379Y402D01*
X1380Y402D01*
X1380Y402D01*
X1380Y402D01*
X1380Y401D01*
X1380Y401D01*
X1380Y400D01*
X1380Y400D01*
X1380Y399D01*
X1380Y399D01*
X1380Y398D01*
X1381Y398D01*
X1381Y398D01*
X1381Y398D01*
X1381Y397D01*
X1381Y397D01*
X1381Y396D01*
X1381Y396D01*
X1381Y395D01*
X1381Y395D01*
X1381Y394D01*
X1382Y394D01*
X1382Y394D01*
X1382Y394D01*
X1382Y393D01*
X1382Y393D01*
X1382Y392D01*
X1382Y392D01*
X1382Y391D01*
X1382Y391D01*
X1382Y391D01*
X1382Y391D01*
X1382Y390D01*
X1383Y390D01*
X1383Y389D01*
X1383Y389D01*
X1383Y388D01*
X1383Y388D01*
X1383Y387D01*
X1383Y387D01*
X1383Y387D01*
X1383Y387D01*
X1383Y386D01*
X1384Y386D01*
X1384Y385D01*
X1384Y385D01*
X1384Y384D01*
X1384Y384D01*
X1384Y383D01*
X1384Y383D01*
X1384Y383D01*
X1384Y383D01*
X1384Y382D01*
X1385Y382D01*
X1385Y381D01*
X1385Y381D01*
X1385Y380D01*
X1385Y380D01*
X1385Y379D01*
X1385Y379D01*
X1385Y379D01*
X1385Y379D01*
X1385Y378D01*
X1385Y378D01*
X1385Y377D01*
X1386Y377D01*
X1386Y376D01*
X1386Y376D01*
X1386Y375D01*
X1386Y375D01*
X1386Y375D01*
X1386Y375D01*
X1386Y374D01*
X1386Y374D01*
X1386Y373D01*
X1387Y373D01*
X1387Y372D01*
X1387Y372D01*
X1387Y372D01*
X1387Y372D01*
X1387Y371D01*
X1387Y371D01*
X1387Y370D01*
X1387Y370D01*
X1387Y369D01*
X1388Y369D01*
X1388Y368D01*
X1388Y368D01*
X1388Y368D01*
X1388Y368D01*
X1388Y367D01*
X1388Y367D01*
X1388Y366D01*
X1401Y366D01*
X1401Y412D01*
X1394Y412D01*
X1394Y433D01*
X1394Y433D01*
X1394Y443D01*
X1401Y443D01*
X1401Y446D01*
X1389Y446D01*
X1389Y447D01*
X1369Y447D01*
G37*
D02*
G36*
X1307Y402D02*
X1307Y402D01*
X1307Y402D01*
X1307Y401D01*
X1307Y401D01*
X1307Y400D01*
X1307Y400D01*
X1307Y399D01*
X1306Y399D01*
X1306Y398D01*
X1306Y398D01*
X1306Y397D01*
X1306Y397D01*
X1306Y396D01*
X1306Y396D01*
X1306Y395D01*
X1306Y395D01*
X1306Y395D01*
X1305Y395D01*
X1305Y394D01*
X1305Y394D01*
X1305Y393D01*
X1305Y393D01*
X1305Y392D01*
X1305Y392D01*
X1305Y391D01*
X1305Y391D01*
X1305Y390D01*
X1304Y390D01*
X1304Y389D01*
X1304Y389D01*
X1304Y388D01*
X1304Y388D01*
X1304Y388D01*
X1304Y388D01*
X1304Y387D01*
X1304Y387D01*
X1304Y386D01*
X1304Y386D01*
X1304Y385D01*
X1303Y385D01*
X1303Y384D01*
X1303Y384D01*
X1303Y383D01*
X1303Y383D01*
X1303Y382D01*
X1303Y382D01*
X1303Y382D01*
X1303Y382D01*
X1303Y381D01*
X1302Y381D01*
X1302Y380D01*
X1302Y380D01*
X1302Y379D01*
X1302Y379D01*
X1302Y378D01*
X1302Y378D01*
X1302Y377D01*
X1302Y377D01*
X1302Y376D01*
X1301Y376D01*
X1301Y376D01*
X1301Y376D01*
X1301Y375D01*
X1301Y375D01*
X1301Y374D01*
X1301Y374D01*
X1301Y373D01*
X1301Y373D01*
X1301Y372D01*
X1300Y372D01*
X1300Y371D01*
X1300Y371D01*
X1300Y370D01*
X1300Y370D01*
X1300Y369D01*
X1300Y369D01*
X1300Y369D01*
X1300Y369D01*
X1300Y368D01*
X1300Y368D01*
X1300Y367D01*
X1299Y367D01*
X1299Y366D01*
X1369Y366D01*
X1369Y367D01*
X1369Y367D01*
X1369Y367D01*
X1369Y367D01*
X1369Y368D01*
X1369Y368D01*
X1369Y369D01*
X1369Y369D01*
X1369Y370D01*
X1368Y370D01*
X1368Y370D01*
X1368Y370D01*
X1368Y371D01*
X1368Y371D01*
X1368Y372D01*
X1368Y372D01*
X1368Y373D01*
X1368Y373D01*
X1368Y374D01*
X1368Y374D01*
X1368Y374D01*
X1367Y374D01*
X1367Y375D01*
X1367Y375D01*
X1367Y376D01*
X1367Y376D01*
X1367Y377D01*
X1367Y377D01*
X1367Y377D01*
X1367Y377D01*
X1367Y378D01*
X1366Y378D01*
X1366Y379D01*
X1366Y379D01*
X1366Y380D01*
X1366Y380D01*
X1366Y380D01*
X1366Y380D01*
X1366Y381D01*
X1366Y381D01*
X1366Y382D01*
X1365Y382D01*
X1365Y383D01*
X1365Y383D01*
X1365Y383D01*
X1365Y383D01*
X1365Y384D01*
X1365Y384D01*
X1365Y385D01*
X1365Y385D01*
X1365Y386D01*
X1365Y386D01*
X1365Y387D01*
X1364Y387D01*
X1364Y387D01*
X1364Y387D01*
X1364Y388D01*
X1364Y388D01*
X1364Y389D01*
X1364Y389D01*
X1364Y390D01*
X1364Y390D01*
X1364Y390D01*
X1363Y390D01*
X1363Y391D01*
X1363Y391D01*
X1363Y392D01*
X1363Y392D01*
X1363Y393D01*
X1363Y393D01*
X1363Y393D01*
X1363Y393D01*
X1363Y394D01*
X1362Y394D01*
X1362Y395D01*
X1362Y395D01*
X1362Y396D01*
X1362Y396D01*
X1362Y396D01*
X1362Y396D01*
X1362Y397D01*
X1362Y397D01*
X1362Y398D01*
X1362Y398D01*
X1362Y399D01*
X1361Y399D01*
X1361Y399D01*
X1361Y399D01*
X1361Y400D01*
X1361Y400D01*
X1361Y401D01*
X1361Y401D01*
X1361Y402D01*
X1307Y402D01*
G37*
D02*
G36*
X1269Y366D02*
X1269Y366D01*
X1401Y366D01*
X1401Y366D01*
X1269Y366D01*
G37*
D02*
G36*
X1269Y366D02*
X1269Y366D01*
X1401Y366D01*
X1401Y366D01*
X1269Y366D01*
G37*
D02*
G36*
X1269Y366D02*
X1269Y366D01*
X1401Y366D01*
X1401Y366D01*
X1269Y366D01*
G37*
D02*
G36*
X1269Y366D02*
X1269Y345D01*
X1401Y345D01*
X1401Y366D01*
X1269Y366D01*
G37*
D02*
G36*
X1317Y447D02*
X1317Y447D01*
X1317Y447D01*
X1317Y446D01*
X1317Y446D01*
X1317Y445D01*
X1317Y445D01*
X1317Y444D01*
X1317Y444D01*
X1317Y443D01*
X1317Y443D01*
X1317Y442D01*
X1316Y442D01*
X1316Y442D01*
X1316Y442D01*
X1316Y441D01*
X1316Y441D01*
X1316Y440D01*
X1316Y440D01*
X1316Y439D01*
X1316Y439D01*
X1316Y438D01*
X1315Y438D01*
X1315Y437D01*
X1315Y437D01*
X1315Y437D01*
X1315Y437D01*
X1315Y436D01*
X1315Y436D01*
X1315Y435D01*
X1315Y435D01*
X1315Y434D01*
X1314Y434D01*
X1314Y433D01*
X1314Y433D01*
X1314Y432D01*
X1314Y432D01*
X1314Y432D01*
X1314Y432D01*
X1314Y431D01*
X1314Y431D01*
X1314Y430D01*
X1314Y430D01*
X1314Y429D01*
X1313Y429D01*
X1313Y428D01*
X1313Y428D01*
X1313Y427D01*
X1313Y427D01*
X1313Y426D01*
X1313Y426D01*
X1313Y425D01*
X1313Y425D01*
X1313Y425D01*
X1312Y425D01*
X1312Y424D01*
X1312Y424D01*
X1312Y423D01*
X1312Y423D01*
X1312Y422D01*
X1312Y422D01*
X1312Y421D01*
X1312Y421D01*
X1312Y421D01*
X1356Y421D01*
X1356Y421D01*
X1356Y421D01*
X1356Y422D01*
X1356Y422D01*
X1356Y423D01*
X1356Y423D01*
X1356Y424D01*
X1356Y424D01*
X1356Y425D01*
X1355Y425D01*
X1355Y425D01*
X1355Y425D01*
X1355Y426D01*
X1355Y426D01*
X1355Y427D01*
X1355Y427D01*
X1355Y428D01*
X1355Y428D01*
X1355Y429D01*
X1355Y429D01*
X1355Y429D01*
X1354Y429D01*
X1354Y430D01*
X1354Y430D01*
X1354Y431D01*
X1354Y431D01*
X1354Y432D01*
X1354Y432D01*
X1354Y432D01*
X1354Y432D01*
X1354Y433D01*
X1353Y433D01*
X1353Y434D01*
X1353Y434D01*
X1353Y435D01*
X1353Y435D01*
X1353Y436D01*
X1353Y436D01*
X1353Y436D01*
X1353Y436D01*
X1353Y437D01*
X1352Y437D01*
X1352Y438D01*
X1352Y438D01*
X1352Y439D01*
X1352Y439D01*
X1352Y439D01*
X1352Y439D01*
X1352Y440D01*
X1352Y440D01*
X1352Y441D01*
X1351Y441D01*
X1351Y442D01*
X1351Y442D01*
X1351Y443D01*
X1351Y443D01*
X1351Y443D01*
X1351Y443D01*
X1351Y444D01*
X1351Y444D01*
X1351Y445D01*
X1351Y445D01*
X1351Y446D01*
X1350Y446D01*
X1350Y446D01*
X1350Y446D01*
X1350Y447D01*
X1317Y447D01*
G37*
D02*
G36*
X1443Y447D02*
X1443Y446D01*
X1431Y446D01*
X1431Y443D01*
X1438Y443D01*
X1438Y412D01*
X1431Y412D01*
X1431Y365D01*
X1446Y365D01*
X1446Y447D01*
X1443Y447D01*
G37*
D02*
G36*
X1513Y447D02*
X1513Y447D01*
X1513Y447D01*
X1513Y447D01*
X1512Y447D01*
X1512Y447D01*
X1512Y447D01*
X1512Y447D01*
X1511Y447D01*
X1511Y446D01*
X1510Y446D01*
X1510Y446D01*
X1509Y446D01*
X1509Y446D01*
X1508Y446D01*
X1508Y446D01*
X1507Y446D01*
X1507Y446D01*
X1505Y446D01*
X1505Y446D01*
X1465Y446D01*
X1465Y365D01*
X1563Y365D01*
X1563Y412D01*
X1555Y412D01*
X1555Y415D01*
X1555Y415D01*
X1555Y443D01*
X1563Y443D01*
X1563Y446D01*
X1551Y446D01*
X1551Y446D01*
X1551Y446D01*
X1551Y447D01*
X1513Y447D01*
G37*
D02*
G36*
X1431Y365D02*
X1431Y365D01*
X1563Y365D01*
X1563Y365D01*
X1431Y365D01*
G37*
D02*
G36*
X1431Y365D02*
X1431Y365D01*
X1563Y365D01*
X1563Y365D01*
X1431Y365D01*
G37*
D02*
G36*
X1431Y365D02*
X1431Y345D01*
X1563Y345D01*
X1563Y365D01*
X1431Y365D01*
G37*
D02*
G54D12*
X0Y984D02*
X1967Y984D01*
X0Y983D02*
X1967Y983D01*
X0Y982D02*
X1967Y982D01*
X0Y981D02*
X1967Y981D01*
X0Y980D02*
X1967Y980D01*
X0Y979D02*
X1967Y979D01*
X0Y978D02*
X1967Y978D01*
X0Y977D02*
X1967Y977D01*
X0Y976D02*
X7Y976D01*
X1960Y976D02*
X1967Y976D01*
X0Y975D02*
X7Y975D01*
X1960Y975D02*
X1967Y975D01*
X0Y974D02*
X7Y974D01*
X1960Y974D02*
X1967Y974D01*
X0Y973D02*
X7Y973D01*
X1960Y973D02*
X1967Y973D01*
X0Y972D02*
X7Y972D01*
X1960Y972D02*
X1967Y972D01*
X0Y971D02*
X7Y971D01*
X1960Y971D02*
X1967Y971D01*
X0Y970D02*
X7Y970D01*
X1960Y970D02*
X1967Y970D01*
X0Y969D02*
X7Y969D01*
X1960Y969D02*
X1967Y969D01*
X0Y968D02*
X7Y968D01*
X1960Y968D02*
X1967Y968D01*
X0Y967D02*
X7Y967D01*
X1960Y967D02*
X1967Y967D01*
X0Y966D02*
X7Y966D01*
X1960Y966D02*
X1967Y966D01*
X0Y965D02*
X7Y965D01*
X1960Y965D02*
X1967Y965D01*
X0Y964D02*
X7Y964D01*
X1960Y964D02*
X1967Y964D01*
X0Y963D02*
X7Y963D01*
X1960Y963D02*
X1967Y963D01*
X0Y962D02*
X7Y962D01*
X1960Y962D02*
X1967Y962D01*
X0Y961D02*
X7Y961D01*
X1960Y961D02*
X1967Y961D01*
X0Y960D02*
X7Y960D01*
X1960Y960D02*
X1967Y960D01*
X0Y959D02*
X7Y959D01*
X1960Y959D02*
X1967Y959D01*
X0Y958D02*
X7Y958D01*
X1960Y958D02*
X1967Y958D01*
X0Y957D02*
X7Y957D01*
X1960Y957D02*
X1967Y957D01*
X0Y956D02*
X7Y956D01*
X1960Y956D02*
X1967Y956D01*
X0Y955D02*
X7Y955D01*
X1960Y955D02*
X1967Y955D01*
X0Y954D02*
X7Y954D01*
X1960Y954D02*
X1967Y954D01*
X0Y953D02*
X7Y953D01*
X1960Y953D02*
X1967Y953D01*
X0Y952D02*
X7Y952D01*
X1960Y952D02*
X1967Y952D01*
X0Y951D02*
X7Y951D01*
X1960Y951D02*
X1967Y951D01*
X0Y950D02*
X7Y950D01*
X1960Y950D02*
X1967Y950D01*
X0Y949D02*
X7Y949D01*
X1960Y949D02*
X1967Y949D01*
X0Y948D02*
X7Y948D01*
X1960Y948D02*
X1967Y948D01*
X0Y947D02*
X7Y947D01*
X1960Y947D02*
X1967Y947D01*
X0Y946D02*
X7Y946D01*
X1960Y946D02*
X1967Y946D01*
X0Y945D02*
X7Y945D01*
X1960Y945D02*
X1967Y945D01*
X0Y944D02*
X7Y944D01*
X1960Y944D02*
X1967Y944D01*
X0Y943D02*
X7Y943D01*
X1960Y943D02*
X1967Y943D01*
X0Y942D02*
X7Y942D01*
X1960Y942D02*
X1967Y942D01*
X0Y941D02*
X7Y941D01*
X1960Y941D02*
X1967Y941D01*
X0Y940D02*
X7Y940D01*
X1960Y940D02*
X1967Y940D01*
X0Y939D02*
X7Y939D01*
X1960Y939D02*
X1967Y939D01*
X0Y938D02*
X7Y938D01*
X1960Y938D02*
X1967Y938D01*
X0Y937D02*
X7Y937D01*
X1960Y937D02*
X1967Y937D01*
X0Y936D02*
X7Y936D01*
X1960Y936D02*
X1967Y936D01*
X0Y935D02*
X7Y935D01*
X1960Y935D02*
X1967Y935D01*
X0Y934D02*
X7Y934D01*
X1960Y934D02*
X1967Y934D01*
X0Y933D02*
X7Y933D01*
X1960Y933D02*
X1967Y933D01*
X0Y932D02*
X7Y932D01*
X1960Y932D02*
X1967Y932D01*
X0Y931D02*
X7Y931D01*
X1960Y931D02*
X1967Y931D01*
X0Y930D02*
X7Y930D01*
X1960Y930D02*
X1967Y930D01*
X0Y929D02*
X7Y929D01*
X1960Y929D02*
X1967Y929D01*
X0Y928D02*
X7Y928D01*
X1960Y928D02*
X1967Y928D01*
X0Y927D02*
X7Y927D01*
X1960Y927D02*
X1967Y927D01*
X0Y926D02*
X7Y926D01*
X1960Y926D02*
X1967Y926D01*
X0Y925D02*
X7Y925D01*
X1960Y925D02*
X1967Y925D01*
X0Y924D02*
X7Y924D01*
X1960Y924D02*
X1967Y924D01*
X0Y923D02*
X7Y923D01*
X1960Y923D02*
X1967Y923D01*
X0Y922D02*
X7Y922D01*
X1960Y922D02*
X1967Y922D01*
X0Y921D02*
X7Y921D01*
X1960Y921D02*
X1967Y921D01*
X0Y920D02*
X7Y920D01*
X1960Y920D02*
X1967Y920D01*
X0Y919D02*
X7Y919D01*
X1960Y919D02*
X1967Y919D01*
X0Y918D02*
X7Y918D01*
X1960Y918D02*
X1967Y918D01*
X0Y917D02*
X7Y917D01*
X1960Y917D02*
X1967Y917D01*
X0Y916D02*
X7Y916D01*
X1960Y916D02*
X1967Y916D01*
X0Y915D02*
X7Y915D01*
X1960Y915D02*
X1967Y915D01*
X0Y914D02*
X7Y914D01*
X1960Y914D02*
X1967Y914D01*
X0Y913D02*
X7Y913D01*
X1960Y913D02*
X1967Y913D01*
X0Y912D02*
X7Y912D01*
X1960Y912D02*
X1967Y912D01*
X0Y911D02*
X7Y911D01*
X1960Y911D02*
X1967Y911D01*
X0Y910D02*
X7Y910D01*
X1960Y910D02*
X1967Y910D01*
X0Y909D02*
X7Y909D01*
X1960Y909D02*
X1967Y909D01*
X0Y908D02*
X7Y908D01*
X1960Y908D02*
X1967Y908D01*
X0Y907D02*
X7Y907D01*
X1960Y907D02*
X1967Y907D01*
X0Y906D02*
X7Y906D01*
X1960Y906D02*
X1967Y906D01*
X0Y905D02*
X7Y905D01*
X1960Y905D02*
X1967Y905D01*
X0Y904D02*
X7Y904D01*
X1960Y904D02*
X1967Y904D01*
X0Y903D02*
X7Y903D01*
X1960Y903D02*
X1967Y903D01*
X0Y902D02*
X7Y902D01*
X1960Y902D02*
X1967Y902D01*
X0Y901D02*
X7Y901D01*
X1696Y901D02*
X1710Y901D01*
X1960Y901D02*
X1967Y901D01*
X0Y900D02*
X7Y900D01*
X1696Y900D02*
X1710Y900D01*
X1960Y900D02*
X1967Y900D01*
X0Y899D02*
X7Y899D01*
X1696Y899D02*
X1711Y899D01*
X1960Y899D02*
X1967Y899D01*
X0Y898D02*
X7Y898D01*
X1696Y898D02*
X1710Y898D01*
X1960Y898D02*
X1967Y898D01*
X0Y897D02*
X7Y897D01*
X1696Y897D02*
X1699Y897D01*
X1960Y897D02*
X1967Y897D01*
X0Y896D02*
X7Y896D01*
X1696Y896D02*
X1699Y896D01*
X1960Y896D02*
X1967Y896D01*
X0Y895D02*
X7Y895D01*
X1696Y895D02*
X1699Y895D01*
X1729Y895D02*
X1731Y895D01*
X1960Y895D02*
X1967Y895D01*
X0Y894D02*
X7Y894D01*
X1696Y894D02*
X1699Y894D01*
X1728Y894D02*
X1731Y894D01*
X1960Y894D02*
X1967Y894D01*
X0Y893D02*
X7Y893D01*
X1696Y893D02*
X1699Y893D01*
X1728Y893D02*
X1731Y893D01*
X1960Y893D02*
X1967Y893D01*
X0Y892D02*
X7Y892D01*
X1696Y892D02*
X1699Y892D01*
X1728Y892D02*
X1731Y892D01*
X1960Y892D02*
X1967Y892D01*
X0Y891D02*
X7Y891D01*
X1696Y891D02*
X1699Y891D01*
X1728Y891D02*
X1731Y891D01*
X1960Y891D02*
X1967Y891D01*
X0Y890D02*
X7Y890D01*
X1696Y890D02*
X1699Y890D01*
X1728Y890D02*
X1731Y890D01*
X1960Y890D02*
X1967Y890D01*
X0Y889D02*
X7Y889D01*
X1696Y889D02*
X1699Y889D01*
X1728Y889D02*
X1731Y889D01*
X1960Y889D02*
X1967Y889D01*
X0Y888D02*
X7Y888D01*
X1696Y888D02*
X1707Y888D01*
X1722Y888D02*
X1737Y888D01*
X1960Y888D02*
X1967Y888D01*
X0Y887D02*
X7Y887D01*
X1696Y887D02*
X1709Y887D01*
X1721Y887D02*
X1739Y887D01*
X1960Y887D02*
X1967Y887D01*
X0Y886D02*
X7Y886D01*
X1099Y886D02*
X1117Y886D01*
X1127Y886D02*
X1132Y886D01*
X1143Y886D02*
X1146Y886D01*
X1156Y886D02*
X1170Y886D01*
X1185Y886D02*
X1187Y886D01*
X1696Y886D02*
X1710Y886D01*
X1721Y886D02*
X1739Y886D01*
X1960Y886D02*
X1967Y886D01*
X0Y885D02*
X7Y885D01*
X1099Y885D02*
X1118Y885D01*
X1127Y885D02*
X1133Y885D01*
X1143Y885D02*
X1146Y885D01*
X1156Y885D02*
X1172Y885D01*
X1184Y885D02*
X1187Y885D01*
X1696Y885D02*
X1710Y885D01*
X1721Y885D02*
X1739Y885D01*
X1960Y885D02*
X1967Y885D01*
X0Y884D02*
X7Y884D01*
X1099Y884D02*
X1117Y884D01*
X1127Y884D02*
X1133Y884D01*
X1143Y884D02*
X1146Y884D01*
X1156Y884D02*
X1173Y884D01*
X1184Y884D02*
X1187Y884D01*
X1707Y884D02*
X1711Y884D01*
X1728Y884D02*
X1732Y884D01*
X1960Y884D02*
X1967Y884D01*
X0Y883D02*
X7Y883D01*
X1099Y883D02*
X1115Y883D01*
X1127Y883D02*
X1133Y883D01*
X1143Y883D02*
X1146Y883D01*
X1156Y883D02*
X1173Y883D01*
X1184Y883D02*
X1187Y883D01*
X1708Y883D02*
X1711Y883D01*
X1728Y883D02*
X1731Y883D01*
X1960Y883D02*
X1967Y883D01*
X0Y882D02*
X7Y882D01*
X1099Y882D02*
X1102Y882D01*
X1127Y882D02*
X1134Y882D01*
X1143Y882D02*
X1146Y882D01*
X1156Y882D02*
X1159Y882D01*
X1170Y882D02*
X1174Y882D01*
X1184Y882D02*
X1187Y882D01*
X1708Y882D02*
X1711Y882D01*
X1728Y882D02*
X1731Y882D01*
X1960Y882D02*
X1967Y882D01*
X0Y881D02*
X7Y881D01*
X1099Y881D02*
X1102Y881D01*
X1127Y881D02*
X1134Y881D01*
X1143Y881D02*
X1146Y881D01*
X1156Y881D02*
X1159Y881D01*
X1171Y881D02*
X1174Y881D01*
X1184Y881D02*
X1187Y881D01*
X1708Y881D02*
X1711Y881D01*
X1728Y881D02*
X1731Y881D01*
X1960Y881D02*
X1967Y881D01*
X0Y880D02*
X7Y880D01*
X647Y880D02*
X651Y880D01*
X661Y880D02*
X665Y880D01*
X723Y880D02*
X730Y880D01*
X741Y880D02*
X745Y880D01*
X758Y880D02*
X758Y880D01*
X771Y880D02*
X779Y880D01*
X1099Y880D02*
X1102Y880D01*
X1127Y880D02*
X1135Y880D01*
X1143Y880D02*
X1146Y880D01*
X1156Y880D02*
X1159Y880D01*
X1171Y880D02*
X1174Y880D01*
X1184Y880D02*
X1187Y880D01*
X1708Y880D02*
X1711Y880D01*
X1728Y880D02*
X1731Y880D01*
X1960Y880D02*
X1967Y880D01*
X0Y879D02*
X7Y879D01*
X647Y879D02*
X651Y879D01*
X660Y879D02*
X665Y879D01*
X721Y879D02*
X731Y879D01*
X741Y879D02*
X746Y879D01*
X757Y879D02*
X759Y879D01*
X770Y879D02*
X781Y879D01*
X1099Y879D02*
X1102Y879D01*
X1127Y879D02*
X1135Y879D01*
X1143Y879D02*
X1146Y879D01*
X1156Y879D02*
X1159Y879D01*
X1171Y879D02*
X1174Y879D01*
X1184Y879D02*
X1187Y879D01*
X1708Y879D02*
X1711Y879D01*
X1728Y879D02*
X1731Y879D01*
X1960Y879D02*
X1967Y879D01*
X0Y878D02*
X7Y878D01*
X647Y878D02*
X652Y878D01*
X660Y878D02*
X665Y878D01*
X720Y878D02*
X731Y878D01*
X741Y878D02*
X746Y878D01*
X757Y878D02*
X760Y878D01*
X769Y878D02*
X782Y878D01*
X1099Y878D02*
X1102Y878D01*
X1127Y878D02*
X1130Y878D01*
X1132Y878D02*
X1136Y878D01*
X1143Y878D02*
X1146Y878D01*
X1156Y878D02*
X1159Y878D01*
X1172Y878D02*
X1175Y878D01*
X1184Y878D02*
X1187Y878D01*
X1708Y878D02*
X1711Y878D01*
X1728Y878D02*
X1731Y878D01*
X1960Y878D02*
X1967Y878D01*
X0Y877D02*
X7Y877D01*
X647Y877D02*
X653Y877D01*
X659Y877D02*
X665Y877D01*
X719Y877D02*
X731Y877D01*
X741Y877D02*
X747Y877D01*
X757Y877D02*
X760Y877D01*
X770Y877D02*
X783Y877D01*
X1099Y877D02*
X1102Y877D01*
X1127Y877D02*
X1130Y877D01*
X1133Y877D02*
X1136Y877D01*
X1143Y877D02*
X1146Y877D01*
X1156Y877D02*
X1159Y877D01*
X1171Y877D02*
X1174Y877D01*
X1184Y877D02*
X1187Y877D01*
X1708Y877D02*
X1711Y877D01*
X1729Y877D02*
X1731Y877D01*
X1960Y877D02*
X1967Y877D01*
X0Y876D02*
X7Y876D01*
X647Y876D02*
X654Y876D01*
X658Y876D02*
X665Y876D01*
X718Y876D02*
X723Y876D01*
X741Y876D02*
X747Y876D01*
X757Y876D02*
X760Y876D01*
X773Y876D02*
X777Y876D01*
X779Y876D02*
X783Y876D01*
X1099Y876D02*
X1102Y876D01*
X1127Y876D02*
X1130Y876D01*
X1133Y876D02*
X1136Y876D01*
X1143Y876D02*
X1146Y876D01*
X1156Y876D02*
X1159Y876D01*
X1171Y876D02*
X1174Y876D01*
X1184Y876D02*
X1187Y876D01*
X1693Y876D02*
X1694Y876D01*
X1708Y876D02*
X1711Y876D01*
X1960Y876D02*
X1967Y876D01*
X0Y875D02*
X7Y875D01*
X647Y875D02*
X654Y875D01*
X658Y875D02*
X665Y875D01*
X717Y875D02*
X721Y875D01*
X741Y875D02*
X747Y875D01*
X757Y875D02*
X760Y875D01*
X773Y875D02*
X776Y875D01*
X780Y875D02*
X784Y875D01*
X1099Y875D02*
X1102Y875D01*
X1127Y875D02*
X1130Y875D01*
X1134Y875D02*
X1137Y875D01*
X1143Y875D02*
X1146Y875D01*
X1156Y875D02*
X1159Y875D01*
X1170Y875D02*
X1174Y875D01*
X1184Y875D02*
X1187Y875D01*
X1692Y875D02*
X1697Y875D01*
X1708Y875D02*
X1711Y875D01*
X1960Y875D02*
X1967Y875D01*
X0Y874D02*
X7Y874D01*
X627Y874D02*
X628Y874D01*
X647Y874D02*
X655Y874D01*
X657Y874D02*
X665Y874D01*
X717Y874D02*
X721Y874D01*
X741Y874D02*
X748Y874D01*
X757Y874D02*
X760Y874D01*
X773Y874D02*
X776Y874D01*
X781Y874D02*
X784Y874D01*
X1099Y874D02*
X1102Y874D01*
X1127Y874D02*
X1130Y874D01*
X1134Y874D02*
X1137Y874D01*
X1143Y874D02*
X1146Y874D01*
X1156Y874D02*
X1159Y874D01*
X1169Y874D02*
X1174Y874D01*
X1184Y874D02*
X1187Y874D01*
X1692Y874D02*
X1710Y874D01*
X1960Y874D02*
X1967Y874D01*
X0Y873D02*
X7Y873D01*
X626Y873D02*
X629Y873D01*
X647Y873D02*
X650Y873D01*
X652Y873D02*
X660Y873D01*
X662Y873D02*
X665Y873D01*
X716Y873D02*
X720Y873D01*
X741Y873D02*
X748Y873D01*
X757Y873D02*
X760Y873D01*
X773Y873D02*
X776Y873D01*
X781Y873D02*
X785Y873D01*
X1099Y873D02*
X1109Y873D01*
X1127Y873D02*
X1130Y873D01*
X1134Y873D02*
X1138Y873D01*
X1143Y873D02*
X1146Y873D01*
X1156Y873D02*
X1173Y873D01*
X1184Y873D02*
X1187Y873D01*
X1693Y873D02*
X1710Y873D01*
X1960Y873D02*
X1967Y873D01*
X0Y872D02*
X7Y872D01*
X626Y872D02*
X629Y872D01*
X647Y872D02*
X650Y872D01*
X652Y872D02*
X659Y872D01*
X662Y872D02*
X665Y872D01*
X715Y872D02*
X719Y872D01*
X741Y872D02*
X749Y872D01*
X757Y872D02*
X760Y872D01*
X773Y872D02*
X776Y872D01*
X782Y872D02*
X785Y872D01*
X1099Y872D02*
X1110Y872D01*
X1127Y872D02*
X1130Y872D01*
X1135Y872D02*
X1138Y872D01*
X1143Y872D02*
X1146Y872D01*
X1156Y872D02*
X1172Y872D01*
X1184Y872D02*
X1187Y872D01*
X1694Y872D02*
X1709Y872D01*
X1960Y872D02*
X1967Y872D01*
X0Y871D02*
X7Y871D01*
X626Y871D02*
X629Y871D01*
X647Y871D02*
X650Y871D01*
X653Y871D02*
X659Y871D01*
X662Y871D02*
X665Y871D01*
X714Y871D02*
X718Y871D01*
X741Y871D02*
X744Y871D01*
X746Y871D02*
X749Y871D01*
X757Y871D02*
X760Y871D01*
X773Y871D02*
X776Y871D01*
X782Y871D02*
X786Y871D01*
X1099Y871D02*
X1110Y871D01*
X1127Y871D02*
X1130Y871D01*
X1135Y871D02*
X1139Y871D01*
X1143Y871D02*
X1146Y871D01*
X1156Y871D02*
X1172Y871D01*
X1184Y871D02*
X1187Y871D01*
X1697Y871D02*
X1708Y871D01*
X1960Y871D02*
X1967Y871D01*
X0Y870D02*
X7Y870D01*
X626Y870D02*
X629Y870D01*
X647Y870D02*
X650Y870D01*
X654Y870D02*
X658Y870D01*
X662Y870D02*
X665Y870D01*
X714Y870D02*
X717Y870D01*
X741Y870D02*
X744Y870D01*
X746Y870D02*
X750Y870D01*
X757Y870D02*
X760Y870D01*
X773Y870D02*
X776Y870D01*
X783Y870D02*
X786Y870D01*
X1099Y870D02*
X1109Y870D01*
X1127Y870D02*
X1130Y870D01*
X1136Y870D02*
X1139Y870D01*
X1143Y870D02*
X1146Y870D01*
X1156Y870D02*
X1173Y870D01*
X1184Y870D02*
X1187Y870D01*
X1960Y870D02*
X1967Y870D01*
X0Y869D02*
X7Y869D01*
X626Y869D02*
X629Y869D01*
X647Y869D02*
X650Y869D01*
X654Y869D02*
X657Y869D01*
X662Y869D02*
X665Y869D01*
X713Y869D02*
X717Y869D01*
X741Y869D02*
X744Y869D01*
X747Y869D02*
X750Y869D01*
X757Y869D02*
X760Y869D01*
X773Y869D02*
X776Y869D01*
X784Y869D02*
X787Y869D01*
X1099Y869D02*
X1102Y869D01*
X1127Y869D02*
X1130Y869D01*
X1136Y869D02*
X1140Y869D01*
X1143Y869D02*
X1146Y869D01*
X1156Y869D02*
X1159Y869D01*
X1170Y869D02*
X1174Y869D01*
X1184Y869D02*
X1187Y869D01*
X1960Y869D02*
X1967Y869D01*
X0Y868D02*
X7Y868D01*
X626Y868D02*
X629Y868D01*
X647Y868D02*
X650Y868D01*
X654Y868D02*
X657Y868D01*
X662Y868D02*
X665Y868D01*
X713Y868D02*
X716Y868D01*
X741Y868D02*
X744Y868D01*
X747Y868D02*
X751Y868D01*
X757Y868D02*
X760Y868D01*
X773Y868D02*
X776Y868D01*
X784Y868D02*
X787Y868D01*
X1099Y868D02*
X1102Y868D01*
X1127Y868D02*
X1130Y868D01*
X1137Y868D02*
X1140Y868D01*
X1143Y868D02*
X1146Y868D01*
X1156Y868D02*
X1159Y868D01*
X1171Y868D02*
X1174Y868D01*
X1184Y868D02*
X1187Y868D01*
X1960Y868D02*
X1967Y868D01*
X0Y867D02*
X7Y867D01*
X626Y867D02*
X629Y867D01*
X647Y867D02*
X650Y867D01*
X655Y867D02*
X657Y867D01*
X662Y867D02*
X665Y867D01*
X713Y867D02*
X716Y867D01*
X741Y867D02*
X744Y867D01*
X748Y867D02*
X751Y867D01*
X757Y867D02*
X760Y867D01*
X773Y867D02*
X776Y867D01*
X784Y867D02*
X788Y867D01*
X1099Y867D02*
X1102Y867D01*
X1127Y867D02*
X1130Y867D01*
X1137Y867D02*
X1140Y867D01*
X1143Y867D02*
X1146Y867D01*
X1156Y867D02*
X1159Y867D01*
X1171Y867D02*
X1174Y867D01*
X1184Y867D02*
X1187Y867D01*
X1960Y867D02*
X1967Y867D01*
X0Y866D02*
X7Y866D01*
X619Y866D02*
X636Y866D01*
X647Y866D02*
X650Y866D01*
X662Y866D02*
X665Y866D01*
X713Y866D02*
X716Y866D01*
X741Y866D02*
X744Y866D01*
X748Y866D02*
X751Y866D01*
X757Y866D02*
X760Y866D01*
X773Y866D02*
X776Y866D01*
X785Y866D02*
X788Y866D01*
X1099Y866D02*
X1102Y866D01*
X1127Y866D02*
X1130Y866D01*
X1138Y866D02*
X1141Y866D01*
X1143Y866D02*
X1146Y866D01*
X1156Y866D02*
X1159Y866D01*
X1171Y866D02*
X1174Y866D01*
X1184Y866D02*
X1187Y866D01*
X1960Y866D02*
X1967Y866D01*
X0Y865D02*
X7Y865D01*
X618Y865D02*
X637Y865D01*
X647Y865D02*
X650Y865D01*
X662Y865D02*
X665Y865D01*
X713Y865D02*
X715Y865D01*
X741Y865D02*
X744Y865D01*
X748Y865D02*
X752Y865D01*
X757Y865D02*
X760Y865D01*
X773Y865D02*
X776Y865D01*
X785Y865D02*
X788Y865D01*
X1099Y865D02*
X1102Y865D01*
X1127Y865D02*
X1130Y865D01*
X1138Y865D02*
X1141Y865D01*
X1143Y865D02*
X1146Y865D01*
X1156Y865D02*
X1159Y865D01*
X1172Y865D02*
X1175Y865D01*
X1184Y865D02*
X1187Y865D01*
X1960Y865D02*
X1967Y865D01*
X0Y864D02*
X7Y864D01*
X618Y864D02*
X637Y864D01*
X647Y864D02*
X650Y864D01*
X662Y864D02*
X665Y864D01*
X713Y864D02*
X715Y864D01*
X741Y864D02*
X744Y864D01*
X749Y864D02*
X752Y864D01*
X757Y864D02*
X760Y864D01*
X773Y864D02*
X776Y864D01*
X785Y864D02*
X788Y864D01*
X1099Y864D02*
X1102Y864D01*
X1127Y864D02*
X1130Y864D01*
X1138Y864D02*
X1146Y864D01*
X1156Y864D02*
X1159Y864D01*
X1171Y864D02*
X1174Y864D01*
X1184Y864D02*
X1187Y864D01*
X1960Y864D02*
X1967Y864D01*
X0Y863D02*
X7Y863D01*
X619Y863D02*
X636Y863D01*
X647Y863D02*
X650Y863D01*
X662Y863D02*
X665Y863D01*
X713Y863D02*
X715Y863D01*
X723Y863D02*
X731Y863D01*
X741Y863D02*
X744Y863D01*
X749Y863D02*
X753Y863D01*
X757Y863D02*
X760Y863D01*
X773Y863D02*
X776Y863D01*
X785Y863D02*
X788Y863D01*
X1099Y863D02*
X1102Y863D01*
X1127Y863D02*
X1130Y863D01*
X1139Y863D02*
X1146Y863D01*
X1156Y863D02*
X1159Y863D01*
X1171Y863D02*
X1174Y863D01*
X1184Y863D02*
X1187Y863D01*
X1960Y863D02*
X1967Y863D01*
X0Y862D02*
X7Y862D01*
X626Y862D02*
X629Y862D01*
X647Y862D02*
X650Y862D01*
X662Y862D02*
X665Y862D01*
X713Y862D02*
X715Y862D01*
X722Y862D02*
X731Y862D01*
X741Y862D02*
X744Y862D01*
X750Y862D02*
X753Y862D01*
X757Y862D02*
X760Y862D01*
X773Y862D02*
X776Y862D01*
X784Y862D02*
X788Y862D01*
X1099Y862D02*
X1102Y862D01*
X1127Y862D02*
X1130Y862D01*
X1139Y862D02*
X1146Y862D01*
X1156Y862D02*
X1159Y862D01*
X1171Y862D02*
X1174Y862D01*
X1184Y862D02*
X1187Y862D01*
X1960Y862D02*
X1967Y862D01*
X0Y861D02*
X7Y861D01*
X626Y861D02*
X629Y861D01*
X647Y861D02*
X650Y861D01*
X662Y861D02*
X665Y861D01*
X713Y861D02*
X715Y861D01*
X722Y861D02*
X731Y861D01*
X741Y861D02*
X744Y861D01*
X750Y861D02*
X754Y861D01*
X757Y861D02*
X760Y861D01*
X773Y861D02*
X776Y861D01*
X784Y861D02*
X787Y861D01*
X1099Y861D02*
X1102Y861D01*
X1127Y861D02*
X1130Y861D01*
X1140Y861D02*
X1146Y861D01*
X1156Y861D02*
X1159Y861D01*
X1170Y861D02*
X1174Y861D01*
X1184Y861D02*
X1187Y861D01*
X1960Y861D02*
X1967Y861D01*
X0Y860D02*
X7Y860D01*
X626Y860D02*
X629Y860D01*
X647Y860D02*
X650Y860D01*
X662Y860D02*
X665Y860D01*
X713Y860D02*
X715Y860D01*
X723Y860D02*
X731Y860D01*
X741Y860D02*
X744Y860D01*
X751Y860D02*
X754Y860D01*
X757Y860D02*
X760Y860D01*
X773Y860D02*
X776Y860D01*
X783Y860D02*
X787Y860D01*
X1099Y860D02*
X1116Y860D01*
X1127Y860D02*
X1130Y860D01*
X1140Y860D02*
X1146Y860D01*
X1156Y860D02*
X1173Y860D01*
X1184Y860D02*
X1202Y860D01*
X1960Y860D02*
X1967Y860D01*
X0Y859D02*
X7Y859D01*
X626Y859D02*
X629Y859D01*
X647Y859D02*
X650Y859D01*
X662Y859D02*
X665Y859D01*
X713Y859D02*
X715Y859D01*
X728Y859D02*
X731Y859D01*
X741Y859D02*
X744Y859D01*
X751Y859D02*
X754Y859D01*
X757Y859D02*
X760Y859D01*
X773Y859D02*
X776Y859D01*
X783Y859D02*
X786Y859D01*
X1099Y859D02*
X1117Y859D01*
X1127Y859D02*
X1130Y859D01*
X1141Y859D02*
X1146Y859D01*
X1156Y859D02*
X1172Y859D01*
X1184Y859D02*
X1203Y859D01*
X1960Y859D02*
X1967Y859D01*
X0Y858D02*
X7Y858D01*
X626Y858D02*
X629Y858D01*
X647Y858D02*
X650Y858D01*
X662Y858D02*
X665Y858D01*
X713Y858D02*
X715Y858D01*
X728Y858D02*
X731Y858D01*
X741Y858D02*
X744Y858D01*
X752Y858D02*
X755Y858D01*
X757Y858D02*
X760Y858D01*
X773Y858D02*
X776Y858D01*
X782Y858D02*
X786Y858D01*
X1099Y858D02*
X1118Y858D01*
X1127Y858D02*
X1130Y858D01*
X1141Y858D02*
X1146Y858D01*
X1156Y858D02*
X1171Y858D01*
X1184Y858D02*
X1203Y858D01*
X1960Y858D02*
X1967Y858D01*
X0Y857D02*
X7Y857D01*
X626Y857D02*
X629Y857D01*
X647Y857D02*
X650Y857D01*
X662Y857D02*
X665Y857D01*
X713Y857D02*
X715Y857D01*
X728Y857D02*
X731Y857D01*
X741Y857D02*
X744Y857D01*
X752Y857D02*
X760Y857D01*
X773Y857D02*
X776Y857D01*
X782Y857D02*
X785Y857D01*
X1099Y857D02*
X1117Y857D01*
X1128Y857D02*
X1130Y857D01*
X1141Y857D02*
X1146Y857D01*
X1156Y857D02*
X1170Y857D01*
X1184Y857D02*
X1202Y857D01*
X1960Y857D02*
X1967Y857D01*
X0Y856D02*
X7Y856D01*
X626Y856D02*
X629Y856D01*
X647Y856D02*
X650Y856D01*
X662Y856D02*
X665Y856D01*
X713Y856D02*
X715Y856D01*
X728Y856D02*
X731Y856D01*
X741Y856D02*
X744Y856D01*
X752Y856D02*
X760Y856D01*
X773Y856D02*
X776Y856D01*
X781Y856D02*
X785Y856D01*
X1960Y856D02*
X1967Y856D01*
X0Y855D02*
X7Y855D01*
X647Y855D02*
X650Y855D01*
X662Y855D02*
X665Y855D01*
X713Y855D02*
X716Y855D01*
X728Y855D02*
X731Y855D01*
X741Y855D02*
X744Y855D01*
X753Y855D02*
X760Y855D01*
X773Y855D02*
X776Y855D01*
X781Y855D02*
X784Y855D01*
X1960Y855D02*
X1967Y855D01*
X0Y854D02*
X7Y854D01*
X647Y854D02*
X650Y854D01*
X662Y854D02*
X665Y854D01*
X713Y854D02*
X716Y854D01*
X727Y854D02*
X731Y854D01*
X741Y854D02*
X744Y854D01*
X753Y854D02*
X760Y854D01*
X773Y854D02*
X776Y854D01*
X780Y854D02*
X784Y854D01*
X1960Y854D02*
X1967Y854D01*
X0Y853D02*
X7Y853D01*
X647Y853D02*
X650Y853D01*
X662Y853D02*
X665Y853D01*
X713Y853D02*
X731Y853D01*
X741Y853D02*
X744Y853D01*
X754Y853D02*
X760Y853D01*
X770Y853D02*
X783Y853D01*
X1960Y853D02*
X1967Y853D01*
X0Y852D02*
X7Y852D01*
X647Y852D02*
X650Y852D01*
X662Y852D02*
X665Y852D01*
X714Y852D02*
X730Y852D01*
X741Y852D02*
X744Y852D01*
X754Y852D02*
X760Y852D01*
X770Y852D02*
X783Y852D01*
X1960Y852D02*
X1967Y852D01*
X0Y851D02*
X7Y851D01*
X647Y851D02*
X650Y851D01*
X662Y851D02*
X665Y851D01*
X715Y851D02*
X729Y851D01*
X741Y851D02*
X744Y851D01*
X755Y851D02*
X760Y851D01*
X770Y851D02*
X782Y851D01*
X1960Y851D02*
X1967Y851D01*
X0Y850D02*
X7Y850D01*
X647Y850D02*
X649Y850D01*
X663Y850D02*
X665Y850D01*
X716Y850D02*
X728Y850D01*
X742Y850D02*
X743Y850D01*
X755Y850D02*
X760Y850D01*
X770Y850D02*
X780Y850D01*
X1960Y850D02*
X1967Y850D01*
X0Y849D02*
X7Y849D01*
X1908Y849D02*
X1912Y849D01*
X1960Y849D02*
X1967Y849D01*
X0Y848D02*
X7Y848D01*
X1905Y848D02*
X1914Y848D01*
X1960Y848D02*
X1967Y848D01*
X0Y847D02*
X7Y847D01*
X1903Y847D02*
X1916Y847D01*
X1960Y847D02*
X1967Y847D01*
X0Y846D02*
X7Y846D01*
X1901Y846D02*
X1918Y846D01*
X1960Y846D02*
X1967Y846D01*
X0Y845D02*
X7Y845D01*
X1899Y845D02*
X1907Y845D01*
X1912Y845D02*
X1920Y845D01*
X1960Y845D02*
X1967Y845D01*
X0Y844D02*
X7Y844D01*
X1898Y844D02*
X1905Y844D01*
X1914Y844D02*
X1922Y844D01*
X1960Y844D02*
X1967Y844D01*
X0Y843D02*
X7Y843D01*
X1896Y843D02*
X1903Y843D01*
X1916Y843D02*
X1923Y843D01*
X1960Y843D02*
X1967Y843D01*
X0Y842D02*
X7Y842D01*
X1896Y842D02*
X1901Y842D01*
X1918Y842D02*
X1924Y842D01*
X1960Y842D02*
X1967Y842D01*
X0Y841D02*
X7Y841D01*
X1895Y841D02*
X1899Y841D01*
X1920Y841D02*
X1925Y841D01*
X1960Y841D02*
X1967Y841D01*
X0Y840D02*
X7Y840D01*
X1895Y840D02*
X1898Y840D01*
X1922Y840D02*
X1925Y840D01*
X1960Y840D02*
X1967Y840D01*
X0Y839D02*
X7Y839D01*
X1895Y839D02*
X1898Y839D01*
X1921Y839D02*
X1925Y839D01*
X1960Y839D02*
X1967Y839D01*
X0Y838D02*
X7Y838D01*
X1895Y838D02*
X1900Y838D01*
X1920Y838D02*
X1924Y838D01*
X1960Y838D02*
X1967Y838D01*
X0Y837D02*
X7Y837D01*
X1896Y837D02*
X1902Y837D01*
X1918Y837D02*
X1924Y837D01*
X1960Y837D02*
X1967Y837D01*
X0Y836D02*
X7Y836D01*
X1897Y836D02*
X1904Y836D01*
X1916Y836D02*
X1923Y836D01*
X1960Y836D02*
X1967Y836D01*
X0Y835D02*
X7Y835D01*
X1898Y835D02*
X1906Y835D01*
X1914Y835D02*
X1922Y835D01*
X1960Y835D02*
X1967Y835D01*
X0Y834D02*
X7Y834D01*
X1900Y834D02*
X1908Y834D01*
X1912Y834D02*
X1920Y834D01*
X1960Y834D02*
X1967Y834D01*
X0Y833D02*
X7Y833D01*
X1902Y833D02*
X1918Y833D01*
X1960Y833D02*
X1967Y833D01*
X0Y832D02*
X7Y832D01*
X1904Y832D02*
X1916Y832D01*
X1960Y832D02*
X1967Y832D01*
X0Y831D02*
X7Y831D01*
X1906Y831D02*
X1914Y831D01*
X1960Y831D02*
X1967Y831D01*
X0Y830D02*
X7Y830D01*
X1909Y830D02*
X1911Y830D01*
X1960Y830D02*
X1967Y830D01*
X0Y829D02*
X7Y829D01*
X1960Y829D02*
X1967Y829D01*
X0Y828D02*
X7Y828D01*
X1960Y828D02*
X1967Y828D01*
X0Y827D02*
X7Y827D01*
X1960Y827D02*
X1967Y827D01*
X0Y826D02*
X7Y826D01*
X1960Y826D02*
X1967Y826D01*
X0Y825D02*
X7Y825D01*
X1960Y825D02*
X1967Y825D01*
X0Y824D02*
X7Y824D01*
X1960Y824D02*
X1967Y824D01*
X0Y823D02*
X7Y823D01*
X1960Y823D02*
X1967Y823D01*
X0Y822D02*
X7Y822D01*
X1960Y822D02*
X1967Y822D01*
X0Y821D02*
X7Y821D01*
X1960Y821D02*
X1967Y821D01*
X0Y820D02*
X7Y820D01*
X1895Y820D02*
X1924Y820D01*
X1960Y820D02*
X1967Y820D01*
X0Y819D02*
X7Y819D01*
X1895Y819D02*
X1925Y819D01*
X1960Y819D02*
X1967Y819D01*
X0Y818D02*
X7Y818D01*
X1895Y818D02*
X1924Y818D01*
X1960Y818D02*
X1967Y818D01*
X0Y817D02*
X7Y817D01*
X1897Y817D02*
X1923Y817D01*
X1960Y817D02*
X1967Y817D01*
X0Y816D02*
X7Y816D01*
X1908Y816D02*
X1911Y816D01*
X1960Y816D02*
X1967Y816D01*
X0Y815D02*
X7Y815D01*
X1908Y815D02*
X1911Y815D01*
X1960Y815D02*
X1967Y815D01*
X0Y814D02*
X7Y814D01*
X1908Y814D02*
X1911Y814D01*
X1960Y814D02*
X1967Y814D01*
X0Y813D02*
X7Y813D01*
X1908Y813D02*
X1911Y813D01*
X1960Y813D02*
X1967Y813D01*
X0Y812D02*
X7Y812D01*
X1908Y812D02*
X1911Y812D01*
X1960Y812D02*
X1967Y812D01*
X0Y811D02*
X474Y811D01*
X1908Y811D02*
X1911Y811D01*
X1960Y811D02*
X1967Y811D01*
X0Y810D02*
X475Y810D01*
X1908Y810D02*
X1911Y810D01*
X1960Y810D02*
X1967Y810D01*
X0Y809D02*
X476Y809D01*
X1908Y809D02*
X1911Y809D01*
X1960Y809D02*
X1967Y809D01*
X0Y808D02*
X476Y808D01*
X1908Y808D02*
X1911Y808D01*
X1960Y808D02*
X1967Y808D01*
X0Y807D02*
X477Y807D01*
X1908Y807D02*
X1911Y807D01*
X1960Y807D02*
X1967Y807D01*
X0Y806D02*
X477Y806D01*
X1908Y806D02*
X1911Y806D01*
X1960Y806D02*
X1967Y806D01*
X0Y805D02*
X477Y805D01*
X1896Y805D02*
X1924Y805D01*
X1960Y805D02*
X1967Y805D01*
X0Y804D02*
X477Y804D01*
X1895Y804D02*
X1925Y804D01*
X1960Y804D02*
X1967Y804D01*
X0Y803D02*
X7Y803D01*
X470Y803D02*
X477Y803D01*
X1895Y803D02*
X1925Y803D01*
X1960Y803D02*
X1967Y803D01*
X0Y802D02*
X7Y802D01*
X470Y802D02*
X477Y802D01*
X1896Y802D02*
X1924Y802D01*
X1960Y802D02*
X1967Y802D01*
X0Y801D02*
X7Y801D01*
X470Y801D02*
X477Y801D01*
X1960Y801D02*
X1967Y801D01*
X0Y800D02*
X7Y800D01*
X470Y800D02*
X477Y800D01*
X1960Y800D02*
X1967Y800D01*
X0Y799D02*
X7Y799D01*
X470Y799D02*
X477Y799D01*
X1960Y799D02*
X1967Y799D01*
X0Y798D02*
X7Y798D01*
X470Y798D02*
X477Y798D01*
X1960Y798D02*
X1967Y798D01*
X0Y797D02*
X7Y797D01*
X470Y797D02*
X477Y797D01*
X1960Y797D02*
X1967Y797D01*
X0Y796D02*
X7Y796D01*
X470Y796D02*
X477Y796D01*
X1960Y796D02*
X1967Y796D01*
X0Y795D02*
X7Y795D01*
X470Y795D02*
X477Y795D01*
X1960Y795D02*
X1967Y795D01*
X0Y794D02*
X7Y794D01*
X470Y794D02*
X477Y794D01*
X1960Y794D02*
X1967Y794D01*
X0Y793D02*
X7Y793D01*
X470Y793D02*
X477Y793D01*
X1960Y793D02*
X1967Y793D01*
X0Y792D02*
X7Y792D01*
X470Y792D02*
X477Y792D01*
X1897Y792D02*
X1923Y792D01*
X1960Y792D02*
X1967Y792D01*
X0Y791D02*
X7Y791D01*
X470Y791D02*
X477Y791D01*
X1896Y791D02*
X1924Y791D01*
X1960Y791D02*
X1967Y791D01*
X0Y790D02*
X7Y790D01*
X470Y790D02*
X477Y790D01*
X1685Y790D02*
X1693Y790D01*
X1704Y790D02*
X1708Y790D01*
X1720Y790D02*
X1721Y790D01*
X1733Y790D02*
X1742Y790D01*
X1895Y790D02*
X1924Y790D01*
X1960Y790D02*
X1967Y790D01*
X0Y789D02*
X7Y789D01*
X470Y789D02*
X477Y789D01*
X1683Y789D02*
X1694Y789D01*
X1704Y789D02*
X1709Y789D01*
X1720Y789D02*
X1722Y789D01*
X1732Y789D02*
X1744Y789D01*
X1895Y789D02*
X1925Y789D01*
X1960Y789D02*
X1967Y789D01*
X0Y788D02*
X7Y788D01*
X470Y788D02*
X477Y788D01*
X1682Y788D02*
X1694Y788D01*
X1704Y788D02*
X1709Y788D01*
X1719Y788D02*
X1722Y788D01*
X1732Y788D02*
X1745Y788D01*
X1895Y788D02*
X1898Y788D01*
X1922Y788D02*
X1925Y788D01*
X1960Y788D02*
X1967Y788D01*
X0Y787D02*
X7Y787D01*
X470Y787D02*
X477Y787D01*
X1681Y787D02*
X1693Y787D01*
X1704Y787D02*
X1709Y787D01*
X1719Y787D02*
X1722Y787D01*
X1733Y787D02*
X1746Y787D01*
X1895Y787D02*
X1898Y787D01*
X1922Y787D02*
X1925Y787D01*
X1960Y787D02*
X1967Y787D01*
X0Y786D02*
X7Y786D01*
X470Y786D02*
X477Y786D01*
X1681Y786D02*
X1685Y786D01*
X1704Y786D02*
X1710Y786D01*
X1719Y786D02*
X1722Y786D01*
X1736Y786D02*
X1739Y786D01*
X1742Y786D02*
X1746Y786D01*
X1895Y786D02*
X1898Y786D01*
X1922Y786D02*
X1925Y786D01*
X1960Y786D02*
X1967Y786D01*
X0Y785D02*
X7Y785D01*
X470Y785D02*
X477Y785D01*
X1680Y785D02*
X1684Y785D01*
X1704Y785D02*
X1710Y785D01*
X1719Y785D02*
X1722Y785D01*
X1736Y785D02*
X1739Y785D01*
X1743Y785D02*
X1747Y785D01*
X1895Y785D02*
X1898Y785D01*
X1922Y785D02*
X1925Y785D01*
X1960Y785D02*
X1967Y785D01*
X0Y784D02*
X7Y784D01*
X470Y784D02*
X477Y784D01*
X1679Y784D02*
X1683Y784D01*
X1704Y784D02*
X1711Y784D01*
X1719Y784D02*
X1722Y784D01*
X1736Y784D02*
X1739Y784D01*
X1744Y784D02*
X1747Y784D01*
X1895Y784D02*
X1898Y784D01*
X1922Y784D02*
X1925Y784D01*
X1960Y784D02*
X1967Y784D01*
X0Y783D02*
X7Y783D01*
X470Y783D02*
X477Y783D01*
X1678Y783D02*
X1682Y783D01*
X1704Y783D02*
X1711Y783D01*
X1719Y783D02*
X1722Y783D01*
X1736Y783D02*
X1739Y783D01*
X1744Y783D02*
X1748Y783D01*
X1895Y783D02*
X1898Y783D01*
X1922Y783D02*
X1925Y783D01*
X1960Y783D02*
X1967Y783D01*
X0Y782D02*
X7Y782D01*
X470Y782D02*
X477Y782D01*
X1678Y782D02*
X1682Y782D01*
X1704Y782D02*
X1712Y782D01*
X1719Y782D02*
X1722Y782D01*
X1736Y782D02*
X1739Y782D01*
X1745Y782D02*
X1748Y782D01*
X1895Y782D02*
X1898Y782D01*
X1922Y782D02*
X1925Y782D01*
X1960Y782D02*
X1967Y782D01*
X0Y781D02*
X7Y781D01*
X470Y781D02*
X477Y781D01*
X1677Y781D02*
X1681Y781D01*
X1704Y781D02*
X1707Y781D01*
X1709Y781D02*
X1712Y781D01*
X1719Y781D02*
X1722Y781D01*
X1736Y781D02*
X1739Y781D01*
X1745Y781D02*
X1749Y781D01*
X1895Y781D02*
X1898Y781D01*
X1922Y781D02*
X1925Y781D01*
X1960Y781D02*
X1967Y781D01*
X0Y780D02*
X7Y780D01*
X470Y780D02*
X477Y780D01*
X1676Y780D02*
X1680Y780D01*
X1704Y780D02*
X1707Y780D01*
X1709Y780D02*
X1712Y780D01*
X1719Y780D02*
X1722Y780D01*
X1736Y780D02*
X1739Y780D01*
X1746Y780D02*
X1749Y780D01*
X1895Y780D02*
X1898Y780D01*
X1922Y780D02*
X1925Y780D01*
X1960Y780D02*
X1967Y780D01*
X0Y779D02*
X7Y779D01*
X470Y779D02*
X477Y779D01*
X1676Y779D02*
X1679Y779D01*
X1704Y779D02*
X1707Y779D01*
X1710Y779D02*
X1713Y779D01*
X1719Y779D02*
X1722Y779D01*
X1736Y779D02*
X1739Y779D01*
X1746Y779D02*
X1750Y779D01*
X1895Y779D02*
X1898Y779D01*
X1922Y779D02*
X1925Y779D01*
X1960Y779D02*
X1967Y779D01*
X0Y778D02*
X7Y778D01*
X470Y778D02*
X477Y778D01*
X1675Y778D02*
X1679Y778D01*
X1704Y778D02*
X1707Y778D01*
X1710Y778D02*
X1713Y778D01*
X1719Y778D02*
X1722Y778D01*
X1736Y778D02*
X1739Y778D01*
X1747Y778D02*
X1750Y778D01*
X1895Y778D02*
X1898Y778D01*
X1922Y778D02*
X1925Y778D01*
X1960Y778D02*
X1967Y778D01*
X0Y777D02*
X7Y777D01*
X470Y777D02*
X477Y777D01*
X1675Y777D02*
X1678Y777D01*
X1704Y777D02*
X1707Y777D01*
X1710Y777D02*
X1714Y777D01*
X1719Y777D02*
X1722Y777D01*
X1736Y777D02*
X1739Y777D01*
X1747Y777D02*
X1751Y777D01*
X1895Y777D02*
X1898Y777D01*
X1921Y777D02*
X1925Y777D01*
X1960Y777D02*
X1967Y777D01*
X0Y776D02*
X7Y776D01*
X470Y776D02*
X477Y776D01*
X1675Y776D02*
X1678Y776D01*
X1704Y776D02*
X1707Y776D01*
X1711Y776D02*
X1714Y776D01*
X1719Y776D02*
X1722Y776D01*
X1736Y776D02*
X1739Y776D01*
X1748Y776D02*
X1751Y776D01*
X1895Y776D02*
X1925Y776D01*
X1960Y776D02*
X1967Y776D01*
X0Y775D02*
X7Y775D01*
X470Y775D02*
X477Y775D01*
X1675Y775D02*
X1678Y775D01*
X1704Y775D02*
X1707Y775D01*
X1711Y775D02*
X1715Y775D01*
X1719Y775D02*
X1722Y775D01*
X1736Y775D02*
X1739Y775D01*
X1748Y775D02*
X1751Y775D01*
X1896Y775D02*
X1924Y775D01*
X1960Y775D02*
X1967Y775D01*
X0Y774D02*
X7Y774D01*
X470Y774D02*
X477Y774D01*
X1675Y774D02*
X1678Y774D01*
X1704Y774D02*
X1707Y774D01*
X1712Y774D02*
X1715Y774D01*
X1719Y774D02*
X1722Y774D01*
X1736Y774D02*
X1739Y774D01*
X1748Y774D02*
X1751Y774D01*
X1896Y774D02*
X1923Y774D01*
X1960Y774D02*
X1967Y774D01*
X0Y773D02*
X7Y773D01*
X470Y773D02*
X477Y773D01*
X1675Y773D02*
X1678Y773D01*
X1686Y773D02*
X1694Y773D01*
X1704Y773D02*
X1707Y773D01*
X1712Y773D02*
X1716Y773D01*
X1719Y773D02*
X1722Y773D01*
X1736Y773D02*
X1739Y773D01*
X1747Y773D02*
X1751Y773D01*
X1898Y773D02*
X1921Y773D01*
X1960Y773D02*
X1967Y773D01*
X0Y772D02*
X7Y772D01*
X470Y772D02*
X477Y772D01*
X1675Y772D02*
X1678Y772D01*
X1685Y772D02*
X1694Y772D01*
X1704Y772D02*
X1707Y772D01*
X1713Y772D02*
X1716Y772D01*
X1719Y772D02*
X1722Y772D01*
X1736Y772D02*
X1739Y772D01*
X1747Y772D02*
X1750Y772D01*
X1960Y772D02*
X1967Y772D01*
X0Y771D02*
X7Y771D01*
X470Y771D02*
X477Y771D01*
X1675Y771D02*
X1678Y771D01*
X1685Y771D02*
X1694Y771D01*
X1704Y771D02*
X1707Y771D01*
X1713Y771D02*
X1716Y771D01*
X1719Y771D02*
X1722Y771D01*
X1736Y771D02*
X1739Y771D01*
X1746Y771D02*
X1750Y771D01*
X1960Y771D02*
X1967Y771D01*
X0Y770D02*
X7Y770D01*
X470Y770D02*
X477Y770D01*
X1675Y770D02*
X1678Y770D01*
X1686Y770D02*
X1694Y770D01*
X1704Y770D02*
X1707Y770D01*
X1713Y770D02*
X1717Y770D01*
X1719Y770D02*
X1722Y770D01*
X1736Y770D02*
X1739Y770D01*
X1746Y770D02*
X1749Y770D01*
X1960Y770D02*
X1967Y770D01*
X0Y769D02*
X7Y769D01*
X470Y769D02*
X477Y769D01*
X1675Y769D02*
X1678Y769D01*
X1691Y769D02*
X1694Y769D01*
X1704Y769D02*
X1707Y769D01*
X1714Y769D02*
X1717Y769D01*
X1719Y769D02*
X1722Y769D01*
X1736Y769D02*
X1739Y769D01*
X1745Y769D02*
X1749Y769D01*
X1960Y769D02*
X1967Y769D01*
X0Y768D02*
X7Y768D01*
X470Y768D02*
X477Y768D01*
X1675Y768D02*
X1678Y768D01*
X1691Y768D02*
X1694Y768D01*
X1704Y768D02*
X1707Y768D01*
X1714Y768D02*
X1722Y768D01*
X1736Y768D02*
X1739Y768D01*
X1745Y768D02*
X1748Y768D01*
X1960Y768D02*
X1967Y768D01*
X0Y767D02*
X7Y767D01*
X470Y767D02*
X477Y767D01*
X1675Y767D02*
X1678Y767D01*
X1691Y767D02*
X1694Y767D01*
X1704Y767D02*
X1707Y767D01*
X1715Y767D02*
X1722Y767D01*
X1736Y767D02*
X1739Y767D01*
X1744Y767D02*
X1748Y767D01*
X1960Y767D02*
X1967Y767D01*
X0Y766D02*
X7Y766D01*
X470Y766D02*
X477Y766D01*
X1675Y766D02*
X1678Y766D01*
X1691Y766D02*
X1694Y766D01*
X1704Y766D02*
X1707Y766D01*
X1715Y766D02*
X1722Y766D01*
X1736Y766D02*
X1739Y766D01*
X1744Y766D02*
X1747Y766D01*
X1960Y766D02*
X1967Y766D01*
X0Y765D02*
X7Y765D01*
X470Y765D02*
X477Y765D01*
X1675Y765D02*
X1678Y765D01*
X1691Y765D02*
X1694Y765D01*
X1704Y765D02*
X1707Y765D01*
X1716Y765D02*
X1722Y765D01*
X1736Y765D02*
X1739Y765D01*
X1743Y765D02*
X1747Y765D01*
X1960Y765D02*
X1967Y765D01*
X0Y764D02*
X7Y764D01*
X470Y764D02*
X477Y764D01*
X1675Y764D02*
X1679Y764D01*
X1690Y764D02*
X1694Y764D01*
X1704Y764D02*
X1707Y764D01*
X1716Y764D02*
X1722Y764D01*
X1736Y764D02*
X1739Y764D01*
X1743Y764D02*
X1746Y764D01*
X1914Y764D02*
X1923Y764D01*
X1960Y764D02*
X1967Y764D01*
X0Y763D02*
X7Y763D01*
X470Y763D02*
X477Y763D01*
X1676Y763D02*
X1693Y763D01*
X1704Y763D02*
X1707Y763D01*
X1717Y763D02*
X1722Y763D01*
X1733Y763D02*
X1746Y763D01*
X1912Y763D02*
X1924Y763D01*
X1960Y763D02*
X1967Y763D01*
X0Y762D02*
X7Y762D01*
X470Y762D02*
X477Y762D01*
X1677Y762D02*
X1693Y762D01*
X1704Y762D02*
X1707Y762D01*
X1717Y762D02*
X1722Y762D01*
X1732Y762D02*
X1745Y762D01*
X1912Y762D02*
X1925Y762D01*
X1960Y762D02*
X1967Y762D01*
X0Y761D02*
X7Y761D01*
X470Y761D02*
X477Y761D01*
X1678Y761D02*
X1692Y761D01*
X1704Y761D02*
X1707Y761D01*
X1717Y761D02*
X1722Y761D01*
X1732Y761D02*
X1744Y761D01*
X1912Y761D02*
X1925Y761D01*
X1960Y761D02*
X1967Y761D01*
X0Y760D02*
X7Y760D01*
X470Y760D02*
X477Y760D01*
X1679Y760D02*
X1690Y760D01*
X1705Y760D02*
X1706Y760D01*
X1718Y760D02*
X1722Y760D01*
X1733Y760D02*
X1743Y760D01*
X1912Y760D02*
X1915Y760D01*
X1921Y760D02*
X1925Y760D01*
X1960Y760D02*
X1967Y760D01*
X0Y759D02*
X7Y759D01*
X470Y759D02*
X477Y759D01*
X1912Y759D02*
X1915Y759D01*
X1922Y759D02*
X1925Y759D01*
X1960Y759D02*
X1967Y759D01*
X0Y758D02*
X7Y758D01*
X470Y758D02*
X477Y758D01*
X1912Y758D02*
X1915Y758D01*
X1922Y758D02*
X1925Y758D01*
X1960Y758D02*
X1967Y758D01*
X0Y757D02*
X7Y757D01*
X470Y757D02*
X477Y757D01*
X1912Y757D02*
X1915Y757D01*
X1922Y757D02*
X1925Y757D01*
X1960Y757D02*
X1967Y757D01*
X0Y756D02*
X7Y756D01*
X470Y756D02*
X477Y756D01*
X1912Y756D02*
X1915Y756D01*
X1922Y756D02*
X1925Y756D01*
X1960Y756D02*
X1967Y756D01*
X0Y755D02*
X7Y755D01*
X470Y755D02*
X477Y755D01*
X1912Y755D02*
X1915Y755D01*
X1922Y755D02*
X1925Y755D01*
X1960Y755D02*
X1967Y755D01*
X0Y754D02*
X7Y754D01*
X470Y754D02*
X477Y754D01*
X1912Y754D02*
X1915Y754D01*
X1922Y754D02*
X1925Y754D01*
X1960Y754D02*
X1967Y754D01*
X0Y753D02*
X7Y753D01*
X470Y753D02*
X477Y753D01*
X1912Y753D02*
X1915Y753D01*
X1922Y753D02*
X1925Y753D01*
X1960Y753D02*
X1967Y753D01*
X0Y752D02*
X7Y752D01*
X470Y752D02*
X477Y752D01*
X1912Y752D02*
X1915Y752D01*
X1922Y752D02*
X1925Y752D01*
X1960Y752D02*
X1967Y752D01*
X0Y751D02*
X7Y751D01*
X470Y751D02*
X477Y751D01*
X1912Y751D02*
X1915Y751D01*
X1922Y751D02*
X1925Y751D01*
X1960Y751D02*
X1967Y751D01*
X0Y750D02*
X7Y750D01*
X470Y750D02*
X477Y750D01*
X1896Y750D02*
X1897Y750D01*
X1912Y750D02*
X1915Y750D01*
X1922Y750D02*
X1925Y750D01*
X1960Y750D02*
X1967Y750D01*
X0Y749D02*
X7Y749D01*
X470Y749D02*
X477Y749D01*
X1895Y749D02*
X1898Y749D01*
X1912Y749D02*
X1915Y749D01*
X1922Y749D02*
X1925Y749D01*
X1960Y749D02*
X1967Y749D01*
X0Y748D02*
X7Y748D01*
X470Y748D02*
X477Y748D01*
X1895Y748D02*
X1925Y748D01*
X1960Y748D02*
X1967Y748D01*
X0Y747D02*
X7Y747D01*
X470Y747D02*
X477Y747D01*
X1895Y747D02*
X1925Y747D01*
X1960Y747D02*
X1967Y747D01*
X0Y746D02*
X7Y746D01*
X470Y746D02*
X477Y746D01*
X1895Y746D02*
X1925Y746D01*
X1960Y746D02*
X1967Y746D01*
X0Y745D02*
X7Y745D01*
X470Y745D02*
X477Y745D01*
X1896Y745D02*
X1924Y745D01*
X1960Y745D02*
X1967Y745D01*
X0Y744D02*
X7Y744D01*
X470Y744D02*
X477Y744D01*
X1960Y744D02*
X1967Y744D01*
X0Y743D02*
X7Y743D01*
X470Y743D02*
X477Y743D01*
X1960Y743D02*
X1967Y743D01*
X0Y742D02*
X7Y742D01*
X470Y742D02*
X477Y742D01*
X1960Y742D02*
X1967Y742D01*
X0Y741D02*
X7Y741D01*
X470Y741D02*
X477Y741D01*
X1960Y741D02*
X1967Y741D01*
X0Y740D02*
X7Y740D01*
X470Y740D02*
X477Y740D01*
X1960Y740D02*
X1967Y740D01*
X0Y739D02*
X7Y739D01*
X470Y739D02*
X477Y739D01*
X1960Y739D02*
X1967Y739D01*
X0Y738D02*
X7Y738D01*
X470Y738D02*
X477Y738D01*
X1960Y738D02*
X1967Y738D01*
X0Y737D02*
X7Y737D01*
X470Y737D02*
X477Y737D01*
X1960Y737D02*
X1967Y737D01*
X0Y736D02*
X7Y736D01*
X470Y736D02*
X477Y736D01*
X1960Y736D02*
X1967Y736D01*
X0Y735D02*
X7Y735D01*
X470Y735D02*
X477Y735D01*
X1897Y735D02*
X1923Y735D01*
X1960Y735D02*
X1967Y735D01*
X0Y734D02*
X7Y734D01*
X470Y734D02*
X477Y734D01*
X1896Y734D02*
X1924Y734D01*
X1960Y734D02*
X1967Y734D01*
X0Y733D02*
X7Y733D01*
X470Y733D02*
X477Y733D01*
X1895Y733D02*
X1924Y733D01*
X1960Y733D02*
X1967Y733D01*
X0Y732D02*
X7Y732D01*
X470Y732D02*
X477Y732D01*
X1895Y732D02*
X1925Y732D01*
X1960Y732D02*
X1967Y732D01*
X0Y731D02*
X7Y731D01*
X470Y731D02*
X477Y731D01*
X1895Y731D02*
X1898Y731D01*
X1922Y731D02*
X1925Y731D01*
X1960Y731D02*
X1967Y731D01*
X0Y730D02*
X7Y730D01*
X470Y730D02*
X477Y730D01*
X1895Y730D02*
X1898Y730D01*
X1922Y730D02*
X1925Y730D01*
X1960Y730D02*
X1967Y730D01*
X0Y729D02*
X7Y729D01*
X470Y729D02*
X477Y729D01*
X1895Y729D02*
X1898Y729D01*
X1922Y729D02*
X1925Y729D01*
X1960Y729D02*
X1967Y729D01*
X0Y728D02*
X7Y728D01*
X470Y728D02*
X477Y728D01*
X1895Y728D02*
X1898Y728D01*
X1922Y728D02*
X1925Y728D01*
X1960Y728D02*
X1967Y728D01*
X0Y727D02*
X7Y727D01*
X470Y727D02*
X477Y727D01*
X1895Y727D02*
X1898Y727D01*
X1922Y727D02*
X1925Y727D01*
X1960Y727D02*
X1967Y727D01*
X0Y726D02*
X7Y726D01*
X470Y726D02*
X477Y726D01*
X1895Y726D02*
X1898Y726D01*
X1922Y726D02*
X1925Y726D01*
X1960Y726D02*
X1967Y726D01*
X0Y725D02*
X7Y725D01*
X470Y725D02*
X477Y725D01*
X1895Y725D02*
X1898Y725D01*
X1922Y725D02*
X1925Y725D01*
X1960Y725D02*
X1967Y725D01*
X0Y724D02*
X7Y724D01*
X470Y724D02*
X477Y724D01*
X1895Y724D02*
X1898Y724D01*
X1922Y724D02*
X1925Y724D01*
X1960Y724D02*
X1967Y724D01*
X0Y723D02*
X7Y723D01*
X470Y723D02*
X477Y723D01*
X1895Y723D02*
X1898Y723D01*
X1922Y723D02*
X1925Y723D01*
X1960Y723D02*
X1967Y723D01*
X0Y722D02*
X7Y722D01*
X470Y722D02*
X477Y722D01*
X1895Y722D02*
X1898Y722D01*
X1922Y722D02*
X1925Y722D01*
X1960Y722D02*
X1967Y722D01*
X0Y721D02*
X7Y721D01*
X470Y721D02*
X477Y721D01*
X1895Y721D02*
X1898Y721D01*
X1922Y721D02*
X1925Y721D01*
X1960Y721D02*
X1967Y721D01*
X0Y720D02*
X7Y720D01*
X470Y720D02*
X477Y720D01*
X1895Y720D02*
X1898Y720D01*
X1921Y720D02*
X1925Y720D01*
X1960Y720D02*
X1967Y720D01*
X0Y719D02*
X7Y719D01*
X470Y719D02*
X477Y719D01*
X1895Y719D02*
X1925Y719D01*
X1960Y719D02*
X1967Y719D01*
X0Y718D02*
X7Y718D01*
X470Y718D02*
X477Y718D01*
X1896Y718D02*
X1924Y718D01*
X1960Y718D02*
X1967Y718D01*
X0Y717D02*
X7Y717D01*
X470Y717D02*
X477Y717D01*
X1897Y717D02*
X1923Y717D01*
X1960Y717D02*
X1967Y717D01*
X0Y716D02*
X7Y716D01*
X470Y716D02*
X477Y716D01*
X1899Y716D02*
X1921Y716D01*
X1960Y716D02*
X1967Y716D01*
X0Y715D02*
X7Y715D01*
X470Y715D02*
X477Y715D01*
X1960Y715D02*
X1967Y715D01*
X0Y714D02*
X7Y714D01*
X470Y714D02*
X477Y714D01*
X1960Y714D02*
X1967Y714D01*
X0Y713D02*
X7Y713D01*
X470Y713D02*
X477Y713D01*
X1960Y713D02*
X1967Y713D01*
X0Y712D02*
X7Y712D01*
X470Y712D02*
X477Y712D01*
X1960Y712D02*
X1967Y712D01*
X0Y711D02*
X7Y711D01*
X470Y711D02*
X477Y711D01*
X1960Y711D02*
X1967Y711D01*
X0Y710D02*
X7Y710D01*
X470Y710D02*
X477Y710D01*
X1960Y710D02*
X1967Y710D01*
X0Y709D02*
X7Y709D01*
X470Y709D02*
X477Y709D01*
X1960Y709D02*
X1967Y709D01*
X0Y708D02*
X7Y708D01*
X470Y708D02*
X477Y708D01*
X1960Y708D02*
X1967Y708D01*
X0Y707D02*
X7Y707D01*
X470Y707D02*
X477Y707D01*
X1900Y707D02*
X1923Y707D01*
X1960Y707D02*
X1967Y707D01*
X0Y706D02*
X7Y706D01*
X470Y706D02*
X477Y706D01*
X1898Y706D02*
X1924Y706D01*
X1960Y706D02*
X1967Y706D01*
X0Y705D02*
X7Y705D01*
X470Y705D02*
X477Y705D01*
X1897Y705D02*
X1925Y705D01*
X1960Y705D02*
X1967Y705D01*
X0Y704D02*
X7Y704D01*
X470Y704D02*
X477Y704D01*
X1896Y704D02*
X1924Y704D01*
X1960Y704D02*
X1967Y704D01*
X0Y703D02*
X7Y703D01*
X470Y703D02*
X477Y703D01*
X1895Y703D02*
X1899Y703D01*
X1960Y703D02*
X1967Y703D01*
X0Y702D02*
X7Y702D01*
X470Y702D02*
X477Y702D01*
X1895Y702D02*
X1898Y702D01*
X1960Y702D02*
X1967Y702D01*
X0Y701D02*
X7Y701D01*
X470Y701D02*
X477Y701D01*
X1895Y701D02*
X1898Y701D01*
X1960Y701D02*
X1967Y701D01*
X0Y700D02*
X7Y700D01*
X470Y700D02*
X477Y700D01*
X1895Y700D02*
X1898Y700D01*
X1960Y700D02*
X1967Y700D01*
X0Y699D02*
X7Y699D01*
X470Y699D02*
X477Y699D01*
X1895Y699D02*
X1898Y699D01*
X1960Y699D02*
X1967Y699D01*
X0Y698D02*
X7Y698D01*
X470Y698D02*
X477Y698D01*
X1895Y698D02*
X1898Y698D01*
X1960Y698D02*
X1967Y698D01*
X0Y697D02*
X7Y697D01*
X470Y697D02*
X477Y697D01*
X1895Y697D02*
X1898Y697D01*
X1960Y697D02*
X1967Y697D01*
X0Y696D02*
X7Y696D01*
X470Y696D02*
X477Y696D01*
X1895Y696D02*
X1898Y696D01*
X1960Y696D02*
X1967Y696D01*
X0Y695D02*
X7Y695D01*
X470Y695D02*
X477Y695D01*
X1895Y695D02*
X1898Y695D01*
X1960Y695D02*
X1967Y695D01*
X0Y694D02*
X7Y694D01*
X470Y694D02*
X477Y694D01*
X1895Y694D02*
X1898Y694D01*
X1960Y694D02*
X1967Y694D01*
X0Y693D02*
X7Y693D01*
X470Y693D02*
X477Y693D01*
X1895Y693D02*
X1898Y693D01*
X1960Y693D02*
X1967Y693D01*
X0Y692D02*
X7Y692D01*
X470Y692D02*
X477Y692D01*
X1895Y692D02*
X1899Y692D01*
X1960Y692D02*
X1967Y692D01*
X0Y691D02*
X7Y691D01*
X470Y691D02*
X477Y691D01*
X1896Y691D02*
X1924Y691D01*
X1960Y691D02*
X1967Y691D01*
X0Y690D02*
X7Y690D01*
X470Y690D02*
X477Y690D01*
X1896Y690D02*
X1925Y690D01*
X1960Y690D02*
X1967Y690D01*
X0Y689D02*
X7Y689D01*
X470Y689D02*
X477Y689D01*
X1897Y689D02*
X1925Y689D01*
X1960Y689D02*
X1967Y689D01*
X0Y688D02*
X7Y688D01*
X470Y688D02*
X477Y688D01*
X1899Y688D02*
X1924Y688D01*
X1960Y688D02*
X1967Y688D01*
X0Y687D02*
X7Y687D01*
X470Y687D02*
X477Y687D01*
X1960Y687D02*
X1967Y687D01*
X0Y686D02*
X7Y686D01*
X470Y686D02*
X477Y686D01*
X1960Y686D02*
X1967Y686D01*
X0Y685D02*
X7Y685D01*
X470Y685D02*
X477Y685D01*
X1960Y685D02*
X1967Y685D01*
X0Y684D02*
X7Y684D01*
X470Y684D02*
X477Y684D01*
X1960Y684D02*
X1967Y684D01*
X0Y683D02*
X7Y683D01*
X470Y683D02*
X477Y683D01*
X1960Y683D02*
X1967Y683D01*
X0Y682D02*
X7Y682D01*
X470Y682D02*
X477Y682D01*
X1960Y682D02*
X1967Y682D01*
X0Y681D02*
X7Y681D01*
X470Y681D02*
X477Y681D01*
X1960Y681D02*
X1967Y681D01*
X0Y680D02*
X7Y680D01*
X470Y680D02*
X477Y680D01*
X1710Y680D02*
X1714Y680D01*
X1960Y680D02*
X1967Y680D01*
X0Y679D02*
X7Y679D01*
X470Y679D02*
X477Y679D01*
X1692Y679D02*
X1693Y679D01*
X1710Y679D02*
X1714Y679D01*
X1960Y679D02*
X1967Y679D01*
X0Y678D02*
X7Y678D01*
X470Y678D02*
X477Y678D01*
X1691Y678D02*
X1694Y678D01*
X1710Y678D02*
X1715Y678D01*
X1960Y678D02*
X1967Y678D01*
X0Y677D02*
X7Y677D01*
X470Y677D02*
X477Y677D01*
X1691Y677D02*
X1694Y677D01*
X1710Y677D02*
X1714Y677D01*
X1960Y677D02*
X1967Y677D01*
X0Y676D02*
X7Y676D01*
X470Y676D02*
X477Y676D01*
X1691Y676D02*
X1694Y676D01*
X1710Y676D02*
X1714Y676D01*
X1960Y676D02*
X1967Y676D01*
X0Y675D02*
X7Y675D01*
X470Y675D02*
X477Y675D01*
X1691Y675D02*
X1694Y675D01*
X1960Y675D02*
X1967Y675D01*
X0Y674D02*
X7Y674D01*
X470Y674D02*
X477Y674D01*
X1691Y674D02*
X1694Y674D01*
X1960Y674D02*
X1967Y674D01*
X0Y673D02*
X7Y673D01*
X470Y673D02*
X477Y673D01*
X1691Y673D02*
X1694Y673D01*
X1960Y673D02*
X1967Y673D01*
X0Y672D02*
X7Y672D01*
X470Y672D02*
X477Y672D01*
X1691Y672D02*
X1694Y672D01*
X1960Y672D02*
X1967Y672D01*
X0Y671D02*
X7Y671D01*
X470Y671D02*
X477Y671D01*
X1691Y671D02*
X1694Y671D01*
X1960Y671D02*
X1967Y671D01*
X0Y670D02*
X7Y670D01*
X470Y670D02*
X477Y670D01*
X1680Y670D02*
X1688Y670D01*
X1691Y670D02*
X1694Y670D01*
X1706Y670D02*
X1714Y670D01*
X1737Y670D02*
X1744Y670D01*
X1748Y670D02*
X1750Y670D01*
X1960Y670D02*
X1967Y670D01*
X0Y669D02*
X7Y669D01*
X470Y669D02*
X477Y669D01*
X1678Y669D02*
X1689Y669D01*
X1691Y669D02*
X1694Y669D01*
X1706Y669D02*
X1714Y669D01*
X1735Y669D02*
X1746Y669D01*
X1748Y669D02*
X1751Y669D01*
X1960Y669D02*
X1967Y669D01*
X0Y668D02*
X7Y668D01*
X470Y668D02*
X477Y668D01*
X1677Y668D02*
X1694Y668D01*
X1706Y668D02*
X1715Y668D01*
X1734Y668D02*
X1751Y668D01*
X1960Y668D02*
X1967Y668D01*
X0Y667D02*
X7Y667D01*
X470Y667D02*
X477Y667D01*
X1676Y667D02*
X1694Y667D01*
X1707Y667D02*
X1715Y667D01*
X1733Y667D02*
X1751Y667D01*
X1960Y667D02*
X1967Y667D01*
X0Y666D02*
X7Y666D01*
X470Y666D02*
X477Y666D01*
X1676Y666D02*
X1680Y666D01*
X1687Y666D02*
X1694Y666D01*
X1712Y666D02*
X1715Y666D01*
X1733Y666D02*
X1737Y666D01*
X1744Y666D02*
X1751Y666D01*
X1960Y666D02*
X1967Y666D01*
X0Y665D02*
X7Y665D01*
X470Y665D02*
X477Y665D01*
X1675Y665D02*
X1679Y665D01*
X1688Y665D02*
X1694Y665D01*
X1712Y665D02*
X1715Y665D01*
X1732Y665D02*
X1736Y665D01*
X1745Y665D02*
X1751Y665D01*
X1960Y665D02*
X1967Y665D01*
X0Y664D02*
X7Y664D01*
X470Y664D02*
X477Y664D01*
X1675Y664D02*
X1678Y664D01*
X1690Y664D02*
X1694Y664D01*
X1712Y664D02*
X1715Y664D01*
X1732Y664D02*
X1735Y664D01*
X1747Y664D02*
X1751Y664D01*
X1960Y664D02*
X1967Y664D01*
X0Y663D02*
X7Y663D01*
X470Y663D02*
X477Y663D01*
X1675Y663D02*
X1678Y663D01*
X1691Y663D02*
X1694Y663D01*
X1712Y663D02*
X1715Y663D01*
X1732Y663D02*
X1735Y663D01*
X1747Y663D02*
X1751Y663D01*
X1960Y663D02*
X1967Y663D01*
X0Y662D02*
X7Y662D01*
X470Y662D02*
X477Y662D01*
X1675Y662D02*
X1678Y662D01*
X1691Y662D02*
X1694Y662D01*
X1712Y662D02*
X1715Y662D01*
X1732Y662D02*
X1735Y662D01*
X1748Y662D02*
X1751Y662D01*
X1960Y662D02*
X1967Y662D01*
X0Y661D02*
X7Y661D01*
X470Y661D02*
X477Y661D01*
X1675Y661D02*
X1678Y661D01*
X1691Y661D02*
X1694Y661D01*
X1712Y661D02*
X1715Y661D01*
X1732Y661D02*
X1735Y661D01*
X1748Y661D02*
X1751Y661D01*
X1960Y661D02*
X1967Y661D01*
X0Y660D02*
X7Y660D01*
X470Y660D02*
X477Y660D01*
X1675Y660D02*
X1678Y660D01*
X1691Y660D02*
X1694Y660D01*
X1712Y660D02*
X1715Y660D01*
X1732Y660D02*
X1735Y660D01*
X1748Y660D02*
X1751Y660D01*
X1960Y660D02*
X1967Y660D01*
X0Y659D02*
X7Y659D01*
X470Y659D02*
X477Y659D01*
X1675Y659D02*
X1678Y659D01*
X1691Y659D02*
X1694Y659D01*
X1712Y659D02*
X1715Y659D01*
X1732Y659D02*
X1735Y659D01*
X1748Y659D02*
X1751Y659D01*
X1960Y659D02*
X1967Y659D01*
X0Y658D02*
X7Y658D01*
X470Y658D02*
X477Y658D01*
X1675Y658D02*
X1678Y658D01*
X1691Y658D02*
X1694Y658D01*
X1712Y658D02*
X1715Y658D01*
X1732Y658D02*
X1735Y658D01*
X1747Y658D02*
X1751Y658D01*
X1960Y658D02*
X1967Y658D01*
X0Y657D02*
X7Y657D01*
X470Y657D02*
X477Y657D01*
X1675Y657D02*
X1678Y657D01*
X1691Y657D02*
X1694Y657D01*
X1712Y657D02*
X1715Y657D01*
X1732Y657D02*
X1735Y657D01*
X1746Y657D02*
X1751Y657D01*
X1960Y657D02*
X1967Y657D01*
X0Y656D02*
X7Y656D01*
X470Y656D02*
X477Y656D01*
X1675Y656D02*
X1678Y656D01*
X1690Y656D02*
X1694Y656D01*
X1712Y656D02*
X1715Y656D01*
X1732Y656D02*
X1736Y656D01*
X1745Y656D02*
X1751Y656D01*
X1960Y656D02*
X1967Y656D01*
X0Y655D02*
X7Y655D01*
X470Y655D02*
X477Y655D01*
X1675Y655D02*
X1678Y655D01*
X1689Y655D02*
X1694Y655D01*
X1712Y655D02*
X1715Y655D01*
X1733Y655D02*
X1737Y655D01*
X1744Y655D02*
X1751Y655D01*
X1960Y655D02*
X1967Y655D01*
X0Y654D02*
X7Y654D01*
X470Y654D02*
X477Y654D01*
X1675Y654D02*
X1679Y654D01*
X1688Y654D02*
X1694Y654D01*
X1712Y654D02*
X1715Y654D01*
X1733Y654D02*
X1751Y654D01*
X1960Y654D02*
X1967Y654D01*
X0Y653D02*
X7Y653D01*
X470Y653D02*
X477Y653D01*
X1676Y653D02*
X1680Y653D01*
X1687Y653D02*
X1694Y653D01*
X1712Y653D02*
X1715Y653D01*
X1734Y653D02*
X1751Y653D01*
X1960Y653D02*
X1967Y653D01*
X0Y652D02*
X7Y652D01*
X470Y652D02*
X477Y652D01*
X1677Y652D02*
X1694Y652D01*
X1706Y652D02*
X1720Y652D01*
X1735Y652D02*
X1746Y652D01*
X1748Y652D02*
X1751Y652D01*
X1960Y652D02*
X1967Y652D01*
X0Y651D02*
X7Y651D01*
X470Y651D02*
X477Y651D01*
X1677Y651D02*
X1694Y651D01*
X1706Y651D02*
X1720Y651D01*
X1737Y651D02*
X1744Y651D01*
X1748Y651D02*
X1751Y651D01*
X1960Y651D02*
X1967Y651D01*
X0Y650D02*
X7Y650D01*
X470Y650D02*
X477Y650D01*
X1679Y650D02*
X1689Y650D01*
X1691Y650D02*
X1694Y650D01*
X1706Y650D02*
X1720Y650D01*
X1748Y650D02*
X1751Y650D01*
X1960Y650D02*
X1967Y650D01*
X0Y649D02*
X7Y649D01*
X470Y649D02*
X477Y649D01*
X1680Y649D02*
X1687Y649D01*
X1692Y649D02*
X1693Y649D01*
X1706Y649D02*
X1720Y649D01*
X1748Y649D02*
X1751Y649D01*
X1960Y649D02*
X1967Y649D01*
X0Y648D02*
X7Y648D01*
X470Y648D02*
X477Y648D01*
X1748Y648D02*
X1751Y648D01*
X1960Y648D02*
X1967Y648D01*
X0Y647D02*
X7Y647D01*
X470Y647D02*
X477Y647D01*
X1748Y647D02*
X1751Y647D01*
X1960Y647D02*
X1967Y647D01*
X0Y646D02*
X7Y646D01*
X470Y646D02*
X477Y646D01*
X1747Y646D02*
X1751Y646D01*
X1960Y646D02*
X1967Y646D01*
X0Y645D02*
X7Y645D01*
X470Y645D02*
X477Y645D01*
X1746Y645D02*
X1750Y645D01*
X1960Y645D02*
X1967Y645D01*
X0Y644D02*
X7Y644D01*
X470Y644D02*
X477Y644D01*
X1735Y644D02*
X1750Y644D01*
X1960Y644D02*
X1967Y644D01*
X0Y643D02*
X7Y643D01*
X470Y643D02*
X477Y643D01*
X1734Y643D02*
X1749Y643D01*
X1960Y643D02*
X1967Y643D01*
X0Y642D02*
X7Y642D01*
X470Y642D02*
X477Y642D01*
X1734Y642D02*
X1748Y642D01*
X1960Y642D02*
X1967Y642D01*
X0Y641D02*
X7Y641D01*
X471Y641D02*
X477Y641D01*
X1735Y641D02*
X1746Y641D01*
X1960Y641D02*
X1967Y641D01*
X0Y640D02*
X7Y640D01*
X471Y640D02*
X477Y640D01*
X1960Y640D02*
X1967Y640D01*
X0Y639D02*
X7Y639D01*
X471Y639D02*
X477Y639D01*
X1960Y639D02*
X1967Y639D01*
X0Y638D02*
X7Y638D01*
X471Y638D02*
X477Y638D01*
X1960Y638D02*
X1967Y638D01*
X0Y637D02*
X7Y637D01*
X472Y637D02*
X477Y637D01*
X1960Y637D02*
X1967Y637D01*
X0Y636D02*
X7Y636D01*
X472Y636D02*
X477Y636D01*
X1960Y636D02*
X1967Y636D01*
X0Y635D02*
X7Y635D01*
X472Y635D02*
X477Y635D01*
X1960Y635D02*
X1967Y635D01*
X0Y634D02*
X7Y634D01*
X472Y634D02*
X477Y634D01*
X1960Y634D02*
X1967Y634D01*
X0Y633D02*
X7Y633D01*
X472Y633D02*
X477Y633D01*
X1960Y633D02*
X1967Y633D01*
X0Y632D02*
X7Y632D01*
X472Y632D02*
X477Y632D01*
X1960Y632D02*
X1967Y632D01*
X0Y631D02*
X7Y631D01*
X472Y631D02*
X477Y631D01*
X1960Y631D02*
X1967Y631D01*
X0Y630D02*
X7Y630D01*
X472Y630D02*
X477Y630D01*
X1960Y630D02*
X1967Y630D01*
X0Y629D02*
X7Y629D01*
X472Y629D02*
X477Y629D01*
X1960Y629D02*
X1967Y629D01*
X0Y628D02*
X7Y628D01*
X472Y628D02*
X477Y628D01*
X1960Y628D02*
X1967Y628D01*
X0Y627D02*
X7Y627D01*
X471Y627D02*
X477Y627D01*
X1960Y627D02*
X1967Y627D01*
X0Y626D02*
X7Y626D01*
X471Y626D02*
X477Y626D01*
X1960Y626D02*
X1967Y626D01*
X0Y625D02*
X7Y625D01*
X471Y625D02*
X477Y625D01*
X1960Y625D02*
X1967Y625D01*
X0Y624D02*
X7Y624D01*
X471Y624D02*
X477Y624D01*
X1960Y624D02*
X1967Y624D01*
X0Y623D02*
X7Y623D01*
X471Y623D02*
X477Y623D01*
X1960Y623D02*
X1967Y623D01*
X0Y622D02*
X7Y622D01*
X470Y622D02*
X477Y622D01*
X1960Y622D02*
X1967Y622D01*
X0Y621D02*
X7Y621D01*
X470Y621D02*
X477Y621D01*
X1960Y621D02*
X1967Y621D01*
X0Y620D02*
X7Y620D01*
X470Y620D02*
X477Y620D01*
X1960Y620D02*
X1967Y620D01*
X0Y619D02*
X7Y619D01*
X470Y619D02*
X477Y619D01*
X1960Y619D02*
X1967Y619D01*
X0Y618D02*
X7Y618D01*
X470Y618D02*
X477Y618D01*
X1960Y618D02*
X1967Y618D01*
X0Y617D02*
X7Y617D01*
X470Y617D02*
X477Y617D01*
X1960Y617D02*
X1967Y617D01*
X0Y616D02*
X7Y616D01*
X470Y616D02*
X477Y616D01*
X1960Y616D02*
X1967Y616D01*
X0Y615D02*
X7Y615D01*
X470Y615D02*
X477Y615D01*
X1960Y615D02*
X1967Y615D01*
X0Y614D02*
X7Y614D01*
X470Y614D02*
X477Y614D01*
X1960Y614D02*
X1967Y614D01*
X0Y613D02*
X7Y613D01*
X470Y613D02*
X477Y613D01*
X1960Y613D02*
X1967Y613D01*
X0Y612D02*
X7Y612D01*
X470Y612D02*
X477Y612D01*
X1960Y612D02*
X1967Y612D01*
X0Y611D02*
X7Y611D01*
X470Y611D02*
X477Y611D01*
X1960Y611D02*
X1967Y611D01*
X0Y610D02*
X7Y610D01*
X470Y610D02*
X477Y610D01*
X1960Y610D02*
X1967Y610D01*
X0Y609D02*
X7Y609D01*
X470Y609D02*
X477Y609D01*
X1960Y609D02*
X1967Y609D01*
X0Y608D02*
X7Y608D01*
X470Y608D02*
X477Y608D01*
X1960Y608D02*
X1967Y608D01*
X0Y607D02*
X7Y607D01*
X470Y607D02*
X477Y607D01*
X1960Y607D02*
X1967Y607D01*
X0Y606D02*
X7Y606D01*
X470Y606D02*
X477Y606D01*
X1960Y606D02*
X1967Y606D01*
X0Y605D02*
X7Y605D01*
X470Y605D02*
X477Y605D01*
X1960Y605D02*
X1967Y605D01*
X0Y604D02*
X7Y604D01*
X470Y604D02*
X477Y604D01*
X1960Y604D02*
X1967Y604D01*
X0Y603D02*
X7Y603D01*
X470Y603D02*
X477Y603D01*
X1960Y603D02*
X1967Y603D01*
X0Y602D02*
X7Y602D01*
X470Y602D02*
X477Y602D01*
X1960Y602D02*
X1967Y602D01*
X0Y601D02*
X7Y601D01*
X470Y601D02*
X477Y601D01*
X1960Y601D02*
X1967Y601D01*
X0Y600D02*
X7Y600D01*
X470Y600D02*
X477Y600D01*
X1960Y600D02*
X1967Y600D01*
X0Y599D02*
X7Y599D01*
X470Y599D02*
X477Y599D01*
X1960Y599D02*
X1967Y599D01*
X0Y598D02*
X7Y598D01*
X470Y598D02*
X477Y598D01*
X1960Y598D02*
X1967Y598D01*
X0Y597D02*
X7Y597D01*
X470Y597D02*
X477Y597D01*
X1960Y597D02*
X1967Y597D01*
X0Y596D02*
X7Y596D01*
X470Y596D02*
X477Y596D01*
X1960Y596D02*
X1967Y596D01*
X0Y595D02*
X7Y595D01*
X470Y595D02*
X477Y595D01*
X1960Y595D02*
X1967Y595D01*
X0Y594D02*
X7Y594D01*
X470Y594D02*
X477Y594D01*
X1960Y594D02*
X1967Y594D01*
X0Y593D02*
X7Y593D01*
X470Y593D02*
X477Y593D01*
X1960Y593D02*
X1967Y593D01*
X0Y592D02*
X7Y592D01*
X470Y592D02*
X477Y592D01*
X1960Y592D02*
X1967Y592D01*
X0Y591D02*
X7Y591D01*
X470Y591D02*
X477Y591D01*
X1960Y591D02*
X1967Y591D01*
X0Y590D02*
X7Y590D01*
X470Y590D02*
X477Y590D01*
X1960Y590D02*
X1967Y590D01*
X0Y589D02*
X7Y589D01*
X470Y589D02*
X477Y589D01*
X1960Y589D02*
X1967Y589D01*
X0Y588D02*
X7Y588D01*
X470Y588D02*
X477Y588D01*
X1960Y588D02*
X1967Y588D01*
X0Y587D02*
X7Y587D01*
X470Y587D02*
X477Y587D01*
X1960Y587D02*
X1967Y587D01*
X0Y586D02*
X7Y586D01*
X470Y586D02*
X477Y586D01*
X1960Y586D02*
X1967Y586D01*
X0Y585D02*
X7Y585D01*
X470Y585D02*
X477Y585D01*
X1960Y585D02*
X1967Y585D01*
X0Y584D02*
X7Y584D01*
X470Y584D02*
X477Y584D01*
X1960Y584D02*
X1967Y584D01*
X0Y583D02*
X7Y583D01*
X470Y583D02*
X477Y583D01*
X1960Y583D02*
X1967Y583D01*
X0Y582D02*
X7Y582D01*
X470Y582D02*
X477Y582D01*
X1960Y582D02*
X1967Y582D01*
X0Y581D02*
X7Y581D01*
X470Y581D02*
X477Y581D01*
X1960Y581D02*
X1967Y581D01*
X0Y580D02*
X7Y580D01*
X470Y580D02*
X477Y580D01*
X1960Y580D02*
X1967Y580D01*
X0Y579D02*
X7Y579D01*
X470Y579D02*
X477Y579D01*
X1960Y579D02*
X1967Y579D01*
X0Y578D02*
X7Y578D01*
X470Y578D02*
X477Y578D01*
X1960Y578D02*
X1967Y578D01*
X0Y577D02*
X7Y577D01*
X470Y577D02*
X477Y577D01*
X1960Y577D02*
X1967Y577D01*
X0Y576D02*
X7Y576D01*
X470Y576D02*
X477Y576D01*
X1960Y576D02*
X1967Y576D01*
X0Y575D02*
X7Y575D01*
X470Y575D02*
X477Y575D01*
X1960Y575D02*
X1967Y575D01*
X0Y574D02*
X7Y574D01*
X470Y574D02*
X477Y574D01*
X1960Y574D02*
X1967Y574D01*
X0Y573D02*
X7Y573D01*
X470Y573D02*
X477Y573D01*
X1960Y573D02*
X1967Y573D01*
X0Y572D02*
X7Y572D01*
X470Y572D02*
X477Y572D01*
X1960Y572D02*
X1967Y572D01*
X0Y571D02*
X7Y571D01*
X470Y571D02*
X477Y571D01*
X1960Y571D02*
X1967Y571D01*
X0Y570D02*
X7Y570D01*
X470Y570D02*
X477Y570D01*
X1960Y570D02*
X1967Y570D01*
X0Y569D02*
X7Y569D01*
X470Y569D02*
X477Y569D01*
X1960Y569D02*
X1967Y569D01*
X0Y568D02*
X7Y568D01*
X470Y568D02*
X477Y568D01*
X1960Y568D02*
X1967Y568D01*
X0Y567D02*
X7Y567D01*
X470Y567D02*
X477Y567D01*
X1960Y567D02*
X1967Y567D01*
X0Y566D02*
X7Y566D01*
X470Y566D02*
X477Y566D01*
X1960Y566D02*
X1967Y566D01*
X0Y565D02*
X7Y565D01*
X470Y565D02*
X477Y565D01*
X1960Y565D02*
X1967Y565D01*
X0Y564D02*
X7Y564D01*
X470Y564D02*
X477Y564D01*
X1960Y564D02*
X1967Y564D01*
X0Y563D02*
X7Y563D01*
X470Y563D02*
X477Y563D01*
X1960Y563D02*
X1967Y563D01*
X0Y562D02*
X7Y562D01*
X470Y562D02*
X477Y562D01*
X1960Y562D02*
X1967Y562D01*
X0Y561D02*
X7Y561D01*
X470Y561D02*
X477Y561D01*
X1960Y561D02*
X1967Y561D01*
X0Y560D02*
X7Y560D01*
X470Y560D02*
X477Y560D01*
X1960Y560D02*
X1967Y560D01*
X0Y559D02*
X7Y559D01*
X470Y559D02*
X477Y559D01*
X1960Y559D02*
X1967Y559D01*
X0Y558D02*
X7Y558D01*
X470Y558D02*
X477Y558D01*
X1960Y558D02*
X1967Y558D01*
X0Y557D02*
X7Y557D01*
X71Y557D02*
X99Y557D01*
X470Y557D02*
X477Y557D01*
X1960Y557D02*
X1967Y557D01*
X0Y556D02*
X7Y556D01*
X70Y556D02*
X99Y556D01*
X470Y556D02*
X477Y556D01*
X1960Y556D02*
X1967Y556D01*
X0Y555D02*
X7Y555D01*
X70Y555D02*
X99Y555D01*
X470Y555D02*
X477Y555D01*
X1960Y555D02*
X1967Y555D01*
X0Y554D02*
X7Y554D01*
X70Y554D02*
X99Y554D01*
X470Y554D02*
X477Y554D01*
X1960Y554D02*
X1967Y554D01*
X0Y553D02*
X7Y553D01*
X86Y553D02*
X90Y553D01*
X96Y553D02*
X99Y553D01*
X470Y553D02*
X477Y553D01*
X1960Y553D02*
X1967Y553D01*
X0Y552D02*
X7Y552D01*
X86Y552D02*
X89Y552D01*
X96Y552D02*
X99Y552D01*
X470Y552D02*
X477Y552D01*
X1960Y552D02*
X1967Y552D01*
X0Y551D02*
X7Y551D01*
X86Y551D02*
X89Y551D01*
X96Y551D02*
X99Y551D01*
X470Y551D02*
X477Y551D01*
X1960Y551D02*
X1967Y551D01*
X0Y550D02*
X7Y550D01*
X86Y550D02*
X89Y550D01*
X96Y550D02*
X99Y550D01*
X470Y550D02*
X477Y550D01*
X1960Y550D02*
X1967Y550D01*
X0Y549D02*
X7Y549D01*
X84Y549D02*
X89Y549D01*
X96Y549D02*
X99Y549D01*
X470Y549D02*
X477Y549D01*
X1960Y549D02*
X1967Y549D01*
X0Y548D02*
X7Y548D01*
X82Y548D02*
X89Y548D01*
X96Y548D02*
X99Y548D01*
X470Y548D02*
X477Y548D01*
X1960Y548D02*
X1967Y548D01*
X0Y547D02*
X7Y547D01*
X80Y547D02*
X89Y547D01*
X96Y547D02*
X99Y547D01*
X470Y547D02*
X477Y547D01*
X1960Y547D02*
X1967Y547D01*
X0Y546D02*
X7Y546D01*
X79Y546D02*
X89Y546D01*
X96Y546D02*
X99Y546D01*
X470Y546D02*
X477Y546D01*
X1960Y546D02*
X1967Y546D01*
X0Y545D02*
X7Y545D01*
X77Y545D02*
X84Y545D01*
X86Y545D02*
X89Y545D01*
X96Y545D02*
X99Y545D01*
X470Y545D02*
X477Y545D01*
X1960Y545D02*
X1967Y545D01*
X0Y544D02*
X7Y544D01*
X75Y544D02*
X82Y544D01*
X86Y544D02*
X89Y544D01*
X96Y544D02*
X99Y544D01*
X470Y544D02*
X477Y544D01*
X1960Y544D02*
X1967Y544D01*
X0Y543D02*
X7Y543D01*
X74Y543D02*
X81Y543D01*
X86Y543D02*
X89Y543D01*
X96Y543D02*
X99Y543D01*
X470Y543D02*
X477Y543D01*
X1960Y543D02*
X1967Y543D01*
X0Y542D02*
X7Y542D01*
X72Y542D02*
X79Y542D01*
X87Y542D02*
X90Y542D01*
X96Y542D02*
X99Y542D01*
X471Y542D02*
X477Y542D01*
X1960Y542D02*
X1967Y542D01*
X0Y541D02*
X7Y541D01*
X70Y541D02*
X77Y541D01*
X87Y541D02*
X99Y541D01*
X471Y541D02*
X477Y541D01*
X1960Y541D02*
X1967Y541D01*
X0Y540D02*
X7Y540D01*
X70Y540D02*
X75Y540D01*
X88Y540D02*
X98Y540D01*
X471Y540D02*
X477Y540D01*
X1960Y540D02*
X1967Y540D01*
X0Y539D02*
X7Y539D01*
X70Y539D02*
X74Y539D01*
X89Y539D02*
X97Y539D01*
X471Y539D02*
X477Y539D01*
X1960Y539D02*
X1967Y539D01*
X0Y538D02*
X7Y538D01*
X70Y538D02*
X72Y538D01*
X90Y538D02*
X96Y538D01*
X471Y538D02*
X477Y538D01*
X1960Y538D02*
X1967Y538D01*
X0Y537D02*
X7Y537D01*
X472Y537D02*
X477Y537D01*
X1960Y537D02*
X1967Y537D01*
X0Y536D02*
X7Y536D01*
X472Y536D02*
X477Y536D01*
X1960Y536D02*
X1967Y536D01*
X0Y535D02*
X7Y535D01*
X472Y535D02*
X477Y535D01*
X1960Y535D02*
X1967Y535D01*
X0Y534D02*
X7Y534D01*
X472Y534D02*
X477Y534D01*
X1960Y534D02*
X1967Y534D01*
X0Y533D02*
X7Y533D01*
X472Y533D02*
X477Y533D01*
X1960Y533D02*
X1967Y533D01*
X0Y532D02*
X7Y532D01*
X472Y532D02*
X477Y532D01*
X1960Y532D02*
X1967Y532D01*
X0Y531D02*
X7Y531D01*
X472Y531D02*
X477Y531D01*
X1960Y531D02*
X1967Y531D01*
X0Y530D02*
X7Y530D01*
X472Y530D02*
X477Y530D01*
X1960Y530D02*
X1967Y530D01*
X0Y529D02*
X7Y529D01*
X472Y529D02*
X477Y529D01*
X1960Y529D02*
X1967Y529D01*
X0Y528D02*
X7Y528D01*
X472Y528D02*
X477Y528D01*
X1960Y528D02*
X1967Y528D01*
X0Y527D02*
X7Y527D01*
X471Y527D02*
X477Y527D01*
X1960Y527D02*
X1967Y527D01*
X0Y526D02*
X7Y526D01*
X73Y526D02*
X82Y526D01*
X471Y526D02*
X477Y526D01*
X1960Y526D02*
X1967Y526D01*
X0Y525D02*
X7Y525D01*
X72Y525D02*
X83Y525D01*
X471Y525D02*
X477Y525D01*
X1960Y525D02*
X1967Y525D01*
X0Y524D02*
X7Y524D01*
X71Y524D02*
X82Y524D01*
X471Y524D02*
X477Y524D01*
X1960Y524D02*
X1967Y524D01*
X0Y523D02*
X7Y523D01*
X70Y523D02*
X82Y523D01*
X471Y523D02*
X477Y523D01*
X1960Y523D02*
X1967Y523D01*
X0Y522D02*
X7Y522D01*
X70Y522D02*
X73Y522D01*
X470Y522D02*
X477Y522D01*
X1960Y522D02*
X1967Y522D01*
X0Y521D02*
X7Y521D01*
X70Y521D02*
X73Y521D01*
X470Y521D02*
X477Y521D01*
X1960Y521D02*
X1967Y521D01*
X0Y520D02*
X7Y520D01*
X70Y520D02*
X73Y520D01*
X470Y520D02*
X477Y520D01*
X1960Y520D02*
X1967Y520D01*
X0Y519D02*
X7Y519D01*
X70Y519D02*
X73Y519D01*
X470Y519D02*
X477Y519D01*
X1960Y519D02*
X1967Y519D01*
X0Y518D02*
X7Y518D01*
X70Y518D02*
X73Y518D01*
X470Y518D02*
X477Y518D01*
X1960Y518D02*
X1967Y518D01*
X0Y517D02*
X7Y517D01*
X70Y517D02*
X73Y517D01*
X470Y517D02*
X477Y517D01*
X1960Y517D02*
X1967Y517D01*
X0Y516D02*
X7Y516D01*
X70Y516D02*
X73Y516D01*
X470Y516D02*
X477Y516D01*
X1960Y516D02*
X1967Y516D01*
X0Y515D02*
X7Y515D01*
X70Y515D02*
X97Y515D01*
X470Y515D02*
X477Y515D01*
X1960Y515D02*
X1967Y515D01*
X0Y514D02*
X7Y514D01*
X71Y514D02*
X99Y514D01*
X470Y514D02*
X477Y514D01*
X1960Y514D02*
X1967Y514D01*
X0Y513D02*
X7Y513D01*
X71Y513D02*
X99Y513D01*
X470Y513D02*
X477Y513D01*
X1960Y513D02*
X1967Y513D01*
X0Y512D02*
X7Y512D01*
X73Y512D02*
X99Y512D01*
X470Y512D02*
X477Y512D01*
X1960Y512D02*
X1967Y512D01*
X0Y511D02*
X7Y511D01*
X470Y511D02*
X477Y511D01*
X1960Y511D02*
X1967Y511D01*
X0Y510D02*
X7Y510D01*
X470Y510D02*
X477Y510D01*
X1960Y510D02*
X1967Y510D01*
X0Y509D02*
X7Y509D01*
X470Y509D02*
X477Y509D01*
X1960Y509D02*
X1967Y509D01*
X0Y508D02*
X7Y508D01*
X470Y508D02*
X477Y508D01*
X1960Y508D02*
X1967Y508D01*
X0Y507D02*
X7Y507D01*
X470Y507D02*
X477Y507D01*
X1960Y507D02*
X1967Y507D01*
X0Y506D02*
X7Y506D01*
X470Y506D02*
X477Y506D01*
X1960Y506D02*
X1967Y506D01*
X0Y505D02*
X7Y505D01*
X470Y505D02*
X477Y505D01*
X1960Y505D02*
X1967Y505D01*
X0Y504D02*
X7Y504D01*
X470Y504D02*
X477Y504D01*
X1960Y504D02*
X1967Y504D01*
X0Y503D02*
X7Y503D01*
X470Y503D02*
X477Y503D01*
X1960Y503D02*
X1967Y503D01*
X0Y502D02*
X7Y502D01*
X470Y502D02*
X477Y502D01*
X1960Y502D02*
X1967Y502D01*
X0Y501D02*
X7Y501D01*
X470Y501D02*
X477Y501D01*
X1960Y501D02*
X1967Y501D01*
X0Y500D02*
X7Y500D01*
X470Y500D02*
X477Y500D01*
X1960Y500D02*
X1967Y500D01*
X0Y499D02*
X7Y499D01*
X80Y499D02*
X98Y499D01*
X470Y499D02*
X477Y499D01*
X1960Y499D02*
X1967Y499D01*
X0Y498D02*
X7Y498D01*
X80Y498D02*
X99Y498D01*
X470Y498D02*
X477Y498D01*
X1960Y498D02*
X1967Y498D01*
X0Y497D02*
X7Y497D01*
X80Y497D02*
X99Y497D01*
X470Y497D02*
X477Y497D01*
X1960Y497D02*
X1967Y497D01*
X0Y496D02*
X7Y496D01*
X80Y496D02*
X99Y496D01*
X470Y496D02*
X477Y496D01*
X1960Y496D02*
X1967Y496D01*
X0Y495D02*
X7Y495D01*
X80Y495D02*
X83Y495D01*
X470Y495D02*
X477Y495D01*
X1960Y495D02*
X1967Y495D01*
X0Y494D02*
X7Y494D01*
X80Y494D02*
X83Y494D01*
X470Y494D02*
X477Y494D01*
X1960Y494D02*
X1967Y494D01*
X0Y493D02*
X7Y493D01*
X80Y493D02*
X83Y493D01*
X470Y493D02*
X477Y493D01*
X1960Y493D02*
X1967Y493D01*
X0Y492D02*
X7Y492D01*
X80Y492D02*
X83Y492D01*
X470Y492D02*
X477Y492D01*
X1960Y492D02*
X1967Y492D01*
X0Y491D02*
X7Y491D01*
X80Y491D02*
X83Y491D01*
X470Y491D02*
X477Y491D01*
X1960Y491D02*
X1967Y491D01*
X0Y490D02*
X7Y490D01*
X80Y490D02*
X83Y490D01*
X470Y490D02*
X477Y490D01*
X1960Y490D02*
X1967Y490D01*
X0Y489D02*
X7Y489D01*
X80Y489D02*
X83Y489D01*
X470Y489D02*
X477Y489D01*
X1960Y489D02*
X1967Y489D01*
X0Y488D02*
X7Y488D01*
X80Y488D02*
X83Y488D01*
X470Y488D02*
X477Y488D01*
X1960Y488D02*
X1967Y488D01*
X0Y487D02*
X7Y487D01*
X70Y487D02*
X95Y487D01*
X470Y487D02*
X477Y487D01*
X1960Y487D02*
X1967Y487D01*
X0Y486D02*
X7Y486D01*
X70Y486D02*
X96Y486D01*
X470Y486D02*
X477Y486D01*
X1960Y486D02*
X1967Y486D01*
X0Y485D02*
X7Y485D01*
X70Y485D02*
X96Y485D01*
X470Y485D02*
X477Y485D01*
X1960Y485D02*
X1967Y485D01*
X0Y484D02*
X7Y484D01*
X71Y484D02*
X95Y484D01*
X470Y484D02*
X477Y484D01*
X1960Y484D02*
X1967Y484D01*
X0Y483D02*
X7Y483D01*
X80Y483D02*
X83Y483D01*
X470Y483D02*
X477Y483D01*
X1960Y483D02*
X1967Y483D01*
X0Y482D02*
X7Y482D01*
X81Y482D02*
X82Y482D01*
X470Y482D02*
X477Y482D01*
X1960Y482D02*
X1967Y482D01*
X0Y481D02*
X7Y481D01*
X470Y481D02*
X477Y481D01*
X1960Y481D02*
X1967Y481D01*
X0Y480D02*
X7Y480D01*
X470Y480D02*
X477Y480D01*
X1960Y480D02*
X1967Y480D01*
X0Y479D02*
X7Y479D01*
X470Y479D02*
X477Y479D01*
X1960Y479D02*
X1967Y479D01*
X0Y478D02*
X7Y478D01*
X470Y478D02*
X477Y478D01*
X1960Y478D02*
X1967Y478D01*
X0Y477D02*
X7Y477D01*
X470Y477D02*
X477Y477D01*
X1960Y477D02*
X1967Y477D01*
X0Y476D02*
X7Y476D01*
X470Y476D02*
X477Y476D01*
X1960Y476D02*
X1967Y476D01*
X0Y475D02*
X7Y475D01*
X470Y475D02*
X477Y475D01*
X1960Y475D02*
X1967Y475D01*
X0Y474D02*
X7Y474D01*
X470Y474D02*
X477Y474D01*
X1960Y474D02*
X1967Y474D01*
X0Y473D02*
X7Y473D01*
X470Y473D02*
X477Y473D01*
X1960Y473D02*
X1967Y473D01*
X0Y472D02*
X7Y472D01*
X470Y472D02*
X477Y472D01*
X1960Y472D02*
X1967Y472D01*
X0Y471D02*
X7Y471D01*
X72Y471D02*
X74Y471D01*
X470Y471D02*
X477Y471D01*
X1960Y471D02*
X1967Y471D01*
X0Y470D02*
X7Y470D01*
X71Y470D02*
X74Y470D01*
X470Y470D02*
X477Y470D01*
X1960Y470D02*
X1967Y470D01*
X0Y469D02*
X7Y469D01*
X71Y469D02*
X74Y469D01*
X470Y469D02*
X477Y469D01*
X1960Y469D02*
X1967Y469D01*
X0Y468D02*
X7Y468D01*
X70Y468D02*
X74Y468D01*
X470Y468D02*
X477Y468D01*
X1960Y468D02*
X1967Y468D01*
X0Y467D02*
X7Y467D01*
X70Y467D02*
X73Y467D01*
X83Y467D02*
X99Y467D01*
X470Y467D02*
X477Y467D01*
X1960Y467D02*
X1967Y467D01*
X0Y466D02*
X7Y466D01*
X70Y466D02*
X73Y466D01*
X83Y466D02*
X99Y466D01*
X470Y466D02*
X477Y466D01*
X1960Y466D02*
X1967Y466D01*
X0Y465D02*
X7Y465D01*
X70Y465D02*
X73Y465D01*
X83Y465D02*
X99Y465D01*
X470Y465D02*
X477Y465D01*
X1960Y465D02*
X1967Y465D01*
X0Y464D02*
X7Y464D01*
X70Y464D02*
X73Y464D01*
X83Y464D02*
X99Y464D01*
X470Y464D02*
X477Y464D01*
X1960Y464D02*
X1967Y464D01*
X0Y463D02*
X7Y463D01*
X70Y463D02*
X73Y463D01*
X83Y463D02*
X86Y463D01*
X96Y463D02*
X99Y463D01*
X470Y463D02*
X477Y463D01*
X1960Y463D02*
X1967Y463D01*
X0Y462D02*
X7Y462D01*
X70Y462D02*
X73Y462D01*
X83Y462D02*
X86Y462D01*
X96Y462D02*
X99Y462D01*
X470Y462D02*
X477Y462D01*
X1960Y462D02*
X1967Y462D01*
X0Y461D02*
X7Y461D01*
X70Y461D02*
X73Y461D01*
X83Y461D02*
X86Y461D01*
X96Y461D02*
X99Y461D01*
X470Y461D02*
X477Y461D01*
X1960Y461D02*
X1967Y461D01*
X0Y460D02*
X7Y460D01*
X70Y460D02*
X73Y460D01*
X83Y460D02*
X86Y460D01*
X96Y460D02*
X99Y460D01*
X470Y460D02*
X477Y460D01*
X1960Y460D02*
X1967Y460D01*
X0Y459D02*
X7Y459D01*
X70Y459D02*
X73Y459D01*
X83Y459D02*
X86Y459D01*
X96Y459D02*
X99Y459D01*
X470Y459D02*
X477Y459D01*
X1960Y459D02*
X1967Y459D01*
X0Y458D02*
X7Y458D01*
X70Y458D02*
X73Y458D01*
X83Y458D02*
X86Y458D01*
X96Y458D02*
X99Y458D01*
X470Y458D02*
X477Y458D01*
X1960Y458D02*
X1967Y458D01*
X0Y457D02*
X7Y457D01*
X70Y457D02*
X73Y457D01*
X83Y457D02*
X86Y457D01*
X96Y457D02*
X99Y457D01*
X470Y457D02*
X477Y457D01*
X1960Y457D02*
X1967Y457D01*
X0Y456D02*
X7Y456D01*
X70Y456D02*
X86Y456D01*
X96Y456D02*
X99Y456D01*
X470Y456D02*
X477Y456D01*
X1960Y456D02*
X1967Y456D01*
X0Y455D02*
X7Y455D01*
X70Y455D02*
X86Y455D01*
X96Y455D02*
X99Y455D01*
X470Y455D02*
X477Y455D01*
X1960Y455D02*
X1967Y455D01*
X0Y454D02*
X7Y454D01*
X70Y454D02*
X85Y454D01*
X96Y454D02*
X99Y454D01*
X470Y454D02*
X477Y454D01*
X1960Y454D02*
X1967Y454D01*
X0Y453D02*
X7Y453D01*
X71Y453D02*
X84Y453D01*
X97Y453D02*
X99Y453D01*
X470Y453D02*
X477Y453D01*
X1960Y453D02*
X1967Y453D01*
X0Y452D02*
X7Y452D01*
X470Y452D02*
X477Y452D01*
X1960Y452D02*
X1967Y452D01*
X0Y451D02*
X7Y451D01*
X470Y451D02*
X477Y451D01*
X1960Y451D02*
X1967Y451D01*
X0Y450D02*
X7Y450D01*
X470Y450D02*
X477Y450D01*
X1960Y450D02*
X1967Y450D01*
X0Y449D02*
X7Y449D01*
X470Y449D02*
X477Y449D01*
X1960Y449D02*
X1967Y449D01*
X0Y448D02*
X7Y448D01*
X470Y448D02*
X477Y448D01*
X1960Y448D02*
X1967Y448D01*
X0Y447D02*
X7Y447D01*
X470Y447D02*
X477Y447D01*
X1960Y447D02*
X1967Y447D01*
X0Y446D02*
X7Y446D01*
X470Y446D02*
X477Y446D01*
X1960Y446D02*
X1967Y446D01*
X0Y445D02*
X7Y445D01*
X470Y445D02*
X477Y445D01*
X1960Y445D02*
X1967Y445D01*
X0Y444D02*
X7Y444D01*
X470Y444D02*
X477Y444D01*
X1960Y444D02*
X1967Y444D01*
X0Y443D02*
X7Y443D01*
X470Y443D02*
X477Y443D01*
X1960Y443D02*
X1967Y443D01*
X0Y442D02*
X7Y442D01*
X471Y442D02*
X477Y442D01*
X1960Y442D02*
X1967Y442D01*
X0Y441D02*
X7Y441D01*
X471Y441D02*
X477Y441D01*
X1960Y441D02*
X1967Y441D01*
X0Y440D02*
X7Y440D01*
X471Y440D02*
X477Y440D01*
X1960Y440D02*
X1967Y440D01*
X0Y439D02*
X7Y439D01*
X471Y439D02*
X477Y439D01*
X1960Y439D02*
X1967Y439D01*
X0Y438D02*
X7Y438D01*
X471Y438D02*
X477Y438D01*
X1960Y438D02*
X1967Y438D01*
X0Y437D02*
X7Y437D01*
X472Y437D02*
X477Y437D01*
X1960Y437D02*
X1967Y437D01*
X0Y436D02*
X7Y436D01*
X472Y436D02*
X477Y436D01*
X1960Y436D02*
X1967Y436D01*
X0Y435D02*
X7Y435D01*
X472Y435D02*
X477Y435D01*
X1960Y435D02*
X1967Y435D01*
X0Y434D02*
X7Y434D01*
X472Y434D02*
X477Y434D01*
X1960Y434D02*
X1967Y434D01*
X0Y433D02*
X7Y433D01*
X472Y433D02*
X477Y433D01*
X1960Y433D02*
X1967Y433D01*
X0Y432D02*
X7Y432D01*
X472Y432D02*
X477Y432D01*
X1960Y432D02*
X1967Y432D01*
X0Y431D02*
X7Y431D01*
X472Y431D02*
X477Y431D01*
X1960Y431D02*
X1967Y431D01*
X0Y430D02*
X7Y430D01*
X472Y430D02*
X477Y430D01*
X1960Y430D02*
X1967Y430D01*
X0Y429D02*
X7Y429D01*
X472Y429D02*
X477Y429D01*
X1960Y429D02*
X1967Y429D01*
X0Y428D02*
X7Y428D01*
X472Y428D02*
X477Y428D01*
X1960Y428D02*
X1967Y428D01*
X0Y427D02*
X7Y427D01*
X471Y427D02*
X477Y427D01*
X1960Y427D02*
X1967Y427D01*
X0Y426D02*
X7Y426D01*
X471Y426D02*
X477Y426D01*
X1960Y426D02*
X1967Y426D01*
X0Y425D02*
X7Y425D01*
X471Y425D02*
X477Y425D01*
X1960Y425D02*
X1967Y425D01*
X0Y424D02*
X7Y424D01*
X471Y424D02*
X477Y424D01*
X1960Y424D02*
X1967Y424D01*
X0Y423D02*
X7Y423D01*
X471Y423D02*
X477Y423D01*
X1960Y423D02*
X1967Y423D01*
X0Y422D02*
X7Y422D01*
X470Y422D02*
X477Y422D01*
X1960Y422D02*
X1967Y422D01*
X0Y421D02*
X7Y421D01*
X470Y421D02*
X477Y421D01*
X1960Y421D02*
X1967Y421D01*
X0Y420D02*
X7Y420D01*
X470Y420D02*
X477Y420D01*
X1960Y420D02*
X1967Y420D01*
X0Y419D02*
X7Y419D01*
X470Y419D02*
X477Y419D01*
X1960Y419D02*
X1967Y419D01*
X0Y418D02*
X7Y418D01*
X470Y418D02*
X477Y418D01*
X1960Y418D02*
X1967Y418D01*
X0Y417D02*
X7Y417D01*
X470Y417D02*
X477Y417D01*
X1960Y417D02*
X1967Y417D01*
X0Y416D02*
X7Y416D01*
X470Y416D02*
X477Y416D01*
X1960Y416D02*
X1967Y416D01*
X0Y415D02*
X7Y415D01*
X470Y415D02*
X477Y415D01*
X1960Y415D02*
X1967Y415D01*
X0Y414D02*
X7Y414D01*
X470Y414D02*
X477Y414D01*
X1960Y414D02*
X1967Y414D01*
X0Y413D02*
X7Y413D01*
X470Y413D02*
X477Y413D01*
X1960Y413D02*
X1967Y413D01*
X0Y412D02*
X7Y412D01*
X470Y412D02*
X477Y412D01*
X1960Y412D02*
X1967Y412D01*
X0Y411D02*
X7Y411D01*
X470Y411D02*
X477Y411D01*
X1960Y411D02*
X1967Y411D01*
X0Y410D02*
X7Y410D01*
X470Y410D02*
X477Y410D01*
X1960Y410D02*
X1967Y410D01*
X0Y409D02*
X7Y409D01*
X470Y409D02*
X477Y409D01*
X1960Y409D02*
X1967Y409D01*
X0Y408D02*
X7Y408D01*
X470Y408D02*
X477Y408D01*
X1960Y408D02*
X1967Y408D01*
X0Y407D02*
X7Y407D01*
X470Y407D02*
X477Y407D01*
X1960Y407D02*
X1967Y407D01*
X0Y406D02*
X7Y406D01*
X470Y406D02*
X477Y406D01*
X1960Y406D02*
X1967Y406D01*
X0Y405D02*
X7Y405D01*
X470Y405D02*
X477Y405D01*
X1960Y405D02*
X1967Y405D01*
X0Y404D02*
X7Y404D01*
X470Y404D02*
X477Y404D01*
X1960Y404D02*
X1967Y404D01*
X0Y403D02*
X7Y403D01*
X470Y403D02*
X477Y403D01*
X1960Y403D02*
X1967Y403D01*
X0Y402D02*
X7Y402D01*
X470Y402D02*
X477Y402D01*
X1960Y402D02*
X1967Y402D01*
X0Y401D02*
X7Y401D01*
X470Y401D02*
X477Y401D01*
X1960Y401D02*
X1967Y401D01*
X0Y400D02*
X7Y400D01*
X470Y400D02*
X477Y400D01*
X1960Y400D02*
X1967Y400D01*
X0Y399D02*
X7Y399D01*
X470Y399D02*
X477Y399D01*
X1960Y399D02*
X1967Y399D01*
X0Y398D02*
X7Y398D01*
X470Y398D02*
X477Y398D01*
X1960Y398D02*
X1967Y398D01*
X0Y397D02*
X7Y397D01*
X470Y397D02*
X477Y397D01*
X1960Y397D02*
X1967Y397D01*
X0Y396D02*
X7Y396D01*
X470Y396D02*
X477Y396D01*
X1960Y396D02*
X1967Y396D01*
X0Y395D02*
X7Y395D01*
X470Y395D02*
X477Y395D01*
X1960Y395D02*
X1967Y395D01*
X0Y394D02*
X7Y394D01*
X470Y394D02*
X477Y394D01*
X1960Y394D02*
X1967Y394D01*
X0Y393D02*
X7Y393D01*
X470Y393D02*
X477Y393D01*
X1960Y393D02*
X1967Y393D01*
X0Y392D02*
X7Y392D01*
X470Y392D02*
X477Y392D01*
X1960Y392D02*
X1967Y392D01*
X0Y391D02*
X7Y391D01*
X470Y391D02*
X477Y391D01*
X1960Y391D02*
X1967Y391D01*
X0Y390D02*
X7Y390D01*
X470Y390D02*
X477Y390D01*
X1960Y390D02*
X1967Y390D01*
X0Y389D02*
X7Y389D01*
X470Y389D02*
X477Y389D01*
X1960Y389D02*
X1967Y389D01*
X0Y388D02*
X7Y388D01*
X470Y388D02*
X477Y388D01*
X1960Y388D02*
X1967Y388D01*
X0Y387D02*
X7Y387D01*
X470Y387D02*
X477Y387D01*
X1960Y387D02*
X1967Y387D01*
X0Y386D02*
X7Y386D01*
X470Y386D02*
X477Y386D01*
X1960Y386D02*
X1967Y386D01*
X0Y385D02*
X7Y385D01*
X470Y385D02*
X477Y385D01*
X1960Y385D02*
X1967Y385D01*
X0Y384D02*
X7Y384D01*
X470Y384D02*
X477Y384D01*
X1960Y384D02*
X1967Y384D01*
X0Y383D02*
X7Y383D01*
X470Y383D02*
X477Y383D01*
X1960Y383D02*
X1967Y383D01*
X0Y382D02*
X7Y382D01*
X470Y382D02*
X477Y382D01*
X1960Y382D02*
X1967Y382D01*
X0Y381D02*
X7Y381D01*
X470Y381D02*
X477Y381D01*
X1960Y381D02*
X1967Y381D01*
X0Y380D02*
X7Y380D01*
X470Y380D02*
X477Y380D01*
X1960Y380D02*
X1967Y380D01*
X0Y379D02*
X7Y379D01*
X470Y379D02*
X477Y379D01*
X1960Y379D02*
X1967Y379D01*
X0Y378D02*
X7Y378D01*
X470Y378D02*
X477Y378D01*
X1960Y378D02*
X1967Y378D01*
X0Y377D02*
X7Y377D01*
X470Y377D02*
X477Y377D01*
X1960Y377D02*
X1967Y377D01*
X0Y376D02*
X7Y376D01*
X470Y376D02*
X477Y376D01*
X1960Y376D02*
X1967Y376D01*
X0Y375D02*
X7Y375D01*
X470Y375D02*
X477Y375D01*
X1960Y375D02*
X1967Y375D01*
X0Y374D02*
X7Y374D01*
X470Y374D02*
X477Y374D01*
X1960Y374D02*
X1967Y374D01*
X0Y373D02*
X7Y373D01*
X470Y373D02*
X477Y373D01*
X1960Y373D02*
X1967Y373D01*
X0Y372D02*
X7Y372D01*
X470Y372D02*
X477Y372D01*
X1960Y372D02*
X1967Y372D01*
X0Y371D02*
X7Y371D01*
X470Y371D02*
X477Y371D01*
X1960Y371D02*
X1967Y371D01*
X0Y370D02*
X7Y370D01*
X470Y370D02*
X477Y370D01*
X1960Y370D02*
X1967Y370D01*
X0Y369D02*
X7Y369D01*
X470Y369D02*
X477Y369D01*
X1960Y369D02*
X1967Y369D01*
X0Y368D02*
X7Y368D01*
X470Y368D02*
X477Y368D01*
X1960Y368D02*
X1967Y368D01*
X0Y367D02*
X7Y367D01*
X470Y367D02*
X477Y367D01*
X1960Y367D02*
X1967Y367D01*
X0Y366D02*
X7Y366D01*
X470Y366D02*
X477Y366D01*
X1960Y366D02*
X1967Y366D01*
X0Y365D02*
X7Y365D01*
X470Y365D02*
X477Y365D01*
X1960Y365D02*
X1967Y365D01*
X0Y364D02*
X7Y364D01*
X470Y364D02*
X477Y364D01*
X1960Y364D02*
X1967Y364D01*
X0Y363D02*
X7Y363D01*
X470Y363D02*
X477Y363D01*
X1960Y363D02*
X1967Y363D01*
X0Y362D02*
X7Y362D01*
X470Y362D02*
X477Y362D01*
X1960Y362D02*
X1967Y362D01*
X0Y361D02*
X7Y361D01*
X470Y361D02*
X477Y361D01*
X1960Y361D02*
X1967Y361D01*
X0Y360D02*
X7Y360D01*
X470Y360D02*
X477Y360D01*
X1960Y360D02*
X1967Y360D01*
X0Y359D02*
X7Y359D01*
X470Y359D02*
X477Y359D01*
X1960Y359D02*
X1967Y359D01*
X0Y358D02*
X7Y358D01*
X470Y358D02*
X477Y358D01*
X1960Y358D02*
X1967Y358D01*
X0Y357D02*
X7Y357D01*
X470Y357D02*
X477Y357D01*
X1960Y357D02*
X1967Y357D01*
X0Y356D02*
X7Y356D01*
X470Y356D02*
X477Y356D01*
X1960Y356D02*
X1967Y356D01*
X0Y355D02*
X7Y355D01*
X470Y355D02*
X477Y355D01*
X1960Y355D02*
X1967Y355D01*
X0Y354D02*
X7Y354D01*
X470Y354D02*
X477Y354D01*
X1960Y354D02*
X1967Y354D01*
X0Y353D02*
X7Y353D01*
X470Y353D02*
X477Y353D01*
X1960Y353D02*
X1967Y353D01*
X0Y352D02*
X7Y352D01*
X470Y352D02*
X477Y352D01*
X1960Y352D02*
X1967Y352D01*
X0Y351D02*
X7Y351D01*
X470Y351D02*
X477Y351D01*
X1960Y351D02*
X1967Y351D01*
X0Y350D02*
X7Y350D01*
X470Y350D02*
X477Y350D01*
X1960Y350D02*
X1967Y350D01*
X0Y349D02*
X7Y349D01*
X470Y349D02*
X477Y349D01*
X1960Y349D02*
X1967Y349D01*
X0Y348D02*
X7Y348D01*
X470Y348D02*
X477Y348D01*
X1960Y348D02*
X1967Y348D01*
X0Y347D02*
X7Y347D01*
X470Y347D02*
X477Y347D01*
X1960Y347D02*
X1967Y347D01*
X0Y346D02*
X7Y346D01*
X470Y346D02*
X477Y346D01*
X1960Y346D02*
X1967Y346D01*
X0Y345D02*
X7Y345D01*
X470Y345D02*
X477Y345D01*
X1960Y345D02*
X1967Y345D01*
X0Y344D02*
X7Y344D01*
X470Y344D02*
X477Y344D01*
X1960Y344D02*
X1967Y344D01*
X0Y343D02*
X7Y343D01*
X470Y343D02*
X477Y343D01*
X1960Y343D02*
X1967Y343D01*
X0Y342D02*
X7Y342D01*
X471Y342D02*
X477Y342D01*
X1960Y342D02*
X1967Y342D01*
X0Y341D02*
X7Y341D01*
X471Y341D02*
X477Y341D01*
X1960Y341D02*
X1967Y341D01*
X0Y340D02*
X7Y340D01*
X471Y340D02*
X477Y340D01*
X1960Y340D02*
X1967Y340D01*
X0Y339D02*
X7Y339D01*
X471Y339D02*
X477Y339D01*
X1960Y339D02*
X1967Y339D01*
X0Y338D02*
X7Y338D01*
X471Y338D02*
X477Y338D01*
X1960Y338D02*
X1967Y338D01*
X0Y337D02*
X7Y337D01*
X472Y337D02*
X477Y337D01*
X1960Y337D02*
X1967Y337D01*
X0Y336D02*
X7Y336D01*
X472Y336D02*
X477Y336D01*
X1960Y336D02*
X1967Y336D01*
X0Y335D02*
X7Y335D01*
X472Y335D02*
X477Y335D01*
X1960Y335D02*
X1967Y335D01*
X0Y334D02*
X7Y334D01*
X472Y334D02*
X477Y334D01*
X1960Y334D02*
X1967Y334D01*
X0Y333D02*
X7Y333D01*
X472Y333D02*
X477Y333D01*
X1960Y333D02*
X1967Y333D01*
X0Y332D02*
X7Y332D01*
X472Y332D02*
X477Y332D01*
X1960Y332D02*
X1967Y332D01*
X0Y331D02*
X7Y331D01*
X472Y331D02*
X477Y331D01*
X1960Y331D02*
X1967Y331D01*
X0Y330D02*
X7Y330D01*
X472Y330D02*
X477Y330D01*
X1960Y330D02*
X1967Y330D01*
X0Y329D02*
X7Y329D01*
X472Y329D02*
X477Y329D01*
X1960Y329D02*
X1967Y329D01*
X0Y328D02*
X7Y328D01*
X472Y328D02*
X477Y328D01*
X1960Y328D02*
X1967Y328D01*
X0Y327D02*
X7Y327D01*
X471Y327D02*
X477Y327D01*
X1960Y327D02*
X1967Y327D01*
X0Y326D02*
X7Y326D01*
X471Y326D02*
X477Y326D01*
X1477Y326D02*
X1482Y326D01*
X1514Y326D02*
X1519Y326D01*
X1960Y326D02*
X1967Y326D01*
X0Y325D02*
X7Y325D01*
X471Y325D02*
X477Y325D01*
X1476Y325D02*
X1482Y325D01*
X1513Y325D02*
X1520Y325D01*
X1960Y325D02*
X1967Y325D01*
X0Y324D02*
X7Y324D01*
X471Y324D02*
X477Y324D01*
X1304Y324D02*
X1306Y324D01*
X1476Y324D02*
X1483Y324D01*
X1513Y324D02*
X1520Y324D01*
X1960Y324D02*
X1967Y324D01*
X0Y323D02*
X7Y323D01*
X471Y323D02*
X477Y323D01*
X1303Y323D02*
X1306Y323D01*
X1476Y323D02*
X1483Y323D01*
X1513Y323D02*
X1520Y323D01*
X1960Y323D02*
X1967Y323D01*
X0Y322D02*
X7Y322D01*
X470Y322D02*
X477Y322D01*
X1303Y322D02*
X1307Y322D01*
X1437Y322D02*
X1439Y322D01*
X1476Y322D02*
X1483Y322D01*
X1513Y322D02*
X1520Y322D01*
X1960Y322D02*
X1967Y322D01*
X0Y321D02*
X7Y321D01*
X470Y321D02*
X477Y321D01*
X1303Y321D02*
X1307Y321D01*
X1436Y321D02*
X1440Y321D01*
X1476Y321D02*
X1482Y321D01*
X1513Y321D02*
X1520Y321D01*
X1960Y321D02*
X1967Y321D01*
X0Y320D02*
X7Y320D01*
X470Y320D02*
X477Y320D01*
X1303Y320D02*
X1307Y320D01*
X1436Y320D02*
X1440Y320D01*
X1477Y320D02*
X1482Y320D01*
X1514Y320D02*
X1519Y320D01*
X1960Y320D02*
X1967Y320D01*
X0Y319D02*
X7Y319D01*
X470Y319D02*
X477Y319D01*
X1303Y319D02*
X1307Y319D01*
X1436Y319D02*
X1440Y319D01*
X1960Y319D02*
X1967Y319D01*
X0Y318D02*
X7Y318D01*
X470Y318D02*
X477Y318D01*
X1303Y318D02*
X1307Y318D01*
X1436Y318D02*
X1440Y318D01*
X1960Y318D02*
X1967Y318D01*
X0Y317D02*
X7Y317D01*
X470Y317D02*
X477Y317D01*
X1303Y317D02*
X1307Y317D01*
X1436Y317D02*
X1440Y317D01*
X1960Y317D02*
X1967Y317D01*
X0Y316D02*
X7Y316D01*
X470Y316D02*
X477Y316D01*
X1303Y316D02*
X1307Y316D01*
X1436Y316D02*
X1440Y316D01*
X1960Y316D02*
X1967Y316D01*
X0Y315D02*
X7Y315D01*
X470Y315D02*
X477Y315D01*
X1303Y315D02*
X1307Y315D01*
X1436Y315D02*
X1440Y315D01*
X1960Y315D02*
X1967Y315D01*
X0Y314D02*
X7Y314D01*
X470Y314D02*
X477Y314D01*
X1303Y314D02*
X1307Y314D01*
X1436Y314D02*
X1440Y314D01*
X1960Y314D02*
X1967Y314D01*
X0Y313D02*
X7Y313D01*
X470Y313D02*
X477Y313D01*
X948Y313D02*
X950Y313D01*
X969Y313D02*
X971Y313D01*
X985Y313D02*
X987Y313D01*
X1006Y313D02*
X1009Y313D01*
X1022Y313D02*
X1024Y313D01*
X1044Y313D02*
X1046Y313D01*
X1097Y313D02*
X1099Y313D01*
X1103Y313D02*
X1107Y313D01*
X1113Y313D02*
X1116Y313D01*
X1139Y313D02*
X1153Y313D01*
X1171Y313D02*
X1174Y313D01*
X1182Y313D02*
X1190Y313D01*
X1217Y313D02*
X1231Y313D01*
X1251Y313D02*
X1263Y313D01*
X1289Y313D02*
X1298Y313D01*
X1303Y313D02*
X1307Y313D01*
X1326Y313D02*
X1337Y313D01*
X1357Y313D02*
X1359Y313D01*
X1363Y313D02*
X1367Y313D01*
X1373Y313D02*
X1377Y313D01*
X1395Y313D02*
X1397Y313D01*
X1415Y313D02*
X1417Y313D01*
X1432Y313D02*
X1452Y313D01*
X1472Y313D02*
X1482Y313D01*
X1509Y313D02*
X1519Y313D01*
X1547Y313D02*
X1563Y313D01*
X1626Y313D02*
X1641Y313D01*
X1661Y313D02*
X1672Y313D01*
X1692Y313D02*
X1694Y313D01*
X1698Y313D02*
X1702Y313D01*
X1708Y313D02*
X1712Y313D01*
X1960Y313D02*
X1967Y313D01*
X0Y312D02*
X7Y312D01*
X470Y312D02*
X477Y312D01*
X947Y312D02*
X951Y312D01*
X968Y312D02*
X972Y312D01*
X984Y312D02*
X988Y312D01*
X1006Y312D02*
X1009Y312D01*
X1021Y312D02*
X1025Y312D01*
X1043Y312D02*
X1047Y312D01*
X1096Y312D02*
X1108Y312D01*
X1111Y312D02*
X1118Y312D01*
X1139Y312D02*
X1154Y312D01*
X1171Y312D02*
X1174Y312D01*
X1180Y312D02*
X1192Y312D01*
X1215Y312D02*
X1232Y312D01*
X1250Y312D02*
X1265Y312D01*
X1287Y312D02*
X1299Y312D01*
X1303Y312D02*
X1307Y312D01*
X1324Y312D02*
X1339Y312D01*
X1356Y312D02*
X1369Y312D01*
X1372Y312D02*
X1379Y312D01*
X1394Y312D02*
X1398Y312D01*
X1414Y312D02*
X1418Y312D01*
X1431Y312D02*
X1453Y312D01*
X1471Y312D02*
X1482Y312D01*
X1508Y312D02*
X1520Y312D01*
X1546Y312D02*
X1565Y312D01*
X1624Y312D02*
X1641Y312D01*
X1659Y312D02*
X1674Y312D01*
X1691Y312D02*
X1704Y312D01*
X1707Y312D02*
X1713Y312D01*
X1960Y312D02*
X1967Y312D01*
X0Y311D02*
X7Y311D01*
X470Y311D02*
X477Y311D01*
X947Y311D02*
X951Y311D01*
X968Y311D02*
X972Y311D01*
X984Y311D02*
X988Y311D01*
X1005Y311D02*
X1010Y311D01*
X1021Y311D02*
X1025Y311D01*
X1043Y311D02*
X1047Y311D01*
X1096Y311D02*
X1119Y311D01*
X1138Y311D02*
X1155Y311D01*
X1171Y311D02*
X1175Y311D01*
X1179Y311D02*
X1193Y311D01*
X1214Y311D02*
X1232Y311D01*
X1249Y311D02*
X1266Y311D01*
X1286Y311D02*
X1301Y311D01*
X1303Y311D02*
X1307Y311D01*
X1323Y311D02*
X1340Y311D01*
X1356Y311D02*
X1379Y311D01*
X1394Y311D02*
X1398Y311D01*
X1414Y311D02*
X1418Y311D01*
X1431Y311D02*
X1453Y311D01*
X1471Y311D02*
X1483Y311D01*
X1508Y311D02*
X1520Y311D01*
X1545Y311D02*
X1566Y311D01*
X1623Y311D02*
X1642Y311D01*
X1658Y311D02*
X1675Y311D01*
X1691Y311D02*
X1714Y311D01*
X1960Y311D02*
X1967Y311D01*
X0Y310D02*
X7Y310D01*
X470Y310D02*
X477Y310D01*
X947Y310D02*
X951Y310D01*
X968Y310D02*
X972Y310D01*
X984Y310D02*
X988Y310D01*
X1005Y310D02*
X1010Y310D01*
X1021Y310D02*
X1025Y310D01*
X1043Y310D02*
X1047Y310D01*
X1096Y310D02*
X1120Y310D01*
X1139Y310D02*
X1156Y310D01*
X1170Y310D02*
X1175Y310D01*
X1178Y310D02*
X1194Y310D01*
X1213Y310D02*
X1232Y310D01*
X1247Y310D02*
X1267Y310D01*
X1285Y310D02*
X1307Y310D01*
X1322Y310D02*
X1341Y310D01*
X1356Y310D02*
X1380Y310D01*
X1394Y310D02*
X1398Y310D01*
X1414Y310D02*
X1418Y310D01*
X1431Y310D02*
X1453Y310D01*
X1471Y310D02*
X1483Y310D01*
X1508Y310D02*
X1520Y310D01*
X1544Y310D02*
X1566Y310D01*
X1622Y310D02*
X1641Y310D01*
X1657Y310D02*
X1676Y310D01*
X1691Y310D02*
X1715Y310D01*
X1960Y310D02*
X1967Y310D01*
X0Y309D02*
X7Y309D01*
X470Y309D02*
X477Y309D01*
X947Y309D02*
X951Y309D01*
X968Y309D02*
X972Y309D01*
X984Y309D02*
X988Y309D01*
X1005Y309D02*
X1010Y309D01*
X1021Y309D02*
X1025Y309D01*
X1043Y309D02*
X1047Y309D01*
X1096Y309D02*
X1120Y309D01*
X1139Y309D02*
X1157Y309D01*
X1170Y309D02*
X1175Y309D01*
X1177Y309D02*
X1194Y309D01*
X1211Y309D02*
X1231Y309D01*
X1247Y309D02*
X1268Y309D01*
X1284Y309D02*
X1307Y309D01*
X1321Y309D02*
X1342Y309D01*
X1356Y309D02*
X1381Y309D01*
X1394Y309D02*
X1398Y309D01*
X1414Y309D02*
X1418Y309D01*
X1432Y309D02*
X1452Y309D01*
X1472Y309D02*
X1483Y309D01*
X1509Y309D02*
X1520Y309D01*
X1544Y309D02*
X1567Y309D01*
X1621Y309D02*
X1641Y309D01*
X1656Y309D02*
X1677Y309D01*
X1691Y309D02*
X1715Y309D01*
X1960Y309D02*
X1967Y309D01*
X0Y308D02*
X7Y308D01*
X470Y308D02*
X477Y308D01*
X947Y308D02*
X951Y308D01*
X968Y308D02*
X972Y308D01*
X984Y308D02*
X988Y308D01*
X1005Y308D02*
X1009Y308D01*
X1021Y308D02*
X1025Y308D01*
X1042Y308D02*
X1047Y308D01*
X1096Y308D02*
X1103Y308D01*
X1106Y308D02*
X1113Y308D01*
X1116Y308D02*
X1120Y308D01*
X1152Y308D02*
X1157Y308D01*
X1170Y308D02*
X1183Y308D01*
X1190Y308D02*
X1195Y308D01*
X1210Y308D02*
X1217Y308D01*
X1246Y308D02*
X1252Y308D01*
X1262Y308D02*
X1269Y308D01*
X1283Y308D02*
X1289Y308D01*
X1297Y308D02*
X1307Y308D01*
X1320Y308D02*
X1327Y308D01*
X1337Y308D02*
X1343Y308D01*
X1356Y308D02*
X1364Y308D01*
X1366Y308D02*
X1374Y308D01*
X1376Y308D02*
X1381Y308D01*
X1394Y308D02*
X1398Y308D01*
X1414Y308D02*
X1418Y308D01*
X1436Y308D02*
X1440Y308D01*
X1478Y308D02*
X1483Y308D01*
X1516Y308D02*
X1520Y308D01*
X1543Y308D02*
X1548Y308D01*
X1562Y308D02*
X1566Y308D01*
X1620Y308D02*
X1627Y308D01*
X1655Y308D02*
X1661Y308D01*
X1672Y308D02*
X1678Y308D01*
X1691Y308D02*
X1699Y308D01*
X1701Y308D02*
X1709Y308D01*
X1711Y308D02*
X1716Y308D01*
X1960Y308D02*
X1967Y308D01*
X0Y307D02*
X7Y307D01*
X470Y307D02*
X477Y307D01*
X947Y307D02*
X951Y307D01*
X968Y307D02*
X972Y307D01*
X984Y307D02*
X988Y307D01*
X1005Y307D02*
X1009Y307D01*
X1021Y307D02*
X1025Y307D01*
X1042Y307D02*
X1047Y307D01*
X1096Y307D02*
X1102Y307D01*
X1106Y307D02*
X1112Y307D01*
X1116Y307D02*
X1120Y307D01*
X1153Y307D02*
X1157Y307D01*
X1170Y307D02*
X1182Y307D01*
X1191Y307D02*
X1195Y307D01*
X1209Y307D02*
X1216Y307D01*
X1245Y307D02*
X1251Y307D01*
X1264Y307D02*
X1269Y307D01*
X1283Y307D02*
X1288Y307D01*
X1298Y307D02*
X1307Y307D01*
X1320Y307D02*
X1325Y307D01*
X1338Y307D02*
X1343Y307D01*
X1356Y307D02*
X1363Y307D01*
X1367Y307D02*
X1373Y307D01*
X1377Y307D02*
X1381Y307D01*
X1394Y307D02*
X1398Y307D01*
X1414Y307D02*
X1418Y307D01*
X1436Y307D02*
X1440Y307D01*
X1478Y307D02*
X1483Y307D01*
X1516Y307D02*
X1520Y307D01*
X1543Y307D02*
X1547Y307D01*
X1563Y307D02*
X1566Y307D01*
X1619Y307D02*
X1626Y307D01*
X1655Y307D02*
X1660Y307D01*
X1673Y307D02*
X1678Y307D01*
X1691Y307D02*
X1697Y307D01*
X1702Y307D02*
X1708Y307D01*
X1712Y307D02*
X1716Y307D01*
X1960Y307D02*
X1967Y307D01*
X0Y306D02*
X7Y306D01*
X470Y306D02*
X477Y306D01*
X947Y306D02*
X951Y306D01*
X968Y306D02*
X972Y306D01*
X984Y306D02*
X988Y306D01*
X1005Y306D02*
X1009Y306D01*
X1021Y306D02*
X1025Y306D01*
X1042Y306D02*
X1047Y306D01*
X1096Y306D02*
X1101Y306D01*
X1106Y306D02*
X1111Y306D01*
X1116Y306D02*
X1120Y306D01*
X1153Y306D02*
X1157Y306D01*
X1170Y306D02*
X1180Y306D01*
X1191Y306D02*
X1195Y306D01*
X1209Y306D02*
X1215Y306D01*
X1245Y306D02*
X1250Y306D01*
X1265Y306D02*
X1269Y306D01*
X1282Y306D02*
X1287Y306D01*
X1299Y306D02*
X1307Y306D01*
X1320Y306D02*
X1324Y306D01*
X1339Y306D02*
X1344Y306D01*
X1356Y306D02*
X1361Y306D01*
X1367Y306D02*
X1372Y306D01*
X1377Y306D02*
X1381Y306D01*
X1394Y306D02*
X1398Y306D01*
X1414Y306D02*
X1418Y306D01*
X1436Y306D02*
X1440Y306D01*
X1478Y306D02*
X1483Y306D01*
X1516Y306D02*
X1520Y306D01*
X1543Y306D02*
X1548Y306D01*
X1618Y306D02*
X1624Y306D01*
X1654Y306D02*
X1659Y306D01*
X1674Y306D02*
X1679Y306D01*
X1691Y306D02*
X1696Y306D01*
X1702Y306D02*
X1706Y306D01*
X1712Y306D02*
X1716Y306D01*
X1960Y306D02*
X1967Y306D01*
X0Y305D02*
X7Y305D01*
X470Y305D02*
X477Y305D01*
X947Y305D02*
X951Y305D01*
X968Y305D02*
X972Y305D01*
X984Y305D02*
X988Y305D01*
X1005Y305D02*
X1009Y305D01*
X1021Y305D02*
X1025Y305D01*
X1042Y305D02*
X1047Y305D01*
X1096Y305D02*
X1100Y305D01*
X1106Y305D02*
X1110Y305D01*
X1116Y305D02*
X1120Y305D01*
X1153Y305D02*
X1157Y305D01*
X1170Y305D02*
X1179Y305D01*
X1191Y305D02*
X1195Y305D01*
X1208Y305D02*
X1214Y305D01*
X1245Y305D02*
X1249Y305D01*
X1265Y305D02*
X1269Y305D01*
X1282Y305D02*
X1286Y305D01*
X1300Y305D02*
X1307Y305D01*
X1319Y305D02*
X1324Y305D01*
X1340Y305D02*
X1344Y305D01*
X1356Y305D02*
X1360Y305D01*
X1367Y305D02*
X1371Y305D01*
X1377Y305D02*
X1381Y305D01*
X1394Y305D02*
X1398Y305D01*
X1414Y305D02*
X1418Y305D01*
X1436Y305D02*
X1440Y305D01*
X1478Y305D02*
X1483Y305D01*
X1516Y305D02*
X1520Y305D01*
X1544Y305D02*
X1550Y305D01*
X1618Y305D02*
X1623Y305D01*
X1654Y305D02*
X1659Y305D01*
X1674Y305D02*
X1679Y305D01*
X1691Y305D02*
X1695Y305D01*
X1702Y305D02*
X1706Y305D01*
X1712Y305D02*
X1716Y305D01*
X1960Y305D02*
X1967Y305D01*
X0Y304D02*
X7Y304D01*
X470Y304D02*
X477Y304D01*
X947Y304D02*
X951Y304D01*
X958Y304D02*
X961Y304D01*
X968Y304D02*
X972Y304D01*
X984Y304D02*
X988Y304D01*
X995Y304D02*
X998Y304D01*
X1005Y304D02*
X1009Y304D01*
X1021Y304D02*
X1026Y304D01*
X1033Y304D02*
X1035Y304D01*
X1042Y304D02*
X1047Y304D01*
X1096Y304D02*
X1100Y304D01*
X1106Y304D02*
X1110Y304D01*
X1116Y304D02*
X1120Y304D01*
X1153Y304D02*
X1157Y304D01*
X1170Y304D02*
X1178Y304D01*
X1191Y304D02*
X1195Y304D01*
X1208Y304D02*
X1213Y304D01*
X1245Y304D02*
X1249Y304D01*
X1265Y304D02*
X1270Y304D01*
X1282Y304D02*
X1286Y304D01*
X1302Y304D02*
X1307Y304D01*
X1319Y304D02*
X1324Y304D01*
X1340Y304D02*
X1344Y304D01*
X1356Y304D02*
X1360Y304D01*
X1367Y304D02*
X1371Y304D01*
X1377Y304D02*
X1381Y304D01*
X1394Y304D02*
X1398Y304D01*
X1414Y304D02*
X1418Y304D01*
X1436Y304D02*
X1440Y304D01*
X1478Y304D02*
X1483Y304D01*
X1516Y304D02*
X1520Y304D01*
X1544Y304D02*
X1552Y304D01*
X1617Y304D02*
X1622Y304D01*
X1654Y304D02*
X1658Y304D01*
X1675Y304D02*
X1679Y304D01*
X1691Y304D02*
X1695Y304D01*
X1702Y304D02*
X1706Y304D01*
X1712Y304D02*
X1716Y304D01*
X1960Y304D02*
X1967Y304D01*
X0Y303D02*
X7Y303D01*
X470Y303D02*
X477Y303D01*
X947Y303D02*
X951Y303D01*
X958Y303D02*
X961Y303D01*
X968Y303D02*
X972Y303D01*
X984Y303D02*
X988Y303D01*
X995Y303D02*
X999Y303D01*
X1005Y303D02*
X1009Y303D01*
X1021Y303D02*
X1026Y303D01*
X1032Y303D02*
X1036Y303D01*
X1042Y303D02*
X1047Y303D01*
X1096Y303D02*
X1100Y303D01*
X1106Y303D02*
X1110Y303D01*
X1116Y303D02*
X1120Y303D01*
X1153Y303D02*
X1157Y303D01*
X1170Y303D02*
X1177Y303D01*
X1191Y303D02*
X1195Y303D01*
X1208Y303D02*
X1212Y303D01*
X1245Y303D02*
X1249Y303D01*
X1265Y303D02*
X1270Y303D01*
X1282Y303D02*
X1286Y303D01*
X1302Y303D02*
X1307Y303D01*
X1319Y303D02*
X1324Y303D01*
X1340Y303D02*
X1344Y303D01*
X1356Y303D02*
X1360Y303D01*
X1367Y303D02*
X1371Y303D01*
X1377Y303D02*
X1381Y303D01*
X1394Y303D02*
X1398Y303D01*
X1414Y303D02*
X1418Y303D01*
X1436Y303D02*
X1440Y303D01*
X1478Y303D02*
X1483Y303D01*
X1516Y303D02*
X1520Y303D01*
X1545Y303D02*
X1555Y303D01*
X1617Y303D02*
X1621Y303D01*
X1654Y303D02*
X1658Y303D01*
X1675Y303D02*
X1679Y303D01*
X1691Y303D02*
X1695Y303D01*
X1702Y303D02*
X1706Y303D01*
X1712Y303D02*
X1716Y303D01*
X1960Y303D02*
X1967Y303D01*
X0Y302D02*
X7Y302D01*
X470Y302D02*
X477Y302D01*
X947Y302D02*
X951Y302D01*
X957Y302D02*
X962Y302D01*
X968Y302D02*
X972Y302D01*
X984Y302D02*
X988Y302D01*
X995Y302D02*
X999Y302D01*
X1005Y302D02*
X1009Y302D01*
X1021Y302D02*
X1026Y302D01*
X1032Y302D02*
X1036Y302D01*
X1042Y302D02*
X1046Y302D01*
X1096Y302D02*
X1100Y302D01*
X1106Y302D02*
X1110Y302D01*
X1116Y302D02*
X1120Y302D01*
X1138Y302D02*
X1157Y302D01*
X1170Y302D02*
X1176Y302D01*
X1193Y302D02*
X1193Y302D01*
X1208Y302D02*
X1212Y302D01*
X1245Y302D02*
X1249Y302D01*
X1265Y302D02*
X1270Y302D01*
X1282Y302D02*
X1286Y302D01*
X1303Y302D02*
X1307Y302D01*
X1319Y302D02*
X1324Y302D01*
X1340Y302D02*
X1344Y302D01*
X1356Y302D02*
X1360Y302D01*
X1367Y302D02*
X1371Y302D01*
X1377Y302D02*
X1381Y302D01*
X1394Y302D02*
X1398Y302D01*
X1414Y302D02*
X1418Y302D01*
X1436Y302D02*
X1440Y302D01*
X1478Y302D02*
X1483Y302D01*
X1516Y302D02*
X1520Y302D01*
X1546Y302D02*
X1557Y302D01*
X1617Y302D02*
X1621Y302D01*
X1654Y302D02*
X1658Y302D01*
X1675Y302D02*
X1679Y302D01*
X1691Y302D02*
X1695Y302D01*
X1702Y302D02*
X1706Y302D01*
X1712Y302D02*
X1716Y302D01*
X1960Y302D02*
X1967Y302D01*
X0Y301D02*
X7Y301D01*
X470Y301D02*
X477Y301D01*
X947Y301D02*
X951Y301D01*
X957Y301D02*
X962Y301D01*
X968Y301D02*
X972Y301D01*
X984Y301D02*
X988Y301D01*
X995Y301D02*
X999Y301D01*
X1005Y301D02*
X1009Y301D01*
X1021Y301D02*
X1026Y301D01*
X1032Y301D02*
X1036Y301D01*
X1042Y301D02*
X1046Y301D01*
X1096Y301D02*
X1100Y301D01*
X1106Y301D02*
X1110Y301D01*
X1116Y301D02*
X1121Y301D01*
X1136Y301D02*
X1157Y301D01*
X1170Y301D02*
X1175Y301D01*
X1208Y301D02*
X1212Y301D01*
X1245Y301D02*
X1249Y301D01*
X1265Y301D02*
X1270Y301D01*
X1282Y301D02*
X1286Y301D01*
X1303Y301D02*
X1307Y301D01*
X1319Y301D02*
X1324Y301D01*
X1340Y301D02*
X1344Y301D01*
X1356Y301D02*
X1360Y301D01*
X1367Y301D02*
X1371Y301D01*
X1377Y301D02*
X1381Y301D01*
X1394Y301D02*
X1398Y301D01*
X1414Y301D02*
X1418Y301D01*
X1436Y301D02*
X1440Y301D01*
X1478Y301D02*
X1483Y301D01*
X1516Y301D02*
X1520Y301D01*
X1547Y301D02*
X1559Y301D01*
X1617Y301D02*
X1621Y301D01*
X1654Y301D02*
X1658Y301D01*
X1675Y301D02*
X1679Y301D01*
X1691Y301D02*
X1695Y301D01*
X1702Y301D02*
X1706Y301D01*
X1712Y301D02*
X1716Y301D01*
X1960Y301D02*
X1967Y301D01*
X0Y300D02*
X7Y300D01*
X470Y300D02*
X477Y300D01*
X947Y300D02*
X951Y300D01*
X957Y300D02*
X962Y300D01*
X968Y300D02*
X972Y300D01*
X984Y300D02*
X988Y300D01*
X995Y300D02*
X999Y300D01*
X1005Y300D02*
X1009Y300D01*
X1021Y300D02*
X1026Y300D01*
X1032Y300D02*
X1036Y300D01*
X1042Y300D02*
X1046Y300D01*
X1068Y300D02*
X1075Y300D01*
X1096Y300D02*
X1100Y300D01*
X1106Y300D02*
X1110Y300D01*
X1116Y300D02*
X1121Y300D01*
X1135Y300D02*
X1157Y300D01*
X1170Y300D02*
X1175Y300D01*
X1208Y300D02*
X1212Y300D01*
X1245Y300D02*
X1249Y300D01*
X1265Y300D02*
X1270Y300D01*
X1282Y300D02*
X1286Y300D01*
X1303Y300D02*
X1307Y300D01*
X1319Y300D02*
X1344Y300D01*
X1356Y300D02*
X1360Y300D01*
X1367Y300D02*
X1371Y300D01*
X1377Y300D02*
X1381Y300D01*
X1394Y300D02*
X1398Y300D01*
X1414Y300D02*
X1418Y300D01*
X1436Y300D02*
X1440Y300D01*
X1478Y300D02*
X1483Y300D01*
X1516Y300D02*
X1520Y300D01*
X1549Y300D02*
X1561Y300D01*
X1589Y300D02*
X1596Y300D01*
X1617Y300D02*
X1621Y300D01*
X1654Y300D02*
X1658Y300D01*
X1675Y300D02*
X1679Y300D01*
X1691Y300D02*
X1695Y300D01*
X1702Y300D02*
X1706Y300D01*
X1712Y300D02*
X1716Y300D01*
X1960Y300D02*
X1967Y300D01*
X0Y299D02*
X7Y299D01*
X470Y299D02*
X477Y299D01*
X947Y299D02*
X951Y299D01*
X957Y299D02*
X962Y299D01*
X968Y299D02*
X972Y299D01*
X984Y299D02*
X988Y299D01*
X995Y299D02*
X999Y299D01*
X1005Y299D02*
X1009Y299D01*
X1021Y299D02*
X1026Y299D01*
X1032Y299D02*
X1036Y299D01*
X1042Y299D02*
X1046Y299D01*
X1067Y299D02*
X1076Y299D01*
X1096Y299D02*
X1100Y299D01*
X1106Y299D02*
X1110Y299D01*
X1116Y299D02*
X1121Y299D01*
X1134Y299D02*
X1157Y299D01*
X1170Y299D02*
X1175Y299D01*
X1208Y299D02*
X1212Y299D01*
X1245Y299D02*
X1249Y299D01*
X1265Y299D02*
X1270Y299D01*
X1282Y299D02*
X1286Y299D01*
X1303Y299D02*
X1307Y299D01*
X1319Y299D02*
X1344Y299D01*
X1356Y299D02*
X1360Y299D01*
X1367Y299D02*
X1371Y299D01*
X1377Y299D02*
X1381Y299D01*
X1394Y299D02*
X1398Y299D01*
X1414Y299D02*
X1418Y299D01*
X1436Y299D02*
X1440Y299D01*
X1478Y299D02*
X1483Y299D01*
X1516Y299D02*
X1520Y299D01*
X1552Y299D02*
X1563Y299D01*
X1588Y299D02*
X1597Y299D01*
X1617Y299D02*
X1621Y299D01*
X1654Y299D02*
X1658Y299D01*
X1675Y299D02*
X1679Y299D01*
X1691Y299D02*
X1695Y299D01*
X1702Y299D02*
X1706Y299D01*
X1712Y299D02*
X1716Y299D01*
X1960Y299D02*
X1967Y299D01*
X0Y298D02*
X7Y298D01*
X470Y298D02*
X477Y298D01*
X947Y298D02*
X951Y298D01*
X957Y298D02*
X962Y298D01*
X968Y298D02*
X972Y298D01*
X984Y298D02*
X989Y298D01*
X995Y298D02*
X999Y298D01*
X1005Y298D02*
X1009Y298D01*
X1022Y298D02*
X1026Y298D01*
X1032Y298D02*
X1036Y298D01*
X1042Y298D02*
X1046Y298D01*
X1066Y298D02*
X1076Y298D01*
X1096Y298D02*
X1100Y298D01*
X1106Y298D02*
X1110Y298D01*
X1116Y298D02*
X1121Y298D01*
X1134Y298D02*
X1158Y298D01*
X1170Y298D02*
X1175Y298D01*
X1208Y298D02*
X1212Y298D01*
X1245Y298D02*
X1249Y298D01*
X1265Y298D02*
X1270Y298D01*
X1282Y298D02*
X1286Y298D01*
X1303Y298D02*
X1307Y298D01*
X1319Y298D02*
X1344Y298D01*
X1356Y298D02*
X1360Y298D01*
X1367Y298D02*
X1371Y298D01*
X1377Y298D02*
X1381Y298D01*
X1394Y298D02*
X1398Y298D01*
X1414Y298D02*
X1418Y298D01*
X1436Y298D02*
X1440Y298D01*
X1478Y298D02*
X1483Y298D01*
X1516Y298D02*
X1520Y298D01*
X1554Y298D02*
X1565Y298D01*
X1587Y298D02*
X1597Y298D01*
X1617Y298D02*
X1621Y298D01*
X1654Y298D02*
X1658Y298D01*
X1675Y298D02*
X1679Y298D01*
X1691Y298D02*
X1695Y298D01*
X1702Y298D02*
X1706Y298D01*
X1712Y298D02*
X1716Y298D01*
X1960Y298D02*
X1967Y298D01*
X0Y297D02*
X7Y297D01*
X470Y297D02*
X477Y297D01*
X947Y297D02*
X951Y297D01*
X957Y297D02*
X962Y297D01*
X968Y297D02*
X972Y297D01*
X984Y297D02*
X989Y297D01*
X995Y297D02*
X999Y297D01*
X1005Y297D02*
X1009Y297D01*
X1022Y297D02*
X1026Y297D01*
X1032Y297D02*
X1036Y297D01*
X1042Y297D02*
X1046Y297D01*
X1066Y297D02*
X1076Y297D01*
X1096Y297D02*
X1100Y297D01*
X1106Y297D02*
X1110Y297D01*
X1117Y297D02*
X1121Y297D01*
X1134Y297D02*
X1139Y297D01*
X1152Y297D02*
X1158Y297D01*
X1170Y297D02*
X1175Y297D01*
X1208Y297D02*
X1212Y297D01*
X1245Y297D02*
X1249Y297D01*
X1265Y297D02*
X1270Y297D01*
X1282Y297D02*
X1286Y297D01*
X1303Y297D02*
X1307Y297D01*
X1319Y297D02*
X1344Y297D01*
X1356Y297D02*
X1360Y297D01*
X1367Y297D02*
X1371Y297D01*
X1377Y297D02*
X1381Y297D01*
X1394Y297D02*
X1398Y297D01*
X1414Y297D02*
X1418Y297D01*
X1436Y297D02*
X1440Y297D01*
X1478Y297D02*
X1483Y297D01*
X1516Y297D02*
X1520Y297D01*
X1556Y297D02*
X1566Y297D01*
X1587Y297D02*
X1597Y297D01*
X1617Y297D02*
X1621Y297D01*
X1654Y297D02*
X1658Y297D01*
X1675Y297D02*
X1679Y297D01*
X1691Y297D02*
X1695Y297D01*
X1702Y297D02*
X1706Y297D01*
X1712Y297D02*
X1716Y297D01*
X1960Y297D02*
X1967Y297D01*
X0Y296D02*
X7Y296D01*
X470Y296D02*
X477Y296D01*
X699Y296D02*
X713Y296D01*
X726Y296D02*
X744Y296D01*
X754Y296D02*
X772Y296D01*
X782Y296D02*
X798Y296D01*
X947Y296D02*
X951Y296D01*
X957Y296D02*
X962Y296D01*
X968Y296D02*
X972Y296D01*
X984Y296D02*
X989Y296D01*
X994Y296D02*
X999Y296D01*
X1005Y296D02*
X1009Y296D01*
X1022Y296D02*
X1026Y296D01*
X1032Y296D02*
X1036Y296D01*
X1042Y296D02*
X1046Y296D01*
X1066Y296D02*
X1076Y296D01*
X1096Y296D02*
X1100Y296D01*
X1106Y296D02*
X1110Y296D01*
X1117Y296D02*
X1121Y296D01*
X1133Y296D02*
X1138Y296D01*
X1153Y296D02*
X1158Y296D01*
X1170Y296D02*
X1175Y296D01*
X1208Y296D02*
X1212Y296D01*
X1245Y296D02*
X1249Y296D01*
X1265Y296D02*
X1270Y296D01*
X1282Y296D02*
X1286Y296D01*
X1303Y296D02*
X1307Y296D01*
X1319Y296D02*
X1343Y296D01*
X1356Y296D02*
X1360Y296D01*
X1367Y296D02*
X1371Y296D01*
X1377Y296D02*
X1381Y296D01*
X1394Y296D02*
X1398Y296D01*
X1414Y296D02*
X1418Y296D01*
X1436Y296D02*
X1440Y296D01*
X1478Y296D02*
X1483Y296D01*
X1516Y296D02*
X1520Y296D01*
X1559Y296D02*
X1566Y296D01*
X1587Y296D02*
X1597Y296D01*
X1617Y296D02*
X1621Y296D01*
X1654Y296D02*
X1658Y296D01*
X1675Y296D02*
X1679Y296D01*
X1691Y296D02*
X1695Y296D01*
X1702Y296D02*
X1706Y296D01*
X1712Y296D02*
X1716Y296D01*
X1960Y296D02*
X1967Y296D01*
X0Y295D02*
X7Y295D01*
X470Y295D02*
X477Y295D01*
X698Y295D02*
X714Y295D01*
X726Y295D02*
X744Y295D01*
X754Y295D02*
X773Y295D01*
X782Y295D02*
X799Y295D01*
X947Y295D02*
X952Y295D01*
X957Y295D02*
X962Y295D01*
X967Y295D02*
X972Y295D01*
X985Y295D02*
X989Y295D01*
X994Y295D02*
X1000Y295D01*
X1005Y295D02*
X1009Y295D01*
X1022Y295D02*
X1026Y295D01*
X1031Y295D02*
X1037Y295D01*
X1042Y295D02*
X1046Y295D01*
X1066Y295D02*
X1076Y295D01*
X1096Y295D02*
X1100Y295D01*
X1106Y295D02*
X1110Y295D01*
X1117Y295D02*
X1121Y295D01*
X1133Y295D02*
X1138Y295D01*
X1153Y295D02*
X1158Y295D01*
X1170Y295D02*
X1175Y295D01*
X1208Y295D02*
X1212Y295D01*
X1245Y295D02*
X1249Y295D01*
X1265Y295D02*
X1270Y295D01*
X1282Y295D02*
X1286Y295D01*
X1302Y295D02*
X1307Y295D01*
X1319Y295D02*
X1324Y295D01*
X1356Y295D02*
X1360Y295D01*
X1367Y295D02*
X1371Y295D01*
X1377Y295D02*
X1381Y295D01*
X1394Y295D02*
X1398Y295D01*
X1414Y295D02*
X1418Y295D01*
X1436Y295D02*
X1440Y295D01*
X1478Y295D02*
X1483Y295D01*
X1516Y295D02*
X1520Y295D01*
X1561Y295D02*
X1567Y295D01*
X1587Y295D02*
X1597Y295D01*
X1617Y295D02*
X1621Y295D01*
X1654Y295D02*
X1658Y295D01*
X1675Y295D02*
X1679Y295D01*
X1691Y295D02*
X1695Y295D01*
X1702Y295D02*
X1706Y295D01*
X1712Y295D02*
X1716Y295D01*
X1960Y295D02*
X1967Y295D01*
X0Y294D02*
X7Y294D01*
X470Y294D02*
X477Y294D01*
X697Y294D02*
X715Y294D01*
X726Y294D02*
X744Y294D01*
X754Y294D02*
X772Y294D01*
X782Y294D02*
X800Y294D01*
X948Y294D02*
X952Y294D01*
X956Y294D02*
X963Y294D01*
X967Y294D02*
X971Y294D01*
X985Y294D02*
X989Y294D01*
X993Y294D02*
X1000Y294D01*
X1004Y294D02*
X1009Y294D01*
X1022Y294D02*
X1026Y294D01*
X1030Y294D02*
X1037Y294D01*
X1041Y294D02*
X1046Y294D01*
X1066Y294D02*
X1076Y294D01*
X1096Y294D02*
X1100Y294D01*
X1106Y294D02*
X1110Y294D01*
X1117Y294D02*
X1121Y294D01*
X1133Y294D02*
X1137Y294D01*
X1153Y294D02*
X1158Y294D01*
X1170Y294D02*
X1175Y294D01*
X1208Y294D02*
X1213Y294D01*
X1245Y294D02*
X1249Y294D01*
X1265Y294D02*
X1270Y294D01*
X1282Y294D02*
X1286Y294D01*
X1302Y294D02*
X1307Y294D01*
X1319Y294D02*
X1324Y294D01*
X1356Y294D02*
X1360Y294D01*
X1367Y294D02*
X1371Y294D01*
X1377Y294D02*
X1381Y294D01*
X1394Y294D02*
X1399Y294D01*
X1413Y294D02*
X1418Y294D01*
X1436Y294D02*
X1440Y294D01*
X1478Y294D02*
X1483Y294D01*
X1516Y294D02*
X1520Y294D01*
X1562Y294D02*
X1567Y294D01*
X1587Y294D02*
X1597Y294D01*
X1617Y294D02*
X1622Y294D01*
X1654Y294D02*
X1658Y294D01*
X1675Y294D02*
X1679Y294D01*
X1691Y294D02*
X1695Y294D01*
X1702Y294D02*
X1706Y294D01*
X1712Y294D02*
X1716Y294D01*
X1960Y294D02*
X1967Y294D01*
X0Y293D02*
X7Y293D01*
X470Y293D02*
X477Y293D01*
X697Y293D02*
X715Y293D01*
X726Y293D02*
X744Y293D01*
X754Y293D02*
X771Y293D01*
X782Y293D02*
X801Y293D01*
X948Y293D02*
X952Y293D01*
X955Y293D02*
X964Y293D01*
X967Y293D02*
X971Y293D01*
X985Y293D02*
X990Y293D01*
X993Y293D02*
X1001Y293D01*
X1004Y293D02*
X1008Y293D01*
X1022Y293D02*
X1027Y293D01*
X1030Y293D02*
X1038Y293D01*
X1041Y293D02*
X1046Y293D01*
X1067Y293D02*
X1076Y293D01*
X1096Y293D02*
X1100Y293D01*
X1106Y293D02*
X1110Y293D01*
X1117Y293D02*
X1121Y293D01*
X1133Y293D02*
X1137Y293D01*
X1153Y293D02*
X1158Y293D01*
X1170Y293D02*
X1175Y293D01*
X1208Y293D02*
X1214Y293D01*
X1245Y293D02*
X1249Y293D01*
X1265Y293D02*
X1269Y293D01*
X1282Y293D02*
X1287Y293D01*
X1300Y293D02*
X1307Y293D01*
X1319Y293D02*
X1324Y293D01*
X1356Y293D02*
X1360Y293D01*
X1367Y293D02*
X1371Y293D01*
X1377Y293D02*
X1381Y293D01*
X1394Y293D02*
X1399Y293D01*
X1411Y293D02*
X1418Y293D01*
X1436Y293D02*
X1440Y293D01*
X1452Y293D02*
X1455Y293D01*
X1478Y293D02*
X1483Y293D01*
X1516Y293D02*
X1520Y293D01*
X1563Y293D02*
X1567Y293D01*
X1588Y293D02*
X1597Y293D01*
X1618Y293D02*
X1623Y293D01*
X1654Y293D02*
X1659Y293D01*
X1675Y293D02*
X1679Y293D01*
X1691Y293D02*
X1695Y293D01*
X1702Y293D02*
X1706Y293D01*
X1712Y293D02*
X1716Y293D01*
X1960Y293D02*
X1967Y293D01*
X0Y292D02*
X7Y292D01*
X470Y292D02*
X477Y292D01*
X697Y292D02*
X700Y292D01*
X713Y292D02*
X716Y292D01*
X726Y292D02*
X729Y292D01*
X733Y292D02*
X736Y292D01*
X741Y292D02*
X744Y292D01*
X754Y292D02*
X757Y292D01*
X782Y292D02*
X785Y292D01*
X798Y292D02*
X801Y292D01*
X948Y292D02*
X953Y292D01*
X955Y292D02*
X964Y292D01*
X966Y292D02*
X971Y292D01*
X985Y292D02*
X990Y292D01*
X992Y292D02*
X1001Y292D01*
X1004Y292D02*
X1008Y292D01*
X1023Y292D02*
X1027Y292D01*
X1029Y292D02*
X1039Y292D01*
X1041Y292D02*
X1045Y292D01*
X1067Y292D02*
X1075Y292D01*
X1096Y292D02*
X1100Y292D01*
X1106Y292D02*
X1110Y292D01*
X1117Y292D02*
X1121Y292D01*
X1133Y292D02*
X1138Y292D01*
X1152Y292D02*
X1158Y292D01*
X1170Y292D02*
X1175Y292D01*
X1209Y292D02*
X1215Y292D01*
X1245Y292D02*
X1250Y292D01*
X1265Y292D02*
X1269Y292D01*
X1282Y292D02*
X1287Y292D01*
X1299Y292D02*
X1307Y292D01*
X1320Y292D02*
X1324Y292D01*
X1356Y292D02*
X1360Y292D01*
X1367Y292D02*
X1371Y292D01*
X1377Y292D02*
X1381Y292D01*
X1394Y292D02*
X1399Y292D01*
X1410Y292D02*
X1418Y292D01*
X1436Y292D02*
X1440Y292D01*
X1452Y292D02*
X1455Y292D01*
X1478Y292D02*
X1483Y292D01*
X1516Y292D02*
X1520Y292D01*
X1563Y292D02*
X1567Y292D01*
X1588Y292D02*
X1596Y292D01*
X1618Y292D02*
X1624Y292D01*
X1654Y292D02*
X1659Y292D01*
X1674Y292D02*
X1679Y292D01*
X1691Y292D02*
X1695Y292D01*
X1702Y292D02*
X1706Y292D01*
X1712Y292D02*
X1716Y292D01*
X1960Y292D02*
X1967Y292D01*
X0Y291D02*
X7Y291D01*
X470Y291D02*
X477Y291D01*
X697Y291D02*
X701Y291D01*
X713Y291D02*
X716Y291D01*
X726Y291D02*
X728Y291D01*
X733Y291D02*
X736Y291D01*
X741Y291D02*
X744Y291D01*
X754Y291D02*
X757Y291D01*
X782Y291D02*
X785Y291D01*
X798Y291D02*
X801Y291D01*
X948Y291D02*
X971Y291D01*
X986Y291D02*
X1008Y291D01*
X1023Y291D02*
X1045Y291D01*
X1069Y291D02*
X1073Y291D01*
X1096Y291D02*
X1100Y291D01*
X1106Y291D02*
X1110Y291D01*
X1117Y291D02*
X1121Y291D01*
X1133Y291D02*
X1138Y291D01*
X1150Y291D02*
X1158Y291D01*
X1170Y291D02*
X1175Y291D01*
X1209Y291D02*
X1216Y291D01*
X1245Y291D02*
X1251Y291D01*
X1264Y291D02*
X1269Y291D01*
X1283Y291D02*
X1288Y291D01*
X1298Y291D02*
X1307Y291D01*
X1320Y291D02*
X1325Y291D01*
X1356Y291D02*
X1360Y291D01*
X1367Y291D02*
X1371Y291D01*
X1377Y291D02*
X1381Y291D01*
X1394Y291D02*
X1399Y291D01*
X1408Y291D02*
X1418Y291D01*
X1436Y291D02*
X1441Y291D01*
X1451Y291D02*
X1456Y291D01*
X1478Y291D02*
X1483Y291D01*
X1516Y291D02*
X1520Y291D01*
X1543Y291D02*
X1546Y291D01*
X1563Y291D02*
X1567Y291D01*
X1590Y291D02*
X1594Y291D01*
X1619Y291D02*
X1626Y291D01*
X1655Y291D02*
X1660Y291D01*
X1673Y291D02*
X1678Y291D01*
X1691Y291D02*
X1695Y291D01*
X1702Y291D02*
X1706Y291D01*
X1712Y291D02*
X1716Y291D01*
X1960Y291D02*
X1967Y291D01*
X0Y290D02*
X7Y290D01*
X470Y290D02*
X477Y290D01*
X698Y290D02*
X702Y290D01*
X714Y290D02*
X715Y290D01*
X726Y290D02*
X728Y290D01*
X733Y290D02*
X736Y290D01*
X742Y290D02*
X743Y290D01*
X754Y290D02*
X757Y290D01*
X782Y290D02*
X785Y290D01*
X798Y290D02*
X801Y290D01*
X949Y290D02*
X970Y290D01*
X986Y290D02*
X996Y290D01*
X998Y290D02*
X1008Y290D01*
X1023Y290D02*
X1033Y290D01*
X1035Y290D02*
X1045Y290D01*
X1096Y290D02*
X1100Y290D01*
X1106Y290D02*
X1110Y290D01*
X1117Y290D02*
X1121Y290D01*
X1134Y290D02*
X1139Y290D01*
X1149Y290D02*
X1158Y290D01*
X1170Y290D02*
X1175Y290D01*
X1210Y290D02*
X1218Y290D01*
X1246Y290D02*
X1252Y290D01*
X1262Y290D02*
X1269Y290D01*
X1283Y290D02*
X1289Y290D01*
X1297Y290D02*
X1307Y290D01*
X1320Y290D02*
X1327Y290D01*
X1356Y290D02*
X1360Y290D01*
X1367Y290D02*
X1371Y290D01*
X1377Y290D02*
X1381Y290D01*
X1395Y290D02*
X1400Y290D01*
X1406Y290D02*
X1418Y290D01*
X1436Y290D02*
X1442Y290D01*
X1450Y290D02*
X1455Y290D01*
X1478Y290D02*
X1483Y290D01*
X1516Y290D02*
X1520Y290D01*
X1543Y290D02*
X1548Y290D01*
X1562Y290D02*
X1567Y290D01*
X1620Y290D02*
X1627Y290D01*
X1655Y290D02*
X1662Y290D01*
X1672Y290D02*
X1678Y290D01*
X1691Y290D02*
X1695Y290D01*
X1702Y290D02*
X1706Y290D01*
X1712Y290D02*
X1716Y290D01*
X1960Y290D02*
X1967Y290D01*
X0Y289D02*
X7Y289D01*
X470Y289D02*
X477Y289D01*
X698Y289D02*
X703Y289D01*
X733Y289D02*
X736Y289D01*
X754Y289D02*
X757Y289D01*
X782Y289D02*
X785Y289D01*
X798Y289D02*
X801Y289D01*
X949Y289D02*
X958Y289D01*
X961Y289D02*
X970Y289D01*
X986Y289D02*
X995Y289D01*
X998Y289D02*
X1007Y289D01*
X1023Y289D02*
X1033Y289D01*
X1035Y289D02*
X1044Y289D01*
X1096Y289D02*
X1100Y289D01*
X1106Y289D02*
X1110Y289D01*
X1117Y289D02*
X1121Y289D01*
X1134Y289D02*
X1158Y289D01*
X1170Y289D02*
X1175Y289D01*
X1212Y289D02*
X1231Y289D01*
X1247Y289D02*
X1268Y289D01*
X1284Y289D02*
X1307Y289D01*
X1321Y289D02*
X1343Y289D01*
X1356Y289D02*
X1360Y289D01*
X1367Y289D02*
X1371Y289D01*
X1377Y289D02*
X1381Y289D01*
X1395Y289D02*
X1418Y289D01*
X1437Y289D02*
X1455Y289D01*
X1472Y289D02*
X1489Y289D01*
X1509Y289D02*
X1526Y289D01*
X1543Y289D02*
X1566Y289D01*
X1621Y289D02*
X1641Y289D01*
X1656Y289D02*
X1677Y289D01*
X1691Y289D02*
X1695Y289D01*
X1702Y289D02*
X1706Y289D01*
X1712Y289D02*
X1716Y289D01*
X1960Y289D02*
X1967Y289D01*
X0Y288D02*
X7Y288D01*
X470Y288D02*
X477Y288D01*
X699Y288D02*
X703Y288D01*
X733Y288D02*
X736Y288D01*
X754Y288D02*
X757Y288D01*
X782Y288D02*
X785Y288D01*
X798Y288D02*
X801Y288D01*
X949Y288D02*
X958Y288D01*
X962Y288D02*
X970Y288D01*
X987Y288D02*
X995Y288D01*
X999Y288D02*
X1007Y288D01*
X1024Y288D02*
X1032Y288D01*
X1036Y288D02*
X1044Y288D01*
X1096Y288D02*
X1100Y288D01*
X1106Y288D02*
X1110Y288D01*
X1117Y288D02*
X1121Y288D01*
X1134Y288D02*
X1158Y288D01*
X1170Y288D02*
X1175Y288D01*
X1213Y288D02*
X1232Y288D01*
X1247Y288D02*
X1267Y288D01*
X1285Y288D02*
X1307Y288D01*
X1322Y288D02*
X1344Y288D01*
X1356Y288D02*
X1360Y288D01*
X1367Y288D02*
X1371Y288D01*
X1377Y288D02*
X1382Y288D01*
X1396Y288D02*
X1412Y288D01*
X1414Y288D02*
X1418Y288D01*
X1437Y288D02*
X1454Y288D01*
X1471Y288D02*
X1490Y288D01*
X1508Y288D02*
X1527Y288D01*
X1543Y288D02*
X1566Y288D01*
X1622Y288D02*
X1641Y288D01*
X1657Y288D02*
X1676Y288D01*
X1691Y288D02*
X1695Y288D01*
X1702Y288D02*
X1706Y288D01*
X1712Y288D02*
X1716Y288D01*
X1960Y288D02*
X1967Y288D01*
X0Y287D02*
X7Y287D01*
X470Y287D02*
X477Y287D01*
X700Y287D02*
X704Y287D01*
X733Y287D02*
X736Y287D01*
X754Y287D02*
X757Y287D01*
X782Y287D02*
X785Y287D01*
X798Y287D02*
X801Y287D01*
X950Y287D02*
X957Y287D01*
X962Y287D02*
X969Y287D01*
X987Y287D02*
X994Y287D01*
X999Y287D02*
X1007Y287D01*
X1024Y287D02*
X1031Y287D01*
X1037Y287D02*
X1044Y287D01*
X1096Y287D02*
X1100Y287D01*
X1106Y287D02*
X1110Y287D01*
X1117Y287D02*
X1121Y287D01*
X1135Y287D02*
X1158Y287D01*
X1171Y287D02*
X1175Y287D01*
X1214Y287D02*
X1232Y287D01*
X1249Y287D02*
X1266Y287D01*
X1286Y287D02*
X1301Y287D01*
X1303Y287D02*
X1307Y287D01*
X1323Y287D02*
X1344Y287D01*
X1356Y287D02*
X1360Y287D01*
X1367Y287D02*
X1371Y287D01*
X1377Y287D02*
X1382Y287D01*
X1396Y287D02*
X1410Y287D01*
X1414Y287D02*
X1418Y287D01*
X1438Y287D02*
X1453Y287D01*
X1471Y287D02*
X1490Y287D01*
X1508Y287D02*
X1527Y287D01*
X1544Y287D02*
X1565Y287D01*
X1623Y287D02*
X1642Y287D01*
X1658Y287D02*
X1675Y287D01*
X1691Y287D02*
X1695Y287D01*
X1702Y287D02*
X1706Y287D01*
X1712Y287D02*
X1716Y287D01*
X1960Y287D02*
X1967Y287D01*
X0Y286D02*
X7Y286D01*
X470Y286D02*
X477Y286D01*
X701Y286D02*
X705Y286D01*
X733Y286D02*
X736Y286D01*
X754Y286D02*
X757Y286D01*
X782Y286D02*
X785Y286D01*
X798Y286D02*
X801Y286D01*
X950Y286D02*
X956Y286D01*
X963Y286D02*
X969Y286D01*
X987Y286D02*
X994Y286D01*
X1000Y286D02*
X1006Y286D01*
X1024Y286D02*
X1031Y286D01*
X1037Y286D02*
X1043Y286D01*
X1096Y286D02*
X1100Y286D01*
X1107Y286D02*
X1110Y286D01*
X1117Y286D02*
X1121Y286D01*
X1136Y286D02*
X1151Y286D01*
X1154Y286D02*
X1158Y286D01*
X1171Y286D02*
X1174Y286D01*
X1215Y286D02*
X1232Y286D01*
X1250Y286D02*
X1264Y286D01*
X1287Y286D02*
X1299Y286D01*
X1303Y286D02*
X1306Y286D01*
X1324Y286D02*
X1344Y286D01*
X1356Y286D02*
X1360Y286D01*
X1367Y286D02*
X1371Y286D01*
X1378Y286D02*
X1381Y286D01*
X1397Y286D02*
X1409Y286D01*
X1414Y286D02*
X1418Y286D01*
X1439Y286D02*
X1452Y286D01*
X1471Y286D02*
X1490Y286D01*
X1508Y286D02*
X1527Y286D01*
X1545Y286D02*
X1564Y286D01*
X1625Y286D02*
X1641Y286D01*
X1659Y286D02*
X1674Y286D01*
X1691Y286D02*
X1695Y286D01*
X1702Y286D02*
X1706Y286D01*
X1713Y286D02*
X1716Y286D01*
X1960Y286D02*
X1967Y286D01*
X0Y285D02*
X7Y285D01*
X470Y285D02*
X477Y285D01*
X702Y285D02*
X706Y285D01*
X733Y285D02*
X736Y285D01*
X754Y285D02*
X757Y285D01*
X782Y285D02*
X785Y285D01*
X798Y285D02*
X801Y285D01*
X951Y285D02*
X955Y285D01*
X964Y285D02*
X968Y285D01*
X988Y285D02*
X993Y285D01*
X1001Y285D02*
X1005Y285D01*
X1025Y285D02*
X1030Y285D01*
X1038Y285D02*
X1043Y285D01*
X1097Y285D02*
X1099Y285D01*
X1107Y285D02*
X1109Y285D01*
X1118Y285D02*
X1120Y285D01*
X1138Y285D02*
X1149Y285D01*
X1155Y285D02*
X1157Y285D01*
X1172Y285D02*
X1174Y285D01*
X1217Y285D02*
X1231Y285D01*
X1252Y285D02*
X1263Y285D01*
X1289Y285D02*
X1298Y285D01*
X1304Y285D02*
X1306Y285D01*
X1326Y285D02*
X1343Y285D01*
X1357Y285D02*
X1359Y285D01*
X1368Y285D02*
X1370Y285D01*
X1378Y285D02*
X1381Y285D01*
X1399Y285D02*
X1407Y285D01*
X1415Y285D02*
X1417Y285D01*
X1441Y285D02*
X1451Y285D01*
X1472Y285D02*
X1489Y285D01*
X1509Y285D02*
X1526Y285D01*
X1547Y285D02*
X1562Y285D01*
X1626Y285D02*
X1641Y285D01*
X1661Y285D02*
X1672Y285D01*
X1692Y285D02*
X1694Y285D01*
X1703Y285D02*
X1705Y285D01*
X1713Y285D02*
X1715Y285D01*
X1960Y285D02*
X1967Y285D01*
X0Y284D02*
X7Y284D01*
X470Y284D02*
X477Y284D01*
X702Y284D02*
X706Y284D01*
X733Y284D02*
X736Y284D01*
X754Y284D02*
X757Y284D01*
X782Y284D02*
X785Y284D01*
X798Y284D02*
X801Y284D01*
X1960Y284D02*
X1967Y284D01*
X0Y283D02*
X7Y283D01*
X470Y283D02*
X477Y283D01*
X703Y283D02*
X707Y283D01*
X733Y283D02*
X736Y283D01*
X754Y283D02*
X764Y283D01*
X782Y283D02*
X785Y283D01*
X798Y283D02*
X801Y283D01*
X1960Y283D02*
X1967Y283D01*
X0Y282D02*
X7Y282D01*
X470Y282D02*
X477Y282D01*
X704Y282D02*
X708Y282D01*
X733Y282D02*
X736Y282D01*
X754Y282D02*
X765Y282D01*
X782Y282D02*
X786Y282D01*
X797Y282D02*
X801Y282D01*
X1960Y282D02*
X1967Y282D01*
X0Y281D02*
X7Y281D01*
X470Y281D02*
X477Y281D01*
X705Y281D02*
X709Y281D01*
X733Y281D02*
X736Y281D01*
X754Y281D02*
X765Y281D01*
X782Y281D02*
X800Y281D01*
X1960Y281D02*
X1967Y281D01*
X0Y280D02*
X7Y280D01*
X470Y280D02*
X477Y280D01*
X705Y280D02*
X710Y280D01*
X733Y280D02*
X736Y280D01*
X754Y280D02*
X764Y280D01*
X782Y280D02*
X800Y280D01*
X1960Y280D02*
X1967Y280D01*
X0Y279D02*
X7Y279D01*
X470Y279D02*
X477Y279D01*
X706Y279D02*
X710Y279D01*
X733Y279D02*
X736Y279D01*
X754Y279D02*
X757Y279D01*
X782Y279D02*
X798Y279D01*
X1960Y279D02*
X1967Y279D01*
X0Y278D02*
X7Y278D01*
X470Y278D02*
X477Y278D01*
X707Y278D02*
X711Y278D01*
X733Y278D02*
X736Y278D01*
X754Y278D02*
X757Y278D01*
X782Y278D02*
X796Y278D01*
X1960Y278D02*
X1967Y278D01*
X0Y277D02*
X7Y277D01*
X470Y277D02*
X477Y277D01*
X708Y277D02*
X712Y277D01*
X733Y277D02*
X736Y277D01*
X754Y277D02*
X757Y277D01*
X782Y277D02*
X785Y277D01*
X1960Y277D02*
X1967Y277D01*
X0Y276D02*
X7Y276D01*
X470Y276D02*
X477Y276D01*
X709Y276D02*
X713Y276D01*
X733Y276D02*
X736Y276D01*
X754Y276D02*
X757Y276D01*
X782Y276D02*
X785Y276D01*
X1960Y276D02*
X1967Y276D01*
X0Y275D02*
X7Y275D01*
X470Y275D02*
X477Y275D01*
X709Y275D02*
X713Y275D01*
X733Y275D02*
X736Y275D01*
X754Y275D02*
X757Y275D01*
X782Y275D02*
X785Y275D01*
X1960Y275D02*
X1967Y275D01*
X0Y274D02*
X7Y274D01*
X470Y274D02*
X477Y274D01*
X710Y274D02*
X714Y274D01*
X733Y274D02*
X736Y274D01*
X754Y274D02*
X757Y274D01*
X782Y274D02*
X785Y274D01*
X1960Y274D02*
X1967Y274D01*
X0Y273D02*
X7Y273D01*
X470Y273D02*
X477Y273D01*
X698Y273D02*
X699Y273D01*
X711Y273D02*
X715Y273D01*
X733Y273D02*
X736Y273D01*
X754Y273D02*
X757Y273D01*
X782Y273D02*
X785Y273D01*
X1960Y273D02*
X1967Y273D01*
X0Y272D02*
X7Y272D01*
X470Y272D02*
X477Y272D01*
X697Y272D02*
X700Y272D01*
X712Y272D02*
X715Y272D01*
X733Y272D02*
X736Y272D01*
X754Y272D02*
X757Y272D01*
X782Y272D02*
X785Y272D01*
X1960Y272D02*
X1967Y272D01*
X0Y271D02*
X7Y271D01*
X470Y271D02*
X477Y271D01*
X697Y271D02*
X700Y271D01*
X712Y271D02*
X716Y271D01*
X733Y271D02*
X736Y271D01*
X754Y271D02*
X757Y271D01*
X782Y271D02*
X785Y271D01*
X1960Y271D02*
X1967Y271D01*
X0Y270D02*
X7Y270D01*
X470Y270D02*
X477Y270D01*
X697Y270D02*
X716Y270D01*
X733Y270D02*
X736Y270D01*
X754Y270D02*
X771Y270D01*
X782Y270D02*
X785Y270D01*
X1960Y270D02*
X1967Y270D01*
X0Y269D02*
X7Y269D01*
X470Y269D02*
X477Y269D01*
X698Y269D02*
X715Y269D01*
X733Y269D02*
X736Y269D01*
X754Y269D02*
X772Y269D01*
X782Y269D02*
X785Y269D01*
X1960Y269D02*
X1967Y269D01*
X0Y268D02*
X7Y268D01*
X470Y268D02*
X477Y268D01*
X699Y268D02*
X715Y268D01*
X733Y268D02*
X736Y268D01*
X754Y268D02*
X773Y268D01*
X782Y268D02*
X785Y268D01*
X1960Y268D02*
X1967Y268D01*
X0Y267D02*
X7Y267D01*
X470Y267D02*
X477Y267D01*
X700Y267D02*
X714Y267D01*
X734Y267D02*
X736Y267D01*
X754Y267D02*
X772Y267D01*
X783Y267D02*
X785Y267D01*
X1960Y267D02*
X1967Y267D01*
X0Y266D02*
X7Y266D01*
X470Y266D02*
X477Y266D01*
X1960Y266D02*
X1967Y266D01*
X0Y265D02*
X7Y265D01*
X470Y265D02*
X477Y265D01*
X1960Y265D02*
X1967Y265D01*
X0Y264D02*
X7Y264D01*
X470Y264D02*
X477Y264D01*
X1960Y264D02*
X1967Y264D01*
X0Y263D02*
X7Y263D01*
X470Y263D02*
X477Y263D01*
X1960Y263D02*
X1967Y263D01*
X0Y262D02*
X7Y262D01*
X470Y262D02*
X477Y262D01*
X1960Y262D02*
X1967Y262D01*
X0Y261D02*
X7Y261D01*
X470Y261D02*
X477Y261D01*
X1960Y261D02*
X1967Y261D01*
X0Y260D02*
X7Y260D01*
X470Y260D02*
X477Y260D01*
X1960Y260D02*
X1967Y260D01*
X0Y259D02*
X7Y259D01*
X470Y259D02*
X477Y259D01*
X1960Y259D02*
X1967Y259D01*
X0Y258D02*
X7Y258D01*
X470Y258D02*
X477Y258D01*
X1960Y258D02*
X1967Y258D01*
X0Y257D02*
X7Y257D01*
X470Y257D02*
X477Y257D01*
X1960Y257D02*
X1967Y257D01*
X0Y256D02*
X7Y256D01*
X470Y256D02*
X477Y256D01*
X1960Y256D02*
X1967Y256D01*
X0Y255D02*
X7Y255D01*
X470Y255D02*
X477Y255D01*
X1960Y255D02*
X1967Y255D01*
X0Y254D02*
X7Y254D01*
X470Y254D02*
X477Y254D01*
X1960Y254D02*
X1967Y254D01*
X0Y253D02*
X7Y253D01*
X470Y253D02*
X477Y253D01*
X1960Y253D02*
X1967Y253D01*
X0Y252D02*
X7Y252D01*
X470Y252D02*
X477Y252D01*
X1960Y252D02*
X1967Y252D01*
X0Y251D02*
X7Y251D01*
X470Y251D02*
X477Y251D01*
X1960Y251D02*
X1967Y251D01*
X0Y250D02*
X7Y250D01*
X470Y250D02*
X477Y250D01*
X1960Y250D02*
X1967Y250D01*
X0Y249D02*
X7Y249D01*
X470Y249D02*
X477Y249D01*
X1960Y249D02*
X1967Y249D01*
X0Y248D02*
X7Y248D01*
X470Y248D02*
X477Y248D01*
X1960Y248D02*
X1967Y248D01*
X0Y247D02*
X7Y247D01*
X470Y247D02*
X477Y247D01*
X1960Y247D02*
X1967Y247D01*
X0Y246D02*
X7Y246D01*
X470Y246D02*
X477Y246D01*
X1960Y246D02*
X1967Y246D01*
X0Y245D02*
X7Y245D01*
X470Y245D02*
X477Y245D01*
X1960Y245D02*
X1967Y245D01*
X0Y244D02*
X7Y244D01*
X470Y244D02*
X477Y244D01*
X1960Y244D02*
X1967Y244D01*
X0Y243D02*
X7Y243D01*
X470Y243D02*
X477Y243D01*
X1960Y243D02*
X1967Y243D01*
X0Y242D02*
X7Y242D01*
X470Y242D02*
X477Y242D01*
X1960Y242D02*
X1967Y242D01*
X0Y241D02*
X7Y241D01*
X470Y241D02*
X477Y241D01*
X1960Y241D02*
X1967Y241D01*
X0Y240D02*
X7Y240D01*
X470Y240D02*
X477Y240D01*
X1960Y240D02*
X1967Y240D01*
X0Y239D02*
X7Y239D01*
X470Y239D02*
X477Y239D01*
X1960Y239D02*
X1967Y239D01*
X0Y238D02*
X7Y238D01*
X470Y238D02*
X477Y238D01*
X1960Y238D02*
X1967Y238D01*
X0Y237D02*
X7Y237D01*
X470Y237D02*
X477Y237D01*
X1960Y237D02*
X1967Y237D01*
X0Y236D02*
X7Y236D01*
X470Y236D02*
X477Y236D01*
X1960Y236D02*
X1967Y236D01*
X0Y235D02*
X7Y235D01*
X470Y235D02*
X477Y235D01*
X1960Y235D02*
X1967Y235D01*
X0Y234D02*
X7Y234D01*
X470Y234D02*
X477Y234D01*
X1960Y234D02*
X1967Y234D01*
X0Y233D02*
X7Y233D01*
X470Y233D02*
X477Y233D01*
X1960Y233D02*
X1967Y233D01*
X0Y232D02*
X7Y232D01*
X470Y232D02*
X477Y232D01*
X1960Y232D02*
X1967Y232D01*
X0Y231D02*
X7Y231D01*
X470Y231D02*
X477Y231D01*
X1960Y231D02*
X1967Y231D01*
X0Y230D02*
X7Y230D01*
X470Y230D02*
X477Y230D01*
X1960Y230D02*
X1967Y230D01*
X0Y229D02*
X7Y229D01*
X470Y229D02*
X477Y229D01*
X1960Y229D02*
X1967Y229D01*
X0Y228D02*
X7Y228D01*
X470Y228D02*
X477Y228D01*
X1960Y228D02*
X1967Y228D01*
X0Y227D02*
X7Y227D01*
X470Y227D02*
X477Y227D01*
X1960Y227D02*
X1967Y227D01*
X0Y226D02*
X7Y226D01*
X470Y226D02*
X477Y226D01*
X1960Y226D02*
X1967Y226D01*
X0Y225D02*
X7Y225D01*
X470Y225D02*
X477Y225D01*
X1960Y225D02*
X1967Y225D01*
X0Y224D02*
X7Y224D01*
X470Y224D02*
X477Y224D01*
X1960Y224D02*
X1967Y224D01*
X0Y223D02*
X7Y223D01*
X470Y223D02*
X477Y223D01*
X1960Y223D02*
X1967Y223D01*
X0Y222D02*
X7Y222D01*
X470Y222D02*
X477Y222D01*
X1960Y222D02*
X1967Y222D01*
X0Y221D02*
X7Y221D01*
X470Y221D02*
X477Y221D01*
X1960Y221D02*
X1967Y221D01*
X0Y220D02*
X7Y220D01*
X470Y220D02*
X477Y220D01*
X1960Y220D02*
X1967Y220D01*
X0Y219D02*
X7Y219D01*
X470Y219D02*
X477Y219D01*
X1960Y219D02*
X1967Y219D01*
X0Y218D02*
X7Y218D01*
X470Y218D02*
X477Y218D01*
X1960Y218D02*
X1967Y218D01*
X0Y217D02*
X7Y217D01*
X470Y217D02*
X477Y217D01*
X1960Y217D02*
X1967Y217D01*
X0Y216D02*
X7Y216D01*
X470Y216D02*
X477Y216D01*
X1960Y216D02*
X1967Y216D01*
X0Y215D02*
X7Y215D01*
X470Y215D02*
X477Y215D01*
X1960Y215D02*
X1967Y215D01*
X0Y214D02*
X7Y214D01*
X470Y214D02*
X477Y214D01*
X1960Y214D02*
X1967Y214D01*
X0Y213D02*
X7Y213D01*
X470Y213D02*
X477Y213D01*
X1960Y213D02*
X1967Y213D01*
X0Y212D02*
X7Y212D01*
X470Y212D02*
X477Y212D01*
X1960Y212D02*
X1967Y212D01*
X0Y211D02*
X477Y211D01*
X1203Y211D02*
X1221Y211D01*
X1235Y211D02*
X1249Y211D01*
X1262Y211D02*
X1276Y211D01*
X1960Y211D02*
X1967Y211D01*
X0Y210D02*
X477Y210D01*
X1203Y210D02*
X1221Y210D01*
X1235Y210D02*
X1250Y210D01*
X1261Y210D02*
X1277Y210D01*
X1960Y210D02*
X1967Y210D01*
X0Y209D02*
X477Y209D01*
X1203Y209D02*
X1221Y209D01*
X1235Y209D02*
X1250Y209D01*
X1260Y209D02*
X1278Y209D01*
X1960Y209D02*
X1967Y209D01*
X0Y208D02*
X477Y208D01*
X1203Y208D02*
X1221Y208D01*
X1235Y208D02*
X1249Y208D01*
X1260Y208D02*
X1278Y208D01*
X1960Y208D02*
X1967Y208D01*
X0Y207D02*
X477Y207D01*
X1203Y207D02*
X1205Y207D01*
X1218Y207D02*
X1221Y207D01*
X1235Y207D02*
X1238Y207D01*
X1260Y207D02*
X1263Y207D01*
X1275Y207D02*
X1278Y207D01*
X1960Y207D02*
X1967Y207D01*
X0Y206D02*
X476Y206D01*
X1218Y206D02*
X1221Y206D01*
X1235Y206D02*
X1238Y206D01*
X1260Y206D02*
X1263Y206D01*
X1275Y206D02*
X1278Y206D01*
X1960Y206D02*
X1967Y206D01*
X0Y205D02*
X476Y205D01*
X1218Y205D02*
X1221Y205D01*
X1235Y205D02*
X1238Y205D01*
X1260Y205D02*
X1263Y205D01*
X1275Y205D02*
X1278Y205D01*
X1960Y205D02*
X1967Y205D01*
X0Y204D02*
X475Y204D01*
X1218Y204D02*
X1221Y204D01*
X1235Y204D02*
X1238Y204D01*
X1260Y204D02*
X1263Y204D01*
X1275Y204D02*
X1278Y204D01*
X1960Y204D02*
X1967Y204D01*
X0Y203D02*
X7Y203D01*
X1218Y203D02*
X1221Y203D01*
X1235Y203D02*
X1238Y203D01*
X1260Y203D02*
X1263Y203D01*
X1275Y203D02*
X1278Y203D01*
X1960Y203D02*
X1967Y203D01*
X0Y202D02*
X7Y202D01*
X1218Y202D02*
X1221Y202D01*
X1235Y202D02*
X1238Y202D01*
X1260Y202D02*
X1263Y202D01*
X1275Y202D02*
X1278Y202D01*
X1960Y202D02*
X1967Y202D01*
X0Y201D02*
X7Y201D01*
X1218Y201D02*
X1221Y201D01*
X1235Y201D02*
X1238Y201D01*
X1260Y201D02*
X1263Y201D01*
X1275Y201D02*
X1278Y201D01*
X1960Y201D02*
X1967Y201D01*
X0Y200D02*
X7Y200D01*
X1218Y200D02*
X1221Y200D01*
X1235Y200D02*
X1238Y200D01*
X1260Y200D02*
X1263Y200D01*
X1275Y200D02*
X1278Y200D01*
X1960Y200D02*
X1967Y200D01*
X0Y199D02*
X7Y199D01*
X1217Y199D02*
X1221Y199D01*
X1235Y199D02*
X1238Y199D01*
X1260Y199D02*
X1263Y199D01*
X1275Y199D02*
X1278Y199D01*
X1960Y199D02*
X1967Y199D01*
X0Y198D02*
X7Y198D01*
X1215Y198D02*
X1221Y198D01*
X1235Y198D02*
X1247Y198D01*
X1260Y198D02*
X1263Y198D01*
X1275Y198D02*
X1278Y198D01*
X1960Y198D02*
X1967Y198D01*
X0Y197D02*
X7Y197D01*
X1214Y197D02*
X1219Y197D01*
X1235Y197D02*
X1249Y197D01*
X1260Y197D02*
X1263Y197D01*
X1275Y197D02*
X1278Y197D01*
X1960Y197D02*
X1967Y197D01*
X0Y196D02*
X7Y196D01*
X1085Y196D02*
X1152Y196D01*
X1213Y196D02*
X1218Y196D01*
X1235Y196D02*
X1249Y196D01*
X1260Y196D02*
X1263Y196D01*
X1275Y196D02*
X1278Y196D01*
X1353Y196D02*
X1400Y196D01*
X1960Y196D02*
X1967Y196D01*
X0Y195D02*
X7Y195D01*
X1086Y195D02*
X1152Y195D01*
X1212Y195D02*
X1217Y195D01*
X1235Y195D02*
X1250Y195D01*
X1260Y195D02*
X1263Y195D01*
X1275Y195D02*
X1278Y195D01*
X1353Y195D02*
X1400Y195D01*
X1960Y195D02*
X1967Y195D01*
X0Y194D02*
X7Y194D01*
X1086Y194D02*
X1152Y194D01*
X1211Y194D02*
X1216Y194D01*
X1247Y194D02*
X1250Y194D01*
X1260Y194D02*
X1263Y194D01*
X1275Y194D02*
X1278Y194D01*
X1353Y194D02*
X1400Y194D01*
X1960Y194D02*
X1967Y194D01*
X0Y193D02*
X7Y193D01*
X1086Y193D02*
X1152Y193D01*
X1211Y193D02*
X1215Y193D01*
X1247Y193D02*
X1250Y193D01*
X1260Y193D02*
X1263Y193D01*
X1275Y193D02*
X1278Y193D01*
X1353Y193D02*
X1400Y193D01*
X1960Y193D02*
X1967Y193D01*
X0Y192D02*
X7Y192D01*
X1086Y192D02*
X1152Y192D01*
X1211Y192D02*
X1214Y192D01*
X1247Y192D02*
X1250Y192D01*
X1260Y192D02*
X1263Y192D01*
X1275Y192D02*
X1278Y192D01*
X1353Y192D02*
X1400Y192D01*
X1960Y192D02*
X1967Y192D01*
X0Y191D02*
X7Y191D01*
X1086Y191D02*
X1152Y191D01*
X1211Y191D02*
X1214Y191D01*
X1247Y191D02*
X1250Y191D01*
X1260Y191D02*
X1263Y191D01*
X1275Y191D02*
X1278Y191D01*
X1353Y191D02*
X1400Y191D01*
X1960Y191D02*
X1967Y191D01*
X0Y190D02*
X7Y190D01*
X1086Y190D02*
X1152Y190D01*
X1211Y190D02*
X1214Y190D01*
X1247Y190D02*
X1250Y190D01*
X1260Y190D02*
X1263Y190D01*
X1275Y190D02*
X1278Y190D01*
X1353Y190D02*
X1400Y190D01*
X1960Y190D02*
X1967Y190D01*
X0Y189D02*
X7Y189D01*
X1086Y189D02*
X1152Y189D01*
X1211Y189D02*
X1214Y189D01*
X1247Y189D02*
X1250Y189D01*
X1260Y189D02*
X1263Y189D01*
X1275Y189D02*
X1278Y189D01*
X1353Y189D02*
X1400Y189D01*
X1960Y189D02*
X1967Y189D01*
X0Y188D02*
X7Y188D01*
X1085Y188D02*
X1152Y188D01*
X1211Y188D02*
X1214Y188D01*
X1247Y188D02*
X1250Y188D01*
X1260Y188D02*
X1263Y188D01*
X1275Y188D02*
X1278Y188D01*
X1353Y188D02*
X1400Y188D01*
X1960Y188D02*
X1967Y188D01*
X0Y187D02*
X7Y187D01*
X1085Y187D02*
X1151Y187D01*
X1211Y187D02*
X1214Y187D01*
X1247Y187D02*
X1250Y187D01*
X1260Y187D02*
X1263Y187D01*
X1275Y187D02*
X1278Y187D01*
X1353Y187D02*
X1400Y187D01*
X1960Y187D02*
X1967Y187D01*
X0Y186D02*
X7Y186D01*
X1211Y186D02*
X1214Y186D01*
X1232Y186D02*
X1234Y186D01*
X1247Y186D02*
X1250Y186D01*
X1260Y186D02*
X1263Y186D01*
X1275Y186D02*
X1278Y186D01*
X1960Y186D02*
X1967Y186D01*
X0Y185D02*
X7Y185D01*
X1211Y185D02*
X1214Y185D01*
X1231Y185D02*
X1236Y185D01*
X1247Y185D02*
X1250Y185D01*
X1260Y185D02*
X1263Y185D01*
X1275Y185D02*
X1278Y185D01*
X1960Y185D02*
X1967Y185D01*
X0Y184D02*
X7Y184D01*
X1211Y184D02*
X1214Y184D01*
X1231Y184D02*
X1250Y184D01*
X1260Y184D02*
X1278Y184D01*
X1960Y184D02*
X1967Y184D01*
X0Y183D02*
X7Y183D01*
X1211Y183D02*
X1214Y183D01*
X1232Y183D02*
X1249Y183D01*
X1260Y183D02*
X1278Y183D01*
X1960Y183D02*
X1967Y183D01*
X0Y182D02*
X7Y182D01*
X1211Y182D02*
X1213Y182D01*
X1234Y182D02*
X1248Y182D01*
X1261Y182D02*
X1277Y182D01*
X1960Y182D02*
X1967Y182D01*
X0Y181D02*
X7Y181D01*
X1212Y181D02*
X1212Y181D01*
X1237Y181D02*
X1246Y181D01*
X1263Y181D02*
X1275Y181D01*
X1960Y181D02*
X1967Y181D01*
X0Y180D02*
X7Y180D01*
X1960Y180D02*
X1967Y180D01*
X0Y179D02*
X7Y179D01*
X1960Y179D02*
X1967Y179D01*
X0Y178D02*
X7Y178D01*
X1960Y178D02*
X1967Y178D01*
X0Y177D02*
X7Y177D01*
X1960Y177D02*
X1967Y177D01*
X0Y176D02*
X7Y176D01*
X1960Y176D02*
X1967Y176D01*
X0Y175D02*
X7Y175D01*
X1960Y175D02*
X1967Y175D01*
X0Y174D02*
X7Y174D01*
X1960Y174D02*
X1967Y174D01*
X0Y173D02*
X7Y173D01*
X1960Y173D02*
X1967Y173D01*
X0Y172D02*
X7Y172D01*
X1960Y172D02*
X1967Y172D01*
X0Y171D02*
X7Y171D01*
X1960Y171D02*
X1967Y171D01*
X0Y170D02*
X7Y170D01*
X1960Y170D02*
X1967Y170D01*
X0Y169D02*
X7Y169D01*
X1960Y169D02*
X1967Y169D01*
X0Y168D02*
X7Y168D01*
X1960Y168D02*
X1967Y168D01*
X0Y167D02*
X7Y167D01*
X1960Y167D02*
X1967Y167D01*
X0Y166D02*
X7Y166D01*
X1960Y166D02*
X1967Y166D01*
X0Y165D02*
X7Y165D01*
X1960Y165D02*
X1967Y165D01*
X0Y164D02*
X7Y164D01*
X1960Y164D02*
X1967Y164D01*
X0Y163D02*
X7Y163D01*
X1960Y163D02*
X1967Y163D01*
X0Y162D02*
X7Y162D01*
X1960Y162D02*
X1967Y162D01*
X0Y161D02*
X7Y161D01*
X1960Y161D02*
X1967Y161D01*
X0Y160D02*
X7Y160D01*
X1960Y160D02*
X1967Y160D01*
X0Y159D02*
X7Y159D01*
X1960Y159D02*
X1967Y159D01*
X0Y158D02*
X7Y158D01*
X1960Y158D02*
X1967Y158D01*
X0Y157D02*
X7Y157D01*
X1960Y157D02*
X1967Y157D01*
X0Y156D02*
X7Y156D01*
X1960Y156D02*
X1967Y156D01*
X0Y155D02*
X7Y155D01*
X1960Y155D02*
X1967Y155D01*
X0Y154D02*
X7Y154D01*
X1960Y154D02*
X1967Y154D01*
X0Y153D02*
X7Y153D01*
X1960Y153D02*
X1967Y153D01*
X0Y152D02*
X7Y152D01*
X1960Y152D02*
X1967Y152D01*
X0Y151D02*
X7Y151D01*
X1960Y151D02*
X1967Y151D01*
X0Y150D02*
X7Y150D01*
X1960Y150D02*
X1967Y150D01*
X0Y149D02*
X7Y149D01*
X1960Y149D02*
X1967Y149D01*
X0Y148D02*
X7Y148D01*
X1960Y148D02*
X1967Y148D01*
X0Y147D02*
X7Y147D01*
X1960Y147D02*
X1967Y147D01*
X0Y146D02*
X7Y146D01*
X1960Y146D02*
X1967Y146D01*
X0Y145D02*
X7Y145D01*
X1960Y145D02*
X1967Y145D01*
X0Y144D02*
X7Y144D01*
X1960Y144D02*
X1967Y144D01*
X0Y143D02*
X7Y143D01*
X1960Y143D02*
X1967Y143D01*
X0Y142D02*
X7Y142D01*
X1960Y142D02*
X1967Y142D01*
X0Y141D02*
X7Y141D01*
X1960Y141D02*
X1967Y141D01*
X0Y140D02*
X7Y140D01*
X1960Y140D02*
X1967Y140D01*
X0Y139D02*
X7Y139D01*
X1960Y139D02*
X1967Y139D01*
X0Y138D02*
X7Y138D01*
X1960Y138D02*
X1967Y138D01*
X0Y137D02*
X7Y137D01*
X1960Y137D02*
X1967Y137D01*
X0Y136D02*
X7Y136D01*
X1960Y136D02*
X1967Y136D01*
X0Y135D02*
X7Y135D01*
X1960Y135D02*
X1967Y135D01*
X0Y134D02*
X7Y134D01*
X1960Y134D02*
X1967Y134D01*
X0Y133D02*
X7Y133D01*
X1960Y133D02*
X1967Y133D01*
X0Y132D02*
X7Y132D01*
X1960Y132D02*
X1967Y132D01*
X0Y131D02*
X7Y131D01*
X1960Y131D02*
X1967Y131D01*
X0Y130D02*
X7Y130D01*
X1960Y130D02*
X1967Y130D01*
X0Y129D02*
X7Y129D01*
X1960Y129D02*
X1967Y129D01*
X0Y128D02*
X7Y128D01*
X1960Y128D02*
X1967Y128D01*
X0Y127D02*
X7Y127D01*
X1960Y127D02*
X1967Y127D01*
X0Y126D02*
X7Y126D01*
X1612Y126D02*
X1627Y126D01*
X1639Y126D02*
X1641Y126D01*
X1667Y126D02*
X1683Y126D01*
X1960Y126D02*
X1967Y126D01*
X0Y125D02*
X7Y125D01*
X1611Y125D02*
X1628Y125D01*
X1639Y125D02*
X1642Y125D01*
X1667Y125D02*
X1684Y125D01*
X1960Y125D02*
X1967Y125D01*
X0Y124D02*
X7Y124D01*
X1611Y124D02*
X1628Y124D01*
X1639Y124D02*
X1642Y124D01*
X1667Y124D02*
X1685Y124D01*
X1960Y124D02*
X1967Y124D01*
X0Y123D02*
X7Y123D01*
X608Y123D02*
X618Y123D01*
X636Y123D02*
X654Y123D01*
X664Y123D02*
X679Y123D01*
X816Y123D02*
X825Y123D01*
X836Y123D02*
X840Y123D01*
X852Y123D02*
X854Y123D01*
X865Y123D02*
X875Y123D01*
X1610Y123D02*
X1629Y123D01*
X1639Y123D02*
X1642Y123D01*
X1667Y123D02*
X1686Y123D01*
X1960Y123D02*
X1967Y123D01*
X0Y122D02*
X7Y122D01*
X607Y122D02*
X619Y122D01*
X636Y122D02*
X654Y122D01*
X664Y122D02*
X681Y122D01*
X815Y122D02*
X826Y122D01*
X836Y122D02*
X841Y122D01*
X851Y122D02*
X854Y122D01*
X864Y122D02*
X876Y122D01*
X1610Y122D02*
X1614Y122D01*
X1626Y122D02*
X1629Y122D01*
X1639Y122D02*
X1642Y122D01*
X1667Y122D02*
X1670Y122D01*
X1683Y122D02*
X1686Y122D01*
X1960Y122D02*
X1967Y122D01*
X0Y121D02*
X7Y121D01*
X607Y121D02*
X620Y121D01*
X636Y121D02*
X654Y121D01*
X664Y121D02*
X682Y121D01*
X814Y121D02*
X826Y121D01*
X836Y121D02*
X841Y121D01*
X851Y121D02*
X854Y121D01*
X864Y121D02*
X877Y121D01*
X1611Y121D02*
X1614Y121D01*
X1626Y121D02*
X1629Y121D01*
X1639Y121D02*
X1642Y121D01*
X1667Y121D02*
X1670Y121D01*
X1683Y121D02*
X1686Y121D01*
X1960Y121D02*
X1967Y121D01*
X0Y120D02*
X7Y120D01*
X608Y120D02*
X621Y120D01*
X637Y120D02*
X653Y120D01*
X664Y120D02*
X682Y120D01*
X813Y120D02*
X825Y120D01*
X836Y120D02*
X841Y120D01*
X851Y120D02*
X854Y120D01*
X865Y120D02*
X878Y120D01*
X1611Y120D02*
X1615Y120D01*
X1627Y120D02*
X1628Y120D01*
X1639Y120D02*
X1642Y120D01*
X1667Y120D02*
X1670Y120D01*
X1683Y120D02*
X1686Y120D01*
X1960Y120D02*
X1967Y120D01*
X0Y119D02*
X7Y119D01*
X611Y119D02*
X614Y119D01*
X618Y119D02*
X621Y119D01*
X643Y119D02*
X646Y119D01*
X664Y119D02*
X667Y119D01*
X679Y119D02*
X683Y119D01*
X812Y119D02*
X817Y119D01*
X836Y119D02*
X842Y119D01*
X851Y119D02*
X854Y119D01*
X868Y119D02*
X871Y119D01*
X875Y119D02*
X878Y119D01*
X1612Y119D02*
X1616Y119D01*
X1639Y119D02*
X1642Y119D01*
X1667Y119D02*
X1670Y119D01*
X1683Y119D02*
X1686Y119D01*
X1960Y119D02*
X1967Y119D01*
X0Y118D02*
X7Y118D01*
X611Y118D02*
X614Y118D01*
X618Y118D02*
X622Y118D01*
X643Y118D02*
X646Y118D01*
X664Y118D02*
X667Y118D01*
X680Y118D02*
X683Y118D01*
X812Y118D02*
X816Y118D01*
X836Y118D02*
X842Y118D01*
X851Y118D02*
X854Y118D01*
X868Y118D02*
X871Y118D01*
X875Y118D02*
X879Y118D01*
X1613Y118D02*
X1617Y118D01*
X1639Y118D02*
X1642Y118D01*
X1667Y118D02*
X1670Y118D01*
X1683Y118D02*
X1686Y118D01*
X1960Y118D02*
X1967Y118D01*
X0Y117D02*
X7Y117D01*
X611Y117D02*
X614Y117D01*
X619Y117D02*
X622Y117D01*
X643Y117D02*
X646Y117D01*
X664Y117D02*
X667Y117D01*
X680Y117D02*
X683Y117D01*
X811Y117D02*
X815Y117D01*
X836Y117D02*
X843Y117D01*
X851Y117D02*
X854Y117D01*
X868Y117D02*
X871Y117D01*
X876Y117D02*
X879Y117D01*
X1613Y117D02*
X1618Y117D01*
X1639Y117D02*
X1642Y117D01*
X1667Y117D02*
X1670Y117D01*
X1683Y117D02*
X1686Y117D01*
X1960Y117D02*
X1967Y117D01*
X0Y116D02*
X7Y116D01*
X611Y116D02*
X614Y116D01*
X620Y116D02*
X623Y116D01*
X643Y116D02*
X646Y116D01*
X664Y116D02*
X667Y116D01*
X680Y116D02*
X683Y116D01*
X810Y116D02*
X814Y116D01*
X836Y116D02*
X843Y116D01*
X851Y116D02*
X854Y116D01*
X868Y116D02*
X871Y116D01*
X876Y116D02*
X880Y116D01*
X1614Y116D02*
X1618Y116D01*
X1639Y116D02*
X1642Y116D01*
X1667Y116D02*
X1670Y116D01*
X1683Y116D02*
X1686Y116D01*
X1960Y116D02*
X1967Y116D01*
X0Y115D02*
X7Y115D01*
X611Y115D02*
X614Y115D01*
X620Y115D02*
X623Y115D01*
X643Y115D02*
X646Y115D01*
X664Y115D02*
X667Y115D01*
X680Y115D02*
X683Y115D01*
X809Y115D02*
X813Y115D01*
X836Y115D02*
X844Y115D01*
X851Y115D02*
X854Y115D01*
X868Y115D02*
X871Y115D01*
X877Y115D02*
X880Y115D01*
X1615Y115D02*
X1619Y115D01*
X1639Y115D02*
X1642Y115D01*
X1667Y115D02*
X1670Y115D01*
X1683Y115D02*
X1686Y115D01*
X1960Y115D02*
X1967Y115D01*
X0Y114D02*
X7Y114D01*
X611Y114D02*
X614Y114D01*
X621Y114D02*
X624Y114D01*
X643Y114D02*
X646Y114D01*
X664Y114D02*
X667Y114D01*
X679Y114D02*
X682Y114D01*
X809Y114D02*
X813Y114D01*
X836Y114D02*
X839Y114D01*
X841Y114D02*
X844Y114D01*
X851Y114D02*
X854Y114D01*
X868Y114D02*
X871Y114D01*
X877Y114D02*
X881Y114D01*
X1616Y114D02*
X1620Y114D01*
X1639Y114D02*
X1642Y114D01*
X1667Y114D02*
X1670Y114D01*
X1683Y114D02*
X1686Y114D01*
X1960Y114D02*
X1967Y114D01*
X0Y113D02*
X7Y113D01*
X611Y113D02*
X614Y113D01*
X621Y113D02*
X624Y113D01*
X643Y113D02*
X646Y113D01*
X664Y113D02*
X682Y113D01*
X808Y113D02*
X812Y113D01*
X836Y113D02*
X839Y113D01*
X841Y113D02*
X844Y113D01*
X851Y113D02*
X854Y113D01*
X868Y113D02*
X871Y113D01*
X878Y113D02*
X881Y113D01*
X1617Y113D02*
X1621Y113D01*
X1639Y113D02*
X1642Y113D01*
X1667Y113D02*
X1670Y113D01*
X1683Y113D02*
X1686Y113D01*
X1960Y113D02*
X1967Y113D01*
X0Y112D02*
X7Y112D01*
X611Y112D02*
X614Y112D01*
X622Y112D02*
X625Y112D01*
X643Y112D02*
X646Y112D01*
X664Y112D02*
X681Y112D01*
X808Y112D02*
X811Y112D01*
X836Y112D02*
X839Y112D01*
X842Y112D02*
X845Y112D01*
X851Y112D02*
X854Y112D01*
X868Y112D02*
X871Y112D01*
X878Y112D02*
X882Y112D01*
X1617Y112D02*
X1621Y112D01*
X1639Y112D02*
X1642Y112D01*
X1667Y112D02*
X1671Y112D01*
X1681Y112D02*
X1686Y112D01*
X1960Y112D02*
X1967Y112D01*
X0Y111D02*
X7Y111D01*
X611Y111D02*
X614Y111D01*
X622Y111D02*
X625Y111D01*
X643Y111D02*
X646Y111D01*
X664Y111D02*
X680Y111D01*
X807Y111D02*
X810Y111D01*
X836Y111D02*
X839Y111D01*
X842Y111D02*
X845Y111D01*
X851Y111D02*
X854Y111D01*
X868Y111D02*
X871Y111D01*
X879Y111D02*
X882Y111D01*
X1618Y111D02*
X1622Y111D01*
X1639Y111D02*
X1642Y111D01*
X1667Y111D02*
X1685Y111D01*
X1960Y111D02*
X1967Y111D01*
X0Y110D02*
X7Y110D01*
X611Y110D02*
X614Y110D01*
X622Y110D02*
X626Y110D01*
X643Y110D02*
X646Y110D01*
X664Y110D02*
X679Y110D01*
X807Y110D02*
X810Y110D01*
X836Y110D02*
X839Y110D01*
X842Y110D02*
X846Y110D01*
X851Y110D02*
X854Y110D01*
X868Y110D02*
X871Y110D01*
X879Y110D02*
X882Y110D01*
X1619Y110D02*
X1623Y110D01*
X1639Y110D02*
X1642Y110D01*
X1667Y110D02*
X1684Y110D01*
X1960Y110D02*
X1967Y110D01*
X0Y109D02*
X7Y109D01*
X611Y109D02*
X614Y109D01*
X623Y109D02*
X626Y109D01*
X643Y109D02*
X646Y109D01*
X664Y109D02*
X667Y109D01*
X671Y109D02*
X675Y109D01*
X807Y109D02*
X810Y109D01*
X836Y109D02*
X839Y109D01*
X843Y109D02*
X846Y109D01*
X851Y109D02*
X854Y109D01*
X868Y109D02*
X871Y109D01*
X880Y109D02*
X883Y109D01*
X1620Y109D02*
X1624Y109D01*
X1639Y109D02*
X1642Y109D01*
X1667Y109D02*
X1683Y109D01*
X1960Y109D02*
X1967Y109D01*
X0Y108D02*
X7Y108D01*
X611Y108D02*
X614Y108D01*
X623Y108D02*
X626Y108D01*
X643Y108D02*
X646Y108D01*
X664Y108D02*
X667Y108D01*
X672Y108D02*
X675Y108D01*
X807Y108D02*
X810Y108D01*
X836Y108D02*
X839Y108D01*
X843Y108D02*
X847Y108D01*
X851Y108D02*
X854Y108D01*
X868Y108D02*
X871Y108D01*
X880Y108D02*
X883Y108D01*
X1620Y108D02*
X1625Y108D01*
X1639Y108D02*
X1642Y108D01*
X1667Y108D02*
X1680Y108D01*
X1960Y108D02*
X1967Y108D01*
X0Y107D02*
X7Y107D01*
X611Y107D02*
X614Y107D01*
X623Y107D02*
X626Y107D01*
X643Y107D02*
X646Y107D01*
X664Y107D02*
X667Y107D01*
X672Y107D02*
X676Y107D01*
X807Y107D02*
X810Y107D01*
X836Y107D02*
X839Y107D01*
X844Y107D02*
X847Y107D01*
X851Y107D02*
X854Y107D01*
X868Y107D02*
X871Y107D01*
X879Y107D02*
X883Y107D01*
X1621Y107D02*
X1625Y107D01*
X1639Y107D02*
X1642Y107D01*
X1667Y107D02*
X1670Y107D01*
X1960Y107D02*
X1967Y107D01*
X0Y106D02*
X7Y106D01*
X611Y106D02*
X614Y106D01*
X622Y106D02*
X625Y106D01*
X643Y106D02*
X646Y106D01*
X664Y106D02*
X667Y106D01*
X673Y106D02*
X677Y106D01*
X807Y106D02*
X810Y106D01*
X817Y106D02*
X826Y106D01*
X836Y106D02*
X839Y106D01*
X844Y106D02*
X848Y106D01*
X851Y106D02*
X854Y106D01*
X868Y106D02*
X871Y106D01*
X879Y106D02*
X882Y106D01*
X1622Y106D02*
X1626Y106D01*
X1639Y106D02*
X1642Y106D01*
X1667Y106D02*
X1670Y106D01*
X1960Y106D02*
X1967Y106D01*
X0Y105D02*
X7Y105D01*
X611Y105D02*
X614Y105D01*
X622Y105D02*
X625Y105D01*
X643Y105D02*
X646Y105D01*
X664Y105D02*
X667Y105D01*
X673Y105D02*
X677Y105D01*
X807Y105D02*
X810Y105D01*
X817Y105D02*
X826Y105D01*
X836Y105D02*
X839Y105D01*
X845Y105D02*
X848Y105D01*
X851Y105D02*
X854Y105D01*
X868Y105D02*
X871Y105D01*
X879Y105D02*
X882Y105D01*
X1623Y105D02*
X1627Y105D01*
X1639Y105D02*
X1642Y105D01*
X1667Y105D02*
X1670Y105D01*
X1960Y105D02*
X1967Y105D01*
X0Y104D02*
X7Y104D01*
X611Y104D02*
X614Y104D01*
X621Y104D02*
X625Y104D01*
X643Y104D02*
X646Y104D01*
X664Y104D02*
X667Y104D01*
X674Y104D02*
X678Y104D01*
X807Y104D02*
X810Y104D01*
X817Y104D02*
X826Y104D01*
X836Y104D02*
X839Y104D01*
X845Y104D02*
X848Y104D01*
X851Y104D02*
X854Y104D01*
X868Y104D02*
X871Y104D01*
X878Y104D02*
X882Y104D01*
X1624Y104D02*
X1628Y104D01*
X1639Y104D02*
X1642Y104D01*
X1667Y104D02*
X1670Y104D01*
X1960Y104D02*
X1967Y104D01*
X0Y103D02*
X7Y103D01*
X611Y103D02*
X614Y103D01*
X621Y103D02*
X624Y103D01*
X643Y103D02*
X646Y103D01*
X664Y103D02*
X667Y103D01*
X675Y103D02*
X678Y103D01*
X807Y103D02*
X810Y103D01*
X819Y103D02*
X826Y103D01*
X836Y103D02*
X839Y103D01*
X846Y103D02*
X849Y103D01*
X851Y103D02*
X854Y103D01*
X868Y103D02*
X871Y103D01*
X878Y103D02*
X881Y103D01*
X1611Y103D02*
X1613Y103D01*
X1624Y103D02*
X1628Y103D01*
X1639Y103D02*
X1642Y103D01*
X1667Y103D02*
X1670Y103D01*
X1960Y103D02*
X1967Y103D01*
X0Y102D02*
X7Y102D01*
X611Y102D02*
X614Y102D01*
X620Y102D02*
X624Y102D01*
X643Y102D02*
X646Y102D01*
X664Y102D02*
X667Y102D01*
X675Y102D02*
X679Y102D01*
X807Y102D02*
X810Y102D01*
X823Y102D02*
X826Y102D01*
X836Y102D02*
X839Y102D01*
X846Y102D02*
X849Y102D01*
X851Y102D02*
X854Y102D01*
X868Y102D02*
X871Y102D01*
X877Y102D02*
X881Y102D01*
X1610Y102D02*
X1613Y102D01*
X1625Y102D02*
X1629Y102D01*
X1639Y102D02*
X1642Y102D01*
X1667Y102D02*
X1670Y102D01*
X1960Y102D02*
X1967Y102D01*
X0Y101D02*
X7Y101D01*
X611Y101D02*
X614Y101D01*
X620Y101D02*
X623Y101D01*
X643Y101D02*
X646Y101D01*
X664Y101D02*
X667Y101D01*
X676Y101D02*
X679Y101D01*
X807Y101D02*
X810Y101D01*
X823Y101D02*
X826Y101D01*
X836Y101D02*
X839Y101D01*
X846Y101D02*
X854Y101D01*
X868Y101D02*
X871Y101D01*
X877Y101D02*
X880Y101D01*
X1611Y101D02*
X1614Y101D01*
X1626Y101D02*
X1629Y101D01*
X1639Y101D02*
X1642Y101D01*
X1667Y101D02*
X1670Y101D01*
X1960Y101D02*
X1967Y101D01*
X0Y100D02*
X7Y100D01*
X611Y100D02*
X614Y100D01*
X619Y100D02*
X623Y100D01*
X643Y100D02*
X646Y100D01*
X664Y100D02*
X667Y100D01*
X676Y100D02*
X680Y100D01*
X807Y100D02*
X810Y100D01*
X823Y100D02*
X826Y100D01*
X836Y100D02*
X839Y100D01*
X847Y100D02*
X854Y100D01*
X868Y100D02*
X871Y100D01*
X876Y100D02*
X880Y100D01*
X1611Y100D02*
X1629Y100D01*
X1639Y100D02*
X1656Y100D01*
X1667Y100D02*
X1670Y100D01*
X1960Y100D02*
X1967Y100D01*
X0Y99D02*
X7Y99D01*
X611Y99D02*
X614Y99D01*
X619Y99D02*
X622Y99D01*
X643Y99D02*
X646Y99D01*
X664Y99D02*
X667Y99D01*
X677Y99D02*
X681Y99D01*
X807Y99D02*
X810Y99D01*
X823Y99D02*
X826Y99D01*
X836Y99D02*
X839Y99D01*
X847Y99D02*
X854Y99D01*
X868Y99D02*
X871Y99D01*
X876Y99D02*
X879Y99D01*
X1611Y99D02*
X1629Y99D01*
X1639Y99D02*
X1657Y99D01*
X1667Y99D02*
X1670Y99D01*
X1960Y99D02*
X1967Y99D01*
X0Y98D02*
X7Y98D01*
X611Y98D02*
X614Y98D01*
X618Y98D02*
X622Y98D01*
X643Y98D02*
X646Y98D01*
X664Y98D02*
X667Y98D01*
X678Y98D02*
X681Y98D01*
X807Y98D02*
X810Y98D01*
X822Y98D02*
X826Y98D01*
X836Y98D02*
X839Y98D01*
X848Y98D02*
X854Y98D01*
X868Y98D02*
X871Y98D01*
X875Y98D02*
X879Y98D01*
X1612Y98D02*
X1628Y98D01*
X1639Y98D02*
X1657Y98D01*
X1667Y98D02*
X1670Y98D01*
X1960Y98D02*
X1967Y98D01*
X0Y97D02*
X7Y97D01*
X611Y97D02*
X614Y97D01*
X617Y97D02*
X621Y97D01*
X643Y97D02*
X647Y97D01*
X664Y97D02*
X667Y97D01*
X678Y97D02*
X682Y97D01*
X807Y97D02*
X812Y97D01*
X821Y97D02*
X825Y97D01*
X836Y97D02*
X839Y97D01*
X848Y97D02*
X854Y97D01*
X868Y97D02*
X871Y97D01*
X874Y97D02*
X878Y97D01*
X1613Y97D02*
X1627Y97D01*
X1639Y97D02*
X1657Y97D01*
X1668Y97D02*
X1670Y97D01*
X1960Y97D02*
X1967Y97D01*
X0Y96D02*
X7Y96D01*
X608Y96D02*
X621Y96D01*
X636Y96D02*
X654Y96D01*
X664Y96D02*
X667Y96D01*
X679Y96D02*
X682Y96D01*
X808Y96D02*
X825Y96D01*
X836Y96D02*
X839Y96D01*
X849Y96D02*
X854Y96D01*
X864Y96D02*
X878Y96D01*
X1960Y96D02*
X1967Y96D01*
X0Y95D02*
X7Y95D01*
X607Y95D02*
X620Y95D01*
X636Y95D02*
X654Y95D01*
X664Y95D02*
X667Y95D01*
X679Y95D02*
X683Y95D01*
X809Y95D02*
X824Y95D01*
X836Y95D02*
X839Y95D01*
X849Y95D02*
X854Y95D01*
X864Y95D02*
X877Y95D01*
X1960Y95D02*
X1967Y95D01*
X0Y94D02*
X7Y94D01*
X607Y94D02*
X619Y94D01*
X636Y94D02*
X654Y94D01*
X664Y94D02*
X667Y94D01*
X680Y94D02*
X682Y94D01*
X810Y94D02*
X823Y94D01*
X836Y94D02*
X838Y94D01*
X849Y94D02*
X854Y94D01*
X864Y94D02*
X876Y94D01*
X1960Y94D02*
X1967Y94D01*
X0Y93D02*
X7Y93D01*
X609Y93D02*
X616Y93D01*
X637Y93D02*
X653Y93D01*
X666Y93D02*
X666Y93D01*
X681Y93D02*
X681Y93D01*
X812Y93D02*
X821Y93D01*
X837Y93D02*
X837Y93D01*
X850Y93D02*
X854Y93D01*
X866Y93D02*
X873Y93D01*
X1960Y93D02*
X1967Y93D01*
X0Y92D02*
X7Y92D01*
X1960Y92D02*
X1967Y92D01*
X0Y91D02*
X7Y91D01*
X1960Y91D02*
X1967Y91D01*
X0Y90D02*
X7Y90D01*
X1960Y90D02*
X1967Y90D01*
X0Y89D02*
X7Y89D01*
X1960Y89D02*
X1967Y89D01*
X0Y88D02*
X7Y88D01*
X1960Y88D02*
X1967Y88D01*
X0Y87D02*
X7Y87D01*
X1960Y87D02*
X1967Y87D01*
X0Y86D02*
X7Y86D01*
X1960Y86D02*
X1967Y86D01*
X0Y85D02*
X7Y85D01*
X1960Y85D02*
X1967Y85D01*
X0Y84D02*
X7Y84D01*
X1960Y84D02*
X1967Y84D01*
X0Y83D02*
X7Y83D01*
X1960Y83D02*
X1967Y83D01*
X0Y82D02*
X7Y82D01*
X1960Y82D02*
X1967Y82D01*
X0Y81D02*
X7Y81D01*
X1960Y81D02*
X1967Y81D01*
X0Y80D02*
X7Y80D01*
X1960Y80D02*
X1967Y80D01*
X0Y79D02*
X7Y79D01*
X1960Y79D02*
X1967Y79D01*
X0Y78D02*
X7Y78D01*
X1960Y78D02*
X1967Y78D01*
X0Y77D02*
X7Y77D01*
X1960Y77D02*
X1967Y77D01*
X0Y76D02*
X7Y76D01*
X1960Y76D02*
X1967Y76D01*
X0Y75D02*
X7Y75D01*
X1960Y75D02*
X1967Y75D01*
X0Y74D02*
X7Y74D01*
X1960Y74D02*
X1967Y74D01*
X0Y73D02*
X7Y73D01*
X1960Y73D02*
X1967Y73D01*
X0Y72D02*
X7Y72D01*
X1960Y72D02*
X1967Y72D01*
X0Y71D02*
X7Y71D01*
X1960Y71D02*
X1967Y71D01*
X0Y70D02*
X7Y70D01*
X1960Y70D02*
X1967Y70D01*
X0Y69D02*
X7Y69D01*
X1960Y69D02*
X1967Y69D01*
X0Y68D02*
X7Y68D01*
X1960Y68D02*
X1967Y68D01*
X0Y67D02*
X7Y67D01*
X1960Y67D02*
X1967Y67D01*
X0Y66D02*
X7Y66D01*
X1960Y66D02*
X1967Y66D01*
X0Y65D02*
X7Y65D01*
X1960Y65D02*
X1967Y65D01*
X0Y64D02*
X7Y64D01*
X1960Y64D02*
X1967Y64D01*
X0Y63D02*
X7Y63D01*
X1960Y63D02*
X1967Y63D01*
X0Y62D02*
X7Y62D01*
X1960Y62D02*
X1967Y62D01*
X0Y61D02*
X7Y61D01*
X1960Y61D02*
X1967Y61D01*
X0Y60D02*
X7Y60D01*
X1960Y60D02*
X1967Y60D01*
X0Y59D02*
X7Y59D01*
X1960Y59D02*
X1967Y59D01*
X0Y58D02*
X7Y58D01*
X1960Y58D02*
X1967Y58D01*
X0Y57D02*
X7Y57D01*
X1960Y57D02*
X1967Y57D01*
X0Y56D02*
X7Y56D01*
X1960Y56D02*
X1967Y56D01*
X0Y55D02*
X7Y55D01*
X1960Y55D02*
X1967Y55D01*
X0Y54D02*
X7Y54D01*
X1960Y54D02*
X1967Y54D01*
X0Y53D02*
X7Y53D01*
X1960Y53D02*
X1967Y53D01*
X0Y52D02*
X7Y52D01*
X1960Y52D02*
X1967Y52D01*
X0Y51D02*
X7Y51D01*
X1960Y51D02*
X1967Y51D01*
X0Y50D02*
X7Y50D01*
X1960Y50D02*
X1967Y50D01*
X0Y49D02*
X7Y49D01*
X1960Y49D02*
X1967Y49D01*
X0Y48D02*
X7Y48D01*
X1960Y48D02*
X1967Y48D01*
X0Y47D02*
X7Y47D01*
X1960Y47D02*
X1967Y47D01*
X0Y46D02*
X7Y46D01*
X1960Y46D02*
X1967Y46D01*
X0Y45D02*
X7Y45D01*
X1960Y45D02*
X1967Y45D01*
X0Y44D02*
X7Y44D01*
X1960Y44D02*
X1967Y44D01*
X0Y43D02*
X7Y43D01*
X1960Y43D02*
X1967Y43D01*
X0Y42D02*
X7Y42D01*
X1960Y42D02*
X1967Y42D01*
X0Y41D02*
X7Y41D01*
X1960Y41D02*
X1967Y41D01*
X0Y40D02*
X7Y40D01*
X1960Y40D02*
X1967Y40D01*
X0Y39D02*
X7Y39D01*
X1960Y39D02*
X1967Y39D01*
X0Y38D02*
X7Y38D01*
X1960Y38D02*
X1967Y38D01*
X0Y37D02*
X7Y37D01*
X1960Y37D02*
X1967Y37D01*
X0Y36D02*
X7Y36D01*
X1960Y36D02*
X1967Y36D01*
X0Y35D02*
X7Y35D01*
X1960Y35D02*
X1967Y35D01*
X0Y34D02*
X7Y34D01*
X1960Y34D02*
X1967Y34D01*
X0Y33D02*
X7Y33D01*
X1960Y33D02*
X1967Y33D01*
X0Y32D02*
X7Y32D01*
X1960Y32D02*
X1967Y32D01*
X0Y31D02*
X7Y31D01*
X1960Y31D02*
X1967Y31D01*
X0Y30D02*
X7Y30D01*
X1960Y30D02*
X1967Y30D01*
X0Y29D02*
X7Y29D01*
X1960Y29D02*
X1967Y29D01*
X0Y28D02*
X7Y28D01*
X1960Y28D02*
X1967Y28D01*
X0Y27D02*
X7Y27D01*
X1960Y27D02*
X1967Y27D01*
X0Y26D02*
X7Y26D01*
X1960Y26D02*
X1967Y26D01*
X0Y25D02*
X7Y25D01*
X1960Y25D02*
X1967Y25D01*
X0Y24D02*
X7Y24D01*
X1960Y24D02*
X1967Y24D01*
X0Y23D02*
X7Y23D01*
X1960Y23D02*
X1967Y23D01*
X0Y22D02*
X7Y22D01*
X1960Y22D02*
X1967Y22D01*
X0Y21D02*
X7Y21D01*
X1960Y21D02*
X1967Y21D01*
X0Y20D02*
X7Y20D01*
X1960Y20D02*
X1967Y20D01*
X0Y19D02*
X7Y19D01*
X1960Y19D02*
X1967Y19D01*
X0Y18D02*
X7Y18D01*
X1960Y18D02*
X1967Y18D01*
X0Y17D02*
X7Y17D01*
X1960Y17D02*
X1967Y17D01*
X0Y16D02*
X7Y16D01*
X1960Y16D02*
X1967Y16D01*
X0Y15D02*
X7Y15D01*
X1960Y15D02*
X1967Y15D01*
X0Y14D02*
X7Y14D01*
X1960Y14D02*
X1967Y14D01*
X0Y13D02*
X7Y13D01*
X1960Y13D02*
X1967Y13D01*
X0Y12D02*
X7Y12D01*
X1960Y12D02*
X1967Y12D01*
X0Y11D02*
X7Y11D01*
X1960Y11D02*
X1967Y11D01*
X0Y10D02*
X7Y10D01*
X1960Y10D02*
X1967Y10D01*
X0Y9D02*
X7Y9D01*
X1960Y9D02*
X1967Y9D01*
X0Y8D02*
X1967Y8D01*
X0Y7D02*
X1967Y7D01*
X0Y6D02*
X1967Y6D01*
X0Y5D02*
X1967Y5D01*
X0Y4D02*
X1967Y4D01*
X0Y3D02*
X1967Y3D01*
X0Y2D02*
X1967Y2D01*
X0Y1D02*
X1967Y1D01*
D02*
G04 End of Silk1*
M02*