; NON-PLATED HOLES START AT T1
; THROUGH (PLATED) HOLES START AT T100
M48
INCH
T1C0.125984
T2C0.137795
T100C0.015748
T101C0.039370
T102C0.038000
T103C0.035000
%
T1
X000800Y002819
X000800Y007319
T2
X018461Y004890
X008990Y006367
T100
X002144Y003819
T101
X003300Y004819
X004300Y003319
X003300Y005819
X004300Y004319
X003300Y006819
X004300Y005319
X004300Y006319
X003300Y003819
T102
X006448Y001899
X018324Y006691
X007448Y001899
X016467Y001925
X011472Y007912
X008448Y001899
X006533Y007878
X018324Y007691
X018324Y008691
X007533Y007878
T103
X014435Y001913
X010435Y001913
T00
M30
