G04 MADE WITH FRITZING*
G04 WWW.FRITZING.ORG*
G04 DOUBLE SIDED*
G04 HOLES PLATED*
G04 CONTOUR ON CENTER OF CONTOUR VECTOR*
%ASAXBY*%
%FSLAX23Y23*%
%MOIN*%
%OFA0B0*%
%SFA1.0B1.0*%
%ADD10C,0.075000*%
%ADD11C,0.039370*%
%ADD12C,0.074000*%
%ADD13C,0.078000*%
%ADD14C,0.024000*%
%ADD15R,0.001000X0.001000*%
%LNCOPPER0*%
G90*
G70*
G54D10*
X1044Y191D03*
X1444Y191D03*
G54D11*
X214Y382D03*
G54D12*
X430Y332D03*
X330Y382D03*
X430Y432D03*
X430Y532D03*
X430Y632D03*
X330Y482D03*
X330Y582D03*
X330Y682D03*
G54D13*
X1147Y791D03*
X1647Y193D03*
X1832Y869D03*
X1832Y769D03*
X1832Y669D03*
X845Y190D03*
X745Y190D03*
X645Y190D03*
X753Y788D03*
X653Y788D03*
G54D14*
X1054Y747D02*
X1054Y717D01*
D02*
X1054Y717D02*
X1229Y717D01*
D02*
X1229Y717D02*
X1229Y769D01*
D02*
X1229Y769D02*
X1802Y769D01*
D02*
X829Y714D02*
X866Y747D01*
D02*
X866Y747D02*
X1054Y747D01*
D02*
X755Y701D02*
X829Y714D01*
D02*
X214Y401D02*
X214Y788D01*
D02*
X214Y788D02*
X623Y788D01*
D02*
X1444Y84D02*
X1729Y84D01*
D02*
X1729Y84D02*
X1719Y668D01*
D02*
X1444Y163D02*
X1444Y84D01*
D02*
X1719Y668D02*
X1802Y669D01*
D02*
X265Y582D02*
X299Y582D01*
D02*
X265Y78D02*
X265Y582D01*
D02*
X1311Y78D02*
X265Y78D01*
D02*
X1311Y668D02*
X1311Y78D01*
D02*
X1719Y668D02*
X1311Y668D01*
D02*
X330Y701D02*
X755Y701D01*
D02*
X755Y701D02*
X754Y758D01*
D02*
X330Y713D02*
X330Y701D01*
D02*
X845Y306D02*
X845Y220D01*
D02*
X755Y306D02*
X845Y306D01*
D02*
X755Y701D02*
X755Y306D01*
G54D15*
X293Y719D02*
X366Y719D01*
X293Y718D02*
X366Y718D01*
X293Y717D02*
X366Y717D01*
X293Y716D02*
X366Y716D01*
X293Y715D02*
X366Y715D01*
X293Y714D02*
X366Y714D01*
X293Y713D02*
X366Y713D01*
X293Y712D02*
X366Y712D01*
X293Y711D02*
X366Y711D01*
X293Y710D02*
X366Y710D01*
X293Y709D02*
X366Y709D01*
X293Y708D02*
X366Y708D01*
X293Y707D02*
X366Y707D01*
X293Y706D02*
X366Y706D01*
X293Y705D02*
X366Y705D01*
X293Y704D02*
X366Y704D01*
X293Y703D02*
X366Y703D01*
X293Y702D02*
X366Y702D01*
X293Y701D02*
X323Y701D01*
X336Y701D02*
X366Y701D01*
X293Y700D02*
X321Y700D01*
X338Y700D02*
X366Y700D01*
X293Y699D02*
X319Y699D01*
X340Y699D02*
X366Y699D01*
X293Y698D02*
X317Y698D01*
X342Y698D02*
X366Y698D01*
X293Y697D02*
X316Y697D01*
X343Y697D02*
X366Y697D01*
X293Y696D02*
X315Y696D01*
X344Y696D02*
X366Y696D01*
X293Y695D02*
X314Y695D01*
X345Y695D02*
X366Y695D01*
X293Y694D02*
X313Y694D01*
X346Y694D02*
X366Y694D01*
X293Y693D02*
X313Y693D01*
X346Y693D02*
X366Y693D01*
X293Y692D02*
X312Y692D01*
X347Y692D02*
X366Y692D01*
X293Y691D02*
X311Y691D01*
X348Y691D02*
X366Y691D01*
X293Y690D02*
X311Y690D01*
X348Y690D02*
X366Y690D01*
X293Y689D02*
X311Y689D01*
X348Y689D02*
X366Y689D01*
X293Y688D02*
X310Y688D01*
X349Y688D02*
X366Y688D01*
X293Y687D02*
X310Y687D01*
X349Y687D02*
X366Y687D01*
X293Y686D02*
X310Y686D01*
X349Y686D02*
X366Y686D01*
X293Y685D02*
X310Y685D01*
X349Y685D02*
X366Y685D01*
X293Y684D02*
X309Y684D01*
X349Y684D02*
X366Y684D01*
X293Y683D02*
X309Y683D01*
X350Y683D02*
X366Y683D01*
X293Y682D02*
X309Y682D01*
X350Y682D02*
X366Y682D01*
X293Y681D02*
X309Y681D01*
X350Y681D02*
X366Y681D01*
X293Y680D02*
X310Y680D01*
X349Y680D02*
X366Y680D01*
X293Y679D02*
X310Y679D01*
X349Y679D02*
X366Y679D01*
X293Y678D02*
X310Y678D01*
X349Y678D02*
X366Y678D01*
X293Y677D02*
X310Y677D01*
X349Y677D02*
X366Y677D01*
X293Y676D02*
X310Y676D01*
X349Y676D02*
X366Y676D01*
X293Y675D02*
X311Y675D01*
X348Y675D02*
X366Y675D01*
X293Y674D02*
X311Y674D01*
X348Y674D02*
X366Y674D01*
X293Y673D02*
X312Y673D01*
X347Y673D02*
X366Y673D01*
X293Y672D02*
X312Y672D01*
X347Y672D02*
X366Y672D01*
X293Y671D02*
X313Y671D01*
X346Y671D02*
X366Y671D01*
X293Y670D02*
X314Y670D01*
X345Y670D02*
X366Y670D01*
X293Y669D02*
X315Y669D01*
X344Y669D02*
X366Y669D01*
X293Y668D02*
X316Y668D01*
X343Y668D02*
X366Y668D01*
X293Y667D02*
X317Y667D01*
X342Y667D02*
X366Y667D01*
X293Y666D02*
X318Y666D01*
X341Y666D02*
X366Y666D01*
X293Y665D02*
X320Y665D01*
X339Y665D02*
X366Y665D01*
X293Y664D02*
X322Y664D01*
X337Y664D02*
X366Y664D01*
X293Y663D02*
X325Y663D01*
X334Y663D02*
X366Y663D01*
X293Y662D02*
X366Y662D01*
X293Y661D02*
X366Y661D01*
X293Y660D02*
X366Y660D01*
X293Y659D02*
X366Y659D01*
X293Y658D02*
X366Y658D01*
X293Y657D02*
X366Y657D01*
X293Y656D02*
X366Y656D01*
X293Y655D02*
X366Y655D01*
X293Y654D02*
X366Y654D01*
X293Y653D02*
X366Y653D01*
X293Y652D02*
X366Y652D01*
X293Y651D02*
X366Y651D01*
X293Y650D02*
X366Y650D01*
X293Y649D02*
X366Y649D01*
X293Y648D02*
X366Y648D01*
X293Y647D02*
X366Y647D01*
X293Y646D02*
X366Y646D01*
D02*
G04 End of Copper0*
M02*