; NON-PLATED HOLES START AT T1
; THROUGH (PLATED) HOLES START AT T100
M48
INCH
T1C0.125984
T100C0.038194
T101C0.035000
T102C0.015748
T103C0.118000
T104C0.039370
%
T1
X001140Y008659
X001140Y005751
X001140Y013159
X022918Y033918
X036370Y051372
X001140Y052214
X022918Y015992
X022918Y020492
X037898Y001605
X022844Y056714
X037953Y017527
X022844Y044955
X022918Y005603
X001140Y033918
X022918Y008510
X022918Y013010
X001140Y056714
X022918Y038418
X018925Y006927
X001140Y044955
X001140Y015992
X001140Y020492
X022918Y030862
X022918Y026362
X022844Y049455
X033398Y001605
X033453Y017527
X001140Y038418
X001140Y001251
X001140Y049455
X001140Y030862
X022844Y052214
X015259Y051372
X001140Y026362
X035036Y025261
X022918Y001103
T100
X031744Y027262
X031744Y030262
X024744Y023262
X024744Y042262
X031744Y026262
X012745Y042262
X009744Y023262
X001144Y042262
X030745Y039262
X010144Y042262
X030745Y042262
X031744Y025262
X010744Y023262
X030745Y038262
X015745Y023262
X015745Y042262
X009145Y042262
X030745Y041262
X004744Y023262
X030745Y037262
X018745Y023262
X031744Y039262
X018745Y042262
X030745Y040262
X007144Y042262
X027745Y023262
X027745Y042262
X031744Y042262
X030745Y036262
X004145Y042262
X031744Y038262
X016744Y023262
X016744Y042262
X031744Y041262
X030745Y035262
X013745Y023262
X031744Y037262
X013745Y042262
X002144Y042262
X022745Y023262
X022745Y042262
X019744Y023262
X031744Y040262
X030745Y034262
X007745Y023262
X031744Y036262
X011744Y023262
X011744Y042262
X005144Y042262
X025745Y023262
X025745Y042262
X030745Y033262
X031744Y035262
X005744Y023262
X030745Y029262
X014744Y023262
X014744Y042262
X030745Y032262
X008144Y042262
X028745Y023262
X031744Y034262
X030745Y028262
X020745Y023262
X020745Y042262
X030745Y031262
X026744Y023262
X026744Y042262
X031744Y033262
X030745Y027262
X031744Y029262
X003144Y042262
X030745Y030262
X023745Y023262
X023745Y042262
X031744Y032262
X029744Y023262
X030745Y026262
X008745Y023262
X031744Y028262
X017745Y023262
X017745Y042262
X006144Y042262
X021744Y042262
X031744Y031262
X030745Y025262
X006744Y023262
T101
X033703Y010483
X037703Y009149
X033703Y009149
X037703Y010483
T102
X017748Y038440
X032453Y020844
X038259Y052853
X025425Y000649
X003555Y043705
X036231Y020316
X035064Y020816
X014522Y034418
X017748Y026862
X018537Y047918
X010425Y020594
X027592Y033705
X006074Y007853
X031203Y016483
X020666Y036918
X012745Y036418
X036000Y016483
X002064Y047455
X005536Y015677
X036888Y020334
X002555Y023186
X016745Y027862
X029592Y007520
X006148Y013520
X030009Y050955
X022925Y029371
X015148Y030927
X030962Y023029
X000740Y021631
X009536Y054733
X027740Y019927
X023074Y003705
X011842Y022372
X003703Y025964
X015148Y038149
X002111Y040223
X001768Y023251
X038629Y011186
X027259Y031334
X029481Y019779
X019425Y046955
X015745Y028862
X020767Y038440
X025333Y050927
X003407Y023186
X030175Y018427
X013745Y035418
X024148Y030372
X005972Y004733
X036398Y006483
X037465Y037546
X002259Y019890
X002925Y015649
X028444Y006038
X021444Y028362
X011745Y054714
X030731Y017455
T103
X036616Y054519
X034766Y055700
X036616Y056881
T104
X003640Y009659
X025418Y029362
X004640Y029862
X034953Y014027
X004640Y004751
X004640Y011159
X025418Y037918
X034398Y005105
X004640Y034418
X004640Y018492
X026418Y010010
X004640Y045455
X025344Y048955
X025418Y005103
X026418Y009010
X026344Y054714
X036898Y004105
X035398Y005105
X025418Y016992
X025344Y056214
X026418Y028862
X003640Y011659
X026418Y017492
X003640Y034918
X003640Y018992
X025418Y010510
X026418Y004603
X003640Y045955
X004640Y012159
X025418Y009510
X004640Y035418
X004640Y019492
X026418Y011010
X004640Y046455
X026344Y055714
X003640Y053214
X025418Y017992
X026418Y029862
X035953Y014027
X003640Y012659
X026418Y018492
X026418Y034418
X003640Y027362
X034453Y015027
X003640Y002251
X003640Y035918
X003640Y019992
X025418Y011510
X003640Y046955
X026344Y045455
X004640Y052714
X004640Y036418
X026418Y012010
X004640Y047455
X036953Y014027
X036398Y005105
X003640Y054214
X004640Y026862
X004640Y001751
X025418Y018992
X025418Y034918
X037398Y005105
X025344Y045955
X025418Y002103
X026418Y019492
X026418Y035418
X003640Y028362
X003640Y003251
X003640Y036918
X025418Y012510
X003640Y047955
X026344Y046455
X004640Y053714
X004640Y037418
X004640Y048455
X025344Y053214
X033898Y004105
X003640Y055214
X026418Y001603
X025418Y027362
X004640Y027862
X035453Y015027
X004640Y002751
X025418Y019992
X025418Y035918
X003640Y030362
X004640Y016492
X025344Y046955
X034898Y004105
X025418Y003103
X026418Y036418
X003640Y029362
X003640Y004251
X026344Y052714
X003640Y037918
X003640Y048955
X026344Y047455
X036453Y015027
X004640Y054714
X025344Y054214
X026418Y026862
X035898Y004105
X003640Y056214
X003640Y016992
X026418Y002603
X037453Y015027
X025418Y028362
X004640Y028862
X004640Y003751
X004640Y010159
X025418Y036918
X004640Y017492
X025344Y047955
X004640Y009159
X025418Y004103
X026418Y037418
X003640Y005251
X026344Y053714
X026344Y048455
X033953Y014027
X004640Y055714
X025344Y055214
X026418Y027862
X003640Y010659
X025418Y030362
X026418Y016492
X003640Y017992
X026418Y003603
T00
M30
