G04 MADE WITH FRITZING*
G04 WWW.FRITZING.ORG*
G04 DOUBLE SIDED*
G04 HOLES PLATED*
G04 CONTOUR ON CENTER OF CONTOUR VECTOR*
%ASAXBY*%
%FSLAX23Y23*%
%MOIN*%
%OFA0B0*%
%SFA1.0B1.0*%
%ADD10C,0.049370*%
%ADD11C,0.135984*%
%ADD12C,0.082917*%
%ADD13C,0.180000*%
%ADD14C,0.084000*%
%ADD15C,0.085000*%
%ADD16R,0.001000X0.001000*%
%LNMASK1*%
G90*
G70*
G54D10*
X2415Y3037D03*
X356Y4371D03*
X211Y4022D03*
X1515Y3093D03*
X1515Y3815D03*
X1775Y2686D03*
X1775Y3844D03*
X1043Y2059D03*
X74Y2163D03*
X226Y1989D03*
X1275Y3642D03*
X1375Y3542D03*
X1452Y3442D03*
X1575Y2886D03*
X1675Y2786D03*
X2077Y3844D03*
X293Y1565D03*
X554Y1568D03*
X177Y2325D03*
X2759Y3371D03*
X2726Y3133D03*
X2144Y2836D03*
X256Y2319D03*
X341Y2319D03*
X1184Y2237D03*
X2307Y371D03*
X597Y473D03*
X615Y1352D03*
X607Y785D03*
X3506Y2082D03*
X3245Y2084D03*
X3018Y1843D03*
X3073Y1746D03*
X3120Y1648D03*
X3600Y1648D03*
X2543Y65D03*
X2844Y604D03*
X3689Y2033D03*
X3623Y2032D03*
X3826Y5285D03*
X3747Y3755D03*
X3863Y1119D03*
X3640Y648D03*
G54D11*
X1526Y5137D03*
X3504Y2526D03*
X1893Y693D03*
X3637Y5137D03*
G54D10*
X2293Y2937D03*
X2774Y1993D03*
X2959Y752D03*
X2948Y1978D03*
X1854Y4792D03*
X1175Y5471D03*
X206Y4746D03*
X954Y5473D03*
X2067Y3692D03*
X2533Y5093D03*
X3001Y5096D03*
G54D12*
X2375Y2326D03*
X775Y2326D03*
X2474Y2326D03*
X2575Y2326D03*
X2674Y2326D03*
X2775Y2326D03*
X3075Y3726D03*
X2875Y2326D03*
X2974Y2326D03*
X814Y4226D03*
X1375Y2326D03*
X1474Y2326D03*
X1575Y2326D03*
X1674Y2326D03*
X3075Y2926D03*
X1775Y2326D03*
X1875Y2326D03*
X1974Y2326D03*
X2075Y2326D03*
X1575Y4226D03*
X3075Y4126D03*
X3075Y3326D03*
X3075Y2526D03*
X415Y4226D03*
X1174Y2326D03*
X1174Y4226D03*
X3075Y3926D03*
X3075Y3526D03*
X3075Y3126D03*
X2775Y4226D03*
X3075Y2726D03*
X2674Y4226D03*
X2575Y4226D03*
X2474Y4226D03*
X2375Y4226D03*
X2275Y4226D03*
X2174Y4226D03*
X2075Y4226D03*
X214Y4226D03*
X614Y4226D03*
X1014Y4226D03*
X574Y2326D03*
X974Y2326D03*
X1775Y4226D03*
X1375Y4226D03*
X3075Y4226D03*
X3075Y4026D03*
X3075Y3826D03*
X3075Y3626D03*
X3075Y3426D03*
X3075Y3226D03*
X3075Y3026D03*
X3075Y2826D03*
X3075Y2626D03*
X114Y4226D03*
X314Y4226D03*
X514Y4226D03*
X714Y4226D03*
X915Y4226D03*
X474Y2326D03*
X674Y2326D03*
X875Y2326D03*
X1074Y2326D03*
X1875Y4226D03*
X1674Y4226D03*
X1474Y4226D03*
X1275Y4226D03*
X3174Y4226D03*
X3174Y4126D03*
X3174Y4026D03*
X3174Y3926D03*
X3174Y3826D03*
X3174Y3726D03*
X3174Y3626D03*
X3174Y3526D03*
X3174Y3426D03*
X3174Y3326D03*
X3174Y3226D03*
X3174Y3126D03*
X3174Y3026D03*
X3174Y2926D03*
X3174Y2826D03*
X3174Y2726D03*
X3174Y2626D03*
X3174Y2526D03*
X2275Y2326D03*
G54D13*
X3662Y5452D03*
X3662Y5688D03*
X3477Y5570D03*
X3662Y5452D03*
X3662Y5688D03*
X3477Y5570D03*
G54D14*
X3395Y1403D03*
X3445Y1503D03*
X3495Y1403D03*
X3595Y1403D03*
X3695Y1403D03*
X3545Y1503D03*
X3645Y1503D03*
X3745Y1503D03*
G54D11*
X3795Y1753D03*
X3345Y1753D03*
G54D14*
X3395Y1403D03*
X3445Y1503D03*
X3495Y1403D03*
X3595Y1403D03*
X3695Y1403D03*
X3545Y1503D03*
X3645Y1503D03*
X3745Y1503D03*
G54D11*
X3795Y1753D03*
X3345Y1753D03*
G54D14*
X3740Y511D03*
X3690Y411D03*
X3640Y511D03*
X3540Y511D03*
X3440Y511D03*
X3590Y411D03*
X3490Y411D03*
X3390Y411D03*
G54D11*
X3340Y161D03*
X3790Y161D03*
G54D14*
X3740Y511D03*
X3690Y411D03*
X3640Y511D03*
X3540Y511D03*
X3440Y511D03*
X3590Y411D03*
X3490Y411D03*
X3390Y411D03*
G54D11*
X3340Y161D03*
X3790Y161D03*
G54D14*
X2634Y5271D03*
X2534Y5321D03*
X2634Y5371D03*
X2634Y5471D03*
X2634Y5571D03*
X2534Y5421D03*
X2534Y5521D03*
X2534Y5621D03*
G54D11*
X2284Y5671D03*
X2284Y5221D03*
G54D14*
X2634Y5271D03*
X2534Y5321D03*
X2634Y5371D03*
X2634Y5471D03*
X2634Y5571D03*
X2534Y5421D03*
X2534Y5521D03*
X2534Y5621D03*
G54D11*
X2284Y5671D03*
X2284Y5221D03*
G54D14*
X2634Y4546D03*
X2534Y4596D03*
X2634Y4646D03*
X2634Y4746D03*
X2634Y4846D03*
X2534Y4696D03*
X2534Y4796D03*
X2534Y4896D03*
G54D11*
X2284Y4946D03*
X2284Y4496D03*
G54D14*
X2634Y4546D03*
X2534Y4596D03*
X2634Y4646D03*
X2634Y4746D03*
X2634Y4846D03*
X2534Y4696D03*
X2534Y4796D03*
X2534Y4896D03*
G54D11*
X2284Y4946D03*
X2284Y4496D03*
G54D14*
X2642Y2686D03*
X2542Y2736D03*
X2642Y2786D03*
X2642Y2886D03*
X2642Y2986D03*
X2542Y2836D03*
X2542Y2936D03*
X2542Y3036D03*
G54D11*
X2292Y3086D03*
X2292Y2636D03*
G54D14*
X2642Y2686D03*
X2542Y2736D03*
X2642Y2786D03*
X2642Y2886D03*
X2642Y2986D03*
X2542Y2836D03*
X2542Y2936D03*
X2542Y3036D03*
G54D11*
X2292Y3086D03*
X2292Y2636D03*
G54D14*
X2642Y3442D03*
X2542Y3492D03*
X2642Y3542D03*
X2642Y3642D03*
X2642Y3742D03*
X2542Y3592D03*
X2542Y3692D03*
X2542Y3792D03*
G54D11*
X2292Y3842D03*
X2292Y3392D03*
G54D14*
X2642Y3442D03*
X2542Y3492D03*
X2642Y3542D03*
X2642Y3642D03*
X2642Y3742D03*
X2542Y3592D03*
X2542Y3692D03*
X2542Y3792D03*
G54D11*
X2292Y3842D03*
X2292Y3392D03*
G54D14*
X464Y1649D03*
X364Y1699D03*
X464Y1749D03*
X464Y1849D03*
X464Y1949D03*
X364Y1799D03*
X364Y1899D03*
X364Y1999D03*
G54D11*
X114Y2049D03*
X114Y1599D03*
G54D14*
X464Y1649D03*
X364Y1699D03*
X464Y1749D03*
X464Y1849D03*
X464Y1949D03*
X364Y1799D03*
X364Y1899D03*
X364Y1999D03*
G54D11*
X114Y2049D03*
X114Y1599D03*
G54D14*
X464Y916D03*
X364Y966D03*
X464Y1016D03*
X464Y1116D03*
X464Y1216D03*
X364Y1066D03*
X364Y1166D03*
X364Y1266D03*
G54D11*
X114Y1316D03*
X114Y866D03*
G54D14*
X464Y916D03*
X364Y966D03*
X464Y1016D03*
X464Y1116D03*
X464Y1216D03*
X364Y1066D03*
X364Y1166D03*
X364Y1266D03*
G54D11*
X114Y1316D03*
X114Y866D03*
G54D14*
X464Y175D03*
X364Y225D03*
X464Y275D03*
X464Y375D03*
X464Y475D03*
X364Y325D03*
X364Y425D03*
X364Y525D03*
G54D11*
X114Y575D03*
X114Y125D03*
G54D14*
X464Y175D03*
X364Y225D03*
X464Y275D03*
X464Y375D03*
X464Y475D03*
X364Y325D03*
X364Y425D03*
X364Y525D03*
G54D11*
X114Y575D03*
X114Y125D03*
G54D14*
X464Y3442D03*
X364Y3492D03*
X464Y3542D03*
X464Y3642D03*
X464Y3742D03*
X364Y3592D03*
X364Y3692D03*
X364Y3792D03*
G54D11*
X114Y3842D03*
X114Y3392D03*
G54D14*
X464Y3442D03*
X364Y3492D03*
X464Y3542D03*
X464Y3642D03*
X464Y3742D03*
X364Y3592D03*
X364Y3692D03*
X364Y3792D03*
G54D11*
X114Y3842D03*
X114Y3392D03*
G54D14*
X464Y2686D03*
X364Y2736D03*
X464Y2786D03*
X464Y2886D03*
X464Y2986D03*
X364Y2836D03*
X364Y2936D03*
X364Y3036D03*
G54D11*
X114Y3086D03*
X114Y2636D03*
G54D14*
X464Y2686D03*
X364Y2736D03*
X464Y2786D03*
X464Y2886D03*
X464Y2986D03*
X364Y2836D03*
X364Y2936D03*
X364Y3036D03*
G54D11*
X114Y3086D03*
X114Y2636D03*
G54D14*
X464Y4546D03*
X364Y4596D03*
X464Y4646D03*
X464Y4746D03*
X464Y4846D03*
X364Y4696D03*
X364Y4796D03*
X364Y4896D03*
G54D11*
X114Y4946D03*
X114Y4496D03*
G54D14*
X464Y4546D03*
X364Y4596D03*
X464Y4646D03*
X464Y4746D03*
X464Y4846D03*
X364Y4696D03*
X364Y4796D03*
X364Y4896D03*
G54D11*
X114Y4946D03*
X114Y4496D03*
G54D14*
X2642Y901D03*
X2542Y951D03*
X2642Y1001D03*
X2642Y1101D03*
X2642Y1201D03*
X2542Y1051D03*
X2542Y1151D03*
X2542Y1251D03*
G54D11*
X2292Y1301D03*
X2292Y851D03*
G54D14*
X2642Y901D03*
X2542Y951D03*
X2642Y1001D03*
X2642Y1101D03*
X2642Y1201D03*
X2542Y1051D03*
X2542Y1151D03*
X2542Y1251D03*
G54D11*
X2292Y1301D03*
X2292Y851D03*
G54D14*
X2642Y1649D03*
X2542Y1699D03*
X2642Y1749D03*
X2642Y1849D03*
X2642Y1949D03*
X2542Y1799D03*
X2542Y1899D03*
X2542Y1999D03*
G54D11*
X2292Y2049D03*
X2292Y1599D03*
G54D14*
X2642Y1649D03*
X2542Y1699D03*
X2642Y1749D03*
X2642Y1849D03*
X2642Y1949D03*
X2542Y1799D03*
X2542Y1899D03*
X2542Y1999D03*
G54D11*
X2292Y2049D03*
X2292Y1599D03*
G54D14*
X2642Y160D03*
X2542Y210D03*
X2642Y260D03*
X2642Y360D03*
X2642Y460D03*
X2542Y310D03*
X2542Y410D03*
X2542Y510D03*
G54D11*
X2292Y560D03*
X2292Y110D03*
G54D14*
X2642Y160D03*
X2542Y210D03*
X2642Y260D03*
X2642Y360D03*
X2642Y460D03*
X2542Y310D03*
X2542Y410D03*
X2542Y510D03*
G54D11*
X2292Y560D03*
X2292Y110D03*
G54D14*
X464Y5271D03*
X364Y5321D03*
X464Y5371D03*
X464Y5471D03*
X464Y5571D03*
X364Y5421D03*
X364Y5521D03*
X364Y5621D03*
G54D11*
X114Y5671D03*
X114Y5221D03*
G54D14*
X464Y5271D03*
X364Y5321D03*
X464Y5371D03*
X464Y5471D03*
X464Y5571D03*
X364Y5421D03*
X364Y5521D03*
X364Y5621D03*
G54D11*
X114Y5671D03*
X114Y5221D03*
G54D10*
X1943Y4696D03*
G54D15*
X3370Y915D03*
X3770Y915D03*
X3370Y1048D03*
X3770Y1048D03*
G54D10*
X3096Y2303D03*
X370Y2596D03*
G54D16*
X322Y5664D02*
X405Y5664D01*
X2492Y5664D02*
X2575Y5664D01*
X322Y5663D02*
X405Y5663D01*
X2492Y5663D02*
X2575Y5663D01*
X322Y5662D02*
X405Y5662D01*
X2492Y5662D02*
X2575Y5662D01*
X322Y5661D02*
X405Y5661D01*
X2492Y5661D02*
X2575Y5661D01*
X322Y5660D02*
X405Y5660D01*
X2492Y5660D02*
X2575Y5660D01*
X322Y5659D02*
X405Y5659D01*
X2492Y5659D02*
X2575Y5659D01*
X322Y5658D02*
X405Y5658D01*
X2492Y5658D02*
X2575Y5658D01*
X322Y5657D02*
X405Y5657D01*
X2492Y5657D02*
X2575Y5657D01*
X322Y5656D02*
X405Y5656D01*
X2492Y5656D02*
X2575Y5656D01*
X322Y5655D02*
X405Y5655D01*
X2492Y5655D02*
X2575Y5655D01*
X322Y5654D02*
X405Y5654D01*
X2492Y5654D02*
X2575Y5654D01*
X322Y5653D02*
X405Y5653D01*
X2492Y5653D02*
X2575Y5653D01*
X322Y5652D02*
X405Y5652D01*
X2492Y5652D02*
X2575Y5652D01*
X322Y5651D02*
X405Y5651D01*
X2492Y5651D02*
X2575Y5651D01*
X322Y5650D02*
X405Y5650D01*
X2492Y5650D02*
X2575Y5650D01*
X322Y5649D02*
X405Y5649D01*
X2492Y5649D02*
X2575Y5649D01*
X322Y5648D02*
X405Y5648D01*
X2492Y5648D02*
X2575Y5648D01*
X322Y5647D02*
X405Y5647D01*
X2492Y5647D02*
X2575Y5647D01*
X322Y5646D02*
X405Y5646D01*
X2492Y5646D02*
X2575Y5646D01*
X322Y5645D02*
X405Y5645D01*
X2492Y5645D02*
X2575Y5645D01*
X322Y5644D02*
X405Y5644D01*
X2492Y5644D02*
X2575Y5644D01*
X322Y5643D02*
X405Y5643D01*
X2492Y5643D02*
X2575Y5643D01*
X322Y5642D02*
X405Y5642D01*
X2492Y5642D02*
X2575Y5642D01*
X322Y5641D02*
X405Y5641D01*
X2492Y5641D02*
X2575Y5641D01*
X322Y5640D02*
X405Y5640D01*
X2492Y5640D02*
X2575Y5640D01*
X322Y5639D02*
X405Y5639D01*
X2492Y5639D02*
X2575Y5639D01*
X322Y5638D02*
X405Y5638D01*
X2492Y5638D02*
X2575Y5638D01*
X322Y5637D02*
X361Y5637D01*
X366Y5637D02*
X405Y5637D01*
X2492Y5637D02*
X2531Y5637D01*
X2536Y5637D02*
X2575Y5637D01*
X322Y5636D02*
X357Y5636D01*
X370Y5636D02*
X405Y5636D01*
X2492Y5636D02*
X2527Y5636D01*
X2541Y5636D02*
X2575Y5636D01*
X322Y5635D02*
X355Y5635D01*
X372Y5635D02*
X405Y5635D01*
X2492Y5635D02*
X2525Y5635D01*
X2543Y5635D02*
X2575Y5635D01*
X322Y5634D02*
X353Y5634D01*
X374Y5634D02*
X405Y5634D01*
X2492Y5634D02*
X2524Y5634D01*
X2544Y5634D02*
X2575Y5634D01*
X322Y5633D02*
X352Y5633D01*
X375Y5633D02*
X405Y5633D01*
X2492Y5633D02*
X2523Y5633D01*
X2545Y5633D02*
X2575Y5633D01*
X322Y5632D02*
X351Y5632D01*
X376Y5632D02*
X405Y5632D01*
X2492Y5632D02*
X2522Y5632D01*
X2546Y5632D02*
X2575Y5632D01*
X322Y5631D02*
X351Y5631D01*
X376Y5631D02*
X405Y5631D01*
X2492Y5631D02*
X2521Y5631D01*
X2547Y5631D02*
X2575Y5631D01*
X322Y5630D02*
X350Y5630D01*
X377Y5630D02*
X405Y5630D01*
X2492Y5630D02*
X2521Y5630D01*
X2547Y5630D02*
X2575Y5630D01*
X322Y5629D02*
X350Y5629D01*
X377Y5629D02*
X405Y5629D01*
X2492Y5629D02*
X2520Y5629D01*
X2548Y5629D02*
X2575Y5629D01*
X322Y5628D02*
X349Y5628D01*
X378Y5628D02*
X405Y5628D01*
X2492Y5628D02*
X2520Y5628D01*
X2548Y5628D02*
X2575Y5628D01*
X322Y5627D02*
X349Y5627D01*
X378Y5627D02*
X405Y5627D01*
X2492Y5627D02*
X2519Y5627D01*
X2548Y5627D02*
X2575Y5627D01*
X322Y5626D02*
X349Y5626D01*
X378Y5626D02*
X405Y5626D01*
X2492Y5626D02*
X2519Y5626D01*
X2549Y5626D02*
X2575Y5626D01*
X322Y5625D02*
X349Y5625D01*
X379Y5625D02*
X405Y5625D01*
X2492Y5625D02*
X2519Y5625D01*
X2549Y5625D02*
X2575Y5625D01*
X322Y5624D02*
X348Y5624D01*
X379Y5624D02*
X405Y5624D01*
X2492Y5624D02*
X2519Y5624D01*
X2549Y5624D02*
X2575Y5624D01*
X322Y5623D02*
X348Y5623D01*
X379Y5623D02*
X405Y5623D01*
X2492Y5623D02*
X2519Y5623D01*
X2549Y5623D02*
X2575Y5623D01*
X322Y5622D02*
X348Y5622D01*
X379Y5622D02*
X405Y5622D01*
X2492Y5622D02*
X2519Y5622D01*
X2549Y5622D02*
X2575Y5622D01*
X322Y5621D02*
X348Y5621D01*
X379Y5621D02*
X405Y5621D01*
X2492Y5621D02*
X2519Y5621D01*
X2549Y5621D02*
X2575Y5621D01*
X322Y5620D02*
X349Y5620D01*
X379Y5620D02*
X405Y5620D01*
X2492Y5620D02*
X2519Y5620D01*
X2549Y5620D02*
X2575Y5620D01*
X322Y5619D02*
X349Y5619D01*
X378Y5619D02*
X405Y5619D01*
X2492Y5619D02*
X2519Y5619D01*
X2549Y5619D02*
X2575Y5619D01*
X322Y5618D02*
X349Y5618D01*
X378Y5618D02*
X405Y5618D01*
X2492Y5618D02*
X2519Y5618D01*
X2548Y5618D02*
X2575Y5618D01*
X322Y5617D02*
X349Y5617D01*
X378Y5617D02*
X405Y5617D01*
X2492Y5617D02*
X2520Y5617D01*
X2548Y5617D02*
X2575Y5617D01*
X322Y5616D02*
X350Y5616D01*
X377Y5616D02*
X405Y5616D01*
X2492Y5616D02*
X2520Y5616D01*
X2548Y5616D02*
X2575Y5616D01*
X322Y5615D02*
X350Y5615D01*
X377Y5615D02*
X405Y5615D01*
X2492Y5615D02*
X2521Y5615D01*
X2547Y5615D02*
X2575Y5615D01*
X322Y5614D02*
X351Y5614D01*
X376Y5614D02*
X405Y5614D01*
X2492Y5614D02*
X2521Y5614D01*
X2547Y5614D02*
X2575Y5614D01*
X322Y5613D02*
X351Y5613D01*
X376Y5613D02*
X405Y5613D01*
X2492Y5613D02*
X2522Y5613D01*
X2546Y5613D02*
X2575Y5613D01*
X322Y5612D02*
X352Y5612D01*
X375Y5612D02*
X405Y5612D01*
X2492Y5612D02*
X2523Y5612D01*
X2545Y5612D02*
X2575Y5612D01*
X322Y5611D02*
X353Y5611D01*
X374Y5611D02*
X405Y5611D01*
X2492Y5611D02*
X2524Y5611D01*
X2544Y5611D02*
X2575Y5611D01*
X322Y5610D02*
X355Y5610D01*
X372Y5610D02*
X405Y5610D01*
X2492Y5610D02*
X2525Y5610D01*
X2543Y5610D02*
X2575Y5610D01*
X322Y5609D02*
X357Y5609D01*
X370Y5609D02*
X405Y5609D01*
X2492Y5609D02*
X2527Y5609D01*
X2541Y5609D02*
X2575Y5609D01*
X322Y5608D02*
X361Y5608D01*
X366Y5608D02*
X405Y5608D01*
X2492Y5608D02*
X2531Y5608D01*
X2537Y5608D02*
X2575Y5608D01*
X322Y5607D02*
X405Y5607D01*
X2492Y5607D02*
X2575Y5607D01*
X322Y5606D02*
X405Y5606D01*
X2492Y5606D02*
X2575Y5606D01*
X322Y5605D02*
X405Y5605D01*
X2492Y5605D02*
X2575Y5605D01*
X322Y5604D02*
X405Y5604D01*
X2492Y5604D02*
X2575Y5604D01*
X322Y5603D02*
X405Y5603D01*
X2492Y5603D02*
X2575Y5603D01*
X322Y5602D02*
X405Y5602D01*
X2492Y5602D02*
X2575Y5602D01*
X322Y5601D02*
X405Y5601D01*
X2492Y5601D02*
X2575Y5601D01*
X322Y5600D02*
X405Y5600D01*
X2492Y5600D02*
X2575Y5600D01*
X322Y5599D02*
X405Y5599D01*
X2492Y5599D02*
X2575Y5599D01*
X322Y5598D02*
X405Y5598D01*
X2492Y5598D02*
X2575Y5598D01*
X322Y5597D02*
X405Y5597D01*
X2492Y5597D02*
X2575Y5597D01*
X322Y5596D02*
X405Y5596D01*
X2492Y5596D02*
X2575Y5596D01*
X322Y5595D02*
X405Y5595D01*
X2492Y5595D02*
X2575Y5595D01*
X322Y5594D02*
X405Y5594D01*
X2492Y5594D02*
X2575Y5594D01*
X322Y5593D02*
X405Y5593D01*
X2492Y5593D02*
X2575Y5593D01*
X322Y5592D02*
X405Y5592D01*
X2492Y5592D02*
X2575Y5592D01*
X322Y5591D02*
X405Y5591D01*
X2492Y5591D02*
X2575Y5591D01*
X322Y5590D02*
X405Y5590D01*
X2492Y5590D02*
X2575Y5590D01*
X322Y5589D02*
X405Y5589D01*
X2492Y5589D02*
X2575Y5589D01*
X322Y5588D02*
X405Y5588D01*
X2492Y5588D02*
X2575Y5588D01*
X322Y5587D02*
X405Y5587D01*
X2492Y5587D02*
X2575Y5587D01*
X322Y5586D02*
X405Y5586D01*
X2492Y5586D02*
X2575Y5586D01*
X322Y5585D02*
X405Y5585D01*
X2492Y5585D02*
X2575Y5585D01*
X322Y5584D02*
X405Y5584D01*
X2492Y5584D02*
X2575Y5584D01*
X322Y5583D02*
X405Y5583D01*
X2492Y5583D02*
X2575Y5583D01*
X322Y5582D02*
X405Y5582D01*
X2492Y5582D02*
X2575Y5582D01*
X322Y5581D02*
X405Y5581D01*
X2492Y5581D02*
X2575Y5581D01*
X322Y4938D02*
X405Y4938D01*
X2492Y4938D02*
X2575Y4938D01*
X322Y4937D02*
X405Y4937D01*
X2492Y4937D02*
X2575Y4937D01*
X322Y4936D02*
X405Y4936D01*
X2492Y4936D02*
X2575Y4936D01*
X322Y4935D02*
X405Y4935D01*
X2492Y4935D02*
X2575Y4935D01*
X322Y4934D02*
X405Y4934D01*
X2492Y4934D02*
X2575Y4934D01*
X322Y4933D02*
X405Y4933D01*
X2492Y4933D02*
X2575Y4933D01*
X322Y4932D02*
X405Y4932D01*
X2492Y4932D02*
X2575Y4932D01*
X322Y4931D02*
X405Y4931D01*
X2492Y4931D02*
X2575Y4931D01*
X322Y4930D02*
X405Y4930D01*
X2492Y4930D02*
X2575Y4930D01*
X322Y4929D02*
X405Y4929D01*
X2492Y4929D02*
X2575Y4929D01*
X322Y4928D02*
X405Y4928D01*
X2492Y4928D02*
X2575Y4928D01*
X322Y4927D02*
X405Y4927D01*
X2492Y4927D02*
X2575Y4927D01*
X322Y4926D02*
X405Y4926D01*
X2492Y4926D02*
X2575Y4926D01*
X322Y4925D02*
X405Y4925D01*
X2492Y4925D02*
X2575Y4925D01*
X322Y4924D02*
X405Y4924D01*
X2492Y4924D02*
X2575Y4924D01*
X322Y4923D02*
X405Y4923D01*
X2492Y4923D02*
X2575Y4923D01*
X322Y4922D02*
X405Y4922D01*
X2492Y4922D02*
X2575Y4922D01*
X322Y4921D02*
X405Y4921D01*
X2492Y4921D02*
X2575Y4921D01*
X322Y4920D02*
X405Y4920D01*
X2492Y4920D02*
X2575Y4920D01*
X322Y4919D02*
X405Y4919D01*
X2492Y4919D02*
X2575Y4919D01*
X322Y4918D02*
X405Y4918D01*
X2492Y4918D02*
X2575Y4918D01*
X322Y4917D02*
X405Y4917D01*
X2492Y4917D02*
X2575Y4917D01*
X322Y4916D02*
X405Y4916D01*
X2492Y4916D02*
X2575Y4916D01*
X322Y4915D02*
X405Y4915D01*
X2492Y4915D02*
X2575Y4915D01*
X322Y4914D02*
X405Y4914D01*
X2492Y4914D02*
X2575Y4914D01*
X322Y4913D02*
X405Y4913D01*
X2492Y4913D02*
X2575Y4913D01*
X322Y4912D02*
X405Y4912D01*
X2492Y4912D02*
X2575Y4912D01*
X322Y4911D02*
X360Y4911D01*
X367Y4911D02*
X405Y4911D01*
X2492Y4911D02*
X2530Y4911D01*
X2538Y4911D02*
X2575Y4911D01*
X322Y4910D02*
X357Y4910D01*
X371Y4910D02*
X405Y4910D01*
X2492Y4910D02*
X2527Y4910D01*
X2541Y4910D02*
X2575Y4910D01*
X322Y4909D02*
X355Y4909D01*
X372Y4909D02*
X405Y4909D01*
X2492Y4909D02*
X2525Y4909D01*
X2543Y4909D02*
X2575Y4909D01*
X322Y4908D02*
X353Y4908D01*
X374Y4908D02*
X405Y4908D01*
X2492Y4908D02*
X2524Y4908D01*
X2544Y4908D02*
X2575Y4908D01*
X322Y4907D02*
X352Y4907D01*
X375Y4907D02*
X405Y4907D01*
X2492Y4907D02*
X2523Y4907D01*
X2545Y4907D02*
X2575Y4907D01*
X322Y4906D02*
X351Y4906D01*
X376Y4906D02*
X405Y4906D01*
X2492Y4906D02*
X2522Y4906D01*
X2546Y4906D02*
X2575Y4906D01*
X322Y4905D02*
X351Y4905D01*
X376Y4905D02*
X405Y4905D01*
X2492Y4905D02*
X2521Y4905D01*
X2547Y4905D02*
X2575Y4905D01*
X322Y4904D02*
X350Y4904D01*
X377Y4904D02*
X405Y4904D01*
X2492Y4904D02*
X2520Y4904D01*
X2547Y4904D02*
X2575Y4904D01*
X322Y4903D02*
X350Y4903D01*
X377Y4903D02*
X405Y4903D01*
X2492Y4903D02*
X2520Y4903D01*
X2548Y4903D02*
X2575Y4903D01*
X322Y4902D02*
X349Y4902D01*
X378Y4902D02*
X405Y4902D01*
X2492Y4902D02*
X2520Y4902D01*
X2548Y4902D02*
X2575Y4902D01*
X322Y4901D02*
X349Y4901D01*
X378Y4901D02*
X405Y4901D01*
X2492Y4901D02*
X2519Y4901D01*
X2548Y4901D02*
X2575Y4901D01*
X322Y4900D02*
X349Y4900D01*
X378Y4900D02*
X405Y4900D01*
X2492Y4900D02*
X2519Y4900D01*
X2549Y4900D02*
X2575Y4900D01*
X322Y4899D02*
X349Y4899D01*
X379Y4899D02*
X405Y4899D01*
X2492Y4899D02*
X2519Y4899D01*
X2549Y4899D02*
X2575Y4899D01*
X322Y4898D02*
X348Y4898D01*
X379Y4898D02*
X405Y4898D01*
X2492Y4898D02*
X2519Y4898D01*
X2549Y4898D02*
X2575Y4898D01*
X322Y4897D02*
X348Y4897D01*
X379Y4897D02*
X405Y4897D01*
X2492Y4897D02*
X2519Y4897D01*
X2549Y4897D02*
X2575Y4897D01*
X322Y4896D02*
X348Y4896D01*
X379Y4896D02*
X405Y4896D01*
X2492Y4896D02*
X2519Y4896D01*
X2549Y4896D02*
X2575Y4896D01*
X322Y4895D02*
X348Y4895D01*
X379Y4895D02*
X405Y4895D01*
X2492Y4895D02*
X2519Y4895D01*
X2549Y4895D02*
X2575Y4895D01*
X322Y4894D02*
X349Y4894D01*
X378Y4894D02*
X405Y4894D01*
X2492Y4894D02*
X2519Y4894D01*
X2549Y4894D02*
X2575Y4894D01*
X322Y4893D02*
X349Y4893D01*
X378Y4893D02*
X405Y4893D01*
X2492Y4893D02*
X2519Y4893D01*
X2549Y4893D02*
X2575Y4893D01*
X322Y4892D02*
X349Y4892D01*
X378Y4892D02*
X405Y4892D01*
X2492Y4892D02*
X2519Y4892D01*
X2548Y4892D02*
X2575Y4892D01*
X322Y4891D02*
X349Y4891D01*
X378Y4891D02*
X405Y4891D01*
X2492Y4891D02*
X2520Y4891D01*
X2548Y4891D02*
X2575Y4891D01*
X322Y4890D02*
X350Y4890D01*
X377Y4890D02*
X405Y4890D01*
X2492Y4890D02*
X2520Y4890D01*
X2548Y4890D02*
X2575Y4890D01*
X322Y4889D02*
X350Y4889D01*
X377Y4889D02*
X405Y4889D01*
X2492Y4889D02*
X2521Y4889D01*
X2547Y4889D02*
X2575Y4889D01*
X322Y4888D02*
X351Y4888D01*
X376Y4888D02*
X405Y4888D01*
X2492Y4888D02*
X2521Y4888D01*
X2547Y4888D02*
X2575Y4888D01*
X322Y4887D02*
X352Y4887D01*
X376Y4887D02*
X405Y4887D01*
X2492Y4887D02*
X2522Y4887D01*
X2546Y4887D02*
X2575Y4887D01*
X322Y4886D02*
X352Y4886D01*
X375Y4886D02*
X405Y4886D01*
X2492Y4886D02*
X2523Y4886D01*
X2545Y4886D02*
X2575Y4886D01*
X322Y4885D02*
X354Y4885D01*
X373Y4885D02*
X405Y4885D01*
X2492Y4885D02*
X2524Y4885D01*
X2544Y4885D02*
X2575Y4885D01*
X322Y4884D02*
X355Y4884D01*
X372Y4884D02*
X405Y4884D01*
X2492Y4884D02*
X2525Y4884D01*
X2542Y4884D02*
X2575Y4884D01*
X322Y4883D02*
X357Y4883D01*
X370Y4883D02*
X405Y4883D01*
X2492Y4883D02*
X2527Y4883D01*
X2540Y4883D02*
X2575Y4883D01*
X322Y4882D02*
X362Y4882D01*
X365Y4882D02*
X405Y4882D01*
X2492Y4882D02*
X2533Y4882D01*
X2535Y4882D02*
X2575Y4882D01*
X322Y4881D02*
X405Y4881D01*
X2492Y4881D02*
X2575Y4881D01*
X322Y4880D02*
X405Y4880D01*
X2492Y4880D02*
X2575Y4880D01*
X322Y4879D02*
X405Y4879D01*
X2492Y4879D02*
X2575Y4879D01*
X322Y4878D02*
X405Y4878D01*
X2492Y4878D02*
X2575Y4878D01*
X322Y4877D02*
X405Y4877D01*
X2492Y4877D02*
X2575Y4877D01*
X322Y4876D02*
X405Y4876D01*
X2492Y4876D02*
X2575Y4876D01*
X322Y4875D02*
X405Y4875D01*
X2492Y4875D02*
X2575Y4875D01*
X322Y4874D02*
X405Y4874D01*
X2492Y4874D02*
X2575Y4874D01*
X322Y4873D02*
X405Y4873D01*
X2492Y4873D02*
X2575Y4873D01*
X322Y4872D02*
X405Y4872D01*
X2492Y4872D02*
X2575Y4872D01*
X322Y4871D02*
X405Y4871D01*
X2492Y4871D02*
X2575Y4871D01*
X322Y4870D02*
X405Y4870D01*
X2492Y4870D02*
X2575Y4870D01*
X322Y4869D02*
X405Y4869D01*
X2492Y4869D02*
X2575Y4869D01*
X322Y4868D02*
X405Y4868D01*
X2492Y4868D02*
X2575Y4868D01*
X322Y4867D02*
X405Y4867D01*
X2492Y4867D02*
X2575Y4867D01*
X322Y4866D02*
X405Y4866D01*
X2492Y4866D02*
X2575Y4866D01*
X322Y4865D02*
X405Y4865D01*
X2492Y4865D02*
X2575Y4865D01*
X322Y4864D02*
X405Y4864D01*
X2492Y4864D02*
X2575Y4864D01*
X322Y4863D02*
X405Y4863D01*
X2492Y4863D02*
X2575Y4863D01*
X322Y4862D02*
X405Y4862D01*
X2492Y4862D02*
X2575Y4862D01*
X322Y4861D02*
X405Y4861D01*
X2492Y4861D02*
X2575Y4861D01*
X322Y4860D02*
X405Y4860D01*
X2492Y4860D02*
X2575Y4860D01*
X322Y4859D02*
X405Y4859D01*
X2492Y4859D02*
X2575Y4859D01*
X322Y4858D02*
X405Y4858D01*
X2492Y4858D02*
X2575Y4858D01*
X322Y4857D02*
X405Y4857D01*
X2492Y4857D02*
X2575Y4857D01*
X322Y4856D02*
X405Y4856D01*
X2492Y4856D02*
X2575Y4856D01*
X322Y4855D02*
X405Y4855D01*
X2492Y4855D02*
X2575Y4855D01*
X323Y3835D02*
X405Y3835D01*
X2500Y3835D02*
X2582Y3835D01*
X322Y3834D02*
X405Y3834D01*
X2500Y3834D02*
X2583Y3834D01*
X322Y3833D02*
X405Y3833D01*
X2500Y3833D02*
X2583Y3833D01*
X322Y3832D02*
X405Y3832D01*
X2500Y3832D02*
X2583Y3832D01*
X322Y3831D02*
X405Y3831D01*
X2500Y3831D02*
X2583Y3831D01*
X322Y3830D02*
X405Y3830D01*
X2500Y3830D02*
X2583Y3830D01*
X322Y3829D02*
X405Y3829D01*
X2500Y3829D02*
X2583Y3829D01*
X322Y3828D02*
X405Y3828D01*
X2500Y3828D02*
X2583Y3828D01*
X322Y3827D02*
X405Y3827D01*
X2500Y3827D02*
X2583Y3827D01*
X322Y3826D02*
X405Y3826D01*
X2500Y3826D02*
X2583Y3826D01*
X322Y3825D02*
X405Y3825D01*
X2500Y3825D02*
X2583Y3825D01*
X322Y3824D02*
X405Y3824D01*
X2500Y3824D02*
X2583Y3824D01*
X322Y3823D02*
X405Y3823D01*
X2500Y3823D02*
X2583Y3823D01*
X322Y3822D02*
X405Y3822D01*
X2500Y3822D02*
X2583Y3822D01*
X322Y3821D02*
X405Y3821D01*
X2500Y3821D02*
X2583Y3821D01*
X322Y3820D02*
X405Y3820D01*
X2500Y3820D02*
X2583Y3820D01*
X322Y3819D02*
X405Y3819D01*
X2500Y3819D02*
X2583Y3819D01*
X322Y3818D02*
X405Y3818D01*
X2500Y3818D02*
X2583Y3818D01*
X322Y3817D02*
X405Y3817D01*
X2500Y3817D02*
X2583Y3817D01*
X322Y3816D02*
X405Y3816D01*
X2500Y3816D02*
X2583Y3816D01*
X322Y3815D02*
X405Y3815D01*
X2500Y3815D02*
X2583Y3815D01*
X322Y3814D02*
X405Y3814D01*
X2500Y3814D02*
X2583Y3814D01*
X322Y3813D02*
X405Y3813D01*
X2500Y3813D02*
X2583Y3813D01*
X322Y3812D02*
X405Y3812D01*
X2500Y3812D02*
X2583Y3812D01*
X322Y3811D02*
X405Y3811D01*
X2500Y3811D02*
X2583Y3811D01*
X322Y3810D02*
X405Y3810D01*
X2500Y3810D02*
X2583Y3810D01*
X322Y3809D02*
X405Y3809D01*
X2500Y3809D02*
X2583Y3809D01*
X322Y3808D02*
X405Y3808D01*
X2500Y3808D02*
X2583Y3808D01*
X322Y3807D02*
X358Y3807D01*
X369Y3807D02*
X405Y3807D01*
X2500Y3807D02*
X2536Y3807D01*
X2547Y3807D02*
X2583Y3807D01*
X322Y3806D02*
X356Y3806D01*
X371Y3806D02*
X405Y3806D01*
X2500Y3806D02*
X2534Y3806D01*
X2549Y3806D02*
X2583Y3806D01*
X322Y3805D02*
X354Y3805D01*
X373Y3805D02*
X405Y3805D01*
X2500Y3805D02*
X2532Y3805D01*
X2551Y3805D02*
X2583Y3805D01*
X322Y3804D02*
X353Y3804D01*
X374Y3804D02*
X405Y3804D01*
X2500Y3804D02*
X2531Y3804D01*
X2552Y3804D02*
X2583Y3804D01*
X322Y3803D02*
X352Y3803D01*
X375Y3803D02*
X405Y3803D01*
X2500Y3803D02*
X2530Y3803D01*
X2553Y3803D02*
X2583Y3803D01*
X322Y3802D02*
X351Y3802D01*
X376Y3802D02*
X405Y3802D01*
X2500Y3802D02*
X2529Y3802D01*
X2554Y3802D02*
X2583Y3802D01*
X322Y3801D02*
X350Y3801D01*
X377Y3801D02*
X405Y3801D01*
X2500Y3801D02*
X2528Y3801D01*
X2554Y3801D02*
X2583Y3801D01*
X322Y3800D02*
X350Y3800D01*
X377Y3800D02*
X405Y3800D01*
X2500Y3800D02*
X2528Y3800D01*
X2555Y3800D02*
X2583Y3800D01*
X322Y3799D02*
X349Y3799D01*
X378Y3799D02*
X405Y3799D01*
X2500Y3799D02*
X2527Y3799D01*
X2555Y3799D02*
X2583Y3799D01*
X322Y3798D02*
X349Y3798D01*
X378Y3798D02*
X405Y3798D01*
X2500Y3798D02*
X2527Y3798D01*
X2556Y3798D02*
X2583Y3798D01*
X322Y3797D02*
X349Y3797D01*
X378Y3797D02*
X405Y3797D01*
X2500Y3797D02*
X2527Y3797D01*
X2556Y3797D02*
X2583Y3797D01*
X322Y3796D02*
X349Y3796D01*
X378Y3796D02*
X405Y3796D01*
X2500Y3796D02*
X2526Y3796D01*
X2556Y3796D02*
X2583Y3796D01*
X322Y3795D02*
X349Y3795D01*
X379Y3795D02*
X405Y3795D01*
X2500Y3795D02*
X2526Y3795D01*
X2556Y3795D02*
X2583Y3795D01*
X322Y3794D02*
X348Y3794D01*
X379Y3794D02*
X405Y3794D01*
X2500Y3794D02*
X2526Y3794D01*
X2556Y3794D02*
X2583Y3794D01*
X322Y3793D02*
X348Y3793D01*
X379Y3793D02*
X405Y3793D01*
X2500Y3793D02*
X2526Y3793D01*
X2556Y3793D02*
X2583Y3793D01*
X322Y3792D02*
X348Y3792D01*
X379Y3792D02*
X405Y3792D01*
X2500Y3792D02*
X2526Y3792D01*
X2556Y3792D02*
X2583Y3792D01*
X322Y3791D02*
X349Y3791D01*
X379Y3791D02*
X405Y3791D01*
X2500Y3791D02*
X2526Y3791D01*
X2556Y3791D02*
X2583Y3791D01*
X322Y3790D02*
X349Y3790D01*
X378Y3790D02*
X405Y3790D01*
X2500Y3790D02*
X2526Y3790D01*
X2556Y3790D02*
X2583Y3790D01*
X322Y3789D02*
X349Y3789D01*
X378Y3789D02*
X405Y3789D01*
X2500Y3789D02*
X2527Y3789D01*
X2556Y3789D02*
X2583Y3789D01*
X322Y3788D02*
X349Y3788D01*
X378Y3788D02*
X405Y3788D01*
X2500Y3788D02*
X2527Y3788D01*
X2556Y3788D02*
X2583Y3788D01*
X322Y3787D02*
X349Y3787D01*
X378Y3787D02*
X405Y3787D01*
X2500Y3787D02*
X2527Y3787D01*
X2555Y3787D02*
X2583Y3787D01*
X322Y3786D02*
X350Y3786D01*
X377Y3786D02*
X405Y3786D01*
X2500Y3786D02*
X2528Y3786D01*
X2555Y3786D02*
X2583Y3786D01*
X322Y3785D02*
X350Y3785D01*
X377Y3785D02*
X405Y3785D01*
X2500Y3785D02*
X2528Y3785D01*
X2554Y3785D02*
X2583Y3785D01*
X322Y3784D02*
X351Y3784D01*
X376Y3784D02*
X405Y3784D01*
X2500Y3784D02*
X2529Y3784D01*
X2554Y3784D02*
X2583Y3784D01*
X322Y3783D02*
X352Y3783D01*
X375Y3783D02*
X405Y3783D01*
X2500Y3783D02*
X2530Y3783D01*
X2553Y3783D02*
X2583Y3783D01*
X322Y3782D02*
X353Y3782D01*
X374Y3782D02*
X405Y3782D01*
X2500Y3782D02*
X2531Y3782D01*
X2552Y3782D02*
X2583Y3782D01*
X322Y3781D02*
X354Y3781D01*
X373Y3781D02*
X405Y3781D01*
X2500Y3781D02*
X2532Y3781D01*
X2551Y3781D02*
X2583Y3781D01*
X322Y3780D02*
X356Y3780D01*
X371Y3780D02*
X405Y3780D01*
X2500Y3780D02*
X2534Y3780D01*
X2549Y3780D02*
X2583Y3780D01*
X322Y3779D02*
X358Y3779D01*
X369Y3779D02*
X405Y3779D01*
X2500Y3779D02*
X2536Y3779D01*
X2546Y3779D02*
X2583Y3779D01*
X322Y3778D02*
X405Y3778D01*
X2500Y3778D02*
X2583Y3778D01*
X322Y3777D02*
X405Y3777D01*
X2500Y3777D02*
X2583Y3777D01*
X322Y3776D02*
X405Y3776D01*
X2500Y3776D02*
X2583Y3776D01*
X322Y3775D02*
X405Y3775D01*
X2500Y3775D02*
X2583Y3775D01*
X322Y3774D02*
X405Y3774D01*
X2500Y3774D02*
X2583Y3774D01*
X322Y3773D02*
X405Y3773D01*
X2500Y3773D02*
X2583Y3773D01*
X322Y3772D02*
X405Y3772D01*
X2500Y3772D02*
X2583Y3772D01*
X322Y3771D02*
X405Y3771D01*
X2500Y3771D02*
X2583Y3771D01*
X322Y3770D02*
X405Y3770D01*
X2500Y3770D02*
X2583Y3770D01*
X322Y3769D02*
X405Y3769D01*
X2500Y3769D02*
X2583Y3769D01*
X322Y3768D02*
X405Y3768D01*
X2500Y3768D02*
X2583Y3768D01*
X322Y3767D02*
X405Y3767D01*
X2500Y3767D02*
X2583Y3767D01*
X322Y3766D02*
X405Y3766D01*
X2500Y3766D02*
X2583Y3766D01*
X322Y3765D02*
X405Y3765D01*
X2500Y3765D02*
X2583Y3765D01*
X322Y3764D02*
X405Y3764D01*
X2500Y3764D02*
X2583Y3764D01*
X322Y3763D02*
X405Y3763D01*
X2500Y3763D02*
X2583Y3763D01*
X322Y3762D02*
X405Y3762D01*
X2500Y3762D02*
X2583Y3762D01*
X322Y3761D02*
X405Y3761D01*
X2500Y3761D02*
X2583Y3761D01*
X322Y3760D02*
X405Y3760D01*
X2500Y3760D02*
X2583Y3760D01*
X322Y3759D02*
X405Y3759D01*
X2500Y3759D02*
X2583Y3759D01*
X322Y3758D02*
X405Y3758D01*
X2500Y3758D02*
X2583Y3758D01*
X322Y3757D02*
X405Y3757D01*
X2500Y3757D02*
X2583Y3757D01*
X322Y3756D02*
X405Y3756D01*
X2500Y3756D02*
X2583Y3756D01*
X322Y3755D02*
X405Y3755D01*
X2500Y3755D02*
X2583Y3755D01*
X322Y3754D02*
X405Y3754D01*
X2500Y3754D02*
X2583Y3754D01*
X322Y3753D02*
X405Y3753D01*
X2500Y3753D02*
X2583Y3753D01*
X322Y3752D02*
X405Y3752D01*
X2500Y3752D02*
X2583Y3752D01*
X322Y3079D02*
X405Y3079D01*
X2500Y3079D02*
X2583Y3079D01*
X322Y3078D02*
X405Y3078D01*
X2500Y3078D02*
X2583Y3078D01*
X322Y3077D02*
X405Y3077D01*
X2500Y3077D02*
X2583Y3077D01*
X322Y3076D02*
X405Y3076D01*
X2500Y3076D02*
X2583Y3076D01*
X322Y3075D02*
X405Y3075D01*
X2500Y3075D02*
X2583Y3075D01*
X322Y3074D02*
X405Y3074D01*
X2500Y3074D02*
X2583Y3074D01*
X322Y3073D02*
X405Y3073D01*
X2500Y3073D02*
X2583Y3073D01*
X322Y3072D02*
X405Y3072D01*
X2500Y3072D02*
X2583Y3072D01*
X322Y3071D02*
X405Y3071D01*
X2500Y3071D02*
X2583Y3071D01*
X322Y3070D02*
X405Y3070D01*
X2500Y3070D02*
X2583Y3070D01*
X322Y3069D02*
X405Y3069D01*
X2500Y3069D02*
X2583Y3069D01*
X322Y3068D02*
X405Y3068D01*
X2500Y3068D02*
X2583Y3068D01*
X322Y3067D02*
X405Y3067D01*
X2500Y3067D02*
X2583Y3067D01*
X322Y3066D02*
X405Y3066D01*
X2500Y3066D02*
X2583Y3066D01*
X322Y3065D02*
X405Y3065D01*
X2500Y3065D02*
X2583Y3065D01*
X322Y3064D02*
X405Y3064D01*
X2500Y3064D02*
X2583Y3064D01*
X322Y3063D02*
X405Y3063D01*
X2500Y3063D02*
X2583Y3063D01*
X322Y3062D02*
X405Y3062D01*
X2500Y3062D02*
X2583Y3062D01*
X322Y3061D02*
X405Y3061D01*
X2500Y3061D02*
X2583Y3061D01*
X322Y3060D02*
X405Y3060D01*
X2500Y3060D02*
X2583Y3060D01*
X322Y3059D02*
X405Y3059D01*
X2500Y3059D02*
X2583Y3059D01*
X322Y3058D02*
X405Y3058D01*
X2500Y3058D02*
X2583Y3058D01*
X322Y3057D02*
X405Y3057D01*
X2500Y3057D02*
X2583Y3057D01*
X322Y3056D02*
X405Y3056D01*
X2500Y3056D02*
X2583Y3056D01*
X322Y3055D02*
X405Y3055D01*
X2500Y3055D02*
X2583Y3055D01*
X322Y3054D02*
X405Y3054D01*
X2500Y3054D02*
X2583Y3054D01*
X322Y3053D02*
X405Y3053D01*
X2500Y3053D02*
X2583Y3053D01*
X322Y3052D02*
X361Y3052D01*
X366Y3052D02*
X405Y3052D01*
X2500Y3052D02*
X2538Y3052D01*
X2544Y3052D02*
X2583Y3052D01*
X322Y3051D02*
X357Y3051D01*
X370Y3051D02*
X405Y3051D01*
X2500Y3051D02*
X2535Y3051D01*
X2548Y3051D02*
X2583Y3051D01*
X322Y3050D02*
X355Y3050D01*
X372Y3050D02*
X405Y3050D01*
X2500Y3050D02*
X2533Y3050D01*
X2550Y3050D02*
X2583Y3050D01*
X322Y3049D02*
X353Y3049D01*
X374Y3049D02*
X405Y3049D01*
X2500Y3049D02*
X2531Y3049D01*
X2551Y3049D02*
X2583Y3049D01*
X322Y3048D02*
X352Y3048D01*
X375Y3048D02*
X405Y3048D01*
X2500Y3048D02*
X2530Y3048D01*
X2553Y3048D02*
X2583Y3048D01*
X322Y3047D02*
X351Y3047D01*
X376Y3047D02*
X405Y3047D01*
X2500Y3047D02*
X2529Y3047D01*
X2553Y3047D02*
X2583Y3047D01*
X322Y3046D02*
X351Y3046D01*
X376Y3046D02*
X405Y3046D01*
X2500Y3046D02*
X2528Y3046D01*
X2554Y3046D02*
X2583Y3046D01*
X322Y3045D02*
X350Y3045D01*
X377Y3045D02*
X405Y3045D01*
X2500Y3045D02*
X2528Y3045D01*
X2555Y3045D02*
X2583Y3045D01*
X322Y3044D02*
X350Y3044D01*
X377Y3044D02*
X405Y3044D01*
X2500Y3044D02*
X2527Y3044D01*
X2555Y3044D02*
X2583Y3044D01*
X322Y3043D02*
X349Y3043D01*
X378Y3043D02*
X405Y3043D01*
X2500Y3043D02*
X2527Y3043D01*
X2556Y3043D02*
X2583Y3043D01*
X322Y3042D02*
X349Y3042D01*
X378Y3042D02*
X405Y3042D01*
X2500Y3042D02*
X2527Y3042D01*
X2556Y3042D02*
X2583Y3042D01*
X322Y3041D02*
X349Y3041D01*
X378Y3041D02*
X405Y3041D01*
X2500Y3041D02*
X2526Y3041D01*
X2556Y3041D02*
X2583Y3041D01*
X322Y3040D02*
X349Y3040D01*
X379Y3040D02*
X405Y3040D01*
X2500Y3040D02*
X2526Y3040D01*
X2556Y3040D02*
X2583Y3040D01*
X322Y3039D02*
X348Y3039D01*
X379Y3039D02*
X405Y3039D01*
X2500Y3039D02*
X2526Y3039D01*
X2556Y3039D02*
X2583Y3039D01*
X322Y3038D02*
X348Y3038D01*
X379Y3038D02*
X405Y3038D01*
X2500Y3038D02*
X2526Y3038D01*
X2556Y3038D02*
X2583Y3038D01*
X322Y3037D02*
X348Y3037D01*
X379Y3037D02*
X405Y3037D01*
X2500Y3037D02*
X2526Y3037D01*
X2556Y3037D02*
X2583Y3037D01*
X322Y3036D02*
X348Y3036D01*
X379Y3036D02*
X405Y3036D01*
X2500Y3036D02*
X2526Y3036D01*
X2556Y3036D02*
X2583Y3036D01*
X322Y3035D02*
X349Y3035D01*
X379Y3035D02*
X405Y3035D01*
X2500Y3035D02*
X2526Y3035D01*
X2556Y3035D02*
X2583Y3035D01*
X322Y3034D02*
X349Y3034D01*
X378Y3034D02*
X405Y3034D01*
X2500Y3034D02*
X2527Y3034D01*
X2556Y3034D02*
X2583Y3034D01*
X322Y3033D02*
X349Y3033D01*
X378Y3033D02*
X405Y3033D01*
X2500Y3033D02*
X2527Y3033D01*
X2556Y3033D02*
X2583Y3033D01*
X322Y3032D02*
X349Y3032D01*
X378Y3032D02*
X405Y3032D01*
X2500Y3032D02*
X2527Y3032D01*
X2556Y3032D02*
X2583Y3032D01*
X322Y3031D02*
X350Y3031D01*
X377Y3031D02*
X405Y3031D01*
X2500Y3031D02*
X2527Y3031D01*
X2555Y3031D02*
X2583Y3031D01*
X322Y3030D02*
X350Y3030D01*
X377Y3030D02*
X405Y3030D01*
X2500Y3030D02*
X2528Y3030D01*
X2555Y3030D02*
X2583Y3030D01*
X322Y3029D02*
X351Y3029D01*
X376Y3029D02*
X405Y3029D01*
X2500Y3029D02*
X2529Y3029D01*
X2554Y3029D02*
X2583Y3029D01*
X322Y3028D02*
X352Y3028D01*
X376Y3028D02*
X405Y3028D01*
X2500Y3028D02*
X2529Y3028D01*
X2553Y3028D02*
X2583Y3028D01*
X322Y3027D02*
X352Y3027D01*
X375Y3027D02*
X405Y3027D01*
X2500Y3027D02*
X2530Y3027D01*
X2553Y3027D02*
X2583Y3027D01*
X322Y3026D02*
X354Y3026D01*
X374Y3026D02*
X405Y3026D01*
X2500Y3026D02*
X2531Y3026D01*
X2551Y3026D02*
X2583Y3026D01*
X322Y3025D02*
X355Y3025D01*
X372Y3025D02*
X405Y3025D01*
X2500Y3025D02*
X2533Y3025D01*
X2550Y3025D02*
X2583Y3025D01*
X322Y3024D02*
X357Y3024D01*
X370Y3024D02*
X405Y3024D01*
X2500Y3024D02*
X2535Y3024D01*
X2548Y3024D02*
X2583Y3024D01*
X322Y3023D02*
X361Y3023D01*
X366Y3023D02*
X405Y3023D01*
X2500Y3023D02*
X2539Y3023D01*
X2544Y3023D02*
X2583Y3023D01*
X322Y3022D02*
X405Y3022D01*
X2500Y3022D02*
X2583Y3022D01*
X322Y3021D02*
X405Y3021D01*
X2500Y3021D02*
X2583Y3021D01*
X322Y3020D02*
X405Y3020D01*
X2500Y3020D02*
X2583Y3020D01*
X322Y3019D02*
X405Y3019D01*
X2500Y3019D02*
X2583Y3019D01*
X322Y3018D02*
X405Y3018D01*
X2500Y3018D02*
X2583Y3018D01*
X322Y3017D02*
X405Y3017D01*
X2500Y3017D02*
X2583Y3017D01*
X322Y3016D02*
X405Y3016D01*
X2500Y3016D02*
X2583Y3016D01*
X322Y3015D02*
X405Y3015D01*
X2500Y3015D02*
X2583Y3015D01*
X322Y3014D02*
X405Y3014D01*
X2500Y3014D02*
X2583Y3014D01*
X322Y3013D02*
X405Y3013D01*
X2500Y3013D02*
X2583Y3013D01*
X322Y3012D02*
X405Y3012D01*
X2500Y3012D02*
X2583Y3012D01*
X322Y3011D02*
X405Y3011D01*
X2500Y3011D02*
X2583Y3011D01*
X322Y3010D02*
X405Y3010D01*
X2500Y3010D02*
X2583Y3010D01*
X322Y3009D02*
X405Y3009D01*
X2500Y3009D02*
X2583Y3009D01*
X322Y3008D02*
X405Y3008D01*
X2500Y3008D02*
X2583Y3008D01*
X322Y3007D02*
X405Y3007D01*
X2500Y3007D02*
X2583Y3007D01*
X322Y3006D02*
X405Y3006D01*
X2500Y3006D02*
X2583Y3006D01*
X322Y3005D02*
X405Y3005D01*
X2500Y3005D02*
X2583Y3005D01*
X322Y3004D02*
X405Y3004D01*
X2500Y3004D02*
X2583Y3004D01*
X322Y3003D02*
X405Y3003D01*
X2500Y3003D02*
X2583Y3003D01*
X322Y3002D02*
X405Y3002D01*
X2500Y3002D02*
X2583Y3002D01*
X322Y3001D02*
X405Y3001D01*
X2500Y3001D02*
X2583Y3001D01*
X322Y3000D02*
X405Y3000D01*
X2500Y3000D02*
X2583Y3000D01*
X322Y2999D02*
X405Y2999D01*
X2500Y2999D02*
X2583Y2999D01*
X322Y2998D02*
X405Y2998D01*
X2500Y2998D02*
X2583Y2998D01*
X322Y2997D02*
X405Y2997D01*
X2500Y2997D02*
X2583Y2997D01*
X322Y2996D02*
X405Y2996D01*
X2500Y2996D02*
X2583Y2996D01*
X322Y2042D02*
X405Y2042D01*
X2500Y2042D02*
X2583Y2042D01*
X322Y2041D02*
X405Y2041D01*
X2500Y2041D02*
X2583Y2041D01*
X322Y2040D02*
X405Y2040D01*
X2500Y2040D02*
X2583Y2040D01*
X322Y2039D02*
X405Y2039D01*
X2500Y2039D02*
X2583Y2039D01*
X322Y2038D02*
X405Y2038D01*
X2500Y2038D02*
X2583Y2038D01*
X322Y2037D02*
X405Y2037D01*
X2500Y2037D02*
X2583Y2037D01*
X322Y2036D02*
X405Y2036D01*
X2500Y2036D02*
X2583Y2036D01*
X322Y2035D02*
X405Y2035D01*
X2500Y2035D02*
X2583Y2035D01*
X322Y2034D02*
X405Y2034D01*
X2500Y2034D02*
X2583Y2034D01*
X322Y2033D02*
X405Y2033D01*
X2500Y2033D02*
X2583Y2033D01*
X322Y2032D02*
X405Y2032D01*
X2500Y2032D02*
X2583Y2032D01*
X322Y2031D02*
X405Y2031D01*
X2500Y2031D02*
X2583Y2031D01*
X322Y2030D02*
X405Y2030D01*
X2500Y2030D02*
X2583Y2030D01*
X322Y2029D02*
X405Y2029D01*
X2500Y2029D02*
X2583Y2029D01*
X322Y2028D02*
X405Y2028D01*
X2500Y2028D02*
X2583Y2028D01*
X322Y2027D02*
X405Y2027D01*
X2500Y2027D02*
X2583Y2027D01*
X322Y2026D02*
X405Y2026D01*
X2500Y2026D02*
X2583Y2026D01*
X322Y2025D02*
X405Y2025D01*
X2500Y2025D02*
X2583Y2025D01*
X322Y2024D02*
X405Y2024D01*
X2500Y2024D02*
X2583Y2024D01*
X322Y2023D02*
X405Y2023D01*
X2500Y2023D02*
X2583Y2023D01*
X322Y2022D02*
X405Y2022D01*
X2500Y2022D02*
X2583Y2022D01*
X322Y2021D02*
X405Y2021D01*
X2500Y2021D02*
X2583Y2021D01*
X322Y2020D02*
X405Y2020D01*
X2500Y2020D02*
X2583Y2020D01*
X322Y2019D02*
X405Y2019D01*
X2500Y2019D02*
X2583Y2019D01*
X322Y2018D02*
X405Y2018D01*
X2500Y2018D02*
X2583Y2018D01*
X322Y2017D02*
X405Y2017D01*
X2500Y2017D02*
X2583Y2017D01*
X322Y2016D02*
X405Y2016D01*
X2500Y2016D02*
X2583Y2016D01*
X322Y2015D02*
X360Y2015D01*
X367Y2015D02*
X405Y2015D01*
X2500Y2015D02*
X2538Y2015D01*
X2545Y2015D02*
X2583Y2015D01*
X322Y2014D02*
X357Y2014D01*
X370Y2014D02*
X405Y2014D01*
X2500Y2014D02*
X2534Y2014D01*
X2548Y2014D02*
X2583Y2014D01*
X322Y2013D02*
X355Y2013D01*
X372Y2013D02*
X405Y2013D01*
X2500Y2013D02*
X2532Y2013D01*
X2550Y2013D02*
X2583Y2013D01*
X322Y2012D02*
X353Y2012D01*
X374Y2012D02*
X405Y2012D01*
X2500Y2012D02*
X2531Y2012D01*
X2551Y2012D02*
X2583Y2012D01*
X322Y2011D02*
X352Y2011D01*
X375Y2011D02*
X405Y2011D01*
X2500Y2011D02*
X2530Y2011D01*
X2553Y2011D02*
X2583Y2011D01*
X322Y2010D02*
X351Y2010D01*
X376Y2010D02*
X405Y2010D01*
X2500Y2010D02*
X2529Y2010D01*
X2553Y2010D02*
X2583Y2010D01*
X322Y2009D02*
X351Y2009D01*
X376Y2009D02*
X405Y2009D01*
X2500Y2009D02*
X2528Y2009D01*
X2554Y2009D02*
X2583Y2009D01*
X322Y2008D02*
X350Y2008D01*
X377Y2008D02*
X405Y2008D01*
X2500Y2008D02*
X2528Y2008D01*
X2555Y2008D02*
X2583Y2008D01*
X322Y2007D02*
X350Y2007D01*
X377Y2007D02*
X405Y2007D01*
X2500Y2007D02*
X2527Y2007D01*
X2555Y2007D02*
X2583Y2007D01*
X322Y2006D02*
X349Y2006D01*
X378Y2006D02*
X405Y2006D01*
X2500Y2006D02*
X2527Y2006D01*
X2556Y2006D02*
X2583Y2006D01*
X322Y2005D02*
X349Y2005D01*
X378Y2005D02*
X405Y2005D01*
X2500Y2005D02*
X2527Y2005D01*
X2556Y2005D02*
X2583Y2005D01*
X322Y2004D02*
X349Y2004D01*
X378Y2004D02*
X405Y2004D01*
X2500Y2004D02*
X2526Y2004D01*
X2556Y2004D02*
X2583Y2004D01*
X322Y2003D02*
X349Y2003D01*
X379Y2003D02*
X405Y2003D01*
X2500Y2003D02*
X2526Y2003D01*
X2556Y2003D02*
X2583Y2003D01*
X322Y2002D02*
X348Y2002D01*
X379Y2002D02*
X405Y2002D01*
X2500Y2002D02*
X2526Y2002D01*
X2556Y2002D02*
X2583Y2002D01*
X322Y2001D02*
X348Y2001D01*
X379Y2001D02*
X405Y2001D01*
X2500Y2001D02*
X2526Y2001D01*
X2556Y2001D02*
X2583Y2001D01*
X322Y2000D02*
X348Y2000D01*
X379Y2000D02*
X405Y2000D01*
X2500Y2000D02*
X2526Y2000D01*
X2556Y2000D02*
X2583Y2000D01*
X322Y1999D02*
X348Y1999D01*
X379Y1999D02*
X405Y1999D01*
X2500Y1999D02*
X2526Y1999D01*
X2556Y1999D02*
X2583Y1999D01*
X322Y1998D02*
X349Y1998D01*
X378Y1998D02*
X405Y1998D01*
X2500Y1998D02*
X2526Y1998D01*
X2556Y1998D02*
X2583Y1998D01*
X322Y1997D02*
X349Y1997D01*
X378Y1997D02*
X405Y1997D01*
X2500Y1997D02*
X2527Y1997D01*
X2556Y1997D02*
X2583Y1997D01*
X322Y1996D02*
X349Y1996D01*
X378Y1996D02*
X405Y1996D01*
X2500Y1996D02*
X2527Y1996D01*
X2556Y1996D02*
X2583Y1996D01*
X322Y1995D02*
X349Y1995D01*
X378Y1995D02*
X405Y1995D01*
X2500Y1995D02*
X2527Y1995D01*
X2556Y1995D02*
X2583Y1995D01*
X322Y1994D02*
X350Y1994D01*
X377Y1994D02*
X405Y1994D01*
X2500Y1994D02*
X2527Y1994D01*
X2555Y1994D02*
X2583Y1994D01*
X322Y1993D02*
X350Y1993D01*
X377Y1993D02*
X405Y1993D01*
X2500Y1993D02*
X2528Y1993D01*
X2555Y1993D02*
X2583Y1993D01*
X322Y1992D02*
X351Y1992D01*
X376Y1992D02*
X405Y1992D01*
X2500Y1992D02*
X2529Y1992D01*
X2554Y1992D02*
X2583Y1992D01*
X322Y1991D02*
X352Y1991D01*
X376Y1991D02*
X405Y1991D01*
X2500Y1991D02*
X2529Y1991D01*
X2553Y1991D02*
X2583Y1991D01*
X322Y1990D02*
X352Y1990D01*
X375Y1990D02*
X405Y1990D01*
X2500Y1990D02*
X2530Y1990D01*
X2552Y1990D02*
X2583Y1990D01*
X322Y1989D02*
X354Y1989D01*
X374Y1989D02*
X405Y1989D01*
X2500Y1989D02*
X2531Y1989D01*
X2551Y1989D02*
X2583Y1989D01*
X322Y1988D02*
X355Y1988D01*
X372Y1988D02*
X405Y1988D01*
X2500Y1988D02*
X2533Y1988D01*
X2550Y1988D02*
X2583Y1988D01*
X322Y1987D02*
X357Y1987D01*
X370Y1987D02*
X405Y1987D01*
X2500Y1987D02*
X2535Y1987D01*
X2548Y1987D02*
X2583Y1987D01*
X322Y1986D02*
X362Y1986D01*
X365Y1986D02*
X405Y1986D01*
X2500Y1986D02*
X2540Y1986D01*
X2543Y1986D02*
X2583Y1986D01*
X322Y1985D02*
X405Y1985D01*
X2500Y1985D02*
X2583Y1985D01*
X322Y1984D02*
X405Y1984D01*
X2500Y1984D02*
X2583Y1984D01*
X322Y1983D02*
X405Y1983D01*
X2500Y1983D02*
X2583Y1983D01*
X322Y1982D02*
X405Y1982D01*
X2500Y1982D02*
X2583Y1982D01*
X322Y1981D02*
X405Y1981D01*
X2500Y1981D02*
X2583Y1981D01*
X322Y1980D02*
X405Y1980D01*
X2500Y1980D02*
X2583Y1980D01*
X322Y1979D02*
X405Y1979D01*
X2500Y1979D02*
X2583Y1979D01*
X322Y1978D02*
X405Y1978D01*
X2500Y1978D02*
X2583Y1978D01*
X322Y1977D02*
X405Y1977D01*
X2500Y1977D02*
X2583Y1977D01*
X322Y1976D02*
X405Y1976D01*
X2500Y1976D02*
X2583Y1976D01*
X322Y1975D02*
X405Y1975D01*
X2500Y1975D02*
X2583Y1975D01*
X322Y1974D02*
X405Y1974D01*
X2500Y1974D02*
X2583Y1974D01*
X322Y1973D02*
X405Y1973D01*
X2500Y1973D02*
X2583Y1973D01*
X322Y1972D02*
X405Y1972D01*
X2500Y1972D02*
X2583Y1972D01*
X322Y1971D02*
X405Y1971D01*
X2500Y1971D02*
X2583Y1971D01*
X322Y1970D02*
X405Y1970D01*
X2500Y1970D02*
X2583Y1970D01*
X322Y1969D02*
X405Y1969D01*
X2500Y1969D02*
X2583Y1969D01*
X322Y1968D02*
X405Y1968D01*
X2500Y1968D02*
X2583Y1968D01*
X322Y1967D02*
X405Y1967D01*
X2500Y1967D02*
X2583Y1967D01*
X322Y1966D02*
X405Y1966D01*
X2500Y1966D02*
X2583Y1966D01*
X322Y1965D02*
X405Y1965D01*
X2500Y1965D02*
X2583Y1965D01*
X322Y1964D02*
X405Y1964D01*
X2500Y1964D02*
X2583Y1964D01*
X322Y1963D02*
X405Y1963D01*
X2500Y1963D02*
X2583Y1963D01*
X322Y1962D02*
X405Y1962D01*
X2500Y1962D02*
X2583Y1962D01*
X322Y1961D02*
X405Y1961D01*
X2500Y1961D02*
X2583Y1961D01*
X322Y1960D02*
X405Y1960D01*
X2500Y1960D02*
X2583Y1960D01*
X322Y1959D02*
X405Y1959D01*
X2500Y1959D02*
X2583Y1959D01*
X3704Y1546D02*
X3786Y1546D01*
X3703Y1545D02*
X3786Y1545D01*
X3703Y1544D02*
X3786Y1544D01*
X3703Y1543D02*
X3786Y1543D01*
X3703Y1542D02*
X3786Y1542D01*
X3703Y1541D02*
X3786Y1541D01*
X3703Y1540D02*
X3786Y1540D01*
X3703Y1539D02*
X3786Y1539D01*
X3703Y1538D02*
X3786Y1538D01*
X3703Y1537D02*
X3786Y1537D01*
X3703Y1536D02*
X3786Y1536D01*
X3703Y1535D02*
X3786Y1535D01*
X3703Y1534D02*
X3786Y1534D01*
X3703Y1533D02*
X3786Y1533D01*
X3703Y1532D02*
X3786Y1532D01*
X3703Y1531D02*
X3786Y1531D01*
X3703Y1530D02*
X3786Y1530D01*
X3703Y1529D02*
X3786Y1529D01*
X3703Y1528D02*
X3786Y1528D01*
X3703Y1527D02*
X3786Y1527D01*
X3703Y1526D02*
X3786Y1526D01*
X3703Y1525D02*
X3786Y1525D01*
X3703Y1524D02*
X3786Y1524D01*
X3703Y1523D02*
X3786Y1523D01*
X3703Y1522D02*
X3786Y1522D01*
X3703Y1521D02*
X3786Y1521D01*
X3703Y1520D02*
X3786Y1520D01*
X3703Y1519D02*
X3786Y1519D01*
X3703Y1518D02*
X3739Y1518D01*
X3751Y1518D02*
X3786Y1518D01*
X3703Y1517D02*
X3737Y1517D01*
X3753Y1517D02*
X3786Y1517D01*
X3703Y1516D02*
X3735Y1516D01*
X3755Y1516D02*
X3786Y1516D01*
X3703Y1515D02*
X3734Y1515D01*
X3756Y1515D02*
X3786Y1515D01*
X3703Y1514D02*
X3733Y1514D01*
X3757Y1514D02*
X3786Y1514D01*
X3703Y1513D02*
X3732Y1513D01*
X3757Y1513D02*
X3786Y1513D01*
X3703Y1512D02*
X3732Y1512D01*
X3758Y1512D02*
X3786Y1512D01*
X3703Y1511D02*
X3731Y1511D01*
X3759Y1511D02*
X3786Y1511D01*
X3703Y1510D02*
X3731Y1510D01*
X3759Y1510D02*
X3786Y1510D01*
X3703Y1509D02*
X3730Y1509D01*
X3759Y1509D02*
X3786Y1509D01*
X3703Y1508D02*
X3730Y1508D01*
X3760Y1508D02*
X3786Y1508D01*
X3703Y1507D02*
X3730Y1507D01*
X3760Y1507D02*
X3786Y1507D01*
X3703Y1506D02*
X3730Y1506D01*
X3760Y1506D02*
X3786Y1506D01*
X3703Y1505D02*
X3730Y1505D01*
X3760Y1505D02*
X3786Y1505D01*
X3703Y1504D02*
X3730Y1504D01*
X3760Y1504D02*
X3786Y1504D01*
X3703Y1503D02*
X3730Y1503D01*
X3760Y1503D02*
X3786Y1503D01*
X3703Y1502D02*
X3730Y1502D01*
X3760Y1502D02*
X3786Y1502D01*
X3703Y1501D02*
X3730Y1501D01*
X3760Y1501D02*
X3786Y1501D01*
X3703Y1500D02*
X3730Y1500D01*
X3759Y1500D02*
X3786Y1500D01*
X3703Y1499D02*
X3730Y1499D01*
X3759Y1499D02*
X3786Y1499D01*
X3703Y1498D02*
X3731Y1498D01*
X3759Y1498D02*
X3786Y1498D01*
X3703Y1497D02*
X3731Y1497D01*
X3758Y1497D02*
X3786Y1497D01*
X3703Y1496D02*
X3732Y1496D01*
X3758Y1496D02*
X3786Y1496D01*
X3703Y1495D02*
X3733Y1495D01*
X3757Y1495D02*
X3786Y1495D01*
X3703Y1494D02*
X3733Y1494D01*
X3756Y1494D02*
X3786Y1494D01*
X3703Y1493D02*
X3734Y1493D01*
X3755Y1493D02*
X3786Y1493D01*
X3703Y1492D02*
X3736Y1492D01*
X3754Y1492D02*
X3786Y1492D01*
X3703Y1491D02*
X3737Y1491D01*
X3752Y1491D02*
X3786Y1491D01*
X3703Y1490D02*
X3740Y1490D01*
X3749Y1490D02*
X3786Y1490D01*
X3703Y1489D02*
X3786Y1489D01*
X3703Y1488D02*
X3786Y1488D01*
X3703Y1487D02*
X3786Y1487D01*
X3703Y1486D02*
X3786Y1486D01*
X3703Y1485D02*
X3786Y1485D01*
X3703Y1484D02*
X3786Y1484D01*
X3703Y1483D02*
X3786Y1483D01*
X3703Y1482D02*
X3786Y1482D01*
X3703Y1481D02*
X3786Y1481D01*
X3703Y1480D02*
X3786Y1480D01*
X3703Y1479D02*
X3786Y1479D01*
X3703Y1478D02*
X3786Y1478D01*
X3703Y1477D02*
X3786Y1477D01*
X3703Y1476D02*
X3786Y1476D01*
X3703Y1475D02*
X3786Y1475D01*
X3703Y1474D02*
X3786Y1474D01*
X3703Y1473D02*
X3786Y1473D01*
X3703Y1472D02*
X3786Y1472D01*
X3703Y1471D02*
X3786Y1471D01*
X3703Y1470D02*
X3786Y1470D01*
X3703Y1469D02*
X3786Y1469D01*
X3703Y1468D02*
X3786Y1468D01*
X3703Y1467D02*
X3786Y1467D01*
X3703Y1466D02*
X3786Y1466D01*
X3703Y1465D02*
X3786Y1465D01*
X3703Y1464D02*
X3786Y1464D01*
X3703Y1463D02*
X3786Y1463D01*
X322Y1309D02*
X405Y1309D01*
X322Y1308D02*
X405Y1308D01*
X322Y1307D02*
X405Y1307D01*
X322Y1306D02*
X405Y1306D01*
X322Y1305D02*
X405Y1305D01*
X322Y1304D02*
X405Y1304D01*
X322Y1303D02*
X405Y1303D01*
X322Y1302D02*
X405Y1302D01*
X322Y1301D02*
X405Y1301D01*
X322Y1300D02*
X405Y1300D01*
X322Y1299D02*
X405Y1299D01*
X322Y1298D02*
X405Y1298D01*
X322Y1297D02*
X405Y1297D01*
X322Y1296D02*
X405Y1296D01*
X322Y1295D02*
X405Y1295D01*
X322Y1294D02*
X405Y1294D01*
X2500Y1294D02*
X2583Y1294D01*
X322Y1293D02*
X405Y1293D01*
X2500Y1293D02*
X2583Y1293D01*
X322Y1292D02*
X405Y1292D01*
X2500Y1292D02*
X2583Y1292D01*
X322Y1291D02*
X405Y1291D01*
X2500Y1291D02*
X2583Y1291D01*
X322Y1290D02*
X405Y1290D01*
X2500Y1290D02*
X2583Y1290D01*
X322Y1289D02*
X405Y1289D01*
X2500Y1289D02*
X2583Y1289D01*
X322Y1288D02*
X405Y1288D01*
X2500Y1288D02*
X2583Y1288D01*
X322Y1287D02*
X405Y1287D01*
X2500Y1287D02*
X2583Y1287D01*
X322Y1286D02*
X405Y1286D01*
X2500Y1286D02*
X2583Y1286D01*
X322Y1285D02*
X405Y1285D01*
X2500Y1285D02*
X2583Y1285D01*
X322Y1284D02*
X405Y1284D01*
X2500Y1284D02*
X2583Y1284D01*
X322Y1283D02*
X405Y1283D01*
X2500Y1283D02*
X2583Y1283D01*
X322Y1282D02*
X405Y1282D01*
X2500Y1282D02*
X2583Y1282D01*
X322Y1281D02*
X357Y1281D01*
X370Y1281D02*
X405Y1281D01*
X2500Y1281D02*
X2583Y1281D01*
X322Y1280D02*
X355Y1280D01*
X372Y1280D02*
X405Y1280D01*
X2500Y1280D02*
X2583Y1280D01*
X322Y1279D02*
X354Y1279D01*
X373Y1279D02*
X405Y1279D01*
X2500Y1279D02*
X2583Y1279D01*
X322Y1278D02*
X352Y1278D01*
X375Y1278D02*
X405Y1278D01*
X2500Y1278D02*
X2583Y1278D01*
X322Y1277D02*
X352Y1277D01*
X375Y1277D02*
X405Y1277D01*
X2500Y1277D02*
X2583Y1277D01*
X322Y1276D02*
X351Y1276D01*
X376Y1276D02*
X405Y1276D01*
X2500Y1276D02*
X2583Y1276D01*
X322Y1275D02*
X350Y1275D01*
X377Y1275D02*
X405Y1275D01*
X2500Y1275D02*
X2583Y1275D01*
X322Y1274D02*
X350Y1274D01*
X377Y1274D02*
X405Y1274D01*
X2500Y1274D02*
X2583Y1274D01*
X322Y1273D02*
X349Y1273D01*
X378Y1273D02*
X405Y1273D01*
X2500Y1273D02*
X2583Y1273D01*
X322Y1272D02*
X349Y1272D01*
X378Y1272D02*
X405Y1272D01*
X2500Y1272D02*
X2583Y1272D01*
X322Y1271D02*
X349Y1271D01*
X378Y1271D02*
X405Y1271D01*
X2500Y1271D02*
X2583Y1271D01*
X322Y1270D02*
X349Y1270D01*
X378Y1270D02*
X405Y1270D01*
X2500Y1270D02*
X2583Y1270D01*
X322Y1269D02*
X349Y1269D01*
X379Y1269D02*
X405Y1269D01*
X2500Y1269D02*
X2583Y1269D01*
X322Y1268D02*
X348Y1268D01*
X379Y1268D02*
X405Y1268D01*
X2500Y1268D02*
X2583Y1268D01*
X322Y1267D02*
X348Y1267D01*
X379Y1267D02*
X405Y1267D01*
X2500Y1267D02*
X2539Y1267D01*
X2544Y1267D02*
X2583Y1267D01*
X322Y1266D02*
X348Y1266D01*
X379Y1266D02*
X405Y1266D01*
X2500Y1266D02*
X2535Y1266D01*
X2548Y1266D02*
X2583Y1266D01*
X322Y1265D02*
X349Y1265D01*
X379Y1265D02*
X405Y1265D01*
X2500Y1265D02*
X2533Y1265D01*
X2550Y1265D02*
X2583Y1265D01*
X322Y1264D02*
X349Y1264D01*
X378Y1264D02*
X405Y1264D01*
X2500Y1264D02*
X2531Y1264D01*
X2551Y1264D02*
X2583Y1264D01*
X322Y1263D02*
X349Y1263D01*
X378Y1263D02*
X405Y1263D01*
X2500Y1263D02*
X2530Y1263D01*
X2553Y1263D02*
X2583Y1263D01*
X322Y1262D02*
X349Y1262D01*
X378Y1262D02*
X405Y1262D01*
X2500Y1262D02*
X2529Y1262D01*
X2553Y1262D02*
X2583Y1262D01*
X322Y1261D02*
X350Y1261D01*
X378Y1261D02*
X405Y1261D01*
X2500Y1261D02*
X2528Y1261D01*
X2554Y1261D02*
X2583Y1261D01*
X322Y1260D02*
X350Y1260D01*
X377Y1260D02*
X405Y1260D01*
X2500Y1260D02*
X2528Y1260D01*
X2555Y1260D02*
X2583Y1260D01*
X322Y1259D02*
X351Y1259D01*
X376Y1259D02*
X405Y1259D01*
X2500Y1259D02*
X2527Y1259D01*
X2555Y1259D02*
X2583Y1259D01*
X322Y1258D02*
X351Y1258D01*
X376Y1258D02*
X405Y1258D01*
X2500Y1258D02*
X2527Y1258D01*
X2556Y1258D02*
X2583Y1258D01*
X322Y1257D02*
X352Y1257D01*
X375Y1257D02*
X405Y1257D01*
X2500Y1257D02*
X2527Y1257D01*
X2556Y1257D02*
X2583Y1257D01*
X322Y1256D02*
X353Y1256D01*
X374Y1256D02*
X405Y1256D01*
X2500Y1256D02*
X2527Y1256D01*
X2556Y1256D02*
X2583Y1256D01*
X322Y1255D02*
X355Y1255D01*
X373Y1255D02*
X405Y1255D01*
X2500Y1255D02*
X2526Y1255D01*
X2556Y1255D02*
X2583Y1255D01*
X322Y1254D02*
X356Y1254D01*
X371Y1254D02*
X405Y1254D01*
X2500Y1254D02*
X2526Y1254D01*
X2556Y1254D02*
X2583Y1254D01*
X322Y1253D02*
X360Y1253D01*
X368Y1253D02*
X405Y1253D01*
X2500Y1253D02*
X2526Y1253D01*
X2556Y1253D02*
X2583Y1253D01*
X322Y1252D02*
X405Y1252D01*
X2500Y1252D02*
X2526Y1252D01*
X2556Y1252D02*
X2583Y1252D01*
X322Y1251D02*
X405Y1251D01*
X2500Y1251D02*
X2526Y1251D01*
X2556Y1251D02*
X2583Y1251D01*
X322Y1250D02*
X405Y1250D01*
X2500Y1250D02*
X2526Y1250D01*
X2556Y1250D02*
X2583Y1250D01*
X322Y1249D02*
X405Y1249D01*
X2500Y1249D02*
X2527Y1249D01*
X2556Y1249D02*
X2583Y1249D01*
X322Y1248D02*
X405Y1248D01*
X2500Y1248D02*
X2527Y1248D01*
X2556Y1248D02*
X2583Y1248D01*
X322Y1247D02*
X405Y1247D01*
X2500Y1247D02*
X2527Y1247D01*
X2556Y1247D02*
X2583Y1247D01*
X322Y1246D02*
X405Y1246D01*
X2500Y1246D02*
X2527Y1246D01*
X2555Y1246D02*
X2583Y1246D01*
X322Y1245D02*
X405Y1245D01*
X2500Y1245D02*
X2528Y1245D01*
X2555Y1245D02*
X2583Y1245D01*
X322Y1244D02*
X405Y1244D01*
X2500Y1244D02*
X2528Y1244D01*
X2554Y1244D02*
X2583Y1244D01*
X322Y1243D02*
X405Y1243D01*
X2500Y1243D02*
X2529Y1243D01*
X2553Y1243D02*
X2583Y1243D01*
X322Y1242D02*
X405Y1242D01*
X2500Y1242D02*
X2530Y1242D01*
X2553Y1242D02*
X2583Y1242D01*
X322Y1241D02*
X405Y1241D01*
X2500Y1241D02*
X2531Y1241D01*
X2551Y1241D02*
X2583Y1241D01*
X322Y1240D02*
X405Y1240D01*
X2500Y1240D02*
X2533Y1240D01*
X2550Y1240D02*
X2583Y1240D01*
X322Y1239D02*
X405Y1239D01*
X2500Y1239D02*
X2535Y1239D01*
X2548Y1239D02*
X2583Y1239D01*
X322Y1238D02*
X405Y1238D01*
X2500Y1238D02*
X2539Y1238D01*
X2544Y1238D02*
X2583Y1238D01*
X322Y1237D02*
X405Y1237D01*
X2500Y1237D02*
X2583Y1237D01*
X322Y1236D02*
X405Y1236D01*
X2500Y1236D02*
X2583Y1236D01*
X322Y1235D02*
X405Y1235D01*
X2500Y1235D02*
X2583Y1235D01*
X322Y1234D02*
X405Y1234D01*
X2500Y1234D02*
X2583Y1234D01*
X322Y1233D02*
X405Y1233D01*
X2500Y1233D02*
X2583Y1233D01*
X322Y1232D02*
X405Y1232D01*
X2500Y1232D02*
X2583Y1232D01*
X322Y1231D02*
X405Y1231D01*
X2500Y1231D02*
X2583Y1231D01*
X322Y1230D02*
X405Y1230D01*
X2500Y1230D02*
X2583Y1230D01*
X322Y1229D02*
X405Y1229D01*
X2500Y1229D02*
X2583Y1229D01*
X322Y1228D02*
X405Y1228D01*
X2500Y1228D02*
X2583Y1228D01*
X322Y1227D02*
X405Y1227D01*
X2500Y1227D02*
X2583Y1227D01*
X322Y1226D02*
X405Y1226D01*
X2500Y1226D02*
X2583Y1226D01*
X2500Y1225D02*
X2583Y1225D01*
X2500Y1224D02*
X2583Y1224D01*
X2500Y1223D02*
X2583Y1223D01*
X2500Y1222D02*
X2583Y1222D01*
X2500Y1221D02*
X2583Y1221D01*
X2500Y1220D02*
X2583Y1220D01*
X2500Y1219D02*
X2583Y1219D01*
X2500Y1218D02*
X2583Y1218D01*
X2500Y1217D02*
X2583Y1217D01*
X2500Y1216D02*
X2583Y1216D01*
X2500Y1215D02*
X2583Y1215D01*
X2500Y1214D02*
X2583Y1214D01*
X2500Y1213D02*
X2583Y1213D01*
X2500Y1212D02*
X2583Y1212D01*
X2500Y1211D02*
X2583Y1211D01*
X322Y568D02*
X405Y568D01*
X322Y567D02*
X405Y567D01*
X322Y566D02*
X405Y566D01*
X322Y565D02*
X405Y565D01*
X322Y564D02*
X405Y564D01*
X322Y563D02*
X405Y563D01*
X322Y562D02*
X405Y562D01*
X322Y561D02*
X405Y561D01*
X322Y560D02*
X405Y560D01*
X322Y559D02*
X405Y559D01*
X322Y558D02*
X405Y558D01*
X322Y557D02*
X405Y557D01*
X322Y556D02*
X405Y556D01*
X322Y555D02*
X405Y555D01*
X322Y554D02*
X405Y554D01*
X322Y553D02*
X405Y553D01*
X2500Y553D02*
X2583Y553D01*
X322Y552D02*
X405Y552D01*
X2500Y552D02*
X2583Y552D01*
X322Y551D02*
X405Y551D01*
X2500Y551D02*
X2583Y551D01*
X322Y550D02*
X405Y550D01*
X2500Y550D02*
X2583Y550D01*
X322Y549D02*
X405Y549D01*
X2500Y549D02*
X2583Y549D01*
X322Y548D02*
X405Y548D01*
X2500Y548D02*
X2583Y548D01*
X322Y547D02*
X405Y547D01*
X2500Y547D02*
X2583Y547D01*
X322Y546D02*
X405Y546D01*
X2500Y546D02*
X2583Y546D01*
X322Y545D02*
X405Y545D01*
X2500Y545D02*
X2583Y545D01*
X322Y544D02*
X405Y544D01*
X2500Y544D02*
X2583Y544D01*
X322Y543D02*
X405Y543D01*
X2500Y543D02*
X2583Y543D01*
X322Y542D02*
X405Y542D01*
X2500Y542D02*
X2583Y542D01*
X322Y541D02*
X360Y541D01*
X367Y541D02*
X405Y541D01*
X2500Y541D02*
X2583Y541D01*
X322Y540D02*
X357Y540D01*
X371Y540D02*
X405Y540D01*
X2500Y540D02*
X2583Y540D01*
X322Y539D02*
X355Y539D01*
X372Y539D02*
X405Y539D01*
X2500Y539D02*
X2583Y539D01*
X322Y538D02*
X353Y538D01*
X374Y538D02*
X405Y538D01*
X2500Y538D02*
X2583Y538D01*
X322Y537D02*
X352Y537D01*
X375Y537D02*
X405Y537D01*
X2500Y537D02*
X2583Y537D01*
X322Y536D02*
X351Y536D01*
X376Y536D02*
X405Y536D01*
X2500Y536D02*
X2583Y536D01*
X322Y535D02*
X351Y535D01*
X376Y535D02*
X405Y535D01*
X2500Y535D02*
X2583Y535D01*
X322Y534D02*
X350Y534D01*
X377Y534D02*
X405Y534D01*
X2500Y534D02*
X2583Y534D01*
X322Y533D02*
X350Y533D01*
X377Y533D02*
X405Y533D01*
X2500Y533D02*
X2583Y533D01*
X322Y532D02*
X349Y532D01*
X378Y532D02*
X405Y532D01*
X2500Y532D02*
X2583Y532D01*
X322Y531D02*
X349Y531D01*
X378Y531D02*
X405Y531D01*
X2500Y531D02*
X2583Y531D01*
X322Y530D02*
X349Y530D01*
X378Y530D02*
X405Y530D01*
X2500Y530D02*
X2583Y530D01*
X322Y529D02*
X349Y529D01*
X379Y529D02*
X405Y529D01*
X2500Y529D02*
X2583Y529D01*
X322Y528D02*
X348Y528D01*
X379Y528D02*
X405Y528D01*
X2500Y528D02*
X2583Y528D01*
X322Y527D02*
X348Y527D01*
X379Y527D02*
X405Y527D01*
X2500Y527D02*
X2583Y527D01*
X322Y526D02*
X348Y526D01*
X379Y526D02*
X405Y526D01*
X2500Y526D02*
X2537Y526D01*
X2546Y526D02*
X2583Y526D01*
X322Y525D02*
X348Y525D01*
X379Y525D02*
X405Y525D01*
X2500Y525D02*
X2534Y525D01*
X2549Y525D02*
X2583Y525D01*
X322Y524D02*
X349Y524D01*
X378Y524D02*
X405Y524D01*
X2500Y524D02*
X2532Y524D01*
X2551Y524D02*
X2583Y524D01*
X322Y523D02*
X349Y523D01*
X378Y523D02*
X405Y523D01*
X2500Y523D02*
X2531Y523D01*
X2552Y523D02*
X2583Y523D01*
X322Y522D02*
X349Y522D01*
X378Y522D02*
X405Y522D01*
X2500Y522D02*
X2530Y522D01*
X2553Y522D02*
X2583Y522D01*
X322Y521D02*
X349Y521D01*
X378Y521D02*
X405Y521D01*
X2500Y521D02*
X2529Y521D01*
X2554Y521D02*
X2583Y521D01*
X322Y520D02*
X350Y520D01*
X377Y520D02*
X405Y520D01*
X2500Y520D02*
X2528Y520D01*
X2554Y520D02*
X2583Y520D01*
X322Y519D02*
X350Y519D01*
X377Y519D02*
X405Y519D01*
X2500Y519D02*
X2528Y519D01*
X2555Y519D02*
X2583Y519D01*
X322Y518D02*
X351Y518D01*
X376Y518D02*
X405Y518D01*
X2500Y518D02*
X2527Y518D01*
X2555Y518D02*
X2583Y518D01*
X322Y517D02*
X352Y517D01*
X375Y517D02*
X405Y517D01*
X2500Y517D02*
X2527Y517D01*
X2556Y517D02*
X2583Y517D01*
X322Y516D02*
X352Y516D01*
X375Y516D02*
X405Y516D01*
X2500Y516D02*
X2527Y516D01*
X2556Y516D02*
X2583Y516D01*
X322Y515D02*
X354Y515D01*
X373Y515D02*
X405Y515D01*
X2500Y515D02*
X2526Y515D01*
X2556Y515D02*
X2583Y515D01*
X322Y514D02*
X355Y514D01*
X372Y514D02*
X405Y514D01*
X2500Y514D02*
X2526Y514D01*
X2556Y514D02*
X2583Y514D01*
X322Y513D02*
X357Y513D01*
X370Y513D02*
X405Y513D01*
X2500Y513D02*
X2526Y513D01*
X2556Y513D02*
X2583Y513D01*
X322Y512D02*
X363Y512D01*
X365Y512D02*
X405Y512D01*
X2500Y512D02*
X2526Y512D01*
X2556Y512D02*
X2583Y512D01*
X322Y511D02*
X405Y511D01*
X2500Y511D02*
X2526Y511D01*
X2556Y511D02*
X2583Y511D01*
X322Y510D02*
X405Y510D01*
X2500Y510D02*
X2526Y510D01*
X2556Y510D02*
X2583Y510D01*
X322Y509D02*
X405Y509D01*
X2500Y509D02*
X2526Y509D01*
X2556Y509D02*
X2583Y509D01*
X322Y508D02*
X405Y508D01*
X2500Y508D02*
X2527Y508D01*
X2556Y508D02*
X2583Y508D01*
X322Y507D02*
X405Y507D01*
X2500Y507D02*
X2527Y507D01*
X2556Y507D02*
X2583Y507D01*
X322Y506D02*
X405Y506D01*
X2500Y506D02*
X2527Y506D01*
X2555Y506D02*
X2583Y506D01*
X322Y505D02*
X405Y505D01*
X2500Y505D02*
X2528Y505D01*
X2555Y505D02*
X2583Y505D01*
X322Y504D02*
X405Y504D01*
X2500Y504D02*
X2528Y504D01*
X2555Y504D02*
X2583Y504D01*
X322Y503D02*
X405Y503D01*
X2500Y503D02*
X2529Y503D01*
X2554Y503D02*
X2583Y503D01*
X322Y502D02*
X405Y502D01*
X2500Y502D02*
X2530Y502D01*
X2553Y502D02*
X2583Y502D01*
X322Y501D02*
X405Y501D01*
X2500Y501D02*
X2530Y501D01*
X2552Y501D02*
X2583Y501D01*
X322Y500D02*
X405Y500D01*
X2500Y500D02*
X2532Y500D01*
X2551Y500D02*
X2583Y500D01*
X322Y499D02*
X405Y499D01*
X2500Y499D02*
X2533Y499D01*
X2549Y499D02*
X2583Y499D01*
X322Y498D02*
X405Y498D01*
X2500Y498D02*
X2536Y498D01*
X2547Y498D02*
X2583Y498D01*
X322Y497D02*
X405Y497D01*
X2500Y497D02*
X2583Y497D01*
X322Y496D02*
X405Y496D01*
X2500Y496D02*
X2583Y496D01*
X322Y495D02*
X405Y495D01*
X2500Y495D02*
X2583Y495D01*
X322Y494D02*
X405Y494D01*
X2500Y494D02*
X2583Y494D01*
X322Y493D02*
X405Y493D01*
X2500Y493D02*
X2583Y493D01*
X322Y492D02*
X405Y492D01*
X2500Y492D02*
X2583Y492D01*
X322Y491D02*
X405Y491D01*
X2500Y491D02*
X2583Y491D01*
X322Y490D02*
X405Y490D01*
X2500Y490D02*
X2583Y490D01*
X322Y489D02*
X405Y489D01*
X2500Y489D02*
X2583Y489D01*
X322Y488D02*
X405Y488D01*
X2500Y488D02*
X2583Y488D01*
X322Y487D02*
X405Y487D01*
X2500Y487D02*
X2583Y487D01*
X322Y486D02*
X405Y486D01*
X2500Y486D02*
X2583Y486D01*
X322Y485D02*
X405Y485D01*
X2500Y485D02*
X2583Y485D01*
X2500Y484D02*
X2583Y484D01*
X2500Y483D02*
X2583Y483D01*
X2500Y482D02*
X2583Y482D01*
X2500Y481D02*
X2583Y481D01*
X2500Y480D02*
X2583Y480D01*
X2500Y479D02*
X2583Y479D01*
X2500Y478D02*
X2583Y478D01*
X2500Y477D02*
X2583Y477D01*
X2500Y476D02*
X2583Y476D01*
X2500Y475D02*
X2583Y475D01*
X2500Y474D02*
X2583Y474D01*
X2500Y473D02*
X2583Y473D01*
X2500Y472D02*
X2583Y472D01*
X2500Y471D02*
X2583Y471D01*
X2500Y470D02*
X2583Y470D01*
X3348Y453D02*
X3431Y453D01*
X3348Y452D02*
X3431Y452D01*
X3348Y451D02*
X3431Y451D01*
X3348Y450D02*
X3431Y450D01*
X3348Y449D02*
X3431Y449D01*
X3348Y448D02*
X3431Y448D01*
X3348Y447D02*
X3431Y447D01*
X3348Y446D02*
X3431Y446D01*
X3348Y445D02*
X3431Y445D01*
X3348Y444D02*
X3431Y444D01*
X3348Y443D02*
X3431Y443D01*
X3348Y442D02*
X3431Y442D01*
X3348Y441D02*
X3431Y441D01*
X3348Y440D02*
X3431Y440D01*
X3348Y439D02*
X3431Y439D01*
X3348Y438D02*
X3431Y438D01*
X3348Y437D02*
X3431Y437D01*
X3348Y436D02*
X3431Y436D01*
X3348Y435D02*
X3431Y435D01*
X3348Y434D02*
X3431Y434D01*
X3348Y433D02*
X3431Y433D01*
X3348Y432D02*
X3431Y432D01*
X3348Y431D02*
X3431Y431D01*
X3348Y430D02*
X3431Y430D01*
X3348Y429D02*
X3431Y429D01*
X3348Y428D02*
X3431Y428D01*
X3348Y427D02*
X3431Y427D01*
X3348Y426D02*
X3384Y426D01*
X3394Y426D02*
X3431Y426D01*
X3348Y425D02*
X3382Y425D01*
X3397Y425D02*
X3431Y425D01*
X3348Y424D02*
X3380Y424D01*
X3399Y424D02*
X3431Y424D01*
X3348Y423D02*
X3379Y423D01*
X3400Y423D02*
X3431Y423D01*
X3348Y422D02*
X3378Y422D01*
X3401Y422D02*
X3431Y422D01*
X3348Y421D02*
X3377Y421D01*
X3402Y421D02*
X3431Y421D01*
X3348Y420D02*
X3376Y420D01*
X3402Y420D02*
X3431Y420D01*
X3348Y419D02*
X3376Y419D01*
X3403Y419D02*
X3431Y419D01*
X3348Y418D02*
X3375Y418D01*
X3403Y418D02*
X3431Y418D01*
X3348Y417D02*
X3375Y417D01*
X3404Y417D02*
X3431Y417D01*
X3348Y416D02*
X3375Y416D01*
X3404Y416D02*
X3431Y416D01*
X3348Y415D02*
X3374Y415D01*
X3404Y415D02*
X3431Y415D01*
X3348Y414D02*
X3374Y414D01*
X3404Y414D02*
X3431Y414D01*
X3348Y413D02*
X3374Y413D01*
X3404Y413D02*
X3431Y413D01*
X3348Y412D02*
X3374Y412D01*
X3404Y412D02*
X3431Y412D01*
X3348Y411D02*
X3374Y411D01*
X3404Y411D02*
X3431Y411D01*
X3348Y410D02*
X3374Y410D01*
X3404Y410D02*
X3431Y410D01*
X3348Y409D02*
X3374Y409D01*
X3404Y409D02*
X3431Y409D01*
X3348Y408D02*
X3375Y408D01*
X3404Y408D02*
X3431Y408D01*
X3348Y407D02*
X3375Y407D01*
X3404Y407D02*
X3431Y407D01*
X3348Y406D02*
X3375Y406D01*
X3403Y406D02*
X3431Y406D01*
X3348Y405D02*
X3376Y405D01*
X3403Y405D02*
X3431Y405D01*
X3348Y404D02*
X3376Y404D01*
X3402Y404D02*
X3431Y404D01*
X3348Y403D02*
X3377Y403D01*
X3402Y403D02*
X3431Y403D01*
X3348Y402D02*
X3378Y402D01*
X3401Y402D02*
X3431Y402D01*
X3348Y401D02*
X3379Y401D01*
X3400Y401D02*
X3431Y401D01*
X3348Y400D02*
X3380Y400D01*
X3399Y400D02*
X3431Y400D01*
X3348Y399D02*
X3382Y399D01*
X3397Y399D02*
X3431Y399D01*
X3348Y398D02*
X3384Y398D01*
X3394Y398D02*
X3431Y398D01*
X3348Y397D02*
X3431Y397D01*
X3348Y396D02*
X3431Y396D01*
X3348Y395D02*
X3431Y395D01*
X3348Y394D02*
X3431Y394D01*
X3348Y393D02*
X3431Y393D01*
X3348Y392D02*
X3431Y392D01*
X3348Y391D02*
X3431Y391D01*
X3348Y390D02*
X3431Y390D01*
X3348Y389D02*
X3431Y389D01*
X3348Y388D02*
X3431Y388D01*
X3348Y387D02*
X3431Y387D01*
X3348Y386D02*
X3431Y386D01*
X3348Y385D02*
X3431Y385D01*
X3348Y384D02*
X3431Y384D01*
X3348Y383D02*
X3431Y383D01*
X3348Y382D02*
X3431Y382D01*
X3348Y381D02*
X3431Y381D01*
X3348Y380D02*
X3431Y380D01*
X3348Y379D02*
X3431Y379D01*
X3348Y378D02*
X3431Y378D01*
X3348Y377D02*
X3431Y377D01*
X3348Y376D02*
X3431Y376D01*
X3348Y375D02*
X3431Y375D01*
X3348Y374D02*
X3431Y374D01*
X3348Y373D02*
X3431Y373D01*
X3348Y372D02*
X3431Y372D01*
X3348Y371D02*
X3431Y371D01*
X3348Y370D02*
X3430Y370D01*
D02*
G04 End of Mask1*
M02*